<svg width="37" height="37" viewBox="0 0 37 37" fill="none" xmlns="http://www.w3.org/2000/svg">
<path d="M35.0333 11.8225C33.6495 8.53845 31.4644 5.47336 28.551 3.42997C25.5648 1.3136 21.9959 0.364884 18.3542 0.656797C14.7125 0.94871 11.1436 2.26232 8.0845 4.30571C5.38962 6.13017 2.76758 8.53845 1.60222 11.6035C-0.218645 16.3471 0.582536 23.2801 3.42309 27.5858C8.52151 35.3945 20.9034 40.284 28.6239 33.3511C31.3916 30.8698 34.305 27.2209 35.6888 23.7179C37.2184 19.7771 36.7085 15.6173 35.0333 11.8225Z" fill="#A3CBF7"/>
<path d="M35.0334 11.8225C34.9606 11.6035 34.8149 11.3846 34.7421 11.1656C34.8149 11.5305 34.8149 11.8954 34.8877 12.2603C35.1791 15.8363 34.7421 19.6311 33.431 22.9152C32.4842 25.4694 30.8818 27.7317 28.6968 29.3372C24.4724 32.4753 18.7913 32.6213 13.8385 31.2347C11.1436 30.5049 8.59441 29.2643 6.33654 27.6587C3.86016 25.9073 2.03929 23.6449 1.16528 20.7258C0.801104 19.5582 0.5826 18.3905 0.509766 17.1499C0.509766 20.8718 1.45662 24.8126 3.27748 27.5858C8.37591 35.3944 20.7578 40.284 28.4783 33.3511C31.246 30.8698 34.1594 27.2209 35.5432 23.7179C37.2184 19.7771 36.7086 15.6173 35.0334 11.8225Z" fill="#7DAFF8"/>
<path d="M11.872 18.6824C12.5558 18.6824 13.1102 18.029 13.1102 17.2229C13.1102 16.4168 12.5558 15.7633 11.872 15.7633C11.1881 15.7633 10.6338 16.4168 10.6338 17.2229C10.6338 18.029 11.1881 18.6824 11.872 18.6824Z" fill="black"/>
<path d="M25.6378 18.6824C26.3217 18.6824 26.876 18.029 26.876 17.2229C26.876 16.4168 26.3217 15.7633 25.6378 15.7633C24.954 15.7633 24.3997 16.4168 24.3997 17.2229C24.3997 18.029 24.954 18.6824 25.6378 18.6824Z" fill="black"/>
<path d="M13.7656 25.0315C13.4743 25.0315 13.183 24.8126 13.183 24.5207C13.1101 24.1558 13.4015 23.8639 13.6928 23.7909C17.1889 23.28 23.1613 23.7909 23.3798 23.7909C23.744 23.7909 23.9625 24.1558 23.9625 24.4477C23.9625 24.8126 23.5983 25.0315 23.307 25.0315C23.2341 25.0315 17.2617 24.5207 13.9113 25.0315H13.7656Z" fill="black"/>
<path d="M6.04516 10.8737C5.75382 10.8737 5.46248 10.6548 5.38965 10.2899C5.38965 9.92502 5.60815 9.6331 5.97233 9.6331C7.35618 9.56012 14.4211 9.56012 15.5137 9.6331C15.8778 9.6331 16.0963 9.92502 16.0963 10.2899C16.0963 10.6548 15.805 10.8737 15.4408 10.8737C14.4211 10.8008 7.35618 10.8008 6.04516 10.8737Z" fill="black"/>
<path d="M29.1338 10.8737C29.061 10.8737 29.061 10.8737 29.1338 10.8737C29.061 10.8737 22.9429 10.5089 20.1752 9.41418C19.8838 9.26823 19.6653 8.90334 19.811 8.61142C19.9567 8.31951 20.3209 8.10057 20.6122 8.24653C22.7244 9.12227 27.5315 9.56014 29.2067 9.63312C29.5709 9.63312 29.7894 9.92503 29.7894 10.2899C29.7165 10.6548 29.4252 10.8737 29.1338 10.8737Z" fill="black"/>
</svg>
