<svg width="37" height="37" viewBox="0 0 37 37" fill="none" xmlns="http://www.w3.org/2000/svg">
<path d="M36.0532 13.7929C35.6162 11.5306 34.0138 9.63316 32.5571 7.95466C27.9685 2.7732 20.4666 -0.5838 13.6201 1.97044C13.0374 2.18938 12.4548 2.48129 11.9449 2.7732H11.8721L11.7993 2.84618C10.6339 3.50299 9.10437 4.30575 8.08469 5.18149C5.97248 7.07892 4.00595 9.34125 2.62209 11.8225C-0.582635 16.6391 1.45674 24.5937 4.51579 28.9724C8.37603 34.5188 16.0965 37.8028 22.7973 35.9054C23.9626 35.5405 25.0552 35.0296 26.1477 34.4458C31.8288 31.5996 34.6693 27.6588 35.689 21.6016C36.0532 19.1203 36.4902 16.2742 36.0532 13.7929Z" fill="#B1B0F8"/>
<path d="M36.1259 17.3688C35.6889 20.142 35.0334 23.1341 33.5767 25.6154C32.1929 27.8777 30.1535 29.6292 27.8228 30.8698C23.0157 33.3511 17.1161 33.4241 12.1633 31.3077C9.83262 30.286 7.72042 28.7534 6.19089 26.71C4.66136 24.5937 3.56884 22.1854 2.76766 19.7041C2.25782 17.9527 1.74798 15.8363 1.67514 13.7199C-0.145726 18.5365 1.74798 25.1045 4.44286 29.0454C8.30309 34.5917 16.0236 37.8757 22.7244 35.9783C23.8897 35.6134 24.9822 35.1026 26.0747 34.5187C31.7558 31.6726 34.5964 27.7317 35.6161 21.6745C35.8346 20.142 36.1259 18.4635 36.1988 16.785C36.1988 16.931 36.1988 17.1499 36.1259 17.3688Z" fill="#7F7FEC"/>
<path d="M13.9114 16.4201C14.0571 16.2012 14.1299 15.8363 14.2028 15.5444C14.2028 14.6687 13.6201 13.9389 12.8918 13.8659C12.0906 13.8659 11.4351 14.5227 11.4351 15.3985C11.4351 15.8363 11.5807 16.2012 11.7992 16.5661C12.3819 16.3472 13.2559 16.4201 13.9114 16.4201Z" fill="black"/>
<path d="M21.3406 23.645C21.0492 23.645 20.7579 23.4261 20.7579 23.1341C20.6122 21.9665 19.9567 20.5799 18.7913 20.5069C17.626 20.4339 16.8248 21.7476 16.5335 22.9882C16.4606 23.2801 16.0965 23.499 15.8051 23.4261C15.5138 23.3531 15.2953 22.9882 15.3681 22.6963C15.8051 21.0178 17.0433 19.1933 18.8642 19.3393C20.7579 19.4852 21.7047 21.3827 21.9232 22.9882C21.9961 23.3531 21.7776 23.645 21.4134 23.718C21.4134 23.645 21.3406 23.645 21.3406 23.645Z" fill="#4A4AE1"/>
<path d="M10.8524 17.8797C10.561 17.8797 10.3425 17.7337 10.2697 17.4418C10.1968 17.1499 10.3425 16.785 10.7067 16.712C11.2165 16.5661 11.7264 16.4931 12.2362 16.4201C12.6004 16.4201 12.8917 16.639 12.8917 16.931C12.8917 17.2958 12.6732 17.5878 12.3819 17.5878L11.0709 17.8067C10.998 17.8797 10.9252 17.8797 10.8524 17.8797Z" fill="black"/>
<path d="M4.58843 25.1775H4.44277C4.07859 25.1045 3.93292 24.7396 4.00576 24.4477C4.22426 23.572 4.5156 22.6962 4.87977 21.9664C5.02544 21.6745 5.38962 21.5286 5.68095 21.6745C5.97229 21.8205 6.11796 22.1854 5.97229 22.4773C5.68095 23.2071 5.38962 23.9369 5.17111 24.7396C5.09828 24.9586 4.87977 25.1775 4.58843 25.1775ZM6.77347 20.6528C6.62781 20.6528 6.48214 20.5799 6.4093 20.5069C6.11796 20.2879 6.11796 19.9231 6.33647 19.6311C6.91914 18.9014 7.57466 18.3175 8.303 17.8067C8.59434 17.5877 8.95852 17.6607 9.17702 17.9526C9.39552 18.2446 9.32269 18.6094 9.03135 18.8284C8.37584 19.2662 7.79316 19.7771 7.28332 20.4339C7.06481 20.5799 6.91914 20.6528 6.77347 20.6528Z" fill="black"/>
<path d="M4.22428 29.1184C3.93294 29.1184 3.6416 28.8264 3.6416 28.5345V27.002C3.6416 26.6371 3.93294 26.4182 4.29711 26.4182C4.66129 26.4182 4.87979 26.7101 4.87979 27.075V28.4615C4.87979 28.8264 4.58845 29.1184 4.22428 29.1184C4.29711 29.1184 4.22428 29.1184 4.22428 29.1184Z" fill="black"/>
<path d="M23.3797 16.4201C23.234 16.2012 23.1612 15.8363 23.0884 15.5444C23.0884 14.6687 23.6711 13.9389 24.3994 13.8659C25.2006 13.8659 25.8561 14.5227 25.8561 15.3985C25.8561 15.8363 25.7104 16.2012 25.4919 16.5661C24.9092 16.3472 24.0352 16.4201 23.3797 16.4201Z" fill="black"/>
<path d="M26.439 17.8797H26.2933C25.8563 17.7337 25.4193 17.6608 24.9823 17.6608C24.6181 17.6608 24.3996 17.2959 24.4725 17.004C24.4725 16.6391 24.8366 16.4201 25.128 16.4931C25.6378 16.5661 26.1477 16.6391 26.6575 16.785C26.9488 16.858 27.1673 17.2229 27.0945 17.5148C26.9488 17.7337 26.7303 17.8797 26.439 17.8797Z" fill="black"/>
<path d="M32.7026 25.1775C32.4113 25.1775 32.1928 24.9586 32.1199 24.7397C31.9014 23.9369 31.6829 23.2071 31.3188 22.4774C31.1731 22.1854 31.3188 21.8205 31.6101 21.6746C31.9014 21.5286 32.2656 21.6746 32.4113 21.9665C32.7754 22.7693 33.0668 23.572 33.2853 24.4478C33.3581 24.8127 33.1396 25.1046 32.8483 25.1775H32.7026ZM30.5904 20.6529C30.4447 20.6529 30.2262 20.5799 30.0806 20.434C29.5707 19.7772 28.988 19.2663 28.3325 18.8284C28.0412 18.6095 27.9684 18.2446 28.1869 17.9527C28.4054 17.6608 28.7695 17.5878 29.0609 17.8067C29.7892 18.3176 30.4447 18.9014 31.0274 19.6312C31.2459 19.9231 31.1731 20.288 30.9546 20.5069C30.8089 20.5799 30.7361 20.6529 30.5904 20.6529Z" fill="black"/>
<path d="M33.0671 29.1184C32.7029 29.1184 32.4115 28.8264 32.4844 28.4615V27.075C32.4844 26.7101 32.7029 26.4182 33.0671 26.4182C33.4312 26.4182 33.7226 26.6371 33.7226 27.002V28.5345C33.6497 28.8994 33.3584 29.1184 33.0671 29.1184Z" fill="black"/>
<path d="M9.90547 13.501C9.61413 13.501 9.39563 13.2821 9.32279 12.9901C9.24996 12.6252 9.46846 12.3333 9.83264 12.2604C11.7992 11.8955 14.6397 9.48718 15.3681 7.66272C15.5137 7.37081 15.8779 7.22485 16.1693 7.29783C16.4606 7.44379 16.6063 7.80868 16.5334 8.10059C15.6594 10.3629 12.4547 12.9901 10.0511 13.428C9.9783 13.428 9.97831 13.501 9.90547 13.501Z" fill="black"/>
<path d="M28.9152 13.501H28.7695C26.366 13.0632 23.1613 10.363 22.2873 8.17363C22.1416 7.88172 22.2873 7.51683 22.6514 7.37087C22.9428 7.22492 23.307 7.37087 23.4526 7.73576C24.181 9.56022 27.0215 11.9685 28.988 12.3334C29.3522 12.4064 29.5707 12.6983 29.4979 13.0632C29.4979 13.2821 29.2066 13.501 28.9152 13.501Z" fill="black"/>
</svg>
