<svg width="38" height="37" viewBox="0 0 38 37" fill="none" xmlns="http://www.w3.org/2000/svg">
<path d="M34.8107 11.8225C33.862 9.99804 32.5484 8.31954 31.3078 6.64104C27.8778 2.26234 21.5287 -0.0729682 15.9823 0.656815C0.146044 2.91914 -5.32733 26.4182 9.19536 34.2998C12.6253 36.1973 16.5662 36.4892 20.434 36.1972C27.7318 35.6134 34.6648 29.5562 36.1973 22.3314C36.9271 18.8284 36.4163 15.0335 34.8107 11.8225Z" fill="#F0D05B"/>
<path d="M24.156 21.1637C23.4262 29.9941 12.7713 28.2426 13.0633 21.1637C15.1796 23.2801 21.1639 22.9882 24.156 21.1637Z" fill="#F8FAFB"/>
<path d="M36.0512 15.2524C36.0512 16.2012 36.0512 17.1499 35.9783 18.0986C35.6863 21.0907 34.9566 24.0828 33.0591 26.4181C31.4536 28.4615 29.1913 29.9211 26.856 30.9428C21.8934 33.1321 15.8363 33.57 10.6548 31.6726C8.24651 30.7968 6.13014 29.3373 4.59759 27.2939C2.91909 25.0315 2.04335 22.1854 1.60548 19.4852C1.38654 18.0986 1.24059 16.712 1.24059 15.3984C-0.364935 22.4043 1.89739 30.359 9.19522 34.2998C12.6252 36.1972 16.566 36.4891 20.4339 36.1972C27.7317 35.6134 34.6647 29.5562 36.1972 22.3313C36.708 19.996 36.6351 17.5148 36.0512 15.2524Z" fill="#ECB03B"/>
<path d="M15.0336 10.8738C14.8147 8.46551 12.9902 8.46551 12.3334 9.12232C11.2387 10.144 11.3847 10.6549 10.9468 10.6549C10.5819 10.6549 10.6549 10.144 9.56022 9.12232C8.90342 8.46551 7.07896 8.46551 6.86002 10.8738C6.64109 13.2091 9.77915 16.1282 10.9468 16.1282C12.1145 16.1282 15.2525 13.2091 15.0336 10.8738Z" fill="black"/>
<path d="M30.359 10.8738C30.1401 8.46551 28.3156 8.46551 27.6588 9.12232C26.5642 10.144 26.7101 10.6549 26.2722 10.6549C25.8344 10.6549 25.9803 10.144 24.8857 9.12232C24.2289 8.46551 22.4044 8.46551 22.1855 10.8738C21.9665 13.2091 25.1046 16.1282 26.2722 16.1282C27.4399 16.1282 30.578 13.2091 30.359 10.8738Z" fill="black"/>
<path d="M18.6825 27.8047H18.3176C15.3985 27.5858 12.3334 25.2505 12.4794 21.1637C12.4794 20.9448 12.6253 20.7258 12.8443 20.5799C13.0632 20.5069 13.3551 20.5799 13.5011 20.7258C15.1796 22.4773 20.8719 22.4043 23.791 20.6529C24.01 20.5069 24.2289 20.5069 24.4478 20.6529C24.6668 20.7988 24.7397 21.0178 24.7397 21.2367C24.4478 25.8343 21.5287 27.8047 18.6825 27.8047ZM13.793 22.4043C14.2309 24.9586 16.3472 26.4181 18.3906 26.5641C20.361 26.7101 22.6963 25.6154 23.3531 22.2584C20.507 23.499 16.2743 23.645 13.793 22.4043Z" fill="#DD8F28"/>
</svg>
