<svg width="140" height="163" viewBox="0 0 140 163" fill="none" xmlns="http://www.w3.org/2000/svg">
<g clip-path="url(#clip0)">
<path d="M67.2859 106.819C67.1316 105.246 64.8849 105.649 64.6759 107.025C63.6917 113.996 61.1833 119.869 56.2532 124.946C55.5297 125.676 55.2084 127.09 56.0899 127.866C61.8579 133.012 59.7366 144.567 60.0012 151.652C60.0218 152.072 60.5583 152.322 60.8231 151.918C65.1184 145.198 65.7947 133.1 60.4614 126.481C65.2795 121.045 67.9943 114.237 67.2859 106.819Z" fill="#231F20"/>
<path d="M84.1569 36.244C72.7293 36.6184 62.1289 42.6776 54.1171 50.4894C49.6678 54.8441 46.1571 60.1322 43.166 65.5816C26.8275 95.5044 55.5398 120.765 86.5843 113.756C104.916 109.627 119.681 97.2148 122.543 77.926C125.841 55.9525 106.262 35.5194 84.1569 36.244Z" fill="#E40000"/>
<path d="M52.9863 58.5096C52.6411 58.7766 52.8714 59.3842 53.2897 59.3855C64.8477 59.4369 74.8948 62.4875 80.5632 73.3547C82.9897 78.0056 83.8732 83.4733 84.2006 88.6457C84.4723 92.8457 83.2269 97.0051 83.6998 101.15C83.7277 101.438 84.1022 101.437 84.2449 101.247C91.0229 92.2648 86.7921 75.3768 81.1411 66.9555C75.8387 58.9941 61.6027 51.7007 52.9863 58.5096Z" fill="white"/>
<path d="M72.9794 47.1166C72.4866 47.2652 72.4523 47.88 72.9242 48.1046C77.0018 50.0065 81.0847 50.6312 84.9926 53.2064C89.1138 55.9037 92.0503 60.0986 94.3672 64.3469C96.544 68.3451 97.8474 72.6029 98.6105 77.0727C99.5915 82.7661 97.9419 88.2465 98.1313 93.9177C98.1482 94.4032 98.7104 94.5888 98.9959 94.2083C106.046 85.0872 102.796 71.9324 97.8144 62.5573C93.773 54.8866 82.5957 44.0859 72.9794 47.1166Z" fill="white"/>
<path d="M93.9876 44.3483C93.812 44.3385 93.69 44.5519 93.8143 44.691C95.7967 46.652 98.1964 47.8434 100.462 49.4678C105.269 52.8862 107.739 57.958 109.234 63.504C111.316 71.1752 108.185 78.3348 109.218 85.8593C109.268 86.1484 109.699 86.3047 109.888 86.073C115.615 79.7413 114.33 68.4584 112.2 60.8725C110.095 53.2221 102.288 44.7683 93.9876 44.3483Z" fill="white"/>
<path d="M91.1211 66.0817C91.0785 66.0573 91.0102 66.0975 91.0284 66.1646C92.8006 69.127 94.0107 71.9038 94.501 75.3452C95.0009 79.0074 94.3349 82.6485 94.3068 86.3032C94.297 86.4788 94.5787 86.5607 94.6336 86.3655C96.4871 80.39 96.609 70.331 91.1211 66.0817Z" fill="white"/>
<path d="M101.152 54.0657C101.043 54.0376 100.97 54.1656 101.076 54.2376C105.953 58.3868 106.825 64.4486 107.545 70.4798C107.56 70.6128 107.779 70.6251 107.808 70.4946C108.769 65.5264 106.942 55.6668 101.152 54.0657Z" fill="white"/>
<path d="M94.4428 87.8085C94.4002 87.7841 94.3575 87.7597 94.3148 87.7353C94.2941 87.7121 94.2502 87.7097 94.2258 87.7523C94.122 88.0329 94.0061 88.1365 93.9877 88.4659C93.9375 88.9697 93.6483 89.416 93.8189 89.9101C93.8371 89.9772 93.9213 90.048 93.9908 89.9858C94.6044 89.6457 94.7486 88.6406 94.6513 88.0184C94.633 87.9513 94.5514 87.8366 94.4428 87.8085Z" fill="white"/>
<path d="M115.629 64.5223C115.589 64.4539 115.477 64.4917 115.494 64.5808C115.898 67.2024 116.179 69.663 115.964 72.3161C115.789 74.6631 115.242 76.9672 115.066 79.3361C115.058 79.4679 115.255 79.5009 115.306 79.3716C116.95 75.1685 118.176 68.6072 115.629 64.5223Z" fill="white"/>
<path d="M72.9778 54.2308C76.3568 55.6311 78.9687 56.9665 81.3617 59.8535C83.4244 62.3476 84.5965 65.4086 85.9541 68.3038C86.0333 68.4624 86.259 68.3649 86.2456 68.2099C85.5988 62.4471 79.6968 53.395 72.9852 54.099C72.9193 54.0954 72.9352 54.2064 72.9778 54.2308Z" fill="white"/>
<path d="M93.5975 50.9343C94.5947 52.0032 95.3601 53.2794 96.1512 54.491C96.2109 54.6045 96.3902 54.5485 96.3756 54.4155C96.1103 52.8588 95.1668 51.6167 94.1074 50.4782C93.1114 49.3873 91.8117 48.2134 90.3081 47.9311C90.2215 47.9042 90.1495 48.0103 90.2336 48.0811C91.4151 49.0062 92.5795 49.8422 93.5975 50.9343Z" fill="white"/>
<path d="M73.7314 51.3876C73.8643 51.373 73.8949 51.2205 73.7656 51.1692C71.4634 50.2035 68.3279 49.9622 66.0176 51.1105C65.9493 51.1508 65.9651 51.2618 66.0529 51.2667C68.5774 51.4078 71.2166 51.4672 73.7314 51.3876Z" fill="white"/>
<path d="M75.5411 72.1929C77.0923 75.9579 78.2046 79.302 78.5044 83.3935C78.7581 86.7336 78.2618 90.0978 78.2081 93.4207C78.1971 93.6183 78.48 93.6782 78.5569 93.4842C80.6897 87.238 80.6385 77.1253 75.701 72.0917C75.6168 72.0209 75.5022 72.1026 75.5411 72.1929Z" fill="white"/>
<path d="M97.221 146.839C96.019 141.948 96.6063 136.562 97.3862 131.672C97.4937 130.929 96.8648 129.969 96.1245 129.818C85.6869 127.45 83.5807 120.614 81.4205 111.199C81.0491 109.57 78.3136 109.66 78.3898 111.448C78.8202 121.868 83.4017 130.12 93.4598 132.973C91.9634 143.197 92.6524 157.266 103.921 161.31C104.31 161.442 104.798 160.984 104.534 160.595C101.526 156.088 98.5509 152.199 97.221 146.839Z" fill="#231F20"/>
<path d="M114.728 122.796C115.054 121.295 114.278 120.216 112.796 119.935C109.31 119.278 105.818 119.897 102.527 118.105C97.9955 115.65 96.7863 110.494 95.8318 105.903C95.4154 103.898 92.665 104.647 92.8228 106.55C93.2734 111.884 94.5781 116.119 98.2537 120.091C101.598 123.692 105.881 123.491 110.215 123.954C109.294 132.558 111.955 146.011 121.951 146.437C122.302 146.457 122.656 146.036 122.433 145.693C117.451 138.3 112.605 132.413 114.728 122.796Z" fill="#231F20"/>
<path d="M132.651 129.128C125.459 123.462 122.684 117.162 123.712 107.836C123.842 106.698 122.751 105.338 121.557 105.425C115.677 105.823 111.19 103.37 107.567 98.8502C106.373 97.3519 104.296 99.0639 104.956 100.643C107.402 106.528 112.926 109.722 119.01 110.018C118.893 118.404 121.928 133.044 132.513 130.024C132.894 129.913 132.988 129.411 132.651 129.128Z" fill="#231F20"/>
<path d="M107.544 10.6138C93.2357 1.86267 77.2974 14.3854 69.6355 25.7849C61.9505 37.2052 58.0829 51.6362 58.7109 65.6136C57.8049 65.2766 56.8964 64.9835 55.9635 64.7331C56.07 63.6158 56.1716 62.5862 56.2646 61.7104C58.1942 44.1316 57.049 20.1035 42.1415 7.88288C36.7086 3.43834 28.2158 -1.02308 21.0911 1.9486C14.0787 4.88249 11.0503 12.1799 9.58062 19.1681C7.87644 27.2003 8.59803 35.1699 11.0052 42.9254C13.9569 52.3632 18.8947 63.2997 27.0881 69.5725C22.0464 72.7047 18.0178 77.0168 15.8524 82.2701C13.7383 87.394 13.1045 93.2174 15.3465 98.8051C16.8343 102.523 19.4883 105.468 22.8182 107.747C24.3517 106.313 25.8852 104.879 27.6248 103.698C27.8309 103.556 28.1272 103.771 27.982 104.005C26.1834 106.635 17.8707 113.527 16.9423 114.378C11.7952 119.002 6.73102 123.719 1.81314 128.576C0.881051 129.493 2.18302 131.02 3.28813 130.553C15.9006 125.135 28.2596 119.13 40.8537 113.645C48.3478 114.306 55.8487 113.271 61.0254 110.874C66.9487 108.121 70.7774 103.446 72.6441 98.0214C74.2459 93.3974 74.4026 88.2302 73.225 83.2966C89.6315 78.1567 104.714 64.7932 111.895 49.7766C117.336 38.319 120.212 18.3922 107.544 10.6138ZM11.5355 26.3476C11.7964 19.7104 13.465 12.3149 18.0829 7.30891C24.0368 0.857794 33.5139 5.04384 39.3505 9.35677C52.3979 19.0066 54.1227 38.5737 53.8674 53.3828C53.8152 56.2873 53.8784 60.2775 53.5026 64.2431C52.0623 64.0085 50.6172 63.8616 49.1232 63.8001C45.4962 63.6855 41.8629 64.0771 38.3368 64.9152C37.9616 63.7489 37.5863 62.5825 37.277 61.4199C37.059 60.5928 36.841 59.7656 36.623 58.9385C41.3815 52.9932 46.1274 44.5143 46.1656 36.7413C46.1705 36.6535 46.018 36.6229 45.9912 36.7095C44.2359 44.4746 41.2087 51.7501 36.3842 58.0882C35.3344 54.0208 34.3504 49.9571 33.4116 45.8739C33.436 45.8312 33.4811 45.8117 33.4836 45.7678C35.3144 41.7733 36.7147 37.6006 37.8114 33.3449C38.7713 29.5661 39.8266 25.264 39.4511 21.3444C39.4341 21.2554 39.3024 21.248 39.2975 21.3358C38.3765 25.2049 38.0214 29.1938 37.0334 33.0812C36.021 37.0112 34.7049 40.8582 33.1096 44.5795C33.0925 44.4905 33.0548 44.3782 33.0377 44.2892C31.9211 39.4471 30.7593 34.6246 29.5988 29.7802C29.6671 29.7399 29.7134 29.6985 29.7403 29.6119C31.9815 23.7902 33.8829 16.9584 33.618 10.6662C33.6229 10.5784 33.4924 10.5491 33.4656 10.6357C31.9389 16.6735 31.4258 22.7019 29.3126 28.5968C27.8232 22.5446 26.3118 16.4911 24.7102 10.4766C24.6932 10.3876 24.5383 10.401 24.5334 10.4888C24.612 15.7794 26.2931 21.1595 27.6389 26.2346C28.4915 29.498 29.2782 32.7578 30.0417 36.0382C24.8248 31.2754 21.4999 25.3628 18.1921 19.1428C18.1519 19.0745 18.0616 19.1135 18.0799 19.1806C19.8934 26.132 24.9584 32.8246 30.3583 37.4656C30.888 39.8079 31.4164 42.1722 31.9461 44.5145C32.2116 45.6747 32.4782 46.8129 32.7437 47.9731C25.9538 45.7433 20.7853 42.0845 15.9077 36.7679C15.8248 36.6752 15.665 36.7764 15.7247 36.8898C19.4946 43.1136 26.2498 46.751 33.0032 48.8466C33.5731 51.2572 34.1662 53.6471 34.8031 56.0395C29.7482 55.4706 25.1719 53.0342 21.3485 49.7369C21.2851 49.6893 21.2143 49.7734 21.2558 49.8198C23.5495 54.0889 30.3796 56.3869 35.0212 56.8666C35.7678 59.6616 36.5607 62.4151 37.3976 65.171C34.424 65.9739 31.5661 67.0696 28.9532 68.5094C18.7837 56.6197 10.8968 42.5008 11.5355 26.3476ZM108.739 48.7191C102.418 63.3213 87.4862 74.7769 72.1981 80.0014C71.3562 77.7298 70.2459 75.5312 68.8392 73.5143C69.8667 71.6775 70.9162 69.842 71.9865 68.0296C72.1085 67.8162 72.2525 67.604 72.3745 67.3905C73.0099 67.4481 73.7283 67.2019 74.3504 67.1045C76.4177 66.7575 78.4692 66.2996 80.5 65.8184C84.6079 64.8146 89.6208 63.7733 93.1097 61.2371C93.156 61.1956 93.117 61.1053 93.0499 61.1236C88.7749 62.3604 84.6387 63.8692 80.2893 64.8595C78.4598 65.2858 76.612 65.6451 74.7861 66.0056C74.2958 66.1103 73.6787 66.1199 73.0786 66.2185C74.9494 63.0853 76.8835 59.9997 78.8384 56.9372C87.8226 54.9726 98.9534 52.4231 105.214 45.2182C105.308 45.1133 105.182 44.9961 105.089 45.0791C97.2612 50.7867 88.8609 53.7311 79.5376 55.853C80.5504 54.2797 81.5632 52.7064 82.5748 51.1551C84.3808 48.3927 86.2514 45.6559 88.122 42.9192C92.0126 42.6521 96.5321 39.7991 99.7598 37.9972C103.419 35.9551 108.08 33.3303 110.355 29.669C110.402 29.6056 110.318 29.5348 110.249 29.597C106.828 32.4894 103.255 34.9548 99.3015 37.1346C97.3474 38.2148 95.3555 39.1827 93.3453 40.0835C91.945 40.71 90.4252 41.1097 89.0066 41.6691C94.3524 33.8845 99.764 26.1035 104.167 17.8477C104.24 17.7197 104.071 17.6001 103.976 17.7269C97.5004 26.4175 91.5053 35.5755 85.5358 44.6688C86.732 35.0884 89.0757 25.8585 91.1231 16.4137C91.1499 16.3271 91.0414 16.299 90.9938 16.3625C87.172 25.6419 85.3412 36.3322 84.4303 46.325C83.4919 47.7483 82.5768 49.1508 81.6384 50.5741C80.3876 52.4645 79.1564 54.4 77.9264 56.3136C77.8349 56.3745 77.808 56.4611 77.7812 56.5477C77.7079 56.6758 77.6128 56.8026 77.5395 56.9307C77.3569 52.7136 76.451 48.434 76.3586 44.1778C76.2484 38.6652 76.8796 33.2822 77.6462 27.8406C77.6524 27.7308 77.478 27.6991 77.4499 27.8076C75.8784 33.072 75.5654 38.6711 75.5684 44.1337C75.5717 48.4068 75.4967 53.6888 76.9148 57.8649C75.1051 60.6932 73.3613 63.5251 71.6151 66.401C71.0846 62.8913 70.487 59.3998 70.1114 55.8767C69.6629 51.6888 69.8461 47.6242 69.728 43.4327C69.7317 43.3669 69.6451 43.34 69.6195 43.4047C68.4475 46.643 68.823 50.5626 69.0974 53.9258C69.4592 58.4833 70.0393 63.0751 70.9122 67.5511C69.9884 69.1073 68.9512 70.7233 67.9566 72.3637C66.1659 70.1271 64.0615 68.3795 61.7338 67.0821C61.672 55.5812 63.7529 44.3542 69.0632 33.6602C75.4255 20.6903 87.7563 8.09802 103.346 12.4496C118.047 16.5532 113.038 38.7835 108.739 48.7191Z" fill="#231F20"/>
<path d="M37.1386 87.1383C36.523 82.7869 32.403 80.0676 28.2772 79.815C24.0636 79.5574 20.1844 82.3801 19.3999 86.5652C19.3388 86.8702 19.2997 87.1763 19.2825 87.4837C18.8219 89.8147 19.2308 92.3485 20.7008 94.413C22.9437 97.622 27.0996 98.9116 30.8149 97.8418C27.6836 99.4949 23.9385 98.7349 20.5878 96.8296C20.5024 96.7807 20.3865 96.8844 20.4694 96.9771C24.0741 101.43 30.614 100.253 34.2545 96.5803C35.4904 95.3499 36.3288 93.7448 36.7539 92.0506C37.2581 90.5149 37.3746 88.8255 37.1386 87.1383Z" fill="white"/>
<path d="M63.6019 94.7187C61.6412 97.098 58.4383 98.0643 55.2185 98.1486C55.6637 98.0634 56.0894 97.933 56.5382 97.7819C70.0652 92.9435 65.242 71.6833 49.9672 73.5166C41.9201 74.4764 38.4101 81.3285 39.7751 87.2416C39.9638 91.7454 42.6101 95.6157 46.5327 97.9274C49.9237 99.9011 54.1288 99.9159 57.8354 98.9998C59.9126 98.4771 63.1998 97.1851 63.7946 94.8176C63.802 94.6858 63.6727 94.6346 63.6019 94.7187Z" fill="white"/>
</g>
<defs>
<clipPath id="clip0">
<rect width="131.193" height="155.743" fill="white" transform="translate(8.69238) rotate(3.19951)"/>
</clipPath>
</defs>
</svg>
