<svg width="375" height="140" viewBox="0 0 375 140" fill="none" xmlns="http://www.w3.org/2000/svg">
<path d="M372.335 64.4451C369.486 55.1321 364.089 47.6516 357.432 41.5831C329.485 16.0474 270.354 -2.63874 165.614 0.305375C127.203 1.38689 86.9023 4.78164 49.6603 14.8457C11.2788 25.2102 -13.0395 54.1107 7.44063 101.457C10.6491 108.847 15.9865 116.147 22.6433 122.276C48.4908 145.979 73.8586 143.245 106.243 125.22C146.454 102.839 279.08 55.1021 356.022 75.8611C372.484 80.2773 377.822 82.4103 372.335 64.4451Z" fill="#231F20"/>
<path d="M71.8497 102.689C70.5303 107.556 66.9021 115.637 61.7445 117.56C61.6246 117.59 57.8165 118.701 56.617 118.972C56.617 118.972 55.6575 119.182 55.4176 119.242C45.7623 121.435 40.2449 110.47 36.8566 102.839C29.4202 85.565 23.3031 64.6858 20.0347 44.0469L20.0047 43.9268C19.9147 43.5663 20.2146 43.1156 20.5444 42.9053C23.3931 42.0041 33.1683 39.1501 36.047 38.4892C36.1669 38.4591 37.2464 38.2188 37.6062 38.1286C37.8461 38.0686 38.9256 37.8282 39.2854 37.7381C41.8342 47.9824 47.4415 90.2215 54.3381 90.4318L54.638 90.6121C59.1358 91.3631 61.5946 83.1917 57.9664 68.2308C57.6665 66.9089 56.707 60.3898 56.4071 59.0379L56.707 58.7074L72.4794 55.4028C72.8392 55.3127 73.319 55.7333 73.259 56.0037C75.6279 65.8875 78.9263 83.9728 86.5426 86.7066C86.5426 86.7066 86.6625 86.6766 86.7825 86.6465C92.5397 84.5736 85.0433 51.2871 81.9248 33.0515C81.2651 29.6267 82.5845 28.0646 85.4331 26.6526C87.5321 25.8114 94.2189 25.0303 96.2579 24.5797C96.8576 24.4295 97.3674 24.4595 97.8471 24.3393C99.6163 24.3093 101.715 25.1204 102.165 27.1933C113.35 76.8228 107.622 96.951 100.186 106.264C97.9071 109.058 94.6986 110.68 91.5802 111.401C88.0718 112.182 84.8934 112.152 81.535 110.74C77.7568 109.178 75.328 105.783 72.6293 102.719C72.4494 102.509 72.3294 102.539 72.0896 102.599L71.8497 102.689Z" fill="white"/>
<path d="M110.831 47.682C110.471 46.24 110.231 44.798 109.931 43.4761C108.462 38.5192 107.023 32.9314 106.183 27.9744C106.093 27.4637 105.823 25.8114 106.543 25.6912L125.404 22.5368L130.171 51.0467L130.411 51.227C130.501 51.1969 132.36 50.8965 133.08 50.7763C134.01 50.6261 136.798 50.1455 137.008 50.1154C137.638 50.0253 139.047 49.5747 139.047 49.5747L139.227 49.3343C139.167 49.0339 138.507 45.0083 138.268 43.5362C137.278 37.648 136.109 31.9099 135.119 25.9015C134.939 24.8801 134.549 22.5068 134.549 22.3866L135.179 21.6356C135.179 21.6356 137.008 21.215 137.848 21.0948C142.076 20.3738 146.723 19.7129 150.981 19.2021C151.731 19.1721 153.17 18.9318 153.38 20.1935L154.76 29.086L154.88 30.4379L164.265 78.9858L164.295 79.076L164.325 79.1661C164.355 80.0072 164.595 82.6209 164.505 82.7411C164.595 87.7281 158.088 88.6894 154.16 89.3503C153.86 89.4104 153.53 89.4405 153.35 89.5005C152.84 89.5907 151.071 89.8911 150.682 89.9512C150.592 89.9812 150.472 89.8911 150.352 89.8911C150.262 89.9211 150.262 89.9211 150.142 89.9211C148.972 89.8911 146.933 89.831 146.693 88.389C146.304 86.1058 146.214 83.7024 145.824 81.2991C145.764 80.9986 145.614 79.9472 145.554 79.7369C144.954 76.7627 142.346 65.6171 142.256 65.6472L141.986 65.2566C141.986 65.2566 140.966 65.4369 140.636 65.4669C138.268 65.8574 136.618 66.248 134.279 66.7587C133.86 66.8188 133.71 67.1793 133.77 67.4797C133.95 68.6213 134.729 73.7885 134.909 74.9301C135.509 78.5352 136.348 82.2304 136.948 85.8354C137.548 89.3503 134.219 91.0627 131.341 91.6636C130.831 91.7537 126.933 92.6249 126.543 92.7751C125.224 93.1056 124.024 93.6163 122.795 93.8266C121.656 94.0068 120.066 93.9768 119.347 92.8052C117.038 77.7541 113.979 62.6429 110.831 47.682Z" fill="white"/>
<path d="M165.464 53.4801C165.434 53.2097 165.344 52.4287 165.344 52.3385C165.074 47.5618 165.015 42.695 165.074 37.7982C165.134 37.4377 165.254 36.0858 165.224 35.9055C165.374 35.545 166.274 31.6095 166.574 30.3478C166.574 30.2576 166.724 30.0774 166.694 29.9873C170.352 22.5368 176.679 17.1293 186.244 18.6614C186.334 18.6614 186.424 18.7215 186.514 18.7215C187.714 18.9618 188.973 19.2622 190.112 19.833C193.051 21.6356 194.91 24.7299 196.559 27.7341C199.708 33.8026 199.738 41.3431 200.637 47.9223C200.787 48.3429 201.177 51.227 201.207 51.4973C201.237 51.8579 201.687 55.9736 201.867 57.4757C202.047 58.9778 202.436 62.7331 202.466 63.0034C202.616 64.3253 203.036 70.7543 203.126 72.1663C203.246 74.2091 201.537 76.1619 199.498 76.4022C198.958 76.4623 200.967 76.0717 194.52 76.3121C194.52 76.3121 193.711 76.1318 193.411 75.9816C191.852 75.4409 191.642 75.2005 191.042 73.7585C190.982 73.1577 190.502 70.514 190.352 70.0032C190.322 69.7329 190.112 68.6814 190.082 68.4411C189.962 68.2007 189.693 68.2308 189.603 68.2308C189.513 68.2308 189.273 68.3509 189.183 68.381C188.913 68.411 181.896 69.1921 181.656 69.2822C181.387 69.3123 181.507 69.6427 181.537 69.7329C181.537 69.823 181.596 70.1835 181.596 70.1835C181.806 71.3251 182.376 74.81 182.496 75.0503C182.526 75.2306 183.096 76.4022 183.096 76.4923C183.096 76.5825 183.126 76.943 183.156 77.003C183.216 77.5438 183.156 77.724 182.646 77.9644C181.147 78.1146 177.788 79.106 176.229 79.2862C176.049 79.3163 173.86 79.5566 173.081 79.6467C172.631 79.7068 170.442 79.9472 170.022 79.9772C169.212 79.797 169.033 79.106 168.883 78.415C167.983 70.0032 166.394 61.8318 165.464 53.4801ZM180.877 56.3942C180.877 56.3942 183.426 56.3041 183.516 56.274C183.695 56.244 187.384 55.8534 187.474 55.8534C187.504 55.2226 187.324 51.948 187.234 51.257C187.234 51.257 187.204 50.8965 187.174 50.8064C186.994 49.2142 186.424 47.3215 186.274 45.7593C185.884 43.1457 185.794 40.562 184.985 37.9784C184.115 32.3906 182.406 30.6181 181.027 31.1288C179.677 31.6396 178.538 34.3433 178.598 38.1587C178.508 38.8797 178.358 40.7723 178.388 40.9526C178.328 42.8152 178.448 44.7679 178.658 46.6906C179.018 49.845 179.378 53.2698 180.247 56.3041C180.457 56.4543 180.637 56.4242 180.877 56.3942Z" fill="white"/>
<path d="M205.105 50.2055C205.075 49.9652 205.045 49.3043 205.045 49.2442C205.045 45.2186 205.225 41.1028 205.525 36.957C205.585 36.6566 205.735 35.515 205.735 35.3948C205.885 35.0944 206.815 31.8198 207.144 30.7683C207.144 30.6782 207.294 30.528 207.264 30.4679C210.683 24.3994 216.26 20.1335 224.266 21.8759C224.356 21.8759 224.416 21.936 224.506 21.936C225.496 22.1763 226.545 22.5068 227.475 23.0475C229.873 24.6998 231.283 27.4036 232.542 30.0173C234.911 35.2746 234.581 41.6436 235.001 47.2314C235.091 47.5919 235.301 50.0553 235.301 50.2656C235.301 50.566 235.511 54.0509 235.571 55.3427C235.631 56.6045 235.811 59.819 235.811 60.0293C235.871 61.1408 235.931 66.6085 235.931 67.7801C235.931 69.4925 234.401 71.0848 232.692 71.1749C232.242 71.2049 233.951 70.9646 228.494 70.8745C228.494 70.8745 227.804 70.6942 227.595 70.544C226.305 70.0032 226.125 69.7929 225.705 68.5612C225.675 68.0505 225.406 65.7974 225.316 65.3768C225.316 65.1665 225.196 64.2652 225.166 64.0249C225.076 63.8146 224.866 63.8146 224.776 63.8146C224.686 63.8146 224.476 63.9047 224.416 63.9047C224.176 63.9047 218.239 64.2352 218.029 64.3253C217.819 64.3253 217.909 64.6257 217.909 64.7158C217.909 64.7759 217.939 65.0764 217.939 65.0764C218.059 66.0377 218.359 69.0119 218.449 69.2221C218.449 69.3724 218.869 70.3938 218.869 70.4539C218.869 70.514 218.899 70.8144 218.899 70.9045C218.929 71.3551 218.839 71.5053 218.419 71.6856C217.16 71.7457 214.281 72.4366 212.962 72.4967C212.812 72.4967 210.953 72.5869 210.293 72.6469C209.933 72.677 208.044 72.7671 207.684 72.7972C206.994 72.6169 206.905 72.0161 206.785 71.4152C206.425 64.2352 205.465 57.2654 205.105 50.2055ZM217.939 53.39C217.939 53.39 220.098 53.42 220.188 53.42C220.338 53.42 223.457 53.2398 223.517 53.2398C223.576 52.7291 223.576 49.9652 223.546 49.3644C223.546 49.3644 223.546 49.0639 223.517 49.0039C223.457 47.652 223.067 46.0297 222.977 44.7078C222.797 42.4847 222.827 40.3217 222.257 38.0986C221.777 33.352 220.428 31.7597 219.259 32.1202C218.089 32.4807 217.01 34.7038 216.89 37.9183C216.77 38.5192 216.56 40.1114 216.56 40.2616C216.41 41.8238 216.44 43.4761 216.53 45.1284C216.68 47.8022 216.83 50.7163 217.399 53.2999C217.579 53.42 217.699 53.42 217.939 53.39Z" fill="white"/>
<path d="M238.269 46.5104C238.269 46.3301 238.269 45.7593 238.269 45.6992C238.479 42.3045 238.809 38.8496 239.259 35.3948C239.319 35.1545 239.529 34.1931 239.529 34.073C239.649 33.8326 240.608 31.1288 240.938 30.2276C240.938 30.1675 241.058 30.0473 241.058 29.9572C244.206 25.0003 249.124 21.6956 255.781 23.5282C255.841 23.5282 255.901 23.5883 255.961 23.5883C256.77 23.8286 257.67 24.1591 258.419 24.6698C260.369 26.2019 261.418 28.5152 262.348 30.7984C264.087 35.3347 263.487 40.6822 263.607 45.3988C263.667 45.6992 263.727 47.7721 263.727 47.9824C263.727 48.2228 263.727 51.1969 263.697 52.2784C263.697 53.3599 263.697 56.0637 263.697 56.244C263.697 57.1753 263.487 61.7717 263.427 62.7931C263.367 64.2352 261.988 65.4969 260.518 65.4969C260.129 65.4969 261.598 65.3768 257.01 65.0463C257.01 65.0463 256.44 64.866 256.26 64.7158C255.211 64.2051 255.061 64.0249 254.761 62.9434C254.761 62.4927 254.641 60.6001 254.581 60.2396C254.581 60.0593 254.521 59.3083 254.521 59.098C254.461 58.9177 254.281 58.9177 254.221 58.9177C254.162 58.9177 253.982 58.9778 253.922 58.9778C253.742 58.9778 248.704 58.9478 248.524 59.0078C248.344 59.0078 248.404 59.2482 248.404 59.3083C248.404 59.3684 248.404 59.6087 248.404 59.6087C248.464 60.4198 248.584 62.9434 248.644 63.1236C248.644 63.2438 248.944 64.145 248.944 64.2051C248.944 64.2652 248.944 64.5055 248.944 64.5957C248.944 64.9862 248.884 65.1064 248.494 65.2266C247.415 65.2266 244.986 65.6471 243.846 65.6471C243.727 65.6471 242.167 65.6471 241.598 65.6471C241.298 65.6471 239.708 65.6471 239.409 65.6471C238.839 65.4669 238.779 64.9562 238.719 64.4455C238.719 58.407 238.239 52.4887 238.269 46.5104ZM248.914 49.845C248.914 49.845 250.743 49.9652 250.803 49.9652C250.923 49.9652 253.562 49.9652 253.622 49.9652C253.682 49.5146 253.832 47.2013 253.832 46.6906C253.832 46.6906 253.832 46.4503 253.832 46.3601C253.832 45.2186 253.592 43.8366 253.592 42.695C253.532 40.8024 253.652 38.9698 253.292 37.0772C253.112 33.0515 252.063 31.6696 251.043 31.9099C250.024 32.1503 249.034 33.9828 248.764 36.6866C248.644 37.1973 248.374 38.5192 248.374 38.6393C248.194 39.9612 248.104 41.3431 248.104 42.7251C248.104 44.9782 248.074 47.4417 248.434 49.6648C248.614 49.845 248.734 49.815 248.914 49.845Z" fill="white"/>
<path d="M271.943 43.7765C271.943 43.6564 272.003 42.8152 272.003 42.7251C272.033 42.4547 272.033 40.4419 272.063 40.2316C272.123 38.6394 272.303 37.2574 272.123 35.7553C272.093 35.545 271.883 35.4249 271.793 35.3648L267.475 34.5536C266.576 34.4335 266.276 33.5322 266.036 32.8713C266.036 32.8112 265.976 32.8112 265.976 32.7511C266.126 31.0087 266.006 29.3864 266.126 27.7942C266.186 26.5625 270.024 26.7427 271.044 26.5625C272.213 26.5925 277.64 26.5925 278.81 26.6225C278.93 26.6225 280.339 26.7127 280.759 26.7427C281.329 26.7727 282.918 26.8629 283.038 26.8929C286.636 27.1633 285.257 27.9444 285.587 30.4379C285.587 30.498 285.797 31.249 285.856 31.3091C285.916 31.3692 285.946 31.6996 285.946 31.6996L285.767 34.824C285.707 35.7854 284.897 36.2059 284.087 36.2059C283.608 36.1759 281.329 36.1459 280.909 36.1158C280.699 36.1459 280.729 36.3261 280.729 36.3562C280.609 38.4291 280.789 40.6221 280.879 42.7551C280.879 42.7551 280.909 43.1457 280.909 43.2358C280.999 43.6263 281.149 44.6778 281.149 44.798C281.179 49.3644 281.209 54.081 280.939 58.6173C280.939 58.7675 280.909 58.9478 280.909 59.098C280.819 60.8404 280.789 61.8018 278.66 62.2524C278.24 62.3425 275.661 62.4927 275.092 62.5228C275.032 62.5228 274.252 62.4627 273.862 62.4627C273.712 62.4627 272.843 62.4026 272.633 62.4026C272.123 62.1623 271.823 61.7116 271.463 61.3211C271.823 55.523 271.973 49.6347 271.943 43.7765Z" fill="white"/>
<path d="M293.353 44.3173C293.353 44.2272 293.443 43.5062 293.473 43.416C293.503 43.2057 293.623 41.4933 293.623 41.3131C293.743 39.9612 293.953 38.8196 293.893 37.5578C293.863 37.3776 293.713 37.2574 293.623 37.1973L290.024 36.3261C289.275 36.2059 289.065 35.3948 288.885 34.824C288.885 34.794 288.855 34.7639 288.855 34.7339C289.065 33.2618 289.065 31.9099 289.215 30.5881C289.335 29.5667 292.543 29.8971 293.413 29.7769C294.402 29.837 298.96 30.1074 299.95 30.1975C300.04 30.1975 301.239 30.3477 301.599 30.3778C302.079 30.4379 303.428 30.5881 303.518 30.5881C306.546 30.9786 305.347 31.5795 305.497 33.7125C305.497 33.7425 305.647 34.4034 305.677 34.4635C305.707 34.5236 305.737 34.794 305.737 34.794L305.437 37.4377C305.347 38.2488 304.627 38.5492 303.968 38.5192C303.578 38.4591 301.629 38.3389 301.299 38.2788C301.119 38.3089 301.149 38.4291 301.149 38.4891C300.939 40.2316 300.999 42.0942 300.969 43.8967C300.969 43.8967 300.969 44.2272 300.969 44.2873C301.029 44.6177 301.089 45.519 301.089 45.6091C300.909 49.4845 300.699 53.42 300.249 57.2654C300.22 57.4156 300.22 57.5358 300.19 57.656C300.01 59.128 299.98 59.9392 298.121 60.2095C297.761 60.2696 295.572 60.2696 295.092 60.2696C295.062 60.2696 294.372 60.1795 294.072 60.1495C293.953 60.1495 293.233 60.0593 293.053 60.0293C292.633 59.7889 292.393 59.3984 292.123 59.0679C292.693 54.2011 293.113 49.2442 293.353 44.3173Z" fill="white"/>
<path d="M312.543 45.519C312.543 45.4589 312.663 44.8581 312.663 44.7679C312.693 44.5877 312.873 43.1457 312.903 42.9955C313.053 41.8539 313.293 40.9226 313.293 39.841C313.293 39.6908 313.143 39.5707 313.083 39.5406L310.085 38.6394C309.455 38.4892 309.305 37.8282 309.215 37.3175C309.215 37.2875 309.185 37.2875 309.185 37.2274C309.425 35.9957 309.485 34.8541 309.695 33.7425C309.845 32.8713 312.513 33.3219 313.263 33.2618C314.103 33.382 317.911 33.8026 318.75 33.9228C318.84 33.9228 319.83 34.103 320.13 34.1631C320.549 34.2232 321.659 34.4335 321.719 34.4335C324.238 34.9141 323.218 35.3347 323.248 37.1673C323.248 37.1973 323.338 37.7681 323.368 37.7982C323.398 37.8282 323.398 38.0686 323.398 38.0686L323.008 40.2616C322.888 40.9226 322.259 41.1629 321.719 41.1028C321.389 41.0427 319.77 40.8324 319.47 40.7723C319.32 40.7723 319.32 40.8925 319.32 40.9226C319.08 42.3646 319.02 43.9568 318.9 45.4589C318.9 45.4589 318.9 45.7293 318.87 45.7894C318.9 46.0597 318.9 46.8408 318.9 46.9009C318.57 50.1455 318.211 53.4501 317.641 56.6646C317.611 56.7847 317.611 56.9049 317.581 56.995C317.371 58.2268 317.281 58.8877 315.722 59.0379C315.422 59.0679 313.593 58.9778 313.173 58.9478C313.143 58.9478 312.573 58.8576 312.304 58.7976C312.184 58.7675 311.584 58.6774 311.434 58.6474C311.074 58.4371 310.924 58.1066 310.714 57.7761C311.524 53.8106 312.094 49.6648 312.543 45.519Z" fill="white"/>
<path d="M330.655 45.8795C331.585 45.3087 332.814 45.0684 333.114 43.8066C333.234 43.2658 332.964 42.8753 332.454 42.7551C331.495 42.5148 330.475 43.416 329.935 44.2572C329.576 44.828 329.576 45.6091 328.736 45.4289C328.256 45.3087 327.746 44.9482 327.327 44.5877C327.207 44.4675 326.307 43.7465 326.127 43.5662C325.827 43.2658 325.437 42.9654 325.557 42.4847C325.737 41.6736 326.247 41.1629 326.757 40.562C327.297 39.9312 327.926 39.4805 328.526 39.12C329.845 38.369 330.985 38.4591 332.364 38.7896C333.624 39.09 334.553 39.5707 335.603 40.4419C336.712 41.3131 337.402 42.1543 337.552 43.7465C337.582 44.1671 337.642 44.7679 337.552 45.1585C337.492 45.4589 337.282 45.8795 337.132 46.1799C337.102 46.27 336.982 46.3602 336.922 46.4803C336.532 47.2013 336.532 47.0211 335.992 47.5618C335.783 47.7121 334.883 48.3429 334.673 48.4931C334.673 48.4931 334.493 48.5833 334.463 48.6133C332.754 49.3644 331.824 51.0467 331.375 52.9394C331.255 53.4501 331.195 53.9608 331.105 54.4415C331.105 54.4715 331.075 54.5016 331.075 54.5016C331.075 54.5316 330.985 54.6818 330.985 54.6818C330.445 55.9736 330.625 55.3728 329.605 55.553C328.976 55.4028 328.166 55.3728 327.506 55.2226C327.237 55.1625 327.057 55.1625 326.907 54.8621C326.847 54.6217 326.967 54.2612 326.997 53.9908C326.967 52.6089 326.967 51.1969 327.297 49.815C327.776 47.9824 329.126 46.8408 330.655 45.8795ZM326.757 57.686C327.147 57.3555 327.926 56.7247 328.526 56.8448C329.006 56.965 328.976 57.1753 329.246 57.4757C329.276 57.4757 329.456 57.6259 329.486 57.656C329.965 58.1066 330.475 58.8276 330.295 59.5787C330.205 59.9992 329.096 60.3898 328.766 60.3898C328.496 60.3898 328.076 60.2997 327.806 60.2396C327.746 60.2396 327.417 60.1495 327.297 60.1194C326.727 59.7589 326.247 59.0079 326.427 58.2268C326.487 58.0465 326.607 57.8663 326.757 57.686Z" fill="white"/>
<path d="M342.619 50.4459C343.429 49.9952 344.478 49.8751 344.778 48.8236C344.898 48.373 344.688 48.0425 344.298 47.9224C343.489 47.682 342.589 48.373 342.109 49.0639C341.78 49.5146 341.75 50.2055 341.06 49.9952C340.67 49.8751 340.25 49.5446 339.92 49.2442C339.8 49.124 339.111 48.4631 338.961 48.3129C338.721 48.0425 338.421 47.7721 338.541 47.3816C338.751 46.7207 339.201 46.3001 339.651 45.8194C340.13 45.3087 340.7 44.9782 341.21 44.6778C342.349 44.107 343.309 44.2272 344.478 44.5877C345.528 44.8881 346.277 45.3387 347.147 46.1198C348.047 46.9009 348.586 47.652 348.616 49.0039C348.616 49.3644 348.646 49.845 348.556 50.2055C348.496 50.4759 348.286 50.8064 348.137 51.0467C348.107 51.1368 348.017 51.1969 347.957 51.3171C347.597 51.9179 347.597 51.7377 347.147 52.1883C346.967 52.3085 346.187 52.7892 345.978 52.9093C345.978 52.9093 345.828 52.9694 345.798 52.9995C344.328 53.5402 343.459 54.9221 343.009 56.4843C342.889 56.9049 342.829 57.3255 342.709 57.7461C342.709 57.7761 342.679 57.8062 342.679 57.8062C342.679 57.8362 342.619 57.9564 342.619 57.9564C342.109 59.0079 342.289 58.5272 341.42 58.6474C340.91 58.4971 340.22 58.4371 339.681 58.2869C339.441 58.2268 339.321 58.1967 339.201 57.9564C339.141 57.7461 339.261 57.4457 339.291 57.2354C339.321 56.0637 339.411 54.8921 339.74 53.7505C340.1 52.0982 341.3 51.1669 342.619 50.4459ZM338.781 60.2095C339.141 59.9392 339.83 59.4585 340.31 59.5787C340.7 59.6988 340.67 59.8791 340.88 60.1495C340.91 60.1495 341.06 60.2997 341.09 60.3297C341.48 60.7203 341.869 61.3812 341.69 61.982C341.57 62.3425 340.64 62.6129 340.37 62.6129C340.16 62.6129 339.77 62.4927 339.591 62.4327C339.531 62.4026 339.261 62.3425 339.171 62.3125C338.721 61.982 338.331 61.3511 338.541 60.6902C338.541 60.51 338.631 60.3598 338.781 60.2095Z" fill="white"/>
<path d="M352.454 54.2011C353.144 53.8707 354.043 53.8106 354.343 52.9394C354.463 52.5789 354.313 52.2784 353.983 52.1583C353.324 51.9179 352.544 52.4587 352.094 53.0295C351.794 53.39 351.734 53.9608 351.165 53.7505C350.835 53.6303 350.505 53.3299 350.235 53.0595C350.145 52.9694 349.575 52.3686 349.485 52.2484C349.305 52.0081 349.036 51.7677 349.186 51.4373C349.395 50.8665 349.785 50.566 350.175 50.1755C350.595 49.785 351.105 49.5146 351.554 49.3043C352.544 48.8837 353.354 49.0339 354.313 49.3644C355.183 49.6648 355.782 50.0854 356.472 50.8064C357.192 51.5274 357.612 52.1583 357.582 53.2999C357.552 53.6003 357.552 54.0209 357.462 54.2913C357.372 54.5016 357.222 54.7719 357.072 54.9822C357.042 55.0423 356.952 55.1024 356.892 55.1925C356.562 55.6732 356.562 55.553 356.142 55.8835C355.992 55.9736 355.303 56.3642 355.123 56.4242C355.123 56.4242 354.973 56.4843 354.943 56.4843C353.653 56.8749 352.874 57.9864 352.424 59.3083C352.304 59.6387 352.214 59.9992 352.094 60.3598C352.094 60.3898 352.064 60.3898 352.064 60.3898C352.064 60.4198 352.004 60.51 352.004 60.51C351.524 61.3812 351.704 60.9906 350.955 61.0207C350.535 60.8705 349.965 60.7803 349.515 60.6301C349.305 60.5701 349.216 60.54 349.126 60.3297C349.096 60.1495 349.216 59.9091 349.246 59.7289C349.335 58.7375 349.455 57.7461 349.785 56.8148C350.235 55.4629 351.285 54.7719 352.454 54.2011ZM348.736 62.2524C349.036 62.0421 349.635 61.6516 350.055 61.8018C350.385 61.9219 350.355 62.0722 350.505 62.3125C350.535 62.3125 350.655 62.4327 350.655 62.4627C350.955 62.8232 351.255 63.394 351.075 63.9047C350.955 64.2051 350.145 64.3854 349.935 64.3553C349.755 64.3253 349.455 64.2352 349.276 64.1751C349.246 64.1751 349.006 64.085 348.946 64.0549C348.586 63.7545 348.286 63.1837 348.466 62.643C348.526 62.4927 348.616 62.3726 348.736 62.2524Z" fill="white"/>
<path d="M127.533 122.367C146.694 114.586 165.375 106.474 185.105 100.135C209.213 92.3846 233.952 86.977 258.57 81.0888C258.989 80.9986 258.78 80.4278 258.39 80.4879C233.322 84.1831 208.704 90.552 184.565 98.1827C165.225 104.281 144.775 111.371 127.383 122.036C127.203 122.126 127.323 122.427 127.533 122.367Z" fill="#231F20"/>
<path d="M260.938 80.4278C261.268 80.3978 261.478 80.578 261.808 80.5179C262.498 80.4278 263.127 80.2776 263.817 80.0973C265.166 79.7669 266.096 79.4364 267.235 78.6253C267.415 78.4751 267.385 78.1747 267.115 78.1747C265.916 78.1747 265.016 78.2948 263.847 78.6854C263.277 78.8656 262.648 79.0158 262.108 79.2862C261.598 79.5265 261.328 79.887 260.848 80.1574C260.729 80.1875 260.789 80.4579 260.938 80.4278Z" fill="#231F20"/>
<path d="M8.31043 34.824C22.9134 19.7429 39.3754 11.4513 59.9155 7.27547C60.3353 7.18535 60.2154 6.58451 59.8256 6.55446C41.2645 6.04375 15.6269 16.2881 7.9506 34.5837C7.86064 34.824 8.1605 34.9742 8.31043 34.824Z" fill="#231F20"/>
</svg>
