<svg width="122" height="132" viewBox="0 0 122 132" fill="none" xmlns="http://www.w3.org/2000/svg">
<g clip-path="url(#clip0)">
<path d="M119.074 73.2455C120.354 70.2654 118.878 66.7062 116.402 67.7513C114.194 68.6835 112.028 70.1241 109.946 71.593C110.087 71.3388 110.228 71.0704 110.368 70.8021C110.396 70.7456 110.34 70.6608 110.27 70.7032C109.552 71.1552 109.018 71.8472 108.554 72.5816C107.977 72.9912 107.415 73.4008 106.866 73.7963C107.105 73.3161 107.33 72.8217 107.513 72.3133C107.555 72.2003 107.415 72.1297 107.33 72.1721C106.303 72.6946 105.713 73.8245 105.234 74.9121C104.827 75.1804 104.405 75.4487 103.997 75.7171C104.292 75.1521 104.545 74.5872 104.742 73.994C104.77 73.9234 104.686 73.881 104.63 73.9093C103.406 74.4601 102.675 75.7453 102.098 76.9459C101.479 77.3413 100.86 77.7085 100.227 78.0899C100.607 77.4543 100.987 76.8187 101.381 76.1973C101.423 76.1267 101.353 75.9996 101.268 76.0419C99.7772 76.6351 98.8349 77.9769 98.1035 79.361C97.5127 79.7 96.9361 80.0389 96.3454 80.3779C96.8095 79.7141 97.2877 79.0503 97.7097 78.3582C97.7378 78.3017 97.6956 78.2311 97.6393 78.2311C95.9234 78.3724 94.8123 80.1802 93.9965 81.5219C93.9543 81.6067 93.898 81.6914 93.8558 81.7762C93.4339 82.0021 92.9979 82.2422 92.5759 82.4682C92.9979 81.8609 93.4198 81.2677 93.7996 80.6463C93.8559 80.5615 93.7715 80.4485 93.673 80.4768C91.9289 80.9852 90.7053 82.1857 89.6926 83.6546C89.5941 83.7958 89.4957 83.9512 89.3832 84.0925C89.1722 84.1913 88.9612 84.2902 88.7502 84.4032C89.0878 83.8382 89.4254 83.2733 89.7489 82.7083C89.7911 82.6377 89.7207 82.5388 89.6363 82.5671C88.4549 82.9343 87.611 84.1631 86.8796 85.2647C86.8796 85.2647 86.8796 85.2647 86.8655 85.2647C86.6827 84.8269 86.5139 84.3749 86.3451 83.923C86.6405 83.8523 86.9499 83.7676 87.2453 83.6829C87.3297 83.6546 87.3437 83.5557 87.2734 83.4993C86.8655 83.2027 86.4295 82.9767 85.9794 82.7931C85.8107 82.2422 85.6981 81.6914 85.6137 81.1265C86.0779 81.2395 86.542 81.3525 87.0343 81.409C87.0765 81.409 87.1187 81.3666 87.1187 81.3242C87.2172 80.3073 86.5139 79.5729 85.459 79.135C85.445 78.7678 85.459 78.3865 85.4731 78.0193C86.1623 78.2311 86.3451 78.9232 86.9781 79.2621C87.0343 79.2904 87.0906 79.2763 87.1328 79.2198C87.8782 78.104 86.7952 76.9317 85.5997 76.2114C85.6559 75.6465 85.7263 75.0815 85.8107 74.5166C86.1482 74.7991 86.4858 75.0957 86.8374 75.3923C86.8937 75.4487 87.0202 75.4487 87.0624 75.364C87.5688 74.2341 87.0484 73.076 86.1904 72.285C86.2748 71.8331 86.3451 71.3952 86.4295 70.9574C86.7952 71.1551 87.175 71.3811 87.5969 71.5789C87.6954 71.6354 87.822 71.593 87.8501 71.4659C88.1736 70.3783 87.611 69.4886 86.7811 68.853C86.9077 68.0762 87.0202 67.2853 87.1187 66.5226C87.4703 66.9604 87.6813 67.4689 88.0751 67.822C88.1173 67.8643 88.1736 67.8643 88.2298 67.822C88.8065 67.37 88.8346 66.4096 88.7784 65.7317C88.7081 64.8277 88.1033 64.178 87.4 63.6696C87.4281 63.2882 87.4422 62.9069 87.4563 62.5115C87.9204 62.5962 88.3846 62.6244 88.8346 62.4832C88.8909 62.4691 88.919 62.4267 88.919 62.3702C88.9612 61.4663 88.2861 60.7742 87.4703 60.3646C87.4563 59.7432 87.4141 59.1359 87.3578 58.5427C87.9063 58.6416 88.4549 58.7263 89.0315 58.7404C89.1581 58.7404 89.2285 58.5992 89.1722 58.4862C88.8346 57.7659 88.047 57.1727 87.1187 56.7914C87.0343 56.3394 86.9359 55.8733 86.8233 55.4214C87.2312 55.4496 87.6391 55.5061 88.0329 55.5626C88.0892 55.5767 88.1454 55.5343 88.1314 55.4637C87.8923 54.5033 87.1328 53.7971 86.2185 53.3875C86.0498 52.9356 85.8669 52.4978 85.67 52.0599C86.0779 52.0458 86.4858 52.0175 86.8796 51.9328C86.9359 51.9187 86.9921 51.8481 86.964 51.7774C86.6405 50.8735 85.7403 50.3651 84.6573 50.1815C84.4323 49.8143 84.1932 49.4612 83.94 49.1081C84.4042 49.1081 84.8683 49.1081 85.3325 49.1081C85.4309 49.1081 85.4731 49.0092 85.4309 48.9245C84.8261 47.5968 83.5321 47.0601 82.1678 46.9613C82.0131 46.7918 81.8443 46.6364 81.6896 46.4811C82.21 46.4104 82.7304 46.3681 83.2649 46.354C83.3493 46.354 83.4196 46.2551 83.3633 46.1845C82.5476 45.0969 81.2395 44.5885 79.9033 44.5744C80.1706 43.4586 80.4238 42.3569 80.7051 41.2694C81.9006 36.6086 83.068 31.9337 84.1932 27.2587C86.0638 19.5189 87.8923 11.765 89.4535 3.95463C90.4521 -0.847423 89.13 -1.41237 86.9499 2.96597C82.0412 12.8243 67.8074 40.422 65.4305 44.1365C65.4164 44.1648 65.3601 44.1507 65.3742 44.1083C65.9227 42.5688 66.5697 41.0576 67.2589 39.5463C62.9691 39.0802 58.4401 39.5605 54.3472 40.6621C55.2896 42.2863 56.1757 43.9388 56.9774 45.6478C57.0336 45.7749 56.8789 45.8737 56.7945 45.7608C55.1208 43.501 46.7662 30.4224 44.0376 26.2701C38.9601 18.5585 33.8826 10.8187 28.552 3.27669C26.2031 -0.0423729 24.8529 0.480203 26.1047 4.39247C28.2988 11.2283 30.943 17.9795 33.2919 24.7306C35.4157 30.8179 37.5395 36.8911 39.7618 42.9501C40.3525 44.5602 40.9151 46.2127 41.5199 47.8511C39.8743 48.5149 38.5663 49.8284 38.2146 51.9328C38.2006 51.9893 38.2709 52.0458 38.3272 51.9893C38.7913 51.4526 39.3117 51.043 39.8603 50.7182C39.5368 51.3255 39.2555 51.9611 38.9882 52.6107C38.9742 52.6107 38.9601 52.6249 38.946 52.6249C37.638 53.3028 36.5409 54.9976 36.4565 56.4665C36.4425 56.5936 36.5972 56.6219 36.6816 56.5513C37.1457 56.184 37.5395 55.7603 38.0318 55.4355C37.7646 56.4383 37.5255 57.4693 37.3567 58.5286C35.7673 59.5878 34.614 61.2544 35.3876 62.7233C35.4157 62.7798 35.486 62.7798 35.5282 62.7374C35.9924 62.2855 36.2596 61.6923 36.7238 61.2262C36.8222 61.1273 36.9488 61.0426 37.0754 60.9578C37.0191 61.6075 36.9769 62.2572 36.9488 62.9069C36.78 63.0481 36.6253 63.1894 36.4706 63.3447C35.4157 64.404 34.8953 66.1412 35.6829 67.5254C35.7251 67.5819 35.7955 67.5819 35.8377 67.5254C36.1893 66.9745 36.5409 66.4378 36.9207 65.9294C36.9347 66.5508 36.9629 67.1864 37.0051 67.822C36.2737 68.8954 35.3876 70.9009 36.2596 72.1297C36.2877 72.1721 36.3581 72.1721 36.3862 72.1297C36.6675 71.6636 36.8222 71.1551 37.1035 70.6891C37.1457 70.6184 37.202 70.5478 37.2582 70.4772C37.3286 71.0845 37.4129 71.6777 37.4973 72.285C36.5409 73.3443 35.9361 75.2934 36.7097 76.5645C36.7378 76.621 36.8222 76.621 36.8503 76.5645C37.1879 75.9431 37.3567 75.3216 37.8771 74.8132C37.8912 74.7991 37.9052 74.7849 37.9193 74.7708C37.9615 74.9685 37.9896 75.1663 38.0318 75.3499C38.1162 75.7312 38.1725 76.1267 38.2146 76.508C37.2582 77.3837 36.5972 78.7819 36.78 80.0389C36.7941 80.1802 37.0051 80.2226 37.0895 80.1237C37.5255 79.6294 37.9193 79.2198 38.3553 78.8667C38.3553 79.2904 38.3272 79.7141 38.285 80.1519C37.2864 80.9994 36.555 82.101 36.2174 83.4569C36.2034 83.5134 36.2596 83.584 36.3299 83.5699C36.8503 83.3721 37.3426 83.132 37.849 82.8919C37.6802 83.6264 37.4692 84.3608 37.202 85.1094C36.1612 83.9936 34.7265 82.7083 33.1231 82.8072C33.0387 82.8072 32.9825 82.9202 33.0528 82.9908C33.6013 83.5416 34.1077 84.0783 34.5718 84.6292C34.0936 84.4879 33.6154 84.3467 33.1372 84.2054C32.3355 83.2874 31.3228 82.5671 30.1413 82.1858C30.0569 82.1575 30.0147 82.2705 30.0569 82.327C30.4086 82.7083 30.718 83.1038 31.0134 83.5134C30.6055 83.3721 30.1976 83.2168 29.7756 83.0614C29.1708 82.0021 28.2566 80.8723 27.1314 80.5615C27.0611 80.5474 26.9767 80.618 27.0048 80.6886C27.1877 81.2253 27.4408 81.7197 27.7221 82.2281C27.4127 82.101 27.1174 81.9598 26.8079 81.8185C26.0343 80.6886 24.9935 79.6859 23.8683 78.9797C23.7839 78.9232 23.6714 79.0362 23.7277 79.1209C24.1637 79.7 24.5294 80.2932 24.8669 80.9005C24.1215 80.5191 23.4042 80.1237 22.6869 79.7C22.2227 78.8102 21.6601 77.991 20.9709 77.3131C20.9147 77.2566 20.8162 77.3131 20.8303 77.3978C20.9428 77.878 21.0835 78.3582 21.2241 78.8243C20.9569 78.6548 20.6896 78.4995 20.4224 78.33C19.8879 76.9741 19.1144 75.6465 17.8485 74.9544C17.8063 74.9262 17.7219 74.9685 17.7501 75.0392C18.0454 75.7736 18.3689 76.4939 18.7065 77.2142C18.2001 76.8752 17.7079 76.5363 17.2156 76.1832C16.6811 75.0674 15.9919 74.0364 15.0777 73.1748C15.0214 73.1183 14.8949 73.1748 14.923 73.2596C15.148 73.8387 15.3731 74.4318 15.584 75.0109C15.5278 74.9685 15.4575 74.9262 15.4012 74.8838C14.8245 74.4601 14.276 74.0081 13.7275 73.5421C13.2492 72.7088 12.7148 71.9461 12.1522 71.3105C12.11 71.2681 12.0256 71.3105 12.0397 71.367C12.1381 71.7201 12.2647 72.0591 12.3772 72.4122C10.8582 71.1128 9.31104 69.884 7.51072 69.1496C3.23496 67.4265 2.40512 73.9375 3.6991 76.0843C4.99308 78.217 6.99031 80.0813 8.72031 81.649C9.73299 82.5671 11.0832 83.8382 12.757 85.2788C12.2366 85.1941 11.7021 85.1094 11.1817 85.0105C11.1114 84.9964 11.027 85.0952 11.0973 85.1658C12.124 85.9991 13.2914 86.4652 14.5292 86.776C15.0777 87.2279 15.6403 87.6799 16.2451 88.1318C15.57 88.0188 14.8808 87.8776 14.2057 87.7787C14.0931 87.7646 13.9384 87.8776 14.0369 88.0047C15.1199 89.4453 16.9483 90.1233 18.6924 90.321C18.8893 90.3492 19.1284 90.3775 19.3957 90.4057C19.9442 90.7729 20.5068 91.1402 21.0694 91.5074C20.1411 91.5215 19.2128 91.5498 18.2986 91.6769C18.2001 91.691 18.1439 91.8322 18.2423 91.8887C19.691 92.722 22.0961 93.4282 24.3606 93.4706C24.8388 93.7389 25.3311 93.9932 25.8234 94.2474C24.9091 94.3745 24.009 94.5016 23.1229 94.7276C22.9963 94.7558 22.94 94.9818 23.0807 95.0383C24.67 95.7445 26.4844 95.6598 28.1722 95.3773C28.3551 95.462 28.552 95.5468 28.7348 95.6315C27.9753 95.9281 27.2158 96.2388 26.4844 96.5919C26.4141 96.6343 26.4282 96.7614 26.5126 96.7755C27.8065 96.9591 29.213 96.8744 30.5492 96.606C29.2693 97.0156 28.0175 97.9902 27.6237 99.2754C27.5956 99.3743 27.694 99.4449 27.7784 99.4308C28.2847 99.3602 28.8052 99.233 29.3115 99.1059C29.0161 99.5579 28.7348 99.9957 28.4395 100.448C27.1033 100.617 25.4296 101.45 25.092 102.849C25.0779 102.933 25.1482 103.004 25.2326 102.99C25.8374 102.82 26.4282 102.722 27.033 102.637C26.8923 102.849 26.7657 103.061 26.6251 103.272C26.3578 103.682 26.0906 104.12 25.8234 104.572C24.0934 104.939 22.504 106.012 22.4196 107.594C22.4196 107.637 22.4618 107.665 22.504 107.651C23.151 107.453 23.7417 107.269 24.3465 107.114C24.0512 107.651 23.7699 108.202 23.4886 108.752C23.4323 108.781 23.3761 108.809 23.3339 108.837C21.9274 109.642 20.549 111.182 20.2396 112.82C20.2255 112.891 20.2818 112.975 20.3661 112.947C20.8725 112.749 21.3929 112.509 21.8992 112.227C21.7726 112.552 21.6461 112.862 21.5195 113.187C19.8739 114.247 18.5236 115.97 18.4533 117.467C18.4533 117.551 18.5518 117.58 18.608 117.537C19.2409 117.001 19.8598 116.52 20.5349 116.111C20.3802 116.648 20.2255 117.213 20.0989 117.763C19.1003 118.215 18.2142 118.879 17.8063 119.868C17.7501 120.009 17.9188 120.122 18.0314 120.094C18.594 119.995 19.1425 119.797 19.7051 119.599C19.4941 120.772 19.3253 121.972 19.255 123.201C19.2128 123.921 19.255 125.517 22.1665 125.432C35.1485 125.023 80.1284 125.814 94.9248 125.997C98.427 126.04 98.8067 124.91 98.7927 124.387C98.7645 123.441 98.7364 122.523 98.6801 121.633C99.1865 121.718 99.6928 121.817 100.185 121.916C100.298 121.944 100.368 121.831 100.326 121.732C99.9882 121.026 99.3553 120.546 98.5958 120.207C98.5676 119.769 98.5395 119.331 98.5114 118.893C99.0318 119.133 99.5381 119.43 100.073 119.825C100.143 119.882 100.255 119.811 100.255 119.727C100.227 118.597 99.4115 117.763 98.3848 117.227C98.3145 116.45 98.2301 115.673 98.1457 114.939C98.6661 115.249 99.1724 115.617 99.6788 116.04C99.7632 116.111 99.8757 116.04 99.8616 115.927C99.6788 114.67 98.9052 113.738 97.9066 113.074C97.8222 112.439 97.7237 111.817 97.6253 111.224C98.3145 111.507 98.9614 111.874 99.5803 112.382C99.6647 112.439 99.7913 112.41 99.7913 112.297C99.735 110.786 98.6239 109.826 97.2596 109.218C97.1471 108.611 97.0205 108.018 96.8939 107.439C97.4002 107.665 97.9066 107.933 98.3848 108.244C98.4832 108.3 98.5676 108.202 98.5536 108.117C98.3848 106.987 97.4987 106.069 96.4016 105.419C96.2188 104.727 96.0359 104.077 95.839 103.442C96.3172 103.555 96.8095 103.668 97.2877 103.739C97.3862 103.753 97.4565 103.668 97.4143 103.569C96.8658 102.397 96.064 101.634 95.0936 101.168C94.8826 100.575 94.6716 100.01 94.4466 99.4731C94.9529 99.5861 95.4593 99.7274 95.9656 99.8827C96.064 99.911 96.1484 99.8121 96.1203 99.7274C95.7687 98.3432 94.6998 97.5523 93.448 97.2134C93.3776 97.0721 93.3214 96.945 93.2511 96.8038C93.4339 96.719 93.6027 96.6343 93.7855 96.5354C94.0809 96.5919 94.3763 96.6484 94.6435 96.7049C95.9937 97.0156 97.6956 97.1851 98.7083 96.0693C98.7645 96.0128 98.7645 95.8998 98.6801 95.8716C97.9769 95.5326 97.1893 95.3208 96.4016 95.123C96.8376 94.8829 97.2877 94.6005 97.78 94.318C97.991 94.3321 98.2019 94.3462 98.4129 94.3604C99.6225 94.4875 100.987 94.6005 101.971 93.7954C102.042 93.7389 101.999 93.6259 101.915 93.6118C101.198 93.3858 100.466 93.2446 99.721 93.1034C100.298 92.7361 100.888 92.3407 101.493 91.9311C102.928 91.9735 104.405 91.8322 105.586 90.9707C105.656 90.9142 105.628 90.8153 105.544 90.8012C104.756 90.7588 103.969 90.7588 103.209 90.7447C103.856 90.2786 104.517 89.7984 105.178 89.29C106.81 89.1346 108.329 88.6968 109.637 87.6516C109.777 87.5386 109.665 87.2985 109.496 87.3127C108.835 87.3409 108.188 87.3833 107.541 87.4115C107.977 87.0443 108.427 86.663 108.863 86.2675C109.946 85.9003 110.945 85.3495 111.62 84.5303C111.662 84.4879 111.62 84.4032 111.564 84.4173C111.17 84.5444 110.79 84.6998 110.41 84.8551C114.011 81.5219 117.232 77.5673 119.074 73.2455Z" fill="#2D2D2D"/>
<path d="M53.5033 55.1106C49.762 52.9073 44.558 54.8988 43.475 59.2065C43.3203 59.8279 43.2218 60.4635 43.2078 61.0991C43.2078 62.3278 43.5172 63.486 44.136 64.5452C44.3751 65.0961 44.7549 65.6045 45.219 65.9717C45.6691 66.3248 46.1333 66.6779 46.5834 67.031C47.6382 67.6383 48.7634 67.9491 49.973 67.9491C50.5919 67.9491 51.2107 67.8502 51.8015 67.6807C51.7874 67.6807 51.7733 67.6948 51.7733 67.6948C55.4162 66.6497 56.8368 64.0933 56.893 61.0143C56.9352 58.6133 55.585 56.3394 53.5033 55.1106Z" fill="white"/>
<path d="M67.8075 62.0595C69.0452 64.0227 71.2534 65.548 73.6726 65.4351C73.7007 65.4351 73.7289 65.4351 73.757 65.4351C75.5714 65.3503 77.2029 64.7712 78.4969 63.4577C79.3267 62.6103 79.9034 61.6217 80.2269 60.4776C80.5504 59.2771 80.5504 58.0907 80.2269 56.8902C80.1144 56.2264 79.805 55.605 79.4393 55.04C78.4828 53.5288 77.1326 52.3989 75.3885 51.9187C73.6304 51.4385 71.7316 51.6786 70.1563 52.6107C67.048 54.4327 65.7399 58.7969 67.7231 61.9324C67.7512 61.9748 67.7793 62.0171 67.8075 62.0595Z" fill="white"/>
<path d="M39.157 33.8827C40.1838 36.4815 41.2105 39.0803 42.2373 41.679C42.6452 42.7242 43.1234 44.6026 43.8688 45.8173C44.122 46.2268 46.9631 42.5123 46.5974 41.8626C44.347 37.7103 38.5382 27.4847 35.7674 22.6685C34.1358 19.8438 34.178 20.6065 35.0922 23.2193C36.3722 26.8068 37.7646 30.3377 39.157 33.8827Z" fill="white"/>
<path d="M77.9765 43.4162C78.5813 42.1168 78.7923 40.196 79.0736 39.1085C79.7627 36.3967 80.466 33.6991 81.1552 30.9874C82.0975 27.287 83.0258 23.6148 83.8416 19.8862C84.4323 17.1744 84.362 16.4117 83.1102 19.4201C80.9723 24.547 76.4997 35.4363 74.7837 39.8429C74.5024 40.535 77.7796 43.8399 77.9765 43.4162Z" fill="white"/>
<path d="M43.5172 79.4316C43.5172 79.3751 43.4328 79.3469 43.4047 79.4034C43.1093 79.9683 42.7999 80.9711 43.2499 81.5361C43.3203 81.6208 43.4187 81.5502 43.4609 81.4796C43.5875 81.1688 43.5172 80.8016 43.5172 80.4627C43.5313 80.0954 43.5453 79.7988 43.5172 79.4316Z" fill="white"/>
<path d="M48.1868 86.0839C48.1868 85.6743 48.0602 85.4059 47.8914 85.0528C47.8633 84.9822 47.7648 85.0246 47.7648 85.0952C47.7648 85.4201 47.6804 85.7732 47.6664 86.098C47.6523 86.3946 47.5398 86.7053 47.7508 86.9454C47.7929 86.9878 47.8492 86.9878 47.8914 86.9596C48.2149 86.8042 48.1868 86.3805 48.1868 86.0839Z" fill="white"/>
<path d="M42.6592 87.9482C42.6311 87.8635 42.5186 87.8635 42.4904 87.9482C42.2513 88.6968 42.1529 89.5866 42.2232 90.3634C42.2373 90.4481 42.3357 90.5046 42.392 90.434C42.9405 89.7702 42.9124 88.7391 42.6592 87.9482Z" fill="white"/>
<path d="M39.368 92.948C39.1289 93.3435 38.932 93.6966 38.7632 94.1485C38.6085 94.5863 38.3975 94.9536 38.4678 95.4196C38.4819 95.4903 38.5804 95.5185 38.6366 95.4903C39.4102 95.0524 39.3961 93.8095 39.5508 93.0327C39.579 92.9056 39.4243 92.835 39.368 92.948Z" fill="white"/>
<path d="M45.6551 90.9848C45.6551 90.9001 45.5425 90.8718 45.5003 90.9424C45.3034 91.2673 45.1769 91.5498 45.0925 91.9311C45.0221 92.2418 44.8815 92.6373 45.1065 92.9339C45.1487 92.9763 45.205 93.0045 45.2612 92.9763C45.5707 92.7927 45.5988 92.4113 45.641 92.0865C45.6973 91.691 45.6973 91.3661 45.6551 90.9848Z" fill="white"/>
<path d="M42.4623 97.1004C42.3217 97.4817 42.2513 97.863 42.181 98.2585C42.1247 98.5975 42.0404 98.88 42.2232 99.1907C42.2513 99.2472 42.3357 99.2754 42.3779 99.233C42.6873 99.0071 42.7155 98.7105 42.7577 98.3291C42.8139 97.9054 42.828 97.4958 42.6873 97.0862C42.6592 96.9874 42.5045 96.9874 42.4623 97.1004Z" fill="white"/>
<path d="M46.4849 95.914C46.2177 96.2388 46.1051 96.5919 46.0348 97.0015C45.9504 97.4252 45.8379 97.8631 45.9786 98.2868C45.9926 98.3433 46.077 98.3998 46.1333 98.3433C46.7521 97.8631 46.7099 96.7049 46.7099 95.9987C46.7099 95.8998 46.5693 95.8292 46.4849 95.914Z" fill="white"/>
<path d="M38.6507 100.674C38.6788 100.589 38.5663 100.561 38.5241 100.617C38.2709 100.984 38.0599 101.281 37.9615 101.719C37.9052 101.987 37.7224 102.467 38.0178 102.651C38.5382 102.962 38.5804 100.9 38.6507 100.674Z" fill="white"/>
<path d="M34.389 100.97C33.9389 101.394 33.4466 102.256 33.8545 102.849C33.8967 102.905 33.953 102.933 34.0092 102.891C34.5718 102.524 34.5015 101.634 34.5437 101.027C34.5437 100.942 34.4452 100.914 34.389 100.97Z" fill="white"/>
<path d="M41.9278 104.431C41.9138 103.979 41.8856 103.484 41.9419 103.032C41.956 102.933 41.8153 102.891 41.7591 102.948C41.4918 103.244 41.3512 103.527 41.2949 103.922C41.2527 104.275 41.098 104.854 41.5059 105.038C41.8434 105.193 41.9278 104.628 41.9278 104.431Z" fill="white"/>
<path d="M45.2191 104.346C45.0362 104.699 44.9378 105.024 44.8674 105.405C44.7971 105.758 44.6986 106.125 44.8815 106.464C44.9096 106.521 44.994 106.521 45.0362 106.478C45.3035 106.238 45.3456 105.885 45.4019 105.546C45.4722 105.151 45.5004 104.798 45.4582 104.402C45.4441 104.303 45.2894 104.233 45.2191 104.346Z" fill="white"/>
<path d="M42.7577 108.399C42.4904 108.851 42.2091 109.275 42.0122 109.755C41.8575 110.151 41.534 110.603 41.7028 111.026C41.7309 111.083 41.8013 111.097 41.8575 111.083C42.2373 110.984 42.3357 110.574 42.4482 110.235C42.6592 109.656 42.7436 109.049 42.8983 108.456C42.9265 108.371 42.7999 108.315 42.7577 108.399Z" fill="white"/>
<path d="M38.6366 108.399C38.3413 108.908 38.1584 109.388 38.06 109.967C37.9896 110.363 38.5804 110.532 38.6648 110.137C38.7913 109.557 38.8195 109.021 38.7913 108.442C38.7773 108.357 38.6788 108.329 38.6366 108.399Z" fill="white"/>
<path d="M35.9783 108.456C36.3018 107.947 36.2315 107.255 36.2737 106.69C36.2737 106.62 36.1893 106.606 36.1471 106.634C35.683 107.072 35.3313 107.721 35.4439 108.385C35.4861 108.654 35.8658 108.639 35.9783 108.456Z" fill="white"/>
<path d="M30.0148 108.187C30.3383 107.947 30.4086 107.552 30.5211 107.185C30.6477 106.775 30.7743 106.351 30.9149 105.942C30.943 105.871 30.8587 105.815 30.7883 105.843C30.4086 106.097 30.0991 106.337 29.846 106.733C29.6069 107.114 29.3537 107.637 29.5787 108.06C29.6491 108.216 29.8741 108.286 30.0148 108.187Z" fill="white"/>
<path d="M26.9486 112.608C26.9767 112.509 27.033 112.425 27.033 112.312C27.033 112.142 26.9767 112.001 26.9767 111.831C26.9908 111.45 27.1174 111.069 27.2721 110.73C27.3143 110.645 27.2158 110.574 27.1455 110.631C26.7798 110.927 26.4563 111.281 26.3438 111.747C26.2453 112.17 26.3157 112.636 26.7939 112.693C26.8642 112.707 26.9345 112.693 26.9486 112.608Z" fill="white"/>
<path d="M30.9852 111.521C30.8587 111.718 30.6899 111.86 30.5633 112.071C30.4367 112.269 30.3664 112.495 30.2961 112.707C30.1554 113.117 29.9866 113.498 30.1976 113.908C30.2398 113.978 30.3242 113.992 30.3945 113.964C30.7602 113.78 30.8587 113.427 30.9712 113.06C31.0274 112.834 31.1259 112.608 31.154 112.368C31.1822 112.114 31.154 111.846 31.1962 111.605C31.1962 111.492 31.0556 111.422 30.9852 111.521Z" fill="white"/>
<path d="M36.133 113.286C35.908 113.766 35.7111 114.232 35.5564 114.741C35.4298 115.179 35.247 115.617 35.4579 116.04C35.5001 116.111 35.5986 116.139 35.6689 116.097C36.0768 115.843 36.133 115.362 36.2456 114.924C36.3862 114.374 36.3721 113.879 36.3018 113.328C36.2878 113.258 36.1752 113.201 36.133 113.286Z" fill="white"/>
<path d="M39.9869 114.939C40.1556 114.769 40.1275 114.586 40.0994 114.36C40.0431 114.035 39.9869 113.682 40.0572 113.357C40.0853 113.23 39.9306 113.187 39.8603 113.272C39.5649 113.667 39.0164 114.741 39.7337 115.009C39.8181 115.037 39.9306 115.009 39.9869 114.939Z" fill="white"/>
<path d="M45.2753 113.484C45.2472 113.06 45.1768 112.622 44.9237 112.269C44.8674 112.184 44.7268 112.184 44.6986 112.297C44.6002 112.693 44.6143 113.088 44.6002 113.484C44.5861 113.837 44.5721 114.105 44.8815 114.317C44.9237 114.345 44.9799 114.345 45.0081 114.317C45.3175 114.105 45.3034 113.837 45.2753 113.484Z" fill="white"/>
<path d="M32.9965 117.241C32.9825 117.17 32.9262 117.071 32.9403 117.001C32.9544 116.888 32.8137 116.775 32.7293 116.874C32.6731 116.944 32.5887 116.958 32.5324 117.029C32.4339 117.128 32.3777 117.227 32.3214 117.354C32.1948 117.622 32.1105 117.905 32.1948 118.201C32.3214 118.582 32.7996 118.554 32.9403 118.201C33.0247 117.989 33.0106 117.763 32.9965 117.537C33.0106 117.438 33.0106 117.34 32.9965 117.241Z" fill="white"/>
<path d="M27.7644 115.433C27.7503 115.405 27.7081 115.391 27.68 115.405C27.244 115.588 27.0611 116.21 26.9486 116.633C26.8079 117.128 26.9205 117.664 27.4268 117.848C27.4831 117.876 27.5393 117.834 27.5674 117.792C27.8487 117.424 27.8206 117.043 27.8206 116.591C27.8066 116.224 27.9613 115.772 27.7644 115.433Z" fill="white"/>
<path d="M40.5213 117.961C40.5073 117.919 40.451 117.89 40.4088 117.933C40.0431 118.357 39.7196 119.275 39.9306 119.811C40.015 120.009 40.3385 120.136 40.451 119.882C40.5917 119.571 40.5776 119.218 40.5635 118.879C40.5635 118.568 40.5917 118.258 40.5213 117.961Z" fill="white"/>
<path d="M43.0671 116.181C43.053 116.068 42.8702 116.068 42.8421 116.181C42.7295 116.69 42.2935 117.467 42.617 117.975C42.7295 118.131 42.9405 118.131 43.039 117.975C43.2218 117.707 43.1655 117.368 43.1655 117.043C43.1655 116.761 43.1234 116.478 43.0671 116.181Z" fill="white"/>
<path d="M46.8647 109.162C46.6678 109.685 46.6396 110.32 46.6396 110.871C46.6396 111.252 47.2444 111.351 47.3288 110.97C47.4413 110.391 47.2725 109.713 47.0475 109.162C47.0053 109.077 46.8928 109.077 46.8647 109.162Z" fill="white"/>
<path d="M48.2712 101.987C48.243 101.931 48.1305 101.945 48.1165 102.001C48.0321 102.538 48.0461 103.075 48.0461 103.611C48.0461 104.049 47.9195 104.544 48.2149 104.897C48.2712 104.953 48.3837 104.953 48.4399 104.897C48.7353 104.544 48.6087 104.035 48.5806 103.611C48.5525 103.061 48.4962 102.496 48.2712 101.987Z" fill="white"/>
<path d="M49.8605 98.0466C49.8464 97.6371 49.762 97.1851 49.5511 96.832C49.5089 96.7755 49.4245 96.7614 49.3823 96.832C49.1854 97.1568 49.1854 97.5241 49.1573 97.9054C49.1432 98.2161 49.0588 98.8093 49.2416 99.0636C49.3542 99.233 49.537 99.2472 49.6917 99.12C49.973 98.8941 49.8746 98.3715 49.8605 98.0466Z" fill="white"/>
<path d="M49.8746 93.3576C49.8043 92.8068 49.6495 92.2701 49.5511 91.7192C49.537 91.6204 49.3823 91.6204 49.3542 91.7192C49.2557 92.2983 49.1151 92.8491 49.2276 93.4423C49.312 93.7954 49.9308 93.7248 49.8746 93.3576Z" fill="white"/>
<path d="M45.8238 86.8466C45.8379 86.2957 45.6973 85.8297 45.5847 85.293C45.5566 85.1659 45.3597 85.1659 45.3316 85.293C45.219 85.8297 45.0784 86.2816 45.0925 86.8466C45.0925 87.3268 45.8098 87.3268 45.8238 86.8466Z" fill="white"/>
<path d="M41.8153 84.2054C41.8153 84.0924 41.6887 84.0642 41.6184 84.1207C41.3512 84.3608 41.1965 84.6715 41.0699 84.9964C40.9574 85.293 40.9152 85.8014 41.2387 85.985C41.7591 86.2675 41.8013 84.4455 41.8153 84.2054Z" fill="white"/>
<path d="M84.1088 82.553C84.0104 82.9767 83.9682 83.4004 83.94 83.8382C83.9119 84.2337 83.8416 84.615 84.1229 84.9399C84.1651 84.9822 84.2354 84.9822 84.2776 84.954C84.9809 84.5585 84.4605 83.1603 84.3058 82.553C84.2776 82.4541 84.137 82.4541 84.1088 82.553Z" fill="white"/>
<path d="M82.8149 86.3946C83.0962 86.0133 82.9555 85.5613 82.857 85.1235C82.7445 84.6574 82.632 84.2054 82.421 83.7676C82.3788 83.6687 82.2382 83.7252 82.2382 83.8241C82.1679 84.3608 82.2101 84.8692 82.2382 85.4059C82.2663 85.8155 82.3085 86.1969 82.6461 86.4511C82.7023 86.4935 82.7867 86.4511 82.8149 86.3946Z" fill="white"/>
<path d="M85.7966 90.773C85.9373 90.9707 86.2889 90.9848 86.3592 90.7023C86.4436 90.3351 86.2889 89.9255 86.1905 89.5724C86.0779 89.1487 85.9935 88.725 85.8529 88.3154C85.8107 88.1883 85.6278 88.1742 85.5856 88.3154C85.4591 88.7109 85.4872 89.1063 85.5294 89.5159C85.5434 89.8973 85.5575 90.4481 85.7966 90.773Z" fill="white"/>
<path d="M84.0244 89.7984C83.9822 89.7419 83.8978 89.7843 83.8838 89.8408C83.7572 90.1797 83.7713 90.5893 83.7853 90.9424C83.7994 91.3238 83.7009 91.691 84.0104 91.9593C84.0666 92.0017 84.137 92.0017 84.1792 91.9593C84.4886 91.6769 84.4042 91.3238 84.3761 90.9424C84.3479 90.5329 84.2917 90.095 84.0244 89.7984Z" fill="white"/>
<path d="M82.1257 89.8267C82.0413 89.4594 81.9991 89.1064 81.8584 88.7674C81.8022 88.612 81.6053 88.6968 81.5631 88.8098C81.4083 89.1911 81.4365 89.6007 81.4927 90.0103C81.5209 90.208 81.5631 90.4057 81.6334 90.6035C81.7037 90.8153 81.8725 90.9001 82.0131 91.0695C82.0835 91.1543 82.196 91.0837 82.2101 90.9848C82.2241 90.7871 82.3226 90.6317 82.2804 90.434C82.2241 90.2221 82.1679 90.0244 82.1257 89.8267Z" fill="white"/>
<path d="M82.7445 94.6287C82.6742 95.3208 82.5617 96.3659 83.1665 96.8885C83.3634 97.058 83.7572 96.9733 83.7432 96.6484C83.715 96.2671 83.504 95.8999 83.3915 95.5326C83.279 95.1795 83.0962 94.8971 82.9274 94.5722C82.8711 94.4875 82.7586 94.544 82.7445 94.6287Z" fill="white"/>
<path d="M85.7122 96.0693C85.6701 95.801 85.5294 95.5044 85.4028 95.2643C85.2762 94.9959 85.1637 94.7276 85.0512 94.4451C85.009 94.3462 84.8824 94.3886 84.8543 94.4734C84.6292 95.0665 84.7699 95.8857 85.1778 96.3659C85.4169 96.6343 85.7544 96.3377 85.7122 96.0693Z" fill="white"/>
<path d="M88.1877 96.5072C88.2158 96.0128 88.0611 95.6739 87.8923 95.2219C87.7235 94.7841 87.5548 94.3462 87.3016 93.9508C87.2453 93.866 87.1047 93.8943 87.1188 94.0073C87.175 94.8688 87.3719 95.9987 88.0189 96.5919C88.0892 96.6343 88.1877 96.5919 88.1877 96.5072Z" fill="white"/>
<path d="M91.6899 100.278C91.7039 99.8686 91.6336 99.6285 91.4367 99.2613C91.2679 98.9364 91.0851 98.654 90.8319 98.3997C90.7053 98.2726 90.5225 98.3997 90.5506 98.5692C90.649 99.2472 91.0288 99.8969 91.5211 100.349C91.5774 100.405 91.6899 100.363 91.6899 100.278Z" fill="white"/>
<path d="M94.1091 103.032C94.0387 103.88 93.9684 105.052 94.5029 105.758C94.5592 105.843 94.6717 105.772 94.6998 105.702C94.8686 105.278 94.7983 105.024 94.7279 104.572C94.6436 104.035 94.5029 103.513 94.32 103.004C94.2638 102.905 94.1231 102.919 94.1091 103.032Z" fill="white"/>
<path d="M91.493 102.157C91.4508 102.764 91.6195 103.287 91.7461 103.866C91.8305 104.275 92.4775 104.106 92.3791 103.696C92.2243 103.103 92.0134 102.623 91.6758 102.114C91.6195 102.015 91.493 102.058 91.493 102.157Z" fill="white"/>
<path d="M88.6096 101.352C88.7081 101.309 88.7643 101.182 88.7643 101.069C88.7503 100.448 88.4549 99.8686 88.047 99.4167C87.9486 99.3178 87.822 99.4308 87.8361 99.5438C87.9064 100.01 88.0189 100.476 88.0892 100.942C88.1455 101.224 88.3002 101.507 88.6096 101.352Z" fill="white"/>
<path d="M85.4872 99.2754C85.445 99.572 85.445 99.8686 85.4731 100.179C85.5013 100.547 85.5575 100.773 85.7404 101.097C85.7826 101.168 85.8951 101.168 85.9373 101.097C86.092 100.801 86.1342 100.589 86.0779 100.25C86.0217 99.8827 85.8951 99.5438 85.67 99.2472C85.6138 99.1483 85.5013 99.1765 85.4872 99.2754Z" fill="white"/>
<path d="M83.6728 101.535C83.6728 101.45 83.5462 101.408 83.504 101.493C83.2649 101.987 83.1946 102.425 83.2649 102.976C83.3212 103.428 83.4056 104.148 83.926 104.303C83.9963 104.332 84.0526 104.275 84.0807 104.219C84.2214 103.866 83.9963 103.498 83.8979 103.174C83.7432 102.637 83.6588 102.058 83.6728 101.535Z" fill="white"/>
<path d="M86.7812 104.374C86.739 104.318 86.6687 104.318 86.6405 104.374C86.303 104.854 86.303 105.843 86.4858 106.394C86.6124 106.747 87.1328 106.69 87.1469 106.309C87.1609 105.942 87.0625 105.589 87.0343 105.221C87.0062 104.939 86.95 104.6 86.7812 104.374Z" fill="white"/>
<path d="M89.5801 103.724C89.5239 103.611 89.3832 103.668 89.341 103.753C89.1301 104.261 89.1441 104.812 89.2144 105.349C89.2566 105.631 89.2988 106.196 89.7208 106.196C90.4662 106.196 89.7067 104.035 89.5801 103.724Z" fill="white"/>
<path d="M93.3355 107.608C93.2933 107.51 93.1245 107.51 93.0823 107.608C92.9276 107.947 92.8994 108.329 92.8713 108.696C92.8432 109.204 92.7869 109.699 92.8713 110.207C92.8854 110.32 93.012 110.433 93.1245 110.461C93.1948 110.475 93.237 110.475 93.3073 110.461C93.4199 110.447 93.5324 110.32 93.5605 110.207C93.6308 109.769 93.5886 109.346 93.5746 108.894C93.5324 108.456 93.5183 108.018 93.3355 107.608Z" fill="white"/>
<path d="M95.6562 111.055C95.6281 110.984 95.5437 110.984 95.5156 111.055C95.3327 111.521 95.3327 112.001 95.3186 112.495C95.3046 112.961 95.2764 113.357 95.5015 113.766C95.5437 113.837 95.6421 113.837 95.6843 113.766C95.9094 113.343 95.8672 112.961 95.8672 112.495C95.8531 112.001 95.8391 111.507 95.6562 111.055Z" fill="white"/>
<path d="M96.472 116.28C96.0641 116.874 95.6844 117.905 96.05 118.597C96.2188 118.907 96.7111 118.907 96.8799 118.597C97.2174 117.933 96.8799 116.987 96.7252 116.309C96.697 116.181 96.5283 116.181 96.472 116.28Z" fill="white"/>
<path d="M94.6013 114.67C94.5732 114.571 94.4326 114.515 94.3622 114.6C94.1231 114.896 94.0247 115.207 93.9684 115.574C93.9262 115.97 93.9121 116.535 94.2778 116.761C94.4466 116.874 94.6717 116.789 94.7701 116.633C94.9389 116.365 94.8264 115.998 94.7842 115.701C94.7279 115.362 94.6857 115.023 94.6013 114.67Z" fill="white"/>
<path d="M91.929 111.987C91.8727 111.902 91.7321 111.958 91.718 112.043C91.5914 112.481 91.6899 112.933 91.7321 113.385C91.7461 113.583 91.7461 114.218 92.1259 114.119C92.5057 114.021 92.3931 113.526 92.351 113.244C92.2947 112.792 92.2103 112.34 91.929 111.987Z" fill="white"/>
<path d="M89.8474 108.936C89.8052 109.6 89.7067 110.25 89.7348 110.913C89.763 111.351 90.3959 111.351 90.424 110.913C90.4522 110.193 90.3256 109.572 90.0583 108.908C90.0302 108.795 89.8614 108.809 89.8474 108.936Z" fill="white"/>
<path d="M86.5561 109.289C86.528 109.204 86.4014 109.204 86.3733 109.289C86.2045 109.741 86.1623 110.25 86.1904 110.73C86.2326 111.224 86.2045 111.718 86.6124 112.043C86.6827 112.1 86.7812 112.1 86.8374 112.015C87.1047 111.62 86.9922 111.266 86.9218 110.829C86.8374 110.306 86.7531 109.783 86.5561 109.289Z" fill="white"/>
<path d="M88.68 117.326C89.0034 116.916 89.0034 116.422 89.0738 115.927C89.1582 115.193 89.1722 114.515 88.9472 113.809C88.9191 113.71 88.7503 113.696 88.7362 113.809C88.6378 114.487 88.4831 115.15 88.3705 115.828C88.2861 116.337 88.1455 116.859 88.469 117.297C88.5112 117.354 88.6237 117.396 88.68 117.326Z" fill="white"/>
<path d="M91.7602 117.297C91.3664 117.975 91.0991 118.893 91.3101 119.67C91.4226 120.065 91.9993 120.065 92.0978 119.67C92.3087 118.921 92.0837 118.046 91.9149 117.311C91.9009 117.255 91.8024 117.241 91.7602 117.297Z" fill="white"/>
<path d="M93.9684 120.334C93.8137 120.856 93.5746 121.294 93.6027 121.859C93.6168 122.354 94.2919 122.325 94.3482 121.859C94.4044 121.322 94.3622 120.856 94.2216 120.334C94.1794 120.207 93.9965 120.207 93.9684 120.334Z" fill="white"/>
<path d="M89.1722 119.43C89.1441 119.388 89.1019 119.359 89.0597 119.388C88.7362 119.515 88.5956 119.825 88.5393 120.15C88.469 120.517 88.3565 121.125 88.7784 121.322C88.9191 121.393 89.0738 121.379 89.2004 121.266C89.4536 121.026 89.3551 120.673 89.3551 120.362C89.341 120.037 89.3832 119.712 89.1722 119.43Z" fill="white"/>
<path d="M85.9795 119.176C85.7263 119.656 85.5013 120.065 85.5013 120.63C85.5013 120.786 85.6138 120.899 85.7404 120.955C85.7966 120.984 85.8529 120.984 85.9232 120.955C86.0779 120.899 86.1483 120.786 86.1623 120.63C86.2045 120.178 86.1342 119.712 86.1905 119.275C86.2186 119.147 86.0498 119.049 85.9795 119.176Z" fill="white"/>
<path d="M85.9654 114.642C85.7404 115.009 85.6419 115.419 85.5294 115.828C85.4309 116.196 85.1919 116.761 85.5013 117.071C85.5716 117.142 85.6982 117.184 85.7966 117.142C86.2326 116.972 86.1904 116.478 86.2326 116.068C86.2748 115.602 86.317 115.136 86.2326 114.684C86.2045 114.543 86.0217 114.543 85.9654 114.642Z" fill="white"/>
<path d="M80.7614 86.6771C80.9161 86.3099 80.7192 85.8862 80.6207 85.5189C80.5223 85.1235 80.3957 84.615 80.1706 84.276C80.1284 84.2054 80.03 84.2054 79.9878 84.276C79.7768 84.6291 79.819 85.067 79.8471 85.4624C79.8753 85.8861 79.9456 86.4935 80.241 86.8183C80.4097 87.0019 80.677 86.8748 80.7614 86.6771Z" fill="white"/>
<path d="M53.5174 90.5187C53.4049 89.8267 53.1236 89.1205 52.9267 88.4567C52.8986 88.3719 52.772 88.3719 52.7438 88.4567C52.5469 89.1911 52.4766 90.1091 52.8564 90.8012C53.0533 91.1825 53.5737 90.9001 53.5174 90.5187Z" fill="white"/>
<path d="M55.6834 90.0244C55.3881 90.547 55.4584 91.2814 55.4303 91.8605C55.4162 92.0158 55.5146 92.1571 55.6412 92.2418C55.7538 92.3124 55.8381 92.3266 55.9788 92.2842C56.1757 92.2136 56.2742 92.0723 56.3023 91.8605C56.3726 91.2673 56.2882 90.5328 55.9788 90.0244C55.9085 89.9114 55.7537 89.9114 55.6834 90.0244Z" fill="white"/>
<path d="M50.4231 90.5328C50.62 90.1797 50.6341 89.8831 50.606 89.4877C50.5638 89.1063 50.5356 88.725 50.3528 88.386C50.2965 88.2731 50.1277 88.2731 50.0715 88.386C49.9027 88.6968 49.9027 89.0216 49.9449 89.3606C49.9871 89.7984 50.0152 90.1515 50.2543 90.5328C50.2825 90.6035 50.3809 90.6176 50.4231 90.5328Z" fill="white"/>
<path d="M53.8268 95.8292C53.8128 95.4479 53.7143 95.0666 53.6581 94.6852C53.6018 94.318 53.5455 93.9649 53.3908 93.6401C53.3205 93.4988 53.0814 93.4988 53.0111 93.6401C52.7157 94.2897 52.8282 95.2643 53.0251 95.9422C53.1658 96.3659 53.8409 96.2953 53.8268 95.8292Z" fill="white"/>
<path d="M57.5822 95.123C57.4978 95.7869 57.6244 96.4366 57.6244 97.1004C57.6244 97.5241 58.2995 97.51 58.2714 97.1004C58.2292 96.3942 58.1167 95.7021 57.8072 95.0665C57.751 94.9394 57.5963 95.0242 57.5822 95.123Z" fill="white"/>
<path d="M60.5218 94.3886C60.3952 93.7389 60.4093 93.0892 60.2264 92.4537C60.1842 92.3124 59.9733 92.3124 59.9311 92.4537C59.7623 93.061 59.7482 93.6824 59.8045 94.3039C59.8326 94.6287 59.8748 95.2502 60.3249 95.2502C60.7047 95.2502 60.5499 94.5581 60.5218 94.3886Z" fill="white"/>
<path d="M62.8847 94.8971C62.8003 94.7699 62.5612 94.7699 62.519 94.9394C62.4487 95.2643 62.505 95.6032 62.519 95.9281C62.5331 96.3094 62.5753 96.7614 62.7019 97.1145C62.8425 97.5241 63.5036 97.4817 63.4895 97.0015C63.4754 96.6484 63.3629 96.3094 63.2926 95.9563C63.2082 95.6174 63.0816 95.1937 62.8847 94.8971Z" fill="white"/>
<path d="M65.0789 94.9818C65.2195 95.1089 65.4867 95.123 65.5852 94.9112C65.7399 94.544 65.5711 94.205 65.4867 93.8378C65.3742 93.4 65.2758 92.948 65.0789 92.5384C65.0367 92.4537 64.882 92.4537 64.8398 92.5384C64.671 92.9339 64.6991 93.3576 64.7413 93.7813C64.7835 94.1626 64.7976 94.7134 65.0789 94.9818Z" fill="white"/>
<path d="M68.5389 95.2078C68.5107 94.7982 68.4545 94.3462 68.2013 94.0214C68.1591 93.9649 68.0325 93.9649 67.9903 94.0214C67.7371 94.3462 67.6809 94.7982 67.6668 95.2078C67.6387 95.7162 67.5684 96.4224 67.8778 96.832C68.0888 97.1145 68.4545 97.0721 68.5951 96.7331C68.7639 96.2812 68.567 95.6739 68.5389 95.2078Z" fill="white"/>
<path d="M70.6346 94.1203C70.7049 94.1626 70.7752 94.1344 70.8315 94.0638C71.155 93.6401 70.8737 92.9762 70.8315 92.496C70.7611 91.8181 70.6908 91.126 70.5502 90.4622C70.5361 90.3775 70.4095 90.3775 70.3954 90.4622C70.2407 91.126 70.1845 91.804 70.1985 92.496C70.1985 93.0186 70.1141 93.8378 70.6346 94.1203Z" fill="white"/>
<path d="M73.5601 94.2474C73.757 93.9508 73.5882 93.5129 73.5741 93.1881C73.546 92.8209 73.4616 92.4254 73.335 92.0865C73.2929 91.9735 73.1381 91.9735 73.0959 92.0865C72.9553 92.4819 72.885 92.9197 72.899 93.3293C72.9131 93.6965 72.8709 94.1344 73.2085 94.3462C73.335 94.431 73.4757 94.3604 73.5601 94.2474Z" fill="white"/>
<path d="M74.7697 89.1064C74.7415 89.6572 74.7416 90.1798 74.7556 90.7306C74.7697 91.1119 74.6853 91.578 75.0088 91.8464C75.065 91.9029 75.1354 91.9029 75.2057 91.8464C75.5292 91.5639 75.4026 91.1261 75.3604 90.7306C75.3041 90.1515 75.1213 89.6289 74.9385 89.0922C74.8822 89.0075 74.7697 89.0216 74.7697 89.1064Z" fill="white"/>
<path d="M78.089 90.5187C78.1453 90.5187 78.2015 90.4905 78.2297 90.434C78.3844 90.095 78.1031 89.7843 77.9765 89.4736C77.8077 89.0499 77.7514 88.5697 77.5405 88.1742C77.5123 88.1177 77.4279 88.1177 77.3998 88.1742C77.2029 88.5697 77.2873 89.064 77.3998 89.4736C77.4983 89.8549 77.6389 90.4764 78.089 90.5187Z" fill="white"/>
<path d="M80.03 90.1939C79.8331 90.6176 79.7909 91.0696 79.7627 91.5356C79.7205 92.0158 79.594 92.3831 79.8612 92.8068C79.9034 92.8774 79.9878 92.8915 80.0581 92.835C80.4238 92.5243 80.3816 92.1853 80.3957 91.7193C80.4097 91.1967 80.3816 90.6741 80.1566 90.1939C80.1284 90.1515 80.0441 90.1515 80.03 90.1939Z" fill="white"/>
<path d="M77.9765 93.2305C77.8921 93.1457 77.7233 93.1457 77.6671 93.2729C77.5264 93.5977 77.5827 93.9931 77.6389 94.3321C77.6952 94.6993 77.6811 95.2078 78.0328 95.4337C78.1875 95.5326 78.3703 95.462 78.4688 95.3208C78.6657 95.01 78.4688 94.5863 78.3985 94.2615C78.3141 93.9225 78.2297 93.4706 77.9765 93.2305Z" fill="white"/>
<path d="M72.3645 98.5268C72.3927 97.9195 72.252 97.3405 71.9004 96.8603C71.8582 96.8038 71.7738 96.8179 71.7738 96.9026C71.7597 97.1286 71.7316 97.3405 71.7316 97.5664C71.7457 97.8913 71.7738 98.2161 71.8019 98.541C71.8441 98.8799 72.3505 98.8941 72.3645 98.5268Z" fill="white"/>
<path d="M75.9793 96.7473C75.923 96.3094 75.8386 95.9846 75.5432 95.6739C75.487 95.6174 75.3604 95.6315 75.3463 95.7304C75.3182 95.8857 75.276 95.9987 75.276 96.1823C75.2901 96.4507 75.3182 96.7049 75.3323 96.9732C75.3463 97.1569 75.4026 97.8772 75.7261 97.7783C76.1199 97.6653 76.0074 97.0156 75.9793 96.7473Z" fill="white"/>
<path d="M80.1566 98.0608C80.1144 97.5947 79.9737 97.1568 79.7909 96.7331C79.7487 96.6484 79.6221 96.6484 79.6221 96.7614C79.608 97.2557 79.5096 97.7359 79.5518 98.2302C79.5799 98.6116 79.5518 99.0353 79.9034 99.2613C79.9456 99.2895 80.0159 99.2895 80.0581 99.2472C80.3394 98.9082 80.1988 98.4562 80.1566 98.0608Z" fill="white"/>
<path d="M78.0046 99.5014C77.8921 99.9957 77.878 100.448 77.9062 100.956C77.9202 101.168 77.864 101.775 78.2156 101.775C78.8345 101.775 78.2437 99.798 78.1734 99.5014C78.1453 99.4167 78.0187 99.4167 78.0046 99.5014Z" fill="white"/>
<path d="M69.4953 98.8093C69.1015 99.2754 69.0311 100.038 69.214 100.603C69.2562 100.744 69.3968 100.871 69.5515 100.857C69.5797 100.857 69.6078 100.857 69.65 100.843C69.8047 100.801 69.9032 100.66 69.9032 100.504C69.9032 99.9816 69.8328 99.3601 69.6922 98.8658C69.6781 98.7811 69.5515 98.7387 69.4953 98.8093Z" fill="white"/>
<path d="M65.4586 98.9506C65.3883 98.8517 65.2336 98.8658 65.2054 98.9788C65.107 99.3601 65.0085 99.7274 64.9241 100.123C64.8538 100.49 64.7272 100.773 64.9663 101.097C65.0085 101.154 65.0648 101.182 65.1211 101.168C65.9931 100.984 65.8243 99.5014 65.4586 98.9506Z" fill="white"/>
<path d="M60.9719 99.459C60.8031 99.7697 60.2827 101.535 60.9578 101.535C61.3235 101.535 61.3235 100.999 61.3376 100.758C61.3657 100.306 61.4079 99.8686 61.1969 99.459C61.1547 99.3743 61.0141 99.3743 60.9719 99.459Z" fill="white"/>
<path d="M55.585 99.7697C55.5006 99.6991 55.4021 99.6991 55.3318 99.7697C55.1208 99.9533 55.1208 100.349 55.0927 100.617C55.0646 100.984 55.0364 101.366 54.9802 101.733C54.9098 102.241 55.6694 102.467 55.7538 101.945C55.8241 101.549 55.8241 101.14 55.81 100.744C55.81 100.462 55.8241 99.9675 55.585 99.7697Z" fill="white"/>
<path d="M51.9703 99.4873C51.8015 100.01 51.7593 100.532 51.6749 101.055C51.6186 101.479 51.5483 101.818 51.7312 102.199C51.7593 102.256 51.8577 102.27 51.8999 102.227C52.1953 101.902 52.2234 101.563 52.2656 101.14C52.3219 100.575 52.35 100.038 52.1953 99.4873C52.1672 99.3743 51.9984 99.3743 51.9703 99.4873Z" fill="white"/>
<path d="M53.8972 107.665C53.9675 107.693 54.0238 107.679 54.08 107.623C54.3473 107.241 54.2066 106.803 54.1644 106.366C54.1222 105.772 54.0941 105.221 53.9253 104.642C53.8972 104.558 53.7847 104.558 53.7565 104.642C53.5737 105.207 53.4752 105.772 53.4612 106.366C53.433 106.846 53.4049 107.425 53.8972 107.665Z" fill="white"/>
<path d="M57.5963 104.586C57.54 104.487 57.3853 104.487 57.329 104.586C56.9915 105.193 57.0477 106.196 57.2025 106.846C57.3009 107.255 57.9338 107.171 57.9198 106.747C57.9057 106.337 57.8354 105.928 57.8072 105.532C57.7791 105.207 57.751 104.883 57.5963 104.586Z" fill="white"/>
<path d="M62.2659 104.431C62.2096 104.289 61.9564 104.289 61.9002 104.431C61.7173 104.826 61.7454 105.334 61.7033 105.772C61.6611 106.14 61.5345 106.747 61.858 107.015C61.9986 107.128 62.1533 107.128 62.294 107.015C62.6175 106.747 62.4768 106.14 62.4487 105.772C62.4206 105.349 62.4487 104.84 62.2659 104.431Z" fill="white"/>
<path d="M65.9087 105.25C65.8524 105.01 65.7118 104.812 65.6415 104.572C65.543 104.289 65.4727 103.964 65.4446 103.668C65.4305 103.569 65.2758 103.484 65.2195 103.611C64.9523 104.19 64.8819 105.066 65.4164 105.532C65.6415 105.702 65.9931 105.532 65.9087 105.25Z" fill="white"/>
<path d="M69.214 105.928C69.5937 105.928 69.4249 105.236 69.3828 105.066C69.2702 104.558 69.3406 103.936 69.0733 103.484C69.0311 103.4 68.9046 103.4 68.8483 103.484C68.5951 103.922 68.6373 104.529 68.6936 105.01C68.7217 105.306 68.7498 105.928 69.214 105.928Z" fill="white"/>
<path d="M73.6164 105.32C73.5179 104.741 73.5742 104.134 73.335 103.597C73.2929 103.498 73.1381 103.498 73.0959 103.597C72.8428 104.162 72.8709 104.897 72.9975 105.49C73.0678 105.914 73.6867 105.73 73.6164 105.32Z" fill="white"/>
<path d="M74.9947 101.366C74.9525 101.21 74.7275 101.21 74.6712 101.366C74.5446 101.775 74.5165 102.143 74.5728 102.566C74.615 102.905 74.6571 103.385 75.0791 103.414C75.3463 103.428 75.2901 102.933 75.2479 102.806C75.1354 102.326 75.1354 101.832 74.9947 101.366Z" fill="white"/>
<path d="M79.4674 104.84C79.4111 104.741 79.2705 104.741 79.2142 104.84C78.9189 105.377 78.9329 106.295 79.2001 106.832C79.3549 107.128 79.7487 106.959 79.7627 106.676C79.7909 106.365 79.7065 106.041 79.6784 105.73C79.6643 105.433 79.608 105.108 79.4674 104.84Z" fill="white"/>
<path d="M81.0708 104.19C81.2818 103.64 81.0848 102.933 80.9442 102.368C80.9161 102.27 80.7614 102.27 80.7473 102.368C80.6629 102.693 80.6207 103.004 80.5926 103.343C80.5644 103.696 80.6488 103.993 80.8879 104.233C80.9442 104.318 81.0427 104.275 81.0708 104.19Z" fill="white"/>
<path d="M83.1946 108.964C83.3774 108.428 83.3353 107.637 83.0118 107.142C82.9836 107.1 82.9274 107.1 82.8992 107.142C82.5476 107.679 82.5757 108.526 82.9977 109.021C83.068 109.091 83.1665 109.049 83.1946 108.964Z" fill="white"/>
<path d="M83.4619 111.662C83.4197 111.535 83.2509 111.535 83.2087 111.662C83.0821 112.001 83.0258 112.326 82.9977 112.679C82.9696 113.018 82.8992 113.441 83.0962 113.752C83.2087 113.936 83.4618 113.936 83.5884 113.752C83.7713 113.47 83.701 113.131 83.6869 112.806C83.6588 112.41 83.6025 112.043 83.4619 111.662Z" fill="white"/>
<path d="M82.9555 117.184C82.7586 117.792 82.6883 118.455 82.7164 119.091C82.7445 119.571 83.4337 119.571 83.4618 119.091C83.49 118.455 83.4196 117.792 83.2227 117.184C83.1665 117.057 82.9977 117.057 82.9555 117.184Z" fill="white"/>
<path d="M81.2255 115.376C81.1411 115.263 81.0145 115.263 80.9302 115.376C80.7473 115.617 80.7332 115.955 80.691 116.238C80.6348 116.605 80.6067 116.958 80.7473 117.283C80.8598 117.537 81.2958 117.537 81.4084 117.283C81.535 116.987 81.5209 116.676 81.4787 116.351C81.4506 116.04 81.4365 115.645 81.2255 115.376Z" fill="white"/>
<path d="M80.7614 110.292C80.7332 110.024 80.7051 109.713 80.5223 109.501C80.4941 109.473 80.4379 109.473 80.4097 109.501C80.241 109.699 80.2128 109.967 80.1706 110.207C80.1144 110.56 80.0722 110.913 80.0159 111.266C79.9878 111.422 80.03 111.62 80.1847 111.69C80.241 111.718 80.2972 111.747 80.3676 111.747C80.5926 111.733 80.7192 111.591 80.7473 111.365C80.8036 111.012 80.7895 110.659 80.7614 110.292Z" fill="white"/>
<path d="M77.8781 108.978C77.8921 108.668 77.9062 108.357 77.7655 108.074C77.6952 107.933 77.4702 107.933 77.3998 108.074C77.2592 108.357 77.2451 108.668 77.2029 108.978C77.1607 109.331 77.0763 109.699 77.1045 110.066C77.1326 110.546 77.7655 110.518 77.8218 110.066C77.8781 109.713 77.864 109.346 77.8781 108.978Z" fill="white"/>
<path d="M73.7289 108.244C73.532 108.668 73.5601 109.162 73.5038 109.628C73.4616 110.009 73.2225 110.461 73.4898 110.786C73.5179 110.829 73.5742 110.829 73.6164 110.814C74.0664 110.73 74.0524 110.122 74.0805 109.769C74.1227 109.275 74.1649 108.696 73.9398 108.244C73.9117 108.159 73.757 108.159 73.7289 108.244Z" fill="white"/>
<path d="M71.2112 108.555C71.2112 109.162 71.0565 109.826 71.3659 110.363C71.4081 110.433 71.5206 110.433 71.5628 110.363C71.8863 109.783 71.6894 109.106 71.4644 108.512C71.4081 108.399 71.2112 108.399 71.2112 108.555Z" fill="white"/>
<path d="M68.0747 108.611C67.8637 109.035 67.8356 109.614 67.8919 110.066C67.9341 110.475 68.4967 110.475 68.5248 110.066C68.567 109.6 68.5529 109.021 68.3419 108.611C68.2857 108.512 68.131 108.512 68.0747 108.611Z" fill="white"/>
<path d="M65.543 108.71C65.2195 109.19 65.1914 109.981 65.2617 110.546C65.318 110.97 65.8665 110.97 65.9087 110.546C65.9509 110.264 65.9228 109.967 65.9368 109.67C65.9509 109.36 65.965 109.049 65.8946 108.752C65.8524 108.583 65.6274 108.583 65.543 108.71Z" fill="white"/>
<path d="M61.0985 109.402C60.9015 110.024 60.9156 110.758 61.0703 111.394C61.1406 111.69 61.661 111.634 61.6189 111.323C61.5485 110.687 61.5204 110.009 61.3235 109.402C61.2813 109.289 61.1266 109.289 61.0985 109.402Z" fill="white"/>
<path d="M59.3544 108.682C59.3544 108.541 59.1434 108.47 59.0731 108.597C58.9043 108.922 58.7918 109.247 58.7777 109.614C58.7637 109.939 58.6793 110.363 58.9324 110.617C59.0168 110.701 59.1434 110.701 59.2278 110.617C59.4669 110.391 59.3966 110.024 59.4107 109.727C59.4247 109.388 59.3685 109.035 59.3544 108.682Z" fill="white"/>
<path d="M50.1277 109.148C50.184 109.19 50.2403 109.19 50.2965 109.148C50.606 108.894 50.5497 108.583 50.5216 108.216C50.4934 107.806 50.4372 107.425 50.2684 107.043C50.2403 106.987 50.1699 106.987 50.1418 107.043C50.0012 107.382 49.9168 107.721 49.9027 108.089C49.8746 108.47 49.7761 108.865 50.1277 109.148Z" fill="white"/>
<path d="M53.9956 109.515C53.7143 110.165 53.6018 110.843 53.644 111.535C53.6721 111.944 54.2488 111.944 54.2769 111.535C54.3191 110.871 54.2207 110.221 54.1925 109.557C54.1785 109.473 54.0378 109.402 53.9956 109.515Z" fill="white"/>
<path d="M50.2684 112.467C50.2121 112.326 49.959 112.326 49.8886 112.467C49.748 112.792 49.6917 113.187 49.6636 113.54C49.6355 113.908 49.537 114.303 49.6355 114.67C49.7199 114.981 50.1277 115.009 50.2825 114.755C50.4794 114.43 50.4653 114.049 50.4653 113.696C50.4794 113.286 50.4231 112.834 50.2684 112.467Z" fill="white"/>
<path d="M48.1727 113.865C47.8773 114.501 47.8211 115.235 47.8492 115.927C47.8633 116.393 48.5384 116.393 48.5665 115.927C48.5947 115.278 48.5665 114.6 48.5103 113.95C48.4962 113.795 48.2571 113.682 48.1727 113.865Z" fill="white"/>
<path d="M45.8238 117.594C45.8098 117.481 45.6551 117.424 45.5988 117.537C45.3175 118.159 45.0081 119.119 45.5566 119.698C45.7113 119.854 46.0348 119.797 46.077 119.557C46.1192 119.246 46.0208 118.978 45.9926 118.667C45.9504 118.314 45.852 117.961 45.8238 117.594Z" fill="white"/>
<path d="M50.4231 118.229C50.395 118.766 50.1699 119.43 50.4231 119.938C50.5356 120.15 50.8873 120.15 50.9857 119.938C51.2389 119.43 51.0279 118.597 50.7185 118.159C50.62 118.018 50.4231 118.06 50.4231 118.229Z" fill="white"/>
<path d="M53.2361 114.967C53.2924 115.602 53.0955 116.28 53.1939 116.902C53.2361 117.142 53.6299 117.198 53.7284 116.972C54.0378 116.28 53.8269 115.504 53.4049 114.924C53.3627 114.854 53.2361 114.868 53.2361 114.967Z" fill="white"/>
<path d="M56.9352 111.916C56.9071 111.817 56.7524 111.803 56.7242 111.916C56.6117 112.326 56.5836 112.735 56.5977 113.159C56.6117 113.498 56.5695 113.936 56.8508 114.176C56.9071 114.232 56.9915 114.232 57.0477 114.176C57.3431 113.922 57.2306 113.512 57.2024 113.159C57.1743 112.735 57.0477 112.326 56.9352 111.916Z" fill="white"/>
<path d="M56.1194 118.173C55.8944 118.71 55.8522 119.26 55.8381 119.84C55.8241 120.306 56.5695 120.306 56.5695 119.84C56.5555 119.26 56.5133 118.71 56.2882 118.173C56.2601 118.116 56.1476 118.116 56.1194 118.173Z" fill="white"/>
<path d="M58.4542 116.337C58.4261 116.916 58.0885 117.834 58.4964 118.3C58.5949 118.413 58.8059 118.413 58.9043 118.3C59.3544 117.792 58.9606 116.789 58.6793 116.28C58.623 116.167 58.4683 116.224 58.4542 116.337Z" fill="white"/>
<path d="M60.339 113.328C60.3108 113.625 60.2827 113.922 60.2968 114.218C60.2968 114.402 60.2686 114.571 60.2405 114.755C60.2124 114.939 60.2827 115.08 60.3249 115.249C60.339 115.334 60.4515 115.376 60.5218 115.334C60.8875 115.066 60.9297 114.797 60.9156 114.345C60.9016 113.95 60.7609 113.597 60.564 113.272C60.4937 113.159 60.339 113.215 60.339 113.328Z" fill="white"/>
<path d="M63.602 113.074C63.602 113.413 63.588 113.752 63.588 114.091C63.588 114.444 63.5317 114.713 63.7427 115.009C63.7849 115.052 63.8552 115.094 63.8974 115.052C64.5444 114.614 64.3053 113.456 63.7849 112.99C63.7145 112.933 63.602 112.975 63.602 113.074Z" fill="white"/>
<path d="M62.2096 118.568C62.1815 118.427 62.0971 118.328 62.0549 118.201C62.0268 118.102 61.8861 118.102 61.858 118.201C61.8158 118.328 61.7314 118.427 61.7033 118.568C61.6751 118.738 61.647 118.907 61.6189 119.091C61.5767 119.359 61.6048 119.84 61.8298 120.009C61.9705 120.122 62.2237 120.15 62.3221 119.938C62.4487 119.67 62.3362 119.373 62.3081 119.091C62.3081 118.921 62.2518 118.738 62.2096 118.568Z" fill="white"/>
<path d="M65.0366 117.043C64.9945 116.958 64.8679 117.001 64.8538 117.085C64.8538 117.34 64.7975 117.594 64.7694 117.848C64.7413 118.187 64.7413 118.512 64.6991 118.837C64.6428 119.26 65.332 119.345 65.4305 118.936C65.5008 118.611 65.543 118.201 65.4445 117.89C65.3602 117.566 65.2054 117.34 65.0366 117.043Z" fill="white"/>
<path d="M67.4699 112.834C67.484 113.286 67.4418 113.724 67.484 114.176C67.4981 114.416 67.4418 115.009 67.8215 115.009C68.581 115.009 67.7934 113.103 67.6809 112.792C67.6528 112.693 67.4699 112.693 67.4699 112.834Z" fill="white"/>
<path d="M70.6064 113.554C70.4939 113.823 70.4236 114.091 70.4236 114.388C70.4236 114.698 70.3955 114.854 70.6346 115.052C70.6908 115.094 70.7611 115.094 70.8033 115.052C71.0002 114.868 71.0143 114.783 71.0143 114.515C71.0143 114.176 70.9581 113.879 70.8315 113.554C70.7752 113.441 70.6486 113.441 70.6064 113.554Z" fill="white"/>
<path d="M69.3406 117.594C69.3265 117.467 69.1577 117.396 69.0874 117.523C68.8905 117.89 68.8061 118.244 68.7498 118.653C68.6936 119.034 68.6654 119.543 68.9467 119.84C69.0874 119.981 69.3687 119.967 69.4671 119.769C69.6219 119.458 69.5093 119.133 69.4953 118.794C69.4671 118.399 69.3968 118.003 69.3406 117.594Z" fill="white"/>
<path d="M72.4068 116.958C72.3927 116.888 72.2802 116.888 72.2661 116.958C72.2239 117.241 72.1255 117.495 72.0833 117.777C72.027 118.088 72.027 118.399 72.027 118.71C72.027 118.808 72.0833 118.921 72.1817 118.978C72.3083 119.049 72.3646 119.049 72.4911 118.978C72.5896 118.921 72.6459 118.823 72.6459 118.71C72.6459 118.441 72.6599 118.173 72.6177 117.905C72.5615 117.58 72.4489 117.283 72.4068 116.958Z" fill="white"/>
<path d="M74.0664 112.947C74.0664 112.848 73.9117 112.792 73.8695 112.891C73.6445 113.399 73.0537 114.713 73.771 115.052C73.8273 115.08 73.8695 115.08 73.9117 115.037C74.1789 114.783 74.0945 114.501 74.1086 114.162C74.1227 113.766 74.0805 113.357 74.0664 112.947Z" fill="white"/>
<path d="M76.3168 119.359C76.3309 119.246 76.1762 119.218 76.1199 119.303C75.9793 119.543 75.8105 119.741 75.7823 120.037C75.7542 120.306 75.7261 120.63 75.9933 120.772C76.0918 120.814 76.1902 120.8 76.2465 120.701C76.359 120.517 76.3028 120.362 76.3028 120.15C76.3168 119.896 76.2887 119.614 76.3168 119.359Z" fill="white"/>
<path d="M76.3028 115.405C76.2746 115.334 76.148 115.334 76.1058 115.405C75.8527 115.984 75.8667 116.662 75.9511 117.283C76.0074 117.693 76.6684 117.523 76.5841 117.114C76.4715 116.535 76.5559 115.955 76.3028 115.405Z" fill="white"/>
<path d="M78.1312 113.117C77.9202 113.371 77.8358 113.653 77.7936 113.964C77.7655 114.289 77.653 114.783 78.0187 114.939C78.6094 115.221 78.3562 113.413 78.3281 113.187C78.3141 113.117 78.2015 113.032 78.1312 113.117Z" fill="white"/>
<path d="M79.2423 118.512C78.9329 118.851 78.8485 119.317 78.8626 119.755C78.8626 119.868 78.9189 120.009 79.0314 120.065C79.158 120.136 79.2564 120.122 79.383 120.065C79.4955 120.009 79.5518 119.882 79.5518 119.755C79.5799 119.359 79.5658 118.95 79.4533 118.568C79.4393 118.47 79.3127 118.427 79.2423 118.512Z" fill="white"/>
<path d="M23.9527 117.438C23.9387 117.311 23.7699 117.325 23.6996 117.41C23.3761 117.848 22.94 118.978 23.5448 119.359C23.6855 119.444 23.8543 119.388 23.9387 119.26C24.1075 119.006 24.009 118.653 24.009 118.371C24.009 118.032 24.009 117.749 23.9527 117.438Z" fill="white"/>
<path d="M24.7404 114.247C24.2903 114.642 23.8965 115.433 24.3466 115.941C24.4028 115.998 24.5013 115.998 24.5575 115.941C24.9514 115.518 24.8107 114.896 24.9514 114.36C24.9795 114.247 24.8248 114.162 24.7404 114.247Z" fill="white"/>
<path d="M30.0429 118.074C29.7757 118.399 29.6491 118.865 29.5647 119.26C29.4522 119.797 30.2117 120.009 30.3805 119.486C30.507 119.091 30.6336 118.47 30.3805 118.116C30.3101 118.018 30.1414 117.961 30.0429 118.074Z" fill="white"/>
<path d="M33.7561 111.153C33.4326 111.634 33.2638 112.1 33.2357 112.679C33.2216 113.117 33.8826 113.117 33.9108 112.679C33.9389 112.17 33.967 111.69 33.8967 111.182C33.8967 111.111 33.8123 111.083 33.7561 111.153Z" fill="white"/>
<path d="M33.4044 106.916C33.4888 106.436 33.4888 105.942 33.5873 105.462C33.6154 105.306 33.4607 105.221 33.3482 105.32C32.9122 105.673 32.7012 106.267 32.7293 106.817C32.7574 107.185 33.3341 107.312 33.4044 106.916Z" fill="white"/>
<path d="M29.8741 103.145C29.8882 103.513 30.4648 103.611 30.5211 103.23C30.6196 102.58 30.7321 101.945 30.9009 101.295C30.9149 101.239 30.8446 101.168 30.7883 101.21C30.1695 101.62 29.846 102.411 29.8741 103.145Z" fill="white"/>
<path d="M35.036 96.1965C34.6843 96.3942 34.4593 96.6625 34.2765 97.0297C34.0936 97.4252 33.8967 97.9054 34.0655 98.3291C34.1499 98.5268 34.4171 98.5127 34.5578 98.3856C34.8109 98.1596 34.8672 97.7642 34.9375 97.4393C35.0219 97.0439 35.0782 96.6625 35.1344 96.2812C35.1626 96.2106 35.0922 96.1682 35.036 96.1965Z" fill="white"/>
<path d="M36.5269 98.6822C36.119 98.8941 36.0205 99.459 35.9643 99.8827C35.908 100.349 36.6535 100.363 36.6957 99.8827C36.7378 99.5014 36.8363 99.0777 36.6535 98.7246C36.6394 98.6681 36.5691 98.6681 36.5269 98.6822Z" fill="white"/>
<path d="M41.4356 94.1485C41.4637 94.0355 41.3371 93.979 41.2527 94.0497C40.8308 94.3886 40.2682 95.2784 40.8308 95.7162C40.887 95.7586 41.0136 95.7586 41.0699 95.7162C41.2809 95.575 41.309 95.3914 41.323 95.1372C41.3371 94.8123 41.3652 94.4592 41.4356 94.1485Z" fill="white"/>
<path d="M38.1021 90.9C38.4538 91.0836 38.5944 90.4905 38.6366 90.2927C38.7351 89.7843 38.8476 89.2617 38.9601 88.7533C38.9882 88.612 38.8335 88.5273 38.7351 88.6261C38.3834 88.9369 38.1443 89.2617 37.9756 89.6995C37.8349 90.0667 37.6802 90.6741 38.1021 90.9Z" fill="white"/>
<path d="M45.0503 81.8468C44.9237 82.0445 44.8815 82.2564 44.8252 82.4823C44.7549 82.7366 44.6565 82.9767 44.5861 83.245C44.5017 83.5981 44.9659 83.7817 45.1628 83.4851C45.4441 83.0614 45.6269 82.3129 45.3597 81.8468C45.2894 81.7338 45.1206 81.7338 45.0503 81.8468Z" fill="white"/>
<path d="M41.1964 82.3552C41.3793 81.8468 41.3934 81.2112 41.2668 80.6745C41.2527 80.6322 41.1964 80.6039 41.1543 80.6463C40.7604 81.1265 40.5213 81.9174 40.9855 82.4117C41.0558 82.4682 41.1683 82.4258 41.1964 82.3552Z" fill="white"/>
<path d="M62.1955 90.9424C62.1533 91.126 62.2377 91.3379 62.2659 91.5074C62.3221 91.7899 62.2518 92.0865 62.3221 92.3689C62.3784 92.6232 62.7159 92.6373 62.8566 92.4395C63.0957 92.0865 62.9269 90.8012 62.3362 90.8436C62.2659 90.8436 62.2096 90.8859 62.1955 90.9424Z" fill="white"/>
<path d="M58.7355 90.0526C58.4261 90.4763 58.2995 90.9001 58.4261 91.4226C58.4542 91.5497 58.5668 91.6062 58.6793 91.6204C58.7355 91.6204 58.7637 91.6062 58.8199 91.578C58.9043 91.5356 58.9606 91.4368 58.9465 91.352C58.9465 90.9424 58.9465 90.5187 58.9465 90.1091C58.9465 89.982 58.7918 89.9679 58.7355 90.0526Z" fill="white"/>
<path d="M68.145 89.8125C67.8778 90.1939 67.8637 90.6458 67.92 91.0978C67.9622 91.4368 68.0044 91.9735 68.3982 92.0582C68.4967 92.0723 68.567 92.0441 68.6232 91.9593C68.8202 91.6769 68.5811 91.3097 68.5107 91.0131C68.3982 90.6176 68.3982 90.208 68.2716 89.8267C68.2576 89.7702 68.1872 89.7702 68.145 89.8125Z" fill="white"/>
<path d="M73.1803 89.7137C73.2225 89.7278 73.2647 89.7137 73.2928 89.6854C73.4616 89.4736 73.3632 89.2758 73.2647 89.0357C73.1381 88.6826 72.9553 88.3719 72.8006 88.0329C72.7584 87.9341 72.6037 87.9764 72.6037 88.0894C72.6318 88.4284 72.688 88.7109 72.7865 89.0216C72.885 89.29 72.899 89.6148 73.1803 89.7137Z" fill="white"/>
<path d="M77.5123 86.7053C77.5686 86.7195 77.5967 86.7195 77.653 86.7053C77.7514 86.663 77.8499 86.5782 77.8358 86.4511C77.7936 86.1121 77.7233 85.8155 77.4701 85.5754C77.3154 85.4342 77.0623 85.6178 77.1748 85.8014C77.2732 85.985 77.3014 86.2392 77.3295 86.4511C77.3295 86.5641 77.3858 86.663 77.5123 86.7053Z" fill="white"/>
<path d="M89.1863 92.6091C89.0175 92.2701 88.905 91.917 88.7784 91.5639C88.7081 91.3803 88.469 91.3661 88.3987 91.5639C88.258 92.0159 88.3705 92.5384 88.6237 92.948C88.8347 93.3011 89.3691 92.9763 89.1863 92.6091Z" fill="white"/>
<path d="M81.6193 82.8637C81.7037 82.6377 81.6193 82.4823 81.6053 82.2564C81.5771 82.0445 81.549 81.8468 81.4787 81.649C81.4224 81.5219 81.2536 81.5078 81.2114 81.649C81.0567 82.0586 81.0145 82.6801 81.3802 82.9626C81.4646 83.0473 81.5912 82.9625 81.6193 82.8637Z" fill="white"/>
<path d="M84.0104 78.6266C83.715 79.0927 83.7572 79.7 83.8416 80.2226C83.8557 80.3073 83.926 80.3638 83.9963 80.3779C84.0807 80.4062 84.1088 80.4062 84.1792 80.3497C84.2636 80.2791 84.3058 80.2085 84.2917 80.0955C84.2214 79.6153 84.2354 79.1492 84.1932 78.669C84.1651 78.5842 84.0526 78.556 84.0104 78.6266Z" fill="white"/>
<path d="M41.2386 79.0785C41.1964 78.7961 41.1121 78.5277 41.0558 78.2594C41.0136 78.0475 40.9855 77.8498 40.8026 77.6944C40.7464 77.6379 40.676 77.6379 40.6057 77.6944C40.24 78.0193 40.4651 78.8526 40.6057 79.248C40.7464 79.6576 41.2949 79.4881 41.2386 79.0785Z" fill="white"/>
<path d="M39.157 85.3636C38.9039 85.7449 38.6788 86.6771 39.143 86.9596C39.1852 86.9878 39.2274 86.9878 39.2695 86.9596C39.5087 86.8183 39.5227 86.663 39.5227 86.3946C39.5227 86.0698 39.579 85.7449 39.5368 85.4201C39.4946 85.2082 39.2414 85.2223 39.157 85.3636Z" fill="white"/>
<path d="M91.0851 88.5555C91.6055 88.3296 91.2117 87.5951 90.7194 87.694C90.0583 87.8211 89.2285 87.8776 88.6518 88.2448C88.5675 88.3013 88.5675 88.4143 88.6518 88.4708C89.327 88.8945 90.3678 88.8521 91.0851 88.5555Z" fill="white"/>
<path d="M91.3101 91.3238C91.6055 91.3944 91.8446 91.4933 92.1399 91.4933C92.4494 91.4933 92.7588 91.3803 93.0401 91.2531C93.4339 91.0554 93.1526 90.3775 92.7447 90.5328C92.5197 90.6176 92.2947 90.6882 92.0837 90.7871C91.8446 90.9001 91.5633 91.0695 91.3101 91.1402C91.2257 91.1684 91.2257 91.3096 91.3101 91.3238Z" fill="white"/>
<path d="M93.5605 94.7841C93.6871 94.7558 93.7996 94.6428 93.8277 94.5157C93.8559 94.3886 93.8559 94.3321 93.7856 94.2191C93.7152 94.1061 93.5886 94.0355 93.4621 94.0355C92.8713 94.0355 92.3087 94.205 91.718 94.2756C91.6336 94.2897 91.5774 94.4027 91.6758 94.4451C92.2525 94.7699 92.8854 94.9536 93.5605 94.7841Z" fill="white"/>
<path d="M93.4339 88.3154C93.9403 88.5273 94.4466 88.3578 94.8405 88.0188C95.1358 87.7646 94.7561 87.3691 94.4466 87.5104C94.0809 87.6799 93.7574 87.9623 93.4058 88.1459C93.3355 88.1883 93.3636 88.2872 93.4339 88.3154Z" fill="white"/>
<path d="M93.3636 84.9399C93.6731 84.8269 94.1091 84.7563 94.2497 84.4314C94.306 84.3184 94.2638 84.2054 94.1372 84.1631C93.7996 84.0218 93.434 84.2761 93.1386 84.4173C92.7729 84.5868 92.4775 84.7986 92.1681 85.0528C92.1259 85.0952 92.154 85.18 92.2244 85.18C92.6182 85.1235 92.9839 85.067 93.3636 84.9399Z" fill="white"/>
<path d="M96.4298 90.6317C96.908 90.4622 96.7111 89.8267 96.2329 89.8973C95.7125 89.9679 95.2905 90.1939 94.8826 90.5187C94.8123 90.5752 94.8545 90.7165 94.9389 90.7306C95.4452 90.8294 95.9234 90.8153 96.4298 90.6317Z" fill="white"/>
<path d="M88.8909 86.3946C89.3551 86.2957 89.8895 86.211 90.2693 85.9285C90.3396 85.872 90.3396 85.7873 90.2693 85.7308C89.777 85.3918 89.0457 85.6178 88.7081 86.0698C88.5815 86.2251 88.68 86.437 88.8909 86.3946Z" fill="white"/>
<path d="M96.2469 85.2364C96.7674 85.1658 97.2456 85.0387 97.7519 84.8692C98.1598 84.728 98.5255 84.5585 98.5817 84.0924C98.5817 84.0359 98.5395 83.9794 98.4974 83.9794C98.0473 83.8947 97.7238 84.1207 97.3159 84.276C96.8518 84.4597 96.4439 84.5868 96.1063 84.9963C96.0078 85.0952 96.1063 85.2506 96.2469 85.2364Z" fill="white"/>
<path d="M97.7097 82.2988C98.3426 82.2846 99.1021 81.988 99.5944 81.6208C99.6929 81.5361 99.7632 81.4372 99.721 81.296C99.721 81.2677 99.7069 81.2536 99.6929 81.2253C99.6225 81.1123 99.496 81.07 99.3694 81.0982C98.7364 81.2112 98.0754 81.6914 97.6253 82.1293C97.5831 82.1858 97.6253 82.2988 97.7097 82.2988Z" fill="white"/>
<path d="M98.863 86.5076C98.6239 86.5358 98.413 86.5641 98.1879 86.6629C97.9488 86.7618 97.8504 86.9454 97.7238 87.1573C97.6534 87.2703 97.78 87.3691 97.8785 87.3126C97.991 87.2561 98.202 87.2561 98.3286 87.242C98.4973 87.2279 98.6661 87.1855 98.849 87.1714C99.299 87.1573 99.2991 86.4652 98.863 86.5076Z" fill="white"/>
<path d="M96.5986 92.609C96.247 92.722 95.9797 92.8633 95.6703 93.0469C95.5859 93.0892 95.6281 93.2022 95.7125 93.2163C96.0782 93.2305 96.3736 93.2446 96.7392 93.1598C97.0487 93.0892 97.4988 93.0186 97.5831 92.6514C97.5972 92.5949 97.5691 92.5384 97.5269 92.496C97.2456 92.3124 96.8799 92.5102 96.5986 92.609Z" fill="white"/>
<path d="M100.565 88.8663C99.9179 89.0216 99.3694 89.4453 98.7927 89.7702C98.7083 89.8125 98.7505 89.9255 98.8349 89.9396C99.5663 90.0103 100.466 89.7984 100.691 89.0075C100.72 88.9228 100.635 88.8521 100.565 88.8663Z" fill="white"/>
<path d="M103.054 86.2534C103.336 86.0698 103.687 85.8438 103.673 85.4624C103.673 85.4059 103.631 85.3777 103.575 85.3636C103.209 85.3495 102.956 85.6602 102.675 85.8579C102.534 85.9709 102.379 86.0556 102.253 86.1686C102.126 86.2816 102.028 86.4229 101.901 86.5359C101.845 86.5924 101.901 86.6771 101.971 86.663C102.154 86.6206 102.309 86.6206 102.478 86.5641C102.703 86.4935 102.872 86.3664 103.054 86.2534Z" fill="white"/>
<path d="M104.053 87.3409C103.744 87.4398 103.533 87.694 103.251 87.8635C103.097 87.9482 102.942 88.0188 102.787 88.1036C102.618 88.1883 102.464 88.3295 102.295 88.4002C102.211 88.4284 102.253 88.5555 102.337 88.5555C102.52 88.5555 102.689 88.612 102.886 88.5838C103.125 88.5414 103.322 88.4708 103.547 88.3578C103.87 88.1883 104.264 87.8917 104.222 87.468C104.208 87.3833 104.137 87.3127 104.053 87.3409Z" fill="white"/>
<path d="M102.59 83.5699C102.59 83.4851 102.506 83.4286 102.436 83.4569C102.112 83.5275 101.929 83.7535 101.69 83.9653C101.409 84.2196 101.156 84.4738 100.888 84.7421C100.804 84.8269 100.888 84.954 101.001 84.9399C101.62 84.8269 102.604 84.3184 102.59 83.5699Z" fill="white"/>
<path d="M102.084 81.5078C102.267 81.4372 102.436 81.3101 102.59 81.183C102.97 80.8864 103.139 80.392 103.083 79.9401C103.069 79.8412 102.97 79.7847 102.886 79.8553C102.59 80.1237 102.379 80.4203 102.126 80.7028C101.887 80.957 101.704 81.3101 101.437 81.536C101.381 81.5784 101.451 81.649 101.493 81.6349C101.704 81.5925 101.873 81.5925 102.084 81.5078Z" fill="white"/>
<path d="M103.111 78.3723C103.519 78.2311 103.898 78.104 104.264 77.878C104.587 77.6944 104.967 77.4543 104.967 77.0447C104.967 76.9741 104.911 76.9176 104.841 76.9176C104.447 76.9035 104.166 77.2001 103.87 77.4261C103.547 77.6803 103.265 77.9204 103.026 78.2593C102.984 78.3158 103.054 78.4006 103.111 78.3723Z" fill="white"/>
<path d="M105.53 79.9966C105.009 80.2508 104.391 80.6886 104.236 81.2818C104.222 81.3666 104.292 81.4231 104.362 81.409C104.911 81.296 105.46 80.9994 105.952 80.7169C106.43 80.4485 106.008 79.7706 105.53 79.9966Z" fill="white"/>
<path d="M106.374 83.4569C105.867 83.7535 105.389 84.0501 105.023 84.5161C104.967 84.5868 104.995 84.6856 105.094 84.6856C105.656 84.728 106.121 84.4879 106.599 84.2337C107.091 83.9653 107.513 83.7393 107.822 83.2591C107.865 83.2026 107.822 83.1038 107.752 83.0897C107.218 83.0049 106.824 83.1885 106.374 83.4569Z" fill="white"/>
<path d="M107.302 84.954C106.81 85.0529 106.36 85.2647 106.022 85.6461C105.896 85.7873 105.924 86.0839 106.149 86.1121C106.444 86.1545 106.669 86.0839 106.936 85.9427C107.274 85.759 107.401 85.4907 107.485 85.1235C107.499 85.0105 107.415 84.9257 107.302 84.954Z" fill="white"/>
<path d="M110.396 80.7028C110.171 80.8016 110.073 80.9994 109.96 81.183C109.806 81.409 109.637 81.6491 109.482 81.875C109.398 81.9739 109.538 82.1151 109.637 82.0869C110.115 81.9457 111.001 81.3525 110.593 80.7593C110.537 80.6745 110.467 80.6604 110.396 80.7028Z" fill="white"/>
<path d="M109.44 79.0785C109.032 79.1915 108.709 79.5305 108.427 79.8412C108.132 80.1802 107.78 80.4909 107.471 80.8299C107.386 80.9146 107.429 81.1265 107.583 81.0982C108.062 81.0417 108.371 80.7875 108.709 80.4627C109.074 80.1096 109.44 79.7 109.567 79.2056C109.595 79.135 109.524 79.0503 109.44 79.0785Z" fill="white"/>
<path d="M107.218 77.7933C107.682 77.7509 107.991 77.5814 108.357 77.2989C108.68 77.0447 109.046 76.5928 108.934 76.1408C108.92 76.0843 108.835 76.0419 108.793 76.0843C108.512 76.282 108.315 76.6069 108.062 76.847C107.78 77.1153 107.429 77.3413 107.133 77.5955C107.063 77.652 107.119 77.8074 107.218 77.7933Z" fill="white"/>
<path d="M110.129 74.4742C110.41 74.2765 110.734 74.1635 111.029 73.9799C111.282 73.8245 111.634 73.7539 111.718 73.4432C111.733 73.3867 111.704 73.3302 111.662 73.302C111.353 73.1183 111.029 73.3867 110.776 73.5421C110.439 73.7539 110.256 74.0646 110.031 74.3753C109.974 74.4318 110.073 74.5166 110.129 74.4742Z" fill="white"/>
<path d="M111.465 76.0702C110.959 76.4374 110.579 76.9035 110.509 77.5532C110.495 77.6379 110.593 77.652 110.65 77.6097C111.057 77.2707 111.55 77.0447 111.887 76.621C112.112 76.3385 111.803 75.816 111.465 76.0702Z" fill="white"/>
<path d="M112.394 78.0757C112.351 78.0475 112.281 78.0475 112.253 78.0899C111.943 78.443 111.915 78.9938 111.634 79.3751C111.592 79.4316 111.662 79.5446 111.747 79.5164C112.098 79.3751 112.45 79.2904 112.619 78.8949C112.731 78.6124 112.717 78.2311 112.394 78.0757Z" fill="white"/>
<path d="M36.133 87.242C35.9361 87.1149 35.7111 87.0443 35.5001 86.9313C34.9375 86.663 34.6703 87.581 35.3032 87.6516C35.5845 87.6798 35.8939 87.5669 36.133 87.4256C36.2034 87.3974 36.2034 87.2844 36.133 87.242Z" fill="white"/>
<path d="M33.6435 89.8549C34.0233 89.982 34.4593 89.9114 34.8531 89.8549C34.9797 89.8408 34.9797 89.6289 34.8531 89.6007C34.5296 89.5442 34.2202 89.4312 33.9108 89.3041C33.6576 89.2052 33.306 88.9369 33.0106 89.0499C32.9403 89.0781 32.884 89.1346 32.884 89.2194C32.8981 89.6148 33.3482 89.7561 33.6435 89.8549Z" fill="white"/>
<path d="M34.5156 91.9593C34.5859 91.9311 34.5859 91.804 34.5156 91.7616C34.0936 91.578 33.6857 91.5074 33.2357 91.4509C32.8278 91.3944 32.5043 91.2532 32.1386 91.4791C32.0823 91.5074 32.0542 91.578 32.0683 91.6345C32.3496 92.5243 33.8826 92.2277 34.5156 91.9593Z" fill="white"/>
<path d="M35.2048 93.3999C34.5718 93.4141 33.9952 93.5271 33.3763 93.6401C32.7574 93.753 32.223 93.753 31.6604 94.0355C31.6041 94.0638 31.59 94.1768 31.6604 94.205C32.7434 94.6993 34.3187 94.2191 35.261 93.5694C35.3173 93.5271 35.3032 93.3999 35.2048 93.3999Z" fill="white"/>
<path d="M30.507 93.0893C30.5774 93.0469 30.5774 92.9339 30.507 92.8915C30.0429 92.6373 29.4803 92.1853 28.9318 92.2559C28.7348 92.2842 28.552 92.4819 28.6786 92.6938C29.0583 93.2587 29.9304 93.3435 30.507 93.0893Z" fill="white"/>
<path d="M30.4508 89.9679C30.5633 89.9538 30.6055 89.8267 30.507 89.7561C30.2961 89.6148 30.0851 89.4877 29.846 89.3888C29.5928 89.29 29.3115 89.1064 29.0302 89.1205C28.8192 89.1346 28.6786 89.3465 28.7911 89.5442C29.1005 90.0809 29.9444 90.0103 30.4508 89.9679Z" fill="white"/>
<path d="M31.8573 87.0726C31.9698 87.0443 31.9698 86.8889 31.8573 86.8607C31.2947 86.7194 30.7602 86.3663 30.1695 86.4793C30.0992 86.4935 30.071 86.5782 30.0992 86.6488C30.4367 87.2985 31.2384 87.2138 31.8573 87.0726Z" fill="white"/>
<path d="M26.2875 91.7757C25.8515 91.2955 25.0498 90.773 24.3747 90.9424C24.1496 90.9989 24.0371 91.3379 24.234 91.4932C24.7122 91.917 25.5983 92.0299 26.2031 91.9735C26.3016 91.9735 26.3579 91.8605 26.2875 91.7757Z" fill="white"/>
<path d="M26.3579 89.8549C26.4844 89.8267 26.4704 89.6431 26.3579 89.6007C25.9359 89.4595 25.6827 89.0499 25.2608 88.951C25.0076 88.8945 24.6841 89.1911 24.881 89.4453C25.2327 89.9255 25.8234 89.982 26.3579 89.8549Z" fill="white"/>
<path d="M26.4141 87.3833C26.8361 87.4821 27.3283 87.3126 27.7222 87.1573C27.7925 87.129 27.7784 87.0302 27.7081 87.016C27.244 86.9737 26.8079 86.8183 26.4 86.6206C26.2172 86.5217 25.7671 86.437 25.6968 86.7195C25.5843 87.1149 26.1328 87.3268 26.4141 87.3833Z" fill="white"/>
<path d="M26.2875 84.0501C26.1609 84.502 26.7095 84.6856 27.033 84.7986C27.4127 84.9257 27.9331 84.8692 28.2848 84.7139C28.3832 84.6715 28.3832 84.5303 28.3129 84.4738C28.0175 84.1631 26.4985 83.2874 26.2875 84.0501Z" fill="white"/>
<path d="M21.9836 82.3694C22.6447 82.7083 23.3198 82.9484 24.0793 82.9061C24.1496 82.9061 24.1778 82.8213 24.1356 82.7789C23.6433 82.2705 23.0104 82.0163 22.4056 81.6632C21.9414 81.3948 21.5195 82.1293 21.9836 82.3694Z" fill="white"/>
<path d="M22.3071 83.9088C22.2368 84.3325 22.701 84.5162 23.0244 84.6574C23.4745 84.841 23.8683 84.8127 24.3325 84.7845C24.4028 84.7845 24.445 84.6715 24.3747 84.6291C24.1356 84.5303 22.4056 83.2592 22.3071 83.9088Z" fill="white"/>
<path d="M22.0118 86.8042C22.6025 87.1149 23.1792 87.242 23.8262 87.3268C23.9527 87.3409 23.9527 87.1714 23.8824 87.1149C23.3901 86.7477 22.9119 86.4652 22.3493 86.2251C21.9696 86.0698 21.632 86.6065 22.0118 86.8042Z" fill="white"/>
<path d="M20.1974 88.2731C19.9723 88.6544 20.5771 89.0216 20.8022 89.1911C21.21 89.5159 21.6601 89.7137 22.1665 89.8408C22.279 89.869 22.3493 89.7419 22.279 89.6572C22.054 89.3888 20.5631 87.6375 20.1974 88.2731Z" fill="white"/>
<path d="M16.9483 85.3777C16.7233 85.759 17.3 86.098 17.5531 86.2393C17.9892 86.4935 18.4533 86.4794 18.9315 86.55C19.044 86.5641 19.0862 86.437 19.0018 86.3805C18.7065 86.1686 17.2859 84.7986 16.9483 85.3777Z" fill="white"/>
<path d="M19.255 83.7958C18.9878 83.6264 18.6783 83.4569 18.383 83.3439C18.0595 83.2309 17.8766 83.6546 18.0736 83.8806C18.4955 84.3325 19.3394 84.6433 19.9442 84.5585C20.0286 84.5444 20.0708 84.4597 20.0145 84.389C19.8035 84.1207 19.5363 83.9795 19.255 83.7958Z" fill="white"/>
<path d="M19.902 81.3948C19.9442 81.3524 19.9442 81.2677 19.902 81.2253C19.6488 81.0135 19.3535 80.9287 19.0581 80.8158C18.7205 80.6745 18.4392 80.5757 18.0736 80.5333C17.9751 80.5192 17.9188 80.6321 17.9329 80.7169C18.0736 81.5643 19.2691 81.9174 19.902 81.3948Z" fill="white"/>
<path d="M13.4743 82.8496C13.1789 83.132 13.6009 83.5557 13.7837 83.7393C14.1494 84.0783 14.5714 84.2902 15.0496 84.4031C15.1199 84.4173 15.1762 84.3466 15.134 84.2902C14.9089 83.8806 14.6276 83.5416 14.3041 83.2168C14.1494 83.0614 13.7415 82.5812 13.4743 82.8496Z" fill="white"/>
<path d="M14.2619 80.4485C14.2057 80.4062 14.1072 80.4344 14.0791 80.4909C13.9103 80.8299 14.051 81.1265 14.276 81.3948C14.487 81.6632 14.8808 81.6773 15.1902 81.6632C15.3027 81.6632 15.3449 81.5078 15.2465 81.4513C14.8386 81.2112 14.6417 80.7451 14.2619 80.4485Z" fill="white"/>
<path d="M17.0609 78.2735C16.9343 77.9486 16.5686 77.7933 16.3014 77.6097C15.9497 77.3696 15.5419 77.186 15.1058 77.2707C14.8949 77.3131 14.7823 77.5956 14.8949 77.7792C15.1199 78.1464 15.5559 78.3159 15.9497 78.443C16.2732 78.5418 16.7514 78.6548 17.0327 78.3865C17.0609 78.3582 17.0749 78.3159 17.0609 78.2735Z" fill="white"/>
<path d="M13.4462 76.5504C13.5728 76.5363 13.629 76.3809 13.5165 76.3103C12.968 75.9996 12.0115 75.364 11.3786 75.8018C11.3223 75.8442 11.2802 75.929 11.3364 75.9854C11.5333 76.282 11.8849 76.3527 12.2084 76.4515C12.6304 76.5786 13.0102 76.5928 13.4462 76.5504Z" fill="white"/>
<path d="M11.6177 78.4712C11.5896 78.5136 11.5755 78.556 11.6036 78.6125C11.8568 78.9797 12.4335 78.9232 12.8273 78.9373C12.968 78.9373 12.9961 78.7678 12.8976 78.6972C12.5601 78.4712 11.9553 78.0616 11.6177 78.4712Z" fill="white"/>
<path d="M11.8568 80.4627C11.8006 80.4485 11.7302 80.4909 11.7162 80.5474C11.6318 80.9429 11.899 81.2818 12.2788 81.3666C12.4054 81.3948 12.5179 81.2818 12.4897 81.1547C12.4054 80.8016 12.1803 80.5756 11.8568 80.4627Z" fill="white"/>
<path d="M71.3378 73.2313C66.5698 73.0336 61.436 73.655 56.8227 74.8838C56.7805 74.8979 56.7946 74.9544 56.8368 74.9544C61.6751 74.1917 66.4713 73.8245 71.3378 73.3443C71.3941 73.3302 71.3941 73.2313 71.3378 73.2313Z" fill="white"/>
<path d="M120.565 6.9206C120.875 6.9206 119.932 6.80761 119.285 6.75112C119.201 5.73421 119.103 4.73143 118.976 3.71453C118.751 1.86432 116.332 1.86432 116.107 3.71453C115.994 4.59019 115.924 5.46586 115.839 6.34153C115.614 6.31329 115.403 6.28504 115.178 6.27091C111.198 6.01669 107.26 5.88957 103.279 5.98844C91.1976 6.24267 79.1298 6.60988 67.0479 6.89236C47.5679 7.34431 27.8206 7.00535 8.43901 9.0674C8.38275 8.60132 8.34056 8.13524 8.2843 7.68328C8.07332 6.04494 5.83698 5.98844 5.7104 7.68328C5.6682 8.27648 5.62601 8.8838 5.58381 9.47699C4.52894 9.97132 4.47268 11.3837 5.40097 11.9769C4.05073 32.6116 4.76804 53.4299 4.76804 74.0787C4.76804 89.6148 3.95227 105.419 5.1056 120.969C3.85382 121.068 2.60203 121.195 1.35024 121.407C-0.47821 121.718 -0.351625 124.585 1.35024 124.995C2.72861 125.319 4.12105 125.545 5.52755 125.701C5.68227 127.269 5.86511 128.85 6.07609 130.404C6.31519 132.198 8.76251 131.492 8.95942 130.009C9.1282 128.681 9.26885 127.339 9.4095 126.012C11.7865 126.125 14.1775 126.167 16.5686 126.252C22.6166 126.492 28.6504 126.647 34.6984 126.774C46.6396 127.043 58.5808 127.565 70.522 127.918C80.6066 128.215 90.6912 128.497 100.776 128.865C104.911 129.006 109.341 129.557 113.561 129.119C113.688 129.726 113.828 130.333 113.997 130.927C114.405 132.339 116.444 132.339 116.852 130.927C117.091 130.093 117.26 129.246 117.415 128.384C117.598 128.328 117.795 128.271 117.977 128.215C119.187 127.819 119.496 126.139 118.329 125.461C118.146 125.362 117.963 125.263 117.78 125.178C117.977 122.354 117.907 119.501 117.949 116.676C118.006 111.62 118.09 106.549 118.174 101.493C118.357 90.4622 118.624 79.4316 118.892 68.401C119.159 57.2998 119.454 46.1986 119.553 35.0974C119.623 26.8491 120.017 18.3749 119.553 10.0702C120.186 9.98544 120.819 9.9007 120.593 9.9007C122.478 9.9007 122.478 6.9206 120.565 6.9206ZM17.3844 10.6069C33.7701 8.51658 50.7185 8.8838 67.2167 8.44596C81.7318 8.0505 96.3454 7.25957 110.86 7.79627C110.987 7.79627 110.987 7.97988 110.86 7.97988C96.3173 8.54483 81.7599 8.68607 67.2167 9.08153C50.62 9.53349 33.9951 10.5363 17.3844 10.7764C17.2718 10.7905 17.2718 10.621 17.3844 10.6069ZM113.955 67.0734C113.659 78.1181 113.378 89.1628 113.167 100.222C113.069 105.306 112.998 110.377 112.97 115.461C112.956 118.145 112.844 120.885 112.956 123.611C109.201 122.918 105.122 123.088 101.521 122.947C91.5351 122.565 81.549 122.311 71.5488 122.085C59.6216 121.817 47.6945 121.774 35.7673 121.435C29.7053 121.266 23.6433 121.125 17.5813 121.012C15.0074 120.969 12.4194 120.842 9.84551 120.842C10.9707 105.334 10.2675 89.5865 10.2534 74.0929C10.2393 53.6559 10.9567 32.8941 8.8469 12.5136C15.5278 13.1068 22.2227 13.1068 28.9458 13.0079C41.6606 12.8243 54.3613 12.5701 67.0761 12.3017C78.9329 12.0475 90.8038 11.8639 102.675 11.5814C106.753 11.4826 110.762 11.2283 114.813 10.7905C115.038 10.7622 115.277 10.734 115.502 10.6916C115.024 18.3749 115.108 26.1712 114.883 33.8121C114.531 44.8992 114.236 55.9863 113.955 67.0734Z" fill="#E40000"/>
<path d="M7.48259 70.8868C6.87779 70.7597 6.28706 70.9292 5.73853 71.1975C5.9917 70.6043 6.28706 70.0394 6.54023 69.4462C6.80747 68.7965 7.28568 68.2315 7.46852 67.5677C7.48259 67.5112 7.45446 67.4406 7.38413 67.4265C6.62462 67.3135 5.78072 67.8219 5.11967 68.401C5.47129 66.5508 6.273 64.8842 6.69495 63.034C6.70901 62.9775 6.66682 62.8928 6.59649 62.9069C4.3039 63.1894 3.19276 65.8446 2.74268 67.8219C2.05349 70.8162 2.02536 73.768 4.03666 76.1126C4.12105 76.2114 4.28983 76.1549 4.31796 76.0419C4.47268 75.59 4.57113 75.1663 4.65552 74.7426C4.85243 74.5166 4.99308 74.2482 5.1478 73.9516C5.34471 73.5562 5.62601 73.2454 5.86511 72.8924C6.32926 72.2003 7.10283 71.7766 7.55292 71.0845C7.60918 71.0139 7.55292 70.9009 7.48259 70.8868Z" fill="#2D2D2D"/>
<path d="M118.048 59.7291C117.963 59.6726 117.879 59.7715 117.893 59.8421C118.118 61.0567 118.385 62.2431 118.596 63.4295C117.921 62.9352 117.091 62.6386 116.304 62.7092C116.247 62.7092 116.205 62.7657 116.233 62.8222C116.501 63.3165 116.908 63.6978 117.119 64.2204C117.344 64.7854 117.598 65.3221 117.865 65.8729C117.977 66.0989 118.048 66.339 118.132 66.5932C118.034 66.565 117.935 66.5508 117.837 66.5367C117.471 66.4802 117.035 66.339 116.683 66.4802C116.627 66.5085 116.585 66.565 116.599 66.6215C116.669 66.9039 116.866 67.0875 117.035 67.3276C117.232 67.6101 117.373 67.9208 117.541 68.2174C117.724 68.5282 117.935 68.8248 118.104 69.1355C118.329 69.5451 118.385 69.9688 118.765 70.2936C118.737 70.9857 118.751 71.6919 118.878 72.3981C118.906 72.5534 119.103 72.5675 119.201 72.4828C122.689 69.4745 121.606 62.3137 118.048 59.7291Z" fill="#2D2D2D"/>
<path d="M49.5651 57.2574C48.5384 56.975 47.6101 57.1727 46.6818 57.6388C46.6537 57.6529 46.6255 57.667 46.5974 57.6811C45.7535 58.0907 45.1065 59.0511 44.8674 59.9409C44.5158 61.2403 44.8815 62.6668 45.8379 63.6272C46.5412 64.3334 47.5116 64.743 48.5103 64.743C49.7621 64.743 51.1967 64.0368 51.7734 62.8645C51.7874 62.8363 51.8015 62.808 51.8155 62.7798C52.1531 62.2007 52.3219 61.5652 52.3219 60.8872C52.3219 59.8986 51.9281 58.9382 51.2248 58.232C50.7607 57.7518 50.1981 57.4269 49.5651 57.2574Z" fill="#2D2D2D"/>
<path d="M76.0496 55.0541C76.0355 55.0541 76.0355 55.0541 76.0214 55.04C73.5319 54.3197 71.0002 56.3111 71.0002 58.8817C71.0002 61.438 73.5319 63.4436 76.0214 62.7233C76.0355 62.7233 76.0355 62.7233 76.0496 62.7092C77.7374 62.2149 78.961 60.6612 78.961 58.8817C78.947 57.1021 77.7374 55.5485 76.0496 55.0541Z" fill="#2D2D2D"/>
</g>
<defs>
<clipPath id="clip0">
<rect width="122" height="132" fill="white"/>
</clipPath>
</defs>
</svg>
