<svg width="106" height="107" viewBox="0 0 106 107" fill="none" xmlns="http://www.w3.org/2000/svg">
<g clip-path="url(#clip0)">
<path d="M106 27.8277C106.054 27.4184 105.837 27.0092 105.374 27.0092C104.585 27.0228 103.795 27.4048 103.02 27.8277C102.884 27.2547 102.747 26.6954 102.584 26.1498C103.714 25.4405 105.333 24.1037 105.061 22.6031C105.034 22.4804 104.898 22.4258 104.789 22.4531C103.782 22.6441 102.816 23.4489 101.89 24.09C101.495 23.0669 101.033 22.0984 100.516 21.1845C100.693 20.9662 100.856 20.7616 101.006 20.5706C101.727 19.6976 102.353 18.6745 102.176 17.5014C102.149 17.2832 101.863 17.215 101.7 17.3104C100.801 17.8015 100.067 18.6063 99.318 19.2884C98.8145 18.5791 98.2701 17.897 97.6849 17.2559C97.8346 17.0513 97.9707 16.8466 98.0932 16.6557C98.6648 15.7826 99.7127 13.9002 99.0458 12.8771C98.9914 12.8089 98.9234 12.7816 98.8417 12.7953C97.9027 12.9453 97.2086 14.3913 96.7323 15.1142C96.569 15.3598 96.3921 15.5644 96.188 15.7826C95.2762 14.9642 94.2963 14.2139 93.2484 13.5455C93.4526 13.2318 93.6431 12.9317 93.82 12.6725C94.5957 11.4448 95.562 9.61691 94.5685 8.26645C94.5005 8.17097 94.3371 8.14369 94.2691 8.26645C93.6023 9.72604 92.9626 11.0492 91.9011 12.2906C91.8195 12.3997 91.7106 12.4952 91.6154 12.6043C90.7716 12.1405 89.887 11.7313 88.9616 11.3493C89.7373 9.95794 90.513 8.15733 90.0503 6.79323C89.9959 6.62953 89.8054 6.53405 89.6421 6.62953C88.3084 7.40707 87.7096 9.26225 86.9203 10.5854C86.4984 10.449 86.0765 10.3126 85.641 10.1762C84.2665 9.76697 82.8784 9.39866 81.4767 9.04399C82.1435 7.42071 82.8376 5.53826 82.3477 3.83313C82.3068 3.66944 82.1027 3.6558 82.0074 3.79221C81.0276 5.22451 80.3472 6.97056 79.6395 8.60748C78.5916 8.36194 77.5437 8.13004 76.4958 7.92543C76.9177 6.28851 77.2715 4.31056 76.7952 2.91918C76.7272 2.71457 76.4822 2.63272 76.3189 2.79641C75.1485 3.96954 74.9444 6.00205 74.4545 7.52984C72.7806 7.2161 71.1203 6.94328 69.4464 6.6841C69.6233 5.29272 69.9499 3.06923 69.0381 1.88247C68.9973 1.8279 68.9156 1.78698 68.8476 1.8279C67.8542 2.55088 67.6908 4.06503 67.4051 5.19723C67.3098 5.56554 67.2145 5.94748 67.1057 6.34307C67.0376 6.32943 66.9696 6.31579 66.9015 6.31579C65.5679 6.12482 64.2342 5.97477 62.9005 5.82472C63.1319 3.87405 63.0366 1.88247 61.9207 0.763904C61.7982 0.641135 61.6213 0.70934 61.5668 0.859391C61.0361 2.19621 61.0769 3.80585 60.8183 5.22451C60.7911 5.36092 60.7639 5.49733 60.7367 5.63374C59.5663 5.52461 58.3959 5.42913 57.2256 5.36092C57.2392 3.79221 57.1575 2.16893 56.4499 0.818468C56.3682 0.668417 56.1505 0.682058 56.0688 0.818468C55.2659 2.11436 55.1706 3.724 55.1026 5.25179C53.5648 5.18359 52.0133 5.12902 50.4619 5.11538C50.4075 3.56031 50.2714 1.97795 49.4277 0.668417C49.346 0.532007 49.1555 0.532007 49.0602 0.668417C48.2301 1.97795 48.0804 3.54667 48.0668 5.10174C46.4473 5.11538 44.8278 5.15631 43.2084 5.22451C43.0178 3.4921 42.9362 1.54144 41.9972 0.190982C41.8883 0.0409309 41.6706 0.0272899 41.5617 0.190982C40.5955 1.65057 40.8948 3.61487 41.0854 5.33364C39.7517 5.41549 38.418 5.52461 37.0843 5.64738C36.9347 4.10595 36.9347 2.2917 36.1181 1.03672C35.9684 0.804827 35.6554 0.804827 35.5057 1.03672C34.6483 2.40082 34.8797 4.29692 34.9341 5.852C33.9271 5.96113 32.9336 6.09754 31.9402 6.2203C31.8721 5.852 31.7905 5.49733 31.736 5.12902C31.5455 3.91498 31.3822 2.38718 30.4568 1.50052C30.3479 1.40503 30.1846 1.41867 30.103 1.54144C29.4497 2.64636 29.6947 4.14687 29.7627 5.3882C29.79 5.75651 29.8172 6.12482 29.8444 6.49312C28.2658 6.6841 26.6463 6.95692 25.0404 7.29794C24.9452 6.87507 24.8635 6.43856 24.7955 6.01569C24.7547 5.75651 24.5777 1.80062 23.5026 2.42811C22.0737 3.26021 22.6997 6.39764 22.8902 7.78902C21.4749 8.14369 20.0868 8.55292 18.7123 9.03035C18.4673 8.36194 18.2904 7.67989 18.1135 6.97056C17.9366 6.24759 17.9366 5.45641 17.4739 4.84256C17.3378 4.66523 17.1336 4.62431 16.9567 4.77436C15.7183 5.79743 16.113 8.17097 16.6165 9.83517C15.5414 10.299 14.4935 10.8037 13.4865 11.3766C13.2279 10.8173 13.0101 10.2444 12.8196 9.67148C12.561 8.8803 12.5883 7.99364 11.9486 7.40707C11.7717 7.24338 11.554 7.25702 11.3771 7.40707C10.1523 8.44379 11.0368 11.0901 11.5676 12.3042C11.5948 12.3724 11.622 12.4406 11.6629 12.5088C10.615 13.2181 9.62152 14.0093 8.6825 14.9096C8.2198 14.3094 7.78431 13.6956 7.40326 13.0272C6.96777 12.2769 6.80447 11.5676 6.16485 10.9537C5.97432 10.7764 5.57966 10.7764 5.47079 11.0492C4.80395 12.6452 5.91989 14.3776 6.73642 15.7281C6.87251 15.96 7.03582 16.2055 7.19913 16.4783C6.87251 16.8603 6.5459 17.2559 6.2465 17.6651C6.02876 17.9516 5.83823 18.2517 5.64771 18.5518C4.59982 17.747 3.61998 16.4783 2.35434 16.0828C2.16382 16.0282 2.00051 16.1782 1.9869 16.3556C1.94608 17.7606 3.25253 18.9474 4.19155 19.8477C4.31403 19.9704 4.45012 20.1068 4.59982 20.2433C4.15072 21.0344 3.72885 21.8256 3.36141 22.6577C2.36795 22.1666 1.53781 21.3209 0.435485 21.089C0.149697 21.0208 -0.0680455 21.2663 -0.0136098 21.5392C0.176915 22.6714 1.27924 23.7763 2.61291 24.5265C1.74194 26.941 1.17037 29.4782 0.88458 32.0427C-0.857364 40.7048 1.00706 50.2398 6.98138 56.2009C6.98138 57.8379 7.02221 59.4066 7.04943 60.7843C7.13108 65.4086 7.74348 70.0329 8.34228 74.6027C8.84581 78.504 8.88663 83.2374 10.6014 86.825C10.2475 87.9436 10.0026 89.3759 10.4789 90.4535C10.5469 90.6172 10.7511 90.5899 10.8735 90.5081C11.5132 90.0033 11.7717 89.1167 11.9759 88.2437C12.18 88.5574 12.3569 88.8984 12.5066 89.1303C12.9013 89.7305 13.3095 90.1943 14.0036 90.3307C14.0989 90.3444 14.1669 90.3034 14.1941 90.2216C14.4799 89.5259 14.2077 88.6938 13.745 87.9436C13.432 87.4525 13.0918 86.9614 12.6699 86.5658C13.3095 83.1965 12.2889 79.4861 11.8398 76.1304C11.2954 72.0654 10.8327 67.9868 10.5741 63.8945C10.5605 63.7717 10.5605 63.6489 10.5605 63.5262C10.6014 62.0529 10.6558 60.5797 10.7238 59.1201C11.5812 59.6385 12.5066 60.0886 13.4728 60.4842C13.8403 60.6343 14.2213 60.757 14.6024 60.8934C14.616 61.4254 14.616 61.9574 14.6432 62.4894C14.3983 66.9091 14.5343 71.3834 14.8065 75.7758C15.0787 80.1409 15.6775 84.6015 17.1881 88.7211C18.0863 91.1492 18.5354 94.7641 20.1957 96.742C20.2229 96.7829 20.2773 96.8102 20.3181 96.8375C20.2637 97.956 20.1684 99.1155 20.5359 100.111C20.5767 100.22 20.6856 100.248 20.7808 100.18C21.5293 99.5657 21.8151 98.5017 21.9376 97.4377C22.237 97.7514 22.5092 98.0925 22.795 98.4198C23.0944 98.7472 23.7884 99.211 24.2103 98.8291C24.741 98.338 24.1831 97.3695 23.8565 96.9466C23.4346 96.401 22.9719 95.9235 22.4411 95.5007C22.8222 94.4367 22.5908 93.209 22.2778 91.9267C21.1891 87.4798 19.4608 83.6739 18.862 79.0223C18.2632 74.2753 18.2632 69.4464 18.3176 64.6584C18.3312 63.8808 18.4129 63.0351 18.5354 62.1348C20.2773 62.5986 22.0601 62.9532 23.8565 63.2397C23.7748 65.0403 23.8156 66.8546 23.6932 68.4506C23.3257 73.3477 23.7476 78.1084 24.428 82.9509C25.0404 87.357 26.1019 91.6812 27.4628 95.9235C28.2113 98.2698 29.6539 102.403 31.8041 103.835C31.7496 104.995 31.8585 106.304 32.5662 106.959C32.6206 107.014 32.7159 107.014 32.7839 106.959C33.2466 106.523 33.3147 105.936 33.3963 105.336C33.4508 104.927 33.5052 104.517 33.5732 104.094C33.9815 104.408 34.3898 104.722 34.8389 104.981C35.1927 105.186 36.1725 105.404 36.4447 104.94C36.785 104.354 36.1998 103.576 35.8459 103.181C35.356 102.635 34.662 102.185 33.9543 101.844C33.9407 100.548 33.1105 99.1837 32.4573 97.8742C30.3888 93.741 29.3409 89.3622 28.4699 84.8334C27.5309 79.9499 27.0954 75.0119 27.2859 70.0466C27.354 68.1368 27.7894 65.927 28.0208 63.7444C29.0551 63.8535 30.103 63.9354 31.1372 64.0036C31.2461 64.8493 31.3686 65.6814 31.4366 66.4317C31.5727 67.8094 31.7224 69.1872 31.8721 70.5513C31.9674 72.6111 32.1035 74.6572 32.3757 76.6761C33.0969 82.0643 34.7708 87.2751 36.7986 92.3223C37.098 93.0862 37.411 93.8774 37.7376 94.6822C38.7991 97.6969 39.9422 101.366 42.0788 103.767C41.8611 104.708 41.5617 105.963 42.1197 106.768C42.1605 106.823 42.2421 106.877 42.3102 106.85C43.0451 106.536 43.4125 105.704 43.6575 104.899C44.5148 105.118 45.6716 105.295 45.8077 104.79C45.9165 104.381 45.413 103.958 45.1272 103.753C44.7462 103.481 44.3107 103.276 43.8752 103.112C43.7936 100.098 42.106 97.2331 40.9901 94.4776C39.3298 90.3853 37.8328 86.3066 36.8122 81.9961C35.7098 77.3308 34.9886 72.5292 34.6483 67.7549C34.6483 67.673 34.6347 67.6048 34.6211 67.523C34.6483 66.4044 34.6892 65.2859 34.73 64.1673C40.0239 64.3446 45.3178 64.1946 50.3667 64.1946C53.5376 64.1946 58.0285 64.2764 62.5603 64.331C62.5058 64.7811 62.4378 65.204 62.3561 65.6269C61.4443 70.7286 60.6142 75.8849 59.2533 80.9048C58.0285 85.42 56.0008 89.7851 55.2931 94.423C55.0209 96.2373 54.2997 98.9109 54.6263 100.984C53.7825 101.516 52.8571 102.13 52.5849 103.099C52.5169 103.358 52.721 103.631 52.9932 103.631C53.7009 103.617 54.3541 103.303 54.9529 102.921C55.1162 103.522 55.3339 104.094 55.7558 104.517C55.8375 104.599 55.9735 104.599 56.0552 104.517C56.5723 103.972 56.654 103.181 56.586 102.417C58.2735 101.516 58.5048 98.8427 58.7089 97.1103C59.2805 92.3223 60.9816 87.8481 62.397 83.2647C63.894 78.3676 64.6833 73.2113 65.527 68.1641C65.7175 67.0183 66.0169 65.7224 66.3027 64.3583C69.1334 64.3719 71.828 64.3719 74.0734 64.3037C72.9031 68.4778 72.3179 72.9794 71.3789 76.8261C70.4535 80.591 69.7458 84.3832 69.0109 88.1891C68.5346 90.6172 67.2009 93.1271 66.9015 95.6098C66.4252 95.8417 65.9761 96.1282 65.5542 96.4419C64.9691 96.8648 64.2614 97.3968 64.0437 98.1197C63.9892 98.2834 64.0709 98.529 64.2478 98.6108C65.1051 98.9791 66.0714 98.529 66.9696 98.0106C67.0104 98.7472 67.0921 99.4975 67.3915 100.125C67.4459 100.248 67.5956 100.234 67.6772 100.166C68.5346 99.4975 68.7523 98.2561 68.8748 97.1376C73.5427 94.4094 73.5699 83.6603 74.577 79.3088C75.4479 75.5712 76.142 71.7653 77.0538 68.0277C77.5437 66.7182 78.02 65.4086 78.4419 64.0854C80.8507 63.8808 83.137 63.5398 85.2736 63.0351C85.0695 64.6584 84.8789 66.2953 84.6476 67.9322C83.7766 74.1252 82.0075 80.1545 80.9051 86.293C80.8643 86.4976 80.8643 86.7295 80.9051 86.9478C79.9797 87.507 78.891 88.2846 78.7277 89.2394C78.7141 89.294 78.7413 89.3486 78.7957 89.3622C79.5306 89.5805 80.388 89.144 81.1637 88.6665C81.1909 89.5668 81.3134 90.5081 81.6944 91.2174C81.7897 91.3811 82.0211 91.4084 82.1571 91.2719C83.0281 90.4262 82.7696 88.9666 82.7287 87.7662C82.9465 87.6435 83.1234 87.4661 83.2595 87.2751C84.9742 84.847 85.328 81.9279 85.9132 79.0769C86.3351 77.0035 86.7842 74.93 87.1788 72.8566C87.3694 72.0518 87.5599 71.247 87.7232 70.4421C87.9954 69.0644 88.1723 67.6594 88.2676 66.2407C88.4581 64.8221 88.6622 63.4034 88.8527 61.9847C90.7172 61.3163 92.4455 60.4842 93.9969 59.4611C94.0241 59.8977 94.0514 60.3478 94.0786 60.7843C94.0241 61.7938 93.9697 62.7895 93.8881 63.7853C93.4117 69.2963 93.4934 74.7663 93.2484 80.2364C92.5544 81.1367 91.8195 82.2416 91.9964 83.3193C92.01 83.3738 92.0645 83.4011 92.1189 83.3875C92.8402 83.1828 93.4798 82.6236 94.0513 82.037C94.1466 82.3371 94.2283 82.6372 94.3099 82.9373C94.4868 83.5921 94.5821 84.0968 95.0312 84.5879C95.0856 84.6424 95.1809 84.6424 95.2353 84.5879C96.1607 83.5648 95.9294 81.5596 95.3986 80.25C96.7187 78.7086 96.9228 75.5439 96.9092 72.7748C97.2222 70.183 97.2358 67.4684 97.1406 64.8903C97.3855 61.9984 97.6441 59.1065 97.7802 56.2009C100.652 52.9953 102.584 48.6438 103.346 42.8055C103.959 38.113 103.986 33.9797 103.469 30.3512C104.598 29.8192 105.823 28.9735 106 27.8277Z" fill="#231F20"/>
<path d="M88.8391 35.6167C84.1849 35.6439 79.3537 36.476 74.8764 37.2127C60.6278 39.5589 45.8757 39.7772 31.5183 38.5904C26.5783 38.1812 21.6654 37.1172 16.7254 36.7761C9.71678 35.8213 7.1583 45.2063 9.97535 49.0803C11.5132 51.2083 13.5137 53.0362 15.1195 54.0593C22.9447 59.0655 39.2482 59.7749 48.2845 59.5293C60.3965 59.2019 67.8678 59.6248 79.8981 58.288C85.9132 57.6196 91.8603 55.1642 95.6844 50.2671C100.461 44.1696 93.9016 35.5757 88.8391 35.6167Z" fill="white"/>
<path d="M9.34934 38.5358C10.4517 37.3491 11.3771 36.326 12.9149 35.6849C14.4391 35.0437 15.9769 35.1938 17.5827 35.0983C17.6644 35.0983 17.746 34.9755 17.6644 34.9073C15.1604 32.9157 9.62152 35.3166 9.25407 38.4949C9.24047 38.5495 9.30851 38.5767 9.34934 38.5358Z" fill="white"/>
<path d="M87.4919 33.6387C89.2474 33.6796 90.7852 33.8433 92.3775 34.6481C93.7656 35.3575 94.7318 36.6125 95.7661 37.7447C95.8205 37.8129 95.943 37.7583 95.943 37.6764C95.6028 34.2389 90.3633 31.7835 87.451 33.5023C87.383 33.5432 87.4102 33.6387 87.4919 33.6387Z" fill="white"/>
<path d="M31.5999 28.6461C33.4099 27.8686 33.8318 25.6315 35.0294 24.2537C35.9684 23.1897 36.6761 22.5895 37.5607 22.5622C38.2139 22.535 39.0032 22.7669 39.6428 23.7081C40.0647 24.3356 40.2416 25.004 40.5002 25.7133C40.9357 26.9137 41.6842 27.8004 42.4191 28.8235C43.2492 29.9966 44.6781 29.942 45.5219 28.8235C49.7679 23.1488 43.9024 15.5371 37.5607 15.4962C34.5667 15.4826 31.5727 17.2559 29.9124 19.6976C28.2113 22.1803 27.177 26.559 29.8852 28.6461C30.3888 29.0281 31.0828 28.8644 31.5999 28.6461Z" fill="white"/>
<path d="M74.2503 28.6461C76.9721 26.559 75.9242 22.1803 74.2231 19.6976C72.454 17.1195 69.6369 15.7008 66.5613 15.4962C60.0698 15.0597 54.5718 23.4625 58.6001 28.8234C59.4438 29.942 60.8728 29.9966 61.7029 28.8234C62.8733 27.1592 63.4585 25.4132 64.4791 23.7081C65.0643 22.7259 65.9489 22.5759 66.5613 22.5622C67.4187 22.5349 68.208 23.217 69.0926 24.2537C70.2765 25.6314 70.7392 27.8686 72.522 28.6461C73.0664 28.8643 73.7468 29.028 74.2503 28.6461Z" fill="white"/>
<path d="M60.0426 25.9725C61.5941 23.1215 63.3496 18.3199 67.582 19.4794C70.1677 20.1887 71.7191 24.1446 72.8622 26.2862C72.9167 26.3954 73.08 26.3135 73.0528 26.2044C72.2771 23.0806 70.6576 18.9064 67.0104 18.3608C62.9549 17.7606 60.3965 22.6168 59.9201 25.9179C59.9065 25.9998 60.0018 26.0543 60.0426 25.9725Z" fill="#231F20"/>
<path d="M31.1236 25.2358C32.7431 22.9714 35.3696 18.2653 38.8263 19.834C41.0446 20.8298 42.4463 24.0218 43.603 26.027C43.6847 26.1771 43.9296 26.0816 43.8752 25.9043C42.9906 23.0124 41.5481 19.5885 38.4044 18.5927C34.8661 17.4741 31.5727 22.3303 30.9875 25.1813C30.9875 25.2495 31.0828 25.2904 31.1236 25.2358Z" fill="#231F20"/>
<path d="M79.517 25.345C80.3472 25.3586 81.0548 25.2358 81.8305 24.9221C82.2252 24.7584 82.6199 24.5538 82.9737 24.3219C83.3956 24.0354 83.4636 23.6126 83.5861 23.1624C83.6133 23.0669 83.5725 22.9987 83.4908 22.9442C81.8305 21.7438 80.1294 23.7626 79.3946 25.1267C79.3401 25.2222 79.3946 25.345 79.517 25.345Z" fill="white"/>
<path d="M83.6269 26.1498C84.2529 26.7364 85.4913 26.5863 86.2671 26.5318C86.7434 26.5045 87.383 26.5318 87.7504 26.1771C88.0498 25.877 88.1315 25.4541 87.8865 25.0995C87.3421 24.2946 85.5186 24.6357 84.7701 25.004C84.6204 25.0722 83.2459 25.7951 83.6269 26.1498Z" fill="white"/>
<path d="M24.5641 26.1362C23.9245 25.3313 22.7133 24.1991 21.6246 24.7721C21.3524 24.9085 21.1755 25.3041 21.2844 25.6042C21.6518 26.6272 23.2305 27.0228 24.2103 26.9683C24.673 26.941 24.8227 26.4635 24.5641 26.1362Z" fill="white"/>
<path d="M20.3454 27.5139C20.0324 27.1183 19.5288 26.9956 19.0389 26.941C18.4401 26.8591 17.6916 26.7637 17.1064 26.941C16.4668 27.132 16.3579 27.9914 16.9295 28.3324C17.7461 28.8371 19.42 28.7007 20.2501 28.2369C20.5359 28.0868 20.5223 27.7322 20.3454 27.5139Z" fill="white"/>
<path d="M46.4065 59.5702C46.2704 58.2744 45.8621 57.0876 44.9639 56.1873C44.7326 55.9554 44.3651 55.969 44.1338 56.1873C43.222 57.0467 42.6912 58.2334 42.3374 59.5566C43.7663 59.5702 45.1408 59.5839 46.4065 59.5702Z" fill="#E40000"/>
<path d="M23.0807 53.8683C23.108 52.7907 21.679 52.1768 20.9305 52.9816C20.114 53.8683 19.4744 54.8914 18.93 55.969C20.0596 56.4055 21.2571 56.7875 22.5228 57.1285C22.8766 55.628 23.0671 54.4003 23.0807 53.8683Z" fill="#E40000"/>
<path d="M29.2184 55.2597C27.9527 55.5053 27.2042 56.7057 26.6871 58.0698C27.9119 58.3017 29.1775 58.4926 30.4432 58.67C30.729 56.8694 30.6881 54.9733 29.2184 55.2597Z" fill="#E40000"/>
<path d="M23.8973 40.923C24.0334 41.0185 24.2103 40.9912 24.36 40.923C25.367 40.391 25.8842 39.2315 26.2108 37.9493C24.9996 37.7719 23.7884 37.5946 22.5908 37.4309C22.5228 38.8496 22.7677 40.2 23.8973 40.923Z" fill="#E40000"/>
<path d="M40.0511 42.86C41.3167 42.4644 42.0108 40.9639 42.4326 39.2042C41.0309 39.1633 39.6292 39.0951 38.2411 39.0269C38.2683 41.0867 38.6085 43.3102 40.0511 42.86Z" fill="#E40000"/>
<path d="M32.0626 41.5369C33.2194 41.2504 33.9679 40.1728 34.4986 38.8223C33.5052 38.7541 32.5117 38.6859 31.5183 38.604C31.1781 38.5768 30.8378 38.5358 30.4976 38.5085C30.4024 40.2 30.6337 41.8779 32.0626 41.5369Z" fill="#E40000"/>
<path d="M15.0379 49.3532C13.8403 49.7897 12.9149 50.6218 12.0983 51.5766C13.119 52.6134 14.1805 53.4727 15.1059 54.0593C15.1876 54.1139 15.2692 54.1548 15.3509 54.2093C15.9905 53.0362 16.5621 51.7813 16.4804 50.4444C16.4396 49.7624 15.7727 49.0803 15.0379 49.3532Z" fill="#E40000"/>
<path d="M93.4117 45.6974C92.5816 46.0111 92.0917 47.1297 92.8538 47.8254C93.82 48.712 95.004 49.1622 96.2424 49.4486C97.0589 48.0982 97.3719 46.6522 97.3311 45.2199C95.943 45.1517 94.5413 45.2608 93.4117 45.6974Z" fill="#E40000"/>
<path d="M12.18 46.584C12.0031 45.3427 10.5469 45.3154 8.87302 45.711C8.95467 46.9933 9.32212 48.18 9.96174 49.0803C10.0298 49.1758 10.1114 49.2713 10.1795 49.3668C11.3498 48.5756 12.3297 47.6071 12.18 46.584Z" fill="#E40000"/>
<path d="M18.549 40.1591C18.8076 39.1088 18.8892 38.0448 18.9028 36.9671C18.1815 36.8853 17.4467 36.8171 16.7254 36.7625C16.0313 36.667 15.3781 36.6807 14.7657 36.7762C14.9834 38.0721 15.3373 39.3407 16.0041 40.5001C16.5893 41.5232 18.2496 41.3459 18.549 40.1591Z" fill="#E40000"/>
<path d="M49.2507 42.2871C49.6862 41.3186 49.9856 40.3092 50.217 39.2861C48.8833 39.2997 47.5632 39.2997 46.2296 39.2861C46.2976 40.2273 46.4609 41.1413 46.7739 41.9734C47.155 42.9282 48.72 43.4875 49.2507 42.2871Z" fill="#E40000"/>
<path d="M12.0983 42.4644C12.6291 42.2871 13.051 41.8097 13.0374 41.2367C12.9965 40.0909 12.3161 39.2042 11.4995 38.4131C10.4517 39.4225 9.70316 40.773 9.28129 42.2053C10.2203 42.5736 11.2001 42.7509 12.0983 42.4644Z" fill="#E40000"/>
<path d="M37.1388 56.0918C35.982 56.31 35.2063 57.565 34.6483 59.1201C35.914 59.2292 37.166 59.3247 38.4044 59.3793C38.5677 57.6605 38.4316 55.8599 37.1388 56.0918Z" fill="#E40000"/>
<path d="M83.0281 38.6177C83.3003 37.7447 83.4772 36.8444 83.5861 35.9304C82.3068 36.0668 81.0276 36.2442 79.762 36.4215C79.8708 37.1581 80.0205 37.8947 80.2247 38.604C80.6329 40.0363 82.6062 39.9818 83.0281 38.6177Z" fill="#E40000"/>
<path d="M68.0583 55.478C67.8677 55.287 67.5956 55.3552 67.4459 55.5598C66.6838 56.5965 66.5068 57.8924 66.5477 59.2292C67.6908 59.1883 68.8612 59.1474 70.0452 59.0928C69.6369 57.7287 69.0381 56.4874 68.0583 55.478Z" fill="#E40000"/>
<path d="M74.7403 40.0773C74.9444 39.6544 75.1757 38.5631 75.3663 37.1308C75.203 37.1581 75.0397 37.1854 74.8763 37.2127C73.774 37.39 72.6581 37.5537 71.5422 37.7174C71.8007 38.7268 72.0729 39.5589 72.3315 40.0773C72.7806 40.9912 74.2912 40.9912 74.7403 40.0773Z" fill="#E40000"/>
<path d="M93.2484 41.7278C94.1738 41.5914 95.0992 41.2095 95.9702 40.7047C95.2489 39.4361 94.2963 38.3176 93.2484 37.4582C92.4863 38.4267 91.9692 39.518 91.9828 40.7729C92.01 41.4686 92.6088 41.8097 93.2484 41.7278Z" fill="#E40000"/>
<path d="M88.7166 50.3489C88.5533 50.3353 88.4036 50.4717 88.3628 50.6218C88.1451 51.3447 88.6894 53.1999 89.6012 55.3552C90.7172 54.755 91.765 54.0457 92.7585 53.2408C91.6017 51.754 90.2545 50.499 88.7166 50.3489Z" fill="#E40000"/>
<path d="M83.3003 54.0866C82.266 54.9323 82.3613 56.4465 82.6879 57.8378C83.763 57.6059 84.8245 57.3195 85.8724 56.9648C85.0831 55.3415 84.0079 53.5136 83.3003 54.0866Z" fill="#E40000"/>
<path d="M76.4958 54.3594C76.2781 54.1821 75.9651 54.1957 75.8154 54.4412C75.0397 55.6962 74.9172 57.2104 75.0397 58.7518C76.2372 58.6563 77.4756 58.5335 78.7549 58.3971C78.3194 56.8284 77.6526 55.3552 76.4958 54.3594Z" fill="#E40000"/>
<path d="M88.5125 38.9178C89.7781 38.6859 90.5266 37.4855 91.0165 36.0805C90.2817 35.7804 89.5468 35.6167 88.8527 35.6167C88.2267 35.6167 87.6007 35.6439 86.9611 35.6712C86.8794 37.3354 87.1108 39.177 88.5125 38.9178Z" fill="#E40000"/>
<path d="M53.1293 56.1736C52.9796 55.9963 52.653 55.9963 52.4897 56.1736C51.6731 57.074 51.156 58.2198 50.8158 59.4748C52.095 59.4475 53.3198 59.4338 54.5174 59.4202C54.3133 58.2062 53.905 57.0876 53.1293 56.1736Z" fill="#E40000"/>
<path d="M67.1737 40.6093C67.3234 39.8317 67.4051 39.0405 67.4459 38.2494C66.1258 38.3994 64.7921 38.5358 63.472 38.6449C63.7851 39.7089 64.1117 40.5274 64.3839 40.9776C65.0507 42.0006 66.9151 41.9734 67.1737 40.6093Z" fill="#E40000"/>
<path d="M57.0486 42.6827C57.1303 42.6827 57.212 42.6691 57.2936 42.6554C57.3344 42.6418 57.3889 42.6418 57.4297 42.6281C57.906 42.5463 58.3279 42.0689 58.4368 41.6187C58.6681 40.7457 58.8314 39.8727 58.9811 38.9724C57.6474 39.0542 56.3274 39.1088 54.9937 39.1633C55.1434 40.1182 55.3884 41.0594 55.7966 41.9597C55.9872 42.3962 56.5996 42.7373 57.0486 42.6827Z" fill="#E40000"/>
<path d="M61.0225 56.01C60.9 55.8872 60.7231 55.8736 60.5734 55.9554C59.3622 56.5965 58.9131 57.9061 58.777 59.3656C60.0971 59.352 61.4035 59.3384 62.6827 59.3111C62.3561 58.0152 61.8254 56.8148 61.0225 56.01Z" fill="#E40000"/>
</g>
<defs>
<clipPath id="clip0">
<rect width="106" height="107" fill="white"/>
</clipPath>
</defs>
</svg>
