<svg width="122" height="204" viewBox="0 0 122 204" fill="none" xmlns="http://www.w3.org/2000/svg">
<g clip-path="url(#clip0)">
<path d="M23.577 202.946C23.369 202.946 23.161 202.931 22.953 202.916C19.3281 202.649 16.5796 200.734 14.5146 197.082C12.9844 194.395 11.885 190.772 11.1571 186.021C9.03264 172.274 8.2304 157.651 8.67608 141.29C9.12177 124.974 10.8154 108.777 12.2416 96.4848C12.2862 96.0394 12.0485 95.6088 11.6473 95.4158C10.1914 94.7181 8.88407 93.8273 7.78471 92.7584C5.27399 90.3236 3.25353 87.1169 2.1096 83.7023C0.89138 80.065 0.713105 76.4129 1.57477 73.1467C1.57477 73.117 1.58963 73.1022 1.58963 73.0725C2.70385 67.3419 5.98709 62.7545 10.6223 60.483C13.0884 59.2656 15.7477 58.5382 18.511 58.3006C18.9269 58.2709 19.2835 57.9889 19.4172 57.588C20.2194 55.2275 21.0811 52.956 21.9873 50.8331C22.1508 50.4471 22.0616 50.0017 21.7794 49.7048C21.7496 49.6751 21.6902 49.6157 21.6902 49.6157C11.8256 36.7293 7.60643 16.5683 18.7189 3.91943C21.1702 14.4305 25.2854 25.372 36.398 28.7866C36.4277 28.8015 36.4574 28.8163 36.4871 28.8163C36.6059 28.8609 36.7397 28.8905 36.8585 28.8905C37.0962 28.8905 37.3339 28.8163 37.527 28.653C38.7601 27.6583 39.9338 26.8121 41.1074 26.0698C47.0202 22.3434 54.0621 20.2353 62.0251 19.8047C63.0502 19.7454 64.0753 19.7157 65.0855 19.7157C70.8497 19.7157 79.2435 20.6213 86.4637 24.9712C87.6076 25.6541 88.7367 26.4261 89.7915 27.2575C89.8064 27.2723 89.8212 27.2723 89.8361 27.2872L89.9401 27.3614C90.1778 27.5247 90.4155 27.688 90.6383 27.8662C90.8315 27.9998 91.0395 28.074 91.2772 28.074C91.4406 28.074 91.604 28.0295 91.7525 27.9552C101.677 22.9076 104.96 13.0052 107.114 3.91943C109.476 6.60657 111.244 9.87271 112.403 13.6288C113.591 17.4888 114.082 21.8535 113.829 26.2479C113.309 35.0517 109.833 43.6179 104.529 49.1406C104.47 49.2 104.395 49.2594 104.306 49.3188C103.89 49.5563 103.697 50.0462 103.816 50.5064C104.544 53.1787 105.168 55.8807 105.628 57.9295C105.717 58.3006 106 58.6124 106.371 58.7163C110.769 59.9634 114.661 62.6654 117.305 66.3324C120.173 70.2963 121.406 75.047 120.856 80.0947C120.5 83.3757 119.578 86.2855 118.078 88.7202C116.518 91.2886 114.364 93.278 111.69 94.629C111.303 94.822 111.081 95.2228 111.11 95.6534C112.611 113.558 113.056 129.874 112.477 145.551C111.957 159.492 111.289 172.007 108.362 183.913C107.099 189.065 103.444 201.209 96.9226 202.605C96.4917 202.694 96.0757 202.738 95.6598 202.738C92.6439 202.738 89.7915 200.274 87.1917 195.404C84.9187 191.158 83.3587 186.081 82.4377 183.052L82.4228 182.993C82.3039 182.592 81.9622 182.31 81.5463 182.251C80.8035 182.161 80.0755 182.072 79.3773 181.968C73.9101 181.211 67.9528 180.825 61.6685 180.825C60.9851 180.825 60.2869 180.825 59.5886 180.84C54.3741 180.914 47.5402 181.093 40.7806 181.879C40.3794 181.924 40.0378 182.206 39.904 182.577C38.0321 188.026 36.0711 192.287 33.917 195.568C30.6783 200.467 27.2168 202.946 23.577 202.946Z" fill="white"/>
<path d="M18.4961 42.3708C20.4126 40.2924 21.7348 37.5904 23.4136 35.3041C24.4832 33.8492 25.5529 32.4685 26.8305 31.1769C28.019 29.9744 29.5046 29.2321 30.7526 28.1334C31.332 27.6287 31.1834 26.7973 30.7526 26.2777C30.604 26.0847 30.396 26.0253 30.1732 25.9362C29.7126 25.7432 29.2372 26.0105 28.8955 26.2777C26.162 28.4007 23.8592 30.4197 21.8091 33.2405C20.0412 35.6752 17.4116 39.0898 18.1099 42.2669C18.1396 42.4302 18.3773 42.4896 18.4961 42.3708Z" fill="#E40000"/>
<path d="M14.2026 32.5575C16.2528 31.5035 17.5007 29.232 18.9566 27.5247C20.6502 25.5205 22.5518 24.214 24.6466 22.6701C25.8945 21.7496 24.7357 19.6266 23.3987 20.5471C21.1702 22.0614 19.1795 23.2639 17.5156 25.476C16.0002 27.495 14.0392 29.7665 13.9055 32.3942C13.8906 32.5427 14.0689 32.6318 14.2026 32.5575Z" fill="#E40000"/>
<path d="M13.237 20.6806C14.5443 20.0868 15.5249 18.8694 16.7728 18.1419C18.303 17.2512 19.8926 16.5831 21.6011 16.1229C22.9976 15.7369 22.3885 13.5397 21.0068 13.9553C19.1647 14.5047 17.2928 15.2173 15.7329 16.3456C14.4552 17.266 12.7764 18.6912 12.7467 20.3985C12.7319 20.6658 13.0141 20.7845 13.237 20.6806Z" fill="#E40000"/>
<path d="M96.15 26.2182C96.9077 27.0644 98.0071 27.4504 98.9876 27.9849C100.473 28.8163 101.751 29.8703 102.939 31.0877C104.321 32.4981 105.346 34.2648 106.074 36.076C106.743 37.7091 106.609 39.6539 107.664 41.0791C108.08 41.6433 108.867 41.7027 109.268 41.0791C111.437 37.7091 107.679 32.1863 105.554 29.6179C103.831 27.5246 99.0916 23.5459 96.2095 25.7134C96.046 25.8322 96.0015 26.0549 96.15 26.2182Z" fill="#E40000"/>
<path d="M100.429 21.1855C102.152 21.7942 103.994 21.809 105.777 22.1802C108.243 22.6849 109.848 24.0359 111.957 25.2088C112.938 25.7432 114.186 24.6298 113.547 23.6202C111.244 20.0423 103.742 17.6076 100.325 20.8143C100.206 20.9331 100.28 21.1261 100.429 21.1855Z" fill="#E40000"/>
<path d="M104.172 13.6287C104.722 14.2374 105.732 14.0147 106.46 13.9108C108.08 13.6733 109.729 13.7623 111.244 14.4156C112.477 14.95 113.547 13.1388 112.299 12.6043C110.368 11.773 108.51 11.5651 106.445 11.9363C106.133 11.9957 103.474 12.8567 104.172 13.6287Z" fill="#E40000"/>
<path d="M50.5709 72.8943C49.0555 77.066 48.0602 81.5644 48.2384 85.9736C47.971 90.1602 48.4019 94.4211 50.6006 97.9841C54.0473 103.537 62.2034 103.299 67.7596 102.319C74.2073 101.176 74.4747 92.6841 74.6232 87.6809C74.8164 81.0744 73.3605 54.0546 61.104 57.8255C55.2952 59.607 52.4279 67.7872 50.5709 72.8943Z" fill="#231F20"/>
<path d="M106.624 57.7068C106.074 55.2126 105.48 52.7036 104.811 50.2243C104.975 50.1353 105.123 50.0165 105.272 49.868C116.563 38.0802 118.954 14.6531 107.084 2.34573C106.757 2.00427 106.267 2.33089 106.297 2.71688C104.024 12.6192 100.874 22.1207 91.2623 27.0199C90.98 26.8121 90.6978 26.6191 90.4304 26.4261C89.3607 25.5947 88.2168 24.8079 86.9985 24.0655C79.615 19.6414 70.4189 18.2904 61.9508 18.7507C54.3147 19.1663 47.0202 21.0815 40.528 25.179C39.2355 25.9955 38.0173 26.8863 36.8436 27.8365C36.8139 27.8216 36.7694 27.8068 36.7397 27.7919C25.538 24.3922 21.8091 12.9607 19.5212 2.73173C19.5509 2.33089 19.0606 2.00427 18.7338 2.34573C5.98709 15.6181 10.8154 37.1449 20.8583 50.2689C20.9028 50.3283 20.9623 50.3877 21.0217 50.4322C20.0709 52.6888 19.2092 54.9751 18.4367 57.2465C15.6437 57.4841 12.8359 58.2264 10.1766 59.5328C4.87287 62.1457 1.66391 67.2676 0.579399 72.8646C-1.35192 80.1689 1.81247 88.4382 7.07161 93.5155C8.31954 94.718 9.71603 95.6533 11.2165 96.366C7.755 126.281 5.51169 156.24 10.132 186.185C11.2759 193.608 14.0095 203.302 22.8787 203.97C32.565 204.698 38.3441 190.297 40.8846 182.933C47.1391 182.191 53.4827 181.968 59.5738 181.894C66.1254 181.805 72.7216 182.117 79.2138 183.008C79.9269 183.112 80.6549 183.201 81.3977 183.29C83.4033 189.837 88.1722 205.544 97.1454 203.629C104.187 202.129 107.931 190.074 109.387 184.166C112.447 171.695 113.057 158.378 113.532 145.596C114.156 128.909 113.562 112.192 112.165 95.5643C118.063 92.5654 121.183 86.8793 121.896 80.1986C123.07 68.9601 115.76 60.29 106.624 57.7068ZM107.263 4.76564C113.413 17.756 113.205 34.7102 103.504 45.9338C101.929 41.1979 99.879 36.655 96.878 32.6317C95.9866 31.4292 95.0061 30.3454 93.9661 29.3359C102.33 24.8227 107.263 14.1781 107.263 4.76564ZM18.5555 4.73595C18.5852 14.9946 24.3049 26.5448 34.0507 30.3157C29.3709 34.8587 25.746 40.4259 22.8639 46.3495C14.0541 33.7303 11.7959 18.81 18.5555 4.73595ZM30.8268 63.764C31.7034 64.6696 32.5947 65.5603 33.4713 66.466C35.6254 69.2719 36.9328 72.8646 36.9179 76.9621C36.8882 90.7838 20.7246 100.849 9.21091 91.3777C6.23965 88.9429 4.4569 85.3799 3.68437 81.5941C2.67414 75.8487 3.93692 69.7618 7.87385 65.5158C9.59718 63.7937 11.6919 62.4278 13.9798 61.3886C20.056 58.9241 26.3699 60.1415 30.8268 63.764ZM107.619 174.367C106.505 182.028 104.796 189.377 100.637 196.028C98.0071 200.229 94.9764 201.699 91.6783 197.334C88.6327 193.311 86.6866 188.545 85.1118 183.765C87.6819 184.136 90.2521 184.626 92.5548 185.517C92.9411 185.665 93.1936 185.116 92.9411 184.849C89.8361 181.642 85.3198 180.424 81.056 179.742C74.341 178.658 67.4922 178.346 60.7029 178.331C49.5161 178.301 33.5753 178.123 24.4683 185.799C24.2009 186.021 24.4832 186.482 24.7952 186.378C28.9549 184.967 33.3227 184.002 37.7647 183.334C34.9272 190.772 27.4396 206.405 18.615 199.368C12.8953 194.795 12.6873 184.106 12.0039 177.5C9.25548 150.569 10.9491 124.217 14.0095 97.4052C19.1201 98.8156 24.8843 97.9545 29.5789 95.5197C32.1936 94.1687 34.3032 92.1794 35.9523 89.8337C32.8473 95.9206 27.2465 99.8251 20.3977 102.141C20.2194 102.2 20.264 102.438 20.4423 102.453C30.3217 103.18 38.5967 93.3819 40.9588 84.7266C42.2068 80.1392 41.8057 74.8243 39.904 70.4744C39.5921 69.7766 39.2355 69.0343 38.8344 68.292C35.9077 61.5667 29.0292 57.5583 21.5565 57.1872C22.3736 54.8712 23.2798 52.57 24.2752 50.3431C24.5129 50.0759 24.6615 49.7641 24.6912 49.4227C28.8212 40.4259 34.6003 32.3497 43.217 26.8715C48.803 23.3232 55.4883 22.091 61.9954 21.7199C69.8395 21.2745 77.7728 22.4919 84.7998 26.1143C90.3263 28.9648 94.7238 33.4483 98.0071 38.6741C100.993 44.3601 102.538 50.8479 103.86 57.0981C98.1853 56.2964 92.1091 57.8107 87.058 62.4278C85.5575 63.7937 84.369 65.4861 83.4627 67.3567C82.5565 68.871 81.8434 70.4892 81.3383 72.1669C78.2927 82.2325 82.0068 98.1326 92.6439 102.468C92.7776 102.527 92.8965 102.349 92.8222 102.23C90.4006 98.5483 87.7859 95.4752 86.122 91.5558C86.746 92.3872 87.4294 93.1592 88.2019 93.8718C94.0107 99.2461 102.063 99.1422 109.164 96.7965C110.977 122.465 111.333 148.862 107.619 174.367ZM91.7823 92.9068C85.9734 89.4031 84.265 82.1731 84.7107 75.7002C84.9335 73.5772 85.4238 71.4988 86.1963 69.5688C88.6624 65.1001 93.0896 61.834 97.9922 60.2158C101.825 59.6071 105.911 60.1415 109.149 61.641C115.894 64.7438 118.88 71.8848 118.821 78.9218C118.687 92.1497 102.761 99.5282 91.7823 92.9068Z" fill="#231F20"/>
<path d="M17.7087 102.111C17.2928 102.141 16.9511 102.111 16.5648 102.26C16.4162 102.319 16.3568 102.497 16.4757 102.616C17.0848 103.255 18.303 103.21 18.8972 102.601C18.9715 102.512 18.9715 102.349 18.8527 102.304C18.4367 102.111 18.1396 102.082 17.7087 102.111Z" fill="#231F20"/>
<path d="M95.2735 103.24C95.0358 103.151 94.8278 103.032 94.5752 102.972C94.3673 102.928 94.2187 102.987 94.0107 102.958C93.9067 102.943 93.877 103.076 93.9364 103.136C94.085 103.299 94.1296 103.448 94.3078 103.596C94.501 103.744 94.7387 103.834 94.9615 103.937C95.422 104.145 95.838 104.338 96.3283 104.145C96.4471 104.101 96.5065 103.937 96.4026 103.848C96.0906 103.522 95.7192 103.418 95.2735 103.24Z" fill="#231F20"/>
<path d="M90.6681 112.593C91.2178 113.305 92.4657 113.157 92.4657 112.103C92.4657 111.064 91.2475 109.223 90.0144 109.549C89.8361 109.594 89.7321 109.757 89.7321 109.92C89.7173 110.292 89.8807 110.663 89.9996 111.004C79.5556 114.849 67.3882 116.245 56.3797 116.482C56.2757 116.482 56.1569 116.482 56.0529 116.482C56.9591 111.227 54.8198 105.348 49.4121 103.64C42.3999 101.428 38.5521 109.594 37.2596 114.998C34.1695 114.374 31.1388 113.543 28.2121 112.444C28.019 112.37 27.9002 112.637 28.019 112.771C34.333 119.362 46.6043 120.001 55.1318 120.238C67.5814 120.61 79.823 118.68 90.2818 111.836C90.3858 112.132 90.5047 112.4 90.6681 112.593Z" fill="#231F20"/>
<path d="M48.5652 106.684C53.1558 107.634 53.0667 112.637 53.0221 116.527C50.868 116.512 48.7138 116.438 46.5596 116.275C46.7676 115.117 46.9756 113.959 47.1687 112.801C47.3916 111.45 47.9413 110.024 47.6442 108.673C47.5847 108.421 47.2876 108.391 47.1242 108.54C46.0545 109.416 45.6683 111.004 45.2226 112.266C44.7917 113.513 44.5095 114.79 44.2718 116.067C42.5633 115.889 40.8548 115.666 39.1612 115.384C40.632 111.435 43.6924 105.66 48.5652 106.684Z" fill="#E40000"/>
<path d="M26.9345 80.0649C27.6476 80.733 28.6281 80.9705 29.5047 80.5103C30.3218 80.0946 30.8714 78.8476 30.7675 77.9568C30.6783 77.2739 30.3663 76.6949 29.6681 76.487C28.9253 75.819 27.8408 75.6705 26.9197 76.101C26.0134 76.5167 25.85 77.6153 26.0134 78.4764C26.1174 79.0554 26.5037 79.6641 26.9345 80.0649Z" fill="#231F20"/>
<path d="M91.5149 75.5072C90.2521 75.1212 89.1824 76.012 88.7665 77.1254C88.3653 78.1795 88.8259 79.486 89.7915 80.0501C90.9206 80.7182 92.6885 80.2431 93.0302 78.907C93.0599 78.803 93.0748 78.6991 93.0748 78.5952C93.0896 78.5804 93.0896 78.5655 93.1045 78.5507C93.2828 78.2686 93.3571 77.942 93.3274 77.6153C93.2085 76.5761 92.4954 75.8041 91.5149 75.5072Z" fill="#231F20"/>
<path d="M94.9318 141.884C93.2085 150.094 83.8193 159.477 75.7968 152.262C68.6064 145.804 75.262 134.194 82.3485 130.957C82.8239 130.735 82.5268 130.126 82.1108 130.081C76.5842 129.473 72.2759 134.506 70.404 139.256C68.2201 144.794 69.1264 150.45 73.2267 154.815C73.8804 155.498 74.5489 156.077 75.2323 156.582C71.9045 155.082 69.5126 152.143 66.9425 149.396C66.8831 149.322 66.7939 149.396 66.7939 149.485C67.5813 155.038 73.8952 159.15 79.1841 159.506C84.4878 159.863 88.9447 157.769 91.5743 153.583C94.293 150.435 95.942 146.219 95.5706 142.003C95.5558 141.617 95.0209 141.483 94.9318 141.884Z" fill="#231F20"/>
<path d="M57.7613 25.8768C42.9793 26.441 30.8862 40.1736 25.8648 53.2382C25.8202 53.3718 25.9985 53.4757 26.0876 53.3718C30.5297 48.3093 33.9763 42.5044 38.7006 37.6646C43.9895 32.231 50.7491 28.846 57.8207 26.3222C58.0436 26.2331 58.0138 25.8768 57.7613 25.8768Z" fill="#231F20"/>
<path d="M59.6184 26.2628C60.2423 26.2776 60.896 26.144 61.4754 25.9065C61.6388 25.8471 61.8022 25.6986 61.7874 25.5056C61.7874 25.5056 61.7874 25.5056 61.8022 25.5205C61.8765 25.4017 61.8022 25.2978 61.6834 25.2532C61.6982 25.2681 61.7131 25.2829 61.728 25.3126C61.6388 25.1345 61.4308 25.0899 61.2525 25.1196C60.6732 25.2384 60.0938 25.372 59.4995 25.4908C59.0538 25.5799 59.1875 26.2479 59.6184 26.2628Z" fill="#231F20"/>
<path d="M56.2757 145.982C54.7455 150.183 52.3685 153.078 48.595 155.26C49.5458 154.28 50.3926 153.167 51.0908 151.964C57.3305 141.097 47.4213 124.692 34.6003 130.393C34.3032 130.527 34.3923 131.002 34.6895 131.076C38.7452 132.056 43.0981 132.62 46.1734 135.663C49.516 138.959 50.14 144.408 48.9664 148.713C45.9802 159.64 30.5743 158.541 26.1768 149.53C26.0431 149.248 25.6717 149.426 25.642 149.678C24.9289 155.364 31.941 158.452 36.5613 159.298C44.5095 162.149 56.5728 154.592 56.4837 145.996C56.4837 145.892 56.3202 145.878 56.2757 145.982Z" fill="#231F20"/>
<path d="M65.858 99.8103C58.6676 101.399 52.3982 98.7562 51.076 91.6004C50.0064 81.7575 53.4679 69.7024 59.7372 62.4279C68.0568 52.7779 71.444 82.9748 71.5332 86.2261C71.6817 91.348 71.9343 98.4741 65.858 99.8103Z" fill="#E40000"/>
<path d="M57.1374 70.3854C54.0918 75.8487 48.3276 93.1889 57.1968 96.4402C57.4345 96.5293 57.7168 96.3066 57.7019 96.0542C57.5682 94.436 57.5236 94.3766 56.7362 92.892C55.1169 89.8783 55.102 86.5527 55.5626 83.2569C56.142 79.0555 57.895 74.7353 57.5088 70.4744C57.4791 70.3111 57.2265 70.2072 57.1374 70.3854Z" fill="white"/>
<path d="M57.8801 69.3758C58.415 69.5391 58.7715 69.0938 59.0389 68.6929C59.2024 68.4405 59.3509 68.203 59.4401 67.9209C59.5292 67.6091 59.4401 67.3864 59.3361 67.0895C59.2915 66.9559 59.1578 66.9114 59.0389 66.9708C58.8012 67.0895 58.5932 67.1192 58.415 67.3419C58.1921 67.5943 58.0436 67.9061 57.8801 68.1881C57.7167 68.4257 57.4047 69.2422 57.8801 69.3758Z" fill="white"/>
<path d="M93.0005 154.488C90.2818 158.809 85.7952 161.199 80.3727 161.199C79.9567 161.199 79.5407 161.184 79.1099 161.154C74.9947 160.872 70.4189 158.586 67.6408 155.142C62.6045 148.906 57.2117 151.861 54.5078 154.934C54.285 155.186 54.0621 155.424 53.8244 155.661C50.1846 159.343 44.9998 161.614 40.2903 161.614C38.775 161.614 37.3488 161.377 36.0563 160.917C33.1296 160.353 30.2772 159.239 28.0784 157.651C23.9781 154.681 12.2565 153.494 12.4942 160.115C12.7022 165.786 13.0736 171.532 13.6678 177.336C13.7421 178.138 13.8164 178.984 13.9055 179.875C14.4404 186.051 15.1832 194.499 19.6549 198.076C20.8434 199.027 21.9874 199.502 23.1462 199.502C27.5139 199.502 31.9857 192.687 35.0906 185.502C31.5548 186.155 28.3459 186.972 25.33 187.996C25.122 188.07 24.9141 188.1 24.6912 188.1C23.8444 188.1 23.0867 187.551 22.7896 186.749C22.4925 185.947 22.7153 185.086 23.369 184.537C31.9708 177.292 45.7426 176.683 57.9693 176.683H60.7029C68.8442 176.698 75.3958 177.158 81.3235 178.108C85.4238 178.777 90.5938 180.009 94.1593 183.691C94.7387 184.284 94.9021 185.19 94.5604 185.962C94.2336 186.734 93.5056 187.224 92.6885 187.224C92.436 187.224 92.1834 187.179 91.9457 187.09C90.5492 186.556 89.0339 186.17 87.6077 185.888C88.8556 189.288 90.5492 193.088 93.0005 196.325C93.6839 197.23 94.709 198.314 95.6895 198.314C96.6849 198.314 97.9477 197.186 99.2253 195.137C103.459 188.382 105.019 180.721 105.97 174.13C106.847 168.147 107.515 161.971 107.991 155.557C108.525 148.09 94.2336 153.019 93.0005 154.488Z" fill="#E40000"/>
<path d="M15.4654 159.254C20.264 158.126 23.8889 159.625 28.1973 161.704C31.8222 163.441 35.358 165.059 39.3692 163.663C39.5029 163.619 39.4881 163.411 39.3395 163.411C34.2141 163.53 30.0395 161.08 25.5083 159.076C22.4033 157.71 18.2138 156.493 15.4209 159.15C15.3614 159.195 15.406 159.269 15.4654 159.254Z" fill="white"/>
<path d="M40.4389 163.559C41.0925 163.841 41.8799 163.604 42.2662 163.01C42.3108 162.951 42.2513 162.861 42.1919 162.876C41.5976 162.906 40.944 163.054 40.4091 163.307C40.2754 163.351 40.3349 163.515 40.4389 163.559Z" fill="white"/>
<path d="M76.4208 162.951C80.1943 165.207 86.746 163.975 89.8212 160.991C89.8955 160.917 89.8212 160.753 89.7024 160.798C87.8751 161.511 86.0774 162.283 84.1758 162.758C81.5463 163.411 79.1395 163.159 76.51 162.743C76.3911 162.728 76.302 162.876 76.4208 162.951Z" fill="white"/>
<path d="M105.183 165.341C103.92 169.245 103.519 173.595 102.761 177.633C101.974 181.82 101.157 186.007 100.042 190.119C100.013 190.223 100.176 190.282 100.206 190.193C101.885 186.229 102.88 182.117 103.727 177.901C104.172 175.689 104.544 173.462 104.93 171.235C105.272 169.305 105.717 167.3 105.361 165.341C105.346 165.237 105.212 165.252 105.183 165.341Z" fill="white"/>
<path d="M64.8181 174.62C67.6259 174.887 70.4486 174.976 73.2564 175.243C76.3614 175.555 79.4218 176.253 82.5268 176.55C82.6605 176.564 82.6605 176.386 82.5565 176.342C77.2676 174.204 70.4337 173.699 64.8181 174.382C64.6695 174.397 64.6695 174.605 64.8181 174.62Z" fill="white"/>
<path d="M83.2696 176.772C83.5518 176.965 83.8935 177.054 84.2204 177.129C84.5918 177.218 84.9186 177.322 85.3049 177.233C85.394 177.218 85.4089 177.099 85.3494 177.04C84.9186 176.535 83.9084 176.371 83.2993 176.55C83.1953 176.579 83.1953 176.713 83.2696 176.772Z" fill="white"/>
<path d="M96.7146 4.73595C94.6199 4.61719 92.6143 5.30011 90.6681 6.10179C91.2772 4.78049 91.7972 3.39981 91.9754 2.01912C92.0052 1.84097 91.7526 1.70735 91.604 1.81128C90.371 2.67235 89.6579 3.99365 89.0636 5.37434C88.4396 3.54827 87.7265 0.950204 86.3003 0.0149012C86.2409 -0.0296371 86.1518 0.0149012 86.1221 0.0891316C85.6912 1.87066 87.0432 4.48357 87.7265 6.2651C86.3449 5.56734 84.2947 4.49842 83.1954 5.00318C83.1508 5.01803 83.1211 5.09226 83.1359 5.1368C83.4925 6.2651 85.5872 7.08164 86.9689 7.64579C85.1415 8.29901 82.2446 9.01163 81.2343 10.5259C81.1898 10.5853 81.2343 10.6744 81.3086 10.7041C83.0914 11.1346 85.7061 9.76878 87.4888 9.08586C86.7906 10.4665 85.7209 12.5153 86.2261 13.6139C86.2409 13.6584 86.3152 13.6881 86.3598 13.6733C87.5334 13.3021 88.3505 11.0752 88.9299 9.69455C89.6579 11.7433 90.475 13.7772 91.604 15.5884C91.7377 15.7963 92.0497 15.7072 92.0646 15.4697C92.1834 13.3764 91.5 11.3722 90.6978 9.42732C92.02 10.036 93.4016 10.5556 94.7981 10.7338C94.9764 10.7635 95.1101 10.5111 95.0061 10.3626C94.1148 9.1007 92.7331 8.3584 91.2921 7.76456C93.2085 7.06679 95.125 6.27995 96.8186 5.22588C97.0563 5.06257 96.9672 4.7508 96.7146 4.73595Z" fill="#231F20"/>
<path d="M44.1381 191.128C50.0806 191.01 55.8003 191.604 61.7131 192.257C67.0614 192.851 71.8897 193.014 76.822 190.639C77.238 190.446 77.0151 189.822 76.5992 189.807C70.6269 189.777 64.6398 189.243 58.6973 188.738C53.7501 188.323 48.5207 188.159 43.945 190.342C43.5439 190.535 43.737 191.143 44.1381 191.128Z" fill="#E40000"/>
<path d="M50.452 198.804C57.6722 201.194 66.17 201.654 73.1227 198.344C73.4496 198.18 73.2861 197.676 72.9444 197.676C65.5906 197.616 57.7167 196.8 50.452 198.166C50.1103 198.225 50.1549 198.7 50.452 198.804Z" fill="#E40000"/>
</g>
<defs>
<clipPath id="clip0">
<rect width="122" height="204" fill="white"/>
</clipPath>
</defs>
</svg>
