<svg width="100" height="93" viewBox="0 0 100 93" fill="none" xmlns="http://www.w3.org/2000/svg">
<g clip-path="url(#clip0)">
<path d="M23.64 69.9542C28.6792 71.3302 34.1473 70.9626 39.3185 70.5335C48.4131 69.7899 57.5844 68.7745 66.5852 67.3979C73.0468 66.4057 81.5622 65.0411 86.0224 59.8525C89.4415 55.903 89.3896 49.4008 89.2885 44.5592C89.0449 33.4624 85.3526 23.5232 73.7853 20.9235C67.62 19.5282 60.7289 20.6316 54.5553 21.4943C46.2611 22.6691 37.9499 23.7555 29.8193 25.6872C19.6937 28.1542 12.9138 27.8234 10.432 39.9646C7.98006 51.9257 10.5048 66.3757 23.64 69.9542Z" fill="#F7941E"/>
<path d="M24.8576 34.5867C24.3662 34.4714 24.2945 34.5771 23.7235 34.67C19.4573 35.3081 16.5123 38.4681 15.3705 42.4419C15.1235 43.1687 15.1238 43.985 14.9825 44.783C14.5436 46.8588 14.4825 49.0812 14.7762 51.2346C14.7762 51.2346 14.9388 51.6982 14.9418 51.7618C14.9987 52.1543 15.2434 53.8127 15.2863 54.1804C15.6852 54.7723 15.5518 55.4679 15.7593 56.0695C15.9777 56.6323 16.2848 57.1779 16.5033 57.7408C16.5761 57.9284 16.6349 58.0912 16.7326 58.2648C17.4049 60.0417 18.1639 62.031 19.6631 63.1791C22.1053 65.07 23.8476 65.9507 26.9578 65.4735C33.8519 64.4337 35.1405 61.1285 33.8693 52.6348C33.7524 51.7862 32.6731 51.6754 32.0383 51.7715C31.7024 51.6993 27.2556 51.492 27.4742 52.8711C28.2452 58.0868 27.3911 58.143 26.2242 58.3427C26.1853 58.332 26.0468 58.3773 26.0468 58.3773C23.7324 57.2962 23.1941 53.4844 22.8495 51.0659C22.8156 50.889 22.7816 50.7122 22.7756 50.5849C22.3123 47.5474 21.2227 40.1925 24.942 40.1562C26.1319 40.1721 26.1038 46.0662 26.1498 46.4975C26.2407 47.0668 26.464 47.4636 26.8856 47.4549C26.8856 47.4549 27.6479 47.3523 27.9778 47.2973C28.2439 47.2454 29.0949 47.1256 29.1836 47.1083C29.6769 46.9939 31.9549 46.4953 32.4233 46.3949C32.8109 46.2094 32.9902 45.9452 33.1107 45.5181C33.0376 44.5142 32.9577 43.9061 32.8209 42.9054C32.0718 37.6122 29.9193 34.5459 24.8576 34.5867Z" fill="white"/>
<path d="M49.547 41.0335C47.5002 35.0665 45.3947 32.7248 38.759 34.6315C33.8881 36.0019 34.2703 44.0816 34.8784 48.0173C34.8984 48.1693 34.9523 48.4982 34.9523 48.4982L36.2614 53.7375C36.2784 53.8259 36.3542 54.0771 36.424 54.2011C36.5975 54.6259 37.2547 56.0848 37.3275 56.2724C38.7925 59.3992 40.7324 61.2136 44.314 60.6997C46.3708 60.3909 47.9602 59.6595 49.3051 58.086C49.4047 58.0299 49.7165 57.5931 49.7524 57.5403C50.0193 56.9655 50.0949 56.4004 50.2731 55.8429C51.4837 51.6998 50.9495 48.245 50.3433 44.0796C50.2863 43.6871 50.0997 42.7145 50.0827 42.6261C50.0129 42.5021 49.6897 41.3451 49.547 41.0335ZM44.1305 53.847C42.6726 54.1126 41.9428 53.2824 41.1834 46.6887C41.0556 45.8789 40.6783 40.605 41.9867 40.4236C43.8024 40.1526 44.5184 44.746 44.6862 45.8599C44.7031 45.9483 44.7231 46.1003 44.7431 46.2524C45.0466 48.0736 46.0568 53.4811 44.1305 53.847Z" fill="white"/>
<path d="M67.4653 42.736C65.4184 36.769 63.3129 34.4273 56.6772 36.3339C51.7814 37.7184 52.1885 45.784 52.7717 49.7338C52.7917 49.8858 52.8456 50.2147 52.8456 50.2147L54.1547 55.454C54.1717 55.5424 54.2475 55.7936 54.3173 55.9176C54.4908 56.3424 55.148 57.8013 55.2208 57.9889C56.6858 61.1157 58.6257 62.9301 62.2073 62.4162C64.2641 62.1074 65.8535 61.376 67.1984 59.8024C67.298 59.7464 67.6098 59.3096 67.6457 59.2567C67.9126 58.6819 67.9882 58.1169 68.1664 57.5594C69.377 53.4163 68.8427 49.9615 68.2365 45.7961C68.1796 45.4036 67.993 44.431 67.976 44.3426C67.9311 44.2045 67.583 43.0616 67.4653 42.736ZM62.0238 55.5635C60.5659 55.8291 59.8361 54.9989 59.0767 48.4052C58.9489 47.5954 58.5716 42.3214 59.88 42.14C61.6957 41.869 62.4117 46.4625 62.5795 47.5764C62.5964 47.6648 62.6164 47.8168 62.6364 47.9689C62.9399 49.7901 63.9361 55.1728 62.0238 55.5635Z" fill="white"/>
<path d="M81.508 48.7427C80.8095 48.842 80.1279 49.0298 79.4293 49.1291C79.1881 49.1669 79.0745 49.1982 78.7775 49.1368C78.7315 48.7055 78.3801 46.6826 78.2983 46.3042C78.1735 45.558 77.9247 43.5427 77.9187 43.4155C77.8248 42.7825 77.4513 40.021 77.4272 39.5121C77.1724 37.3695 76.6423 34.2716 76.3377 32.1571C76.3147 31.9414 76.1669 30.9796 76.1299 30.7392C76.107 30.5235 75.9843 30.3639 75.776 30.2853C75.3575 30.3576 73.173 30.6729 72.6658 30.7625C71.8785 30.8791 69.733 31.2051 69.6194 31.2364C69.3782 31.2742 68.3279 31.5063 68.1754 31.5268C68.0399 31.6357 68.03 31.9678 68.044 31.9926C68.1239 32.6008 68.9811 36.3963 69.0611 37.0044C69.5643 40.346 70.2062 43.6423 70.6178 46.9375L72.6239 56.9115C72.7167 57.2512 73.2938 57.2856 73.5628 57.2974C73.6904 57.2909 74.1976 57.2013 74.3112 57.17C76.9142 56.7824 79.5002 56.3064 82.156 55.9543C83.0429 55.7816 84.1779 55.1754 84.3101 54.1866C84.0296 52.581 83.8966 51.121 83.6549 49.5262C83.5151 48.462 82.3202 48.6121 81.508 48.7427Z" fill="white"/>
</g>
<defs>
<clipPath id="clip0">
<rect width="79.3267" height="61.2979" fill="white" transform="translate(0 38.9134) rotate(-29.3765)"/>
</clipPath>
</defs>
</svg>
