<svg width="218" height="218" viewBox="0 0 218 218" fill="none" xmlns="http://www.w3.org/2000/svg">
<g clip-path="url(#clip0)">
<path d="M12.9319 92.1808C11.9022 88.7629 16.2709 79.9798 16.9694 78.3785C21.1914 68.9373 28.9821 53.4355 30.1177 51.1808C33.3512 44.7281 34.4625 42.1025 42.4631 42.783C45.0415 42.9977 57.9794 46.0775 66.9628 47.9422C69.4135 48.4528 84.2822 50.9552 87.7415 55.2701C92.5267 61.2597 96.9952 69.5303 100.896 76.1225C104.132 81.5744 106.253 84.6993 104.269 91.0323C103.281 94.1723 86.3512 125.304 85.0177 127.347C79.1414 136.387 78.9348 134.056 69.0826 132.915C58.3885 131.68 43.0573 129.157 35.0358 127.068C32.4783 126.391 28.2959 125.101 24.6841 118.689C19.5754 109.574 13.1035 93.3614 12.9319 92.1808Z" fill="#231F20"/>
<path d="M95.1411 73.698C94.2283 72.9451 93.1415 72.2764 92.0099 71.7745C89.845 70.687 87.4774 70.123 85.8063 71.1686C81.7683 73.6721 87 77.6149 89.3099 78.9062C91.1409 79.9045 93.3529 81.3553 95.5433 81.2462C96.8167 81.1946 98.6796 80.716 98.7793 79.1403C98.9297 76.9662 96.7079 74.9626 95.1411 73.698Z" fill="#E40000"/>
<path d="M66.4828 58.1917C65.9976 58.179 65.5658 58.2492 65.172 58.3571C63.9744 58.4084 63.0061 58.9129 62.9135 60.3598C62.7055 63.2612 66.785 65.3694 68.9951 66.3658C71.1063 67.2946 76.6658 69.812 78.0238 66.3446C79.1192 63.5222 76.0251 61.4092 73.9504 60.1395C71.8149 58.8398 68.9544 58.2403 66.4828 58.1917Z" fill="#E40000"/>
<path d="M55.7576 54.8436C58.9304 53.9724 57.099 51.0279 55.4711 49.6575C54.9843 49.2661 54.4749 48.8824 53.92 48.514C50.3315 45.987 43.9314 43.6781 42.7014 46.9253C41.6815 49.6716 46.0259 51.6649 47.834 52.5951C50.0293 53.6977 53.236 55.545 55.7576 54.8436Z" fill="#E40000"/>
<path d="M30.5079 100.139C29.4444 99.614 28.2023 99.9078 27.1552 101.526C25.2039 104.512 24.3863 108.529 25.1359 112.017C25.5146 113.81 26.7604 116.295 28.969 115.042C31.0035 113.874 32.4333 111.292 33.0916 109.123C33.9595 106.302 33.9171 101.463 30.7276 100.115C30.6441 100.093 30.576 100.116 30.5079 100.139Z" fill="#E40000"/>
<path d="M34.6761 51.4097C34.1365 51.0866 33.4463 50.9916 32.5148 51.2308C30.6745 51.7017 29.9036 54.1364 29.478 55.7212C28.8353 58.0113 28.2047 61.3844 28.798 63.7366C29.7452 67.3595 32.7434 68.2915 34.8295 64.8811C37.0812 61.2124 38.5712 54.7682 34.9342 51.4993C34.8504 51.4012 34.7519 51.4093 34.6761 51.4097Z" fill="#E40000"/>
<path d="M71.7945 100.377C70.8612 100.162 69.7925 100.22 68.7699 100.415C67.8378 100.502 66.914 100.764 66.1424 101.177C65.605 101.384 65.0753 101.614 64.6214 101.843C62.1778 103.075 61.068 106.079 60.6234 108.58C59.8822 112.749 63.5389 115.253 67.3412 114.447C71.0527 113.671 75.0299 111.138 76.1362 107.3C76.8685 104.677 75.8145 102.758 74.051 101.585C73.4878 101.043 72.7582 100.607 71.7945 100.377Z" fill="#E40000"/>
<path d="M30.7894 122.743C37.5434 109.563 43.7121 96.0004 50.0635 82.6033C51.7321 79.0814 52.5549 76.3511 50.1787 71.7962C45.6632 63.1623 41.0192 54.5973 36.814 45.8332C36.7453 45.7048 36.9647 45.6052 37.0334 45.7336C41.7521 53.9954 46.3421 62.326 50.8035 70.7254C53.08 74.9854 54.6397 76.3788 58.6606 77.1166C71.7397 79.4914 84.767 82.1619 97.7648 85.0445C97.9318 85.0891 97.8873 85.3317 97.7203 85.2871C85.1322 82.4933 72.2376 80.7385 59.485 78.506C55.5326 77.8209 53.2148 78.3017 51.2377 82.4083C44.69 95.9729 38.0968 109.553 31.0552 122.855C30.9423 123.045 30.6992 122.925 30.7894 122.743Z" fill="white"/>
<path d="M118.746 114.068C125.533 105.25 143.604 90.1378 146.104 87.6493C150.943 82.8018 155.9 82.4142 161.61 84.7795C163.113 85.3326 181.987 93.9117 189.121 97.7165C192.517 99.5251 194.71 101.892 196.299 104.944C200.196 112.498 205.263 126.279 208.283 134.306C210.704 140.717 208.609 143.726 204.354 148.805C200.718 153.17 183.315 170.634 178.191 174.567C175.017 177.005 173.094 179.476 165.734 176.051C157.888 172.386 146.338 165.778 140.866 162.321C135.386 158.841 132.716 158.506 130.032 152.817C126.553 145.45 121.699 135.742 117.638 126.955C114.869 120.865 114.508 119.571 118.746 114.068Z" fill="#231F20"/>
<path d="M154.268 150.76C156.341 149.781 152.889 145.564 152.143 144.78C151.496 144.064 148.914 141.07 146.925 140.353C146.712 140.248 146.484 140.097 146.271 139.992C146.089 139.902 145.93 140.032 145.886 140.199C144.581 140.084 143.759 141.019 144.48 143.227C144.833 144.271 145.527 145.199 146.311 146.02C147.134 147.182 148.079 148.177 148.664 148.637C149.539 149.352 153.105 151.886 154.268 150.76Z" fill="#E40000"/>
<path d="M134.761 133.801C134.7 133.771 134.662 133.733 134.601 133.703C133.408 133.02 132.303 133.419 131.899 134.693C131.36 136.316 133.112 138.353 134.056 139.423C134.985 140.449 140.985 146.887 142.603 143.963C143.717 141.944 141.06 139.253 139.849 137.918C138.616 136.516 136.765 134.412 134.761 133.801Z" fill="#E40000"/>
<path d="M130.522 135.487C130.515 135.465 130.507 135.442 130.469 135.404C130.454 135.359 130.461 135.306 130.438 135.238C129.724 132.977 127.289 130.793 125.585 129.271C124.398 128.232 122.047 126.146 120.484 127.585C118.022 129.884 125.957 136.805 127.788 137.879C130.258 139.343 131.67 138.057 130.522 135.487Z" fill="#E40000"/>
<path d="M140.633 157.142C140.595 157.104 140.579 157.059 140.541 157.021C139.916 156.146 139.208 155.324 138.53 154.517C137.479 153.28 136.305 151.908 134.862 151.157C134.071 150.616 133.266 150.256 132.547 150.449C128.783 151.369 136.118 158.012 137.145 158.878C138.126 159.684 139.725 161.266 141.119 161.199C142.385 161.125 142.023 159.68 141.679 158.962C141.426 158.289 141.029 157.716 140.633 157.142Z" fill="#E40000"/>
<path d="M151.039 162.09C150.238 160.92 149.301 159.872 148.228 158.945C147.247 158.14 144.934 156.091 143.551 157.014C140.292 159.204 150.071 166.487 151.484 167.222C153.11 168.062 153.976 166.808 153.281 165.35C152.707 164.179 151.937 163.1 151.039 162.09Z" fill="#E40000"/>
<path d="M155.027 164.153C153.527 166.303 158.288 169.976 159.558 170.962C161.003 172.09 162.716 173.937 164.672 174.034C165.552 174.09 165.694 173.537 165.554 172.826C165.644 172.643 165.689 172.401 165.665 172.106C165.615 169.19 157.326 160.847 155.027 164.153Z" fill="#E40000"/>
<path d="M159.297 127.396C159.886 126.742 160.292 126.073 160.358 125.445C160.852 123.988 160.763 122.376 159.432 121.36C157.12 119.538 153.76 119.184 151.181 120.688C149.992 120.989 148.857 121.6 147.868 122.491C146.115 124.045 144.187 127.098 145.743 129.454C146.056 129.929 146.437 130.306 146.87 130.614C146.946 130.69 146.992 130.75 147.091 130.818C148.711 132.09 151.589 131.546 153.392 131.113C154.051 130.966 155.291 130.369 156.547 129.59C157.492 129.018 158.346 128.4 158.942 127.769C159.056 127.655 159.169 127.54 159.297 127.396Z" fill="#E40000"/>
<path d="M158.281 110.703C159.867 109.18 160.844 107.131 159.888 105.053C158.343 101.683 154.516 101.967 151.42 103.14C150.398 103.41 149.46 103.854 148.735 104.479C145.665 106.478 143.477 111.009 147.406 113.345C150.332 115.111 155.927 113.319 158.281 110.703Z" fill="#E40000"/>
<path d="M135.398 115.259C137.805 112.574 136.982 107.671 132.835 107.684C131.167 107.692 129.569 108.055 128.155 108.736C127.496 108.959 126.921 109.204 126.452 109.464C123.206 111.093 119.609 115.798 123.48 118.786C127.009 121.51 132.991 117.944 135.398 115.259Z" fill="#E40000"/>
<path d="M153.1 96.7331C155.546 96.1835 158.579 94.374 159.311 91.8259C159.737 90.3168 159.72 87.8709 158.006 87.6672C156.615 86.9242 154.477 86.8134 153.227 86.9331C149.998 87.1912 146.11 89.1639 145.305 92.621C144.224 97.1322 150.138 97.4063 153.1 96.7331Z" fill="#E40000"/>
<path d="M183.83 101.529C183.735 98.7045 180.25 97.5325 177.953 97.4755C175.914 97.4324 173.249 98.4601 171.922 100.224C171.779 100.323 171.612 100.429 171.469 100.529C169.307 102.145 167.438 104.925 169.911 107.147C173.693 110.62 184.041 107.018 183.83 101.529Z" fill="#E40000"/>
<path d="M192.364 110.295C187.436 110.319 185.601 117.537 186.313 121.29C186.693 123.385 188.298 124.612 190.368 124.746C191.968 124.836 193.169 123.672 194.027 122.32C194.458 121.871 194.827 121.392 195.053 120.937C196.7 117.877 197.511 110.247 192.364 110.295Z" fill="#E40000"/>
<path d="M186.417 133.792C180.588 133.843 177.715 141.513 179.191 146.398C179.806 148.44 181.615 149.597 183.691 149.299C186.63 148.861 188.786 145.73 189.875 143.264C190.663 141.48 190.868 139.541 190.322 137.779C190.307 137.734 190.314 137.681 190.322 137.627C190.094 135.607 188.562 133.774 186.417 133.792Z" fill="#E40000"/>
<path d="M179.903 157.557C179.517 157.536 179.153 157.583 178.797 157.653C176.174 157.605 173.785 161.244 172.999 163.634C172.07 166.425 171.754 170.652 175.276 171.635C179.495 172.811 182.689 167.737 183.654 164.453C184.483 161.442 183.49 157.683 179.903 157.557Z" fill="#E40000"/>
<path d="M119.269 121.6C129.006 126.067 138.735 130.51 148.344 135.196C152.286 137.123 155.693 135.895 157.716 133.795C167.59 123.63 178.246 113.604 188.898 104.465C189.193 104.214 189.551 104.674 189.317 104.955C181.072 114.923 170.138 125.7 160.205 134.419C156.285 137.869 157.249 140.045 159.659 145.524C163.783 154.947 167.931 164.514 170.473 174.347C170.511 174.536 170.262 174.62 170.178 174.446C166.265 164.825 161.988 155.327 157.734 145.821C155.141 140.025 153.711 138.866 148.136 136.151C138.421 131.451 128.623 126.954 119.201 121.699C119.186 121.654 119.208 121.57 119.269 121.6Z" fill="white"/>
</g>
<defs>
<clipPath id="clip0">
<rect width="171.595" height="171.153" fill="white" transform="translate(0.4646 55.4004) rotate(-18.6909)"/>
</clipPath>
</defs>
</svg>
