<svg width="288" height="218" viewBox="0 0 288 218" fill="none" xmlns="http://www.w3.org/2000/svg">
<path d="M287.648 114.299C287.81 107.116 288.325 100.123 285.887 93.2659C283.531 82.5055 274.295 76.7052 264.652 71.989C261.808 70.6067 258.91 69.6309 255.957 68.9262C255.659 68.8449 255.334 68.7907 255.036 68.7365C246.504 66.9476 237.593 67.5439 228.817 68.357C226 68.4655 223.184 68.6281 220.475 69.0075C220.367 69.0346 220.285 69.0889 220.204 69.116C220.177 69.116 220.15 69.116 220.123 69.116C217.712 69.3057 217.685 73.1003 220.123 72.9106C222.913 72.6937 225.675 72.4227 228.411 72.1787C235.155 71.8264 242.035 71.718 248.59 71.9077C260.86 72.2601 273.103 80.825 280.01 90.6097C281.201 92.2901 282.041 94.1332 282.691 96.139C284.398 105.951 282.366 115.464 282.339 125.33C282.339 129.477 282.935 133.353 282.772 137.175C282.177 139.804 281.283 142.352 280.091 144.873C278.71 147.718 276.678 149.372 274.403 150.781C277.897 138.367 275.486 122.43 268.607 112.483C259.587 99.527 244.608 94.7566 229.576 93.0762C219.148 91.9107 208.34 91.0434 197.56 90.7181C197.425 89.9863 197.317 89.2816 197.262 88.6582C196.748 84.0233 196.016 79.4156 193.741 75.3499C193.01 74.0489 190.437 73.6153 190.085 75.4855C189.245 80.1203 188.459 86.3543 186.997 90.5284C181.742 90.5826 176.488 90.7723 171.368 91.1789C170.556 91.2331 169.743 91.3144 168.931 91.4228C168.795 91.0433 168.687 90.6368 168.578 90.2573C167.332 86.0019 165.897 81.7466 163.54 77.9791C162.647 76.5425 159.884 76.4612 159.857 78.6025C159.803 83.2644 159.396 88.5226 158.123 93.4827C148.156 96.3829 139.895 102.075 134.775 112.537C130.279 121.725 127.598 132.296 128.356 142.596C128.6 145.767 129.223 149.182 130.387 152.408C130.577 153.166 130.767 153.925 130.983 154.657C135.48 170.052 154.006 172.953 167.576 175.013C170.095 175.392 172.614 175.717 175.16 176.015C175.025 177.316 174.917 178.617 174.862 179.837C174.294 189.432 172.668 199.081 172.56 208.703C172.1 208.703 171.666 208.703 171.287 208.703C169.824 208.703 166.412 209.137 166.98 211.468C167.766 214.693 176.027 214.666 176.758 211.766C177.11 211.387 177.327 210.872 177.327 210.221C177.327 209.462 177.354 208.703 177.381 207.944C177.896 205.18 177.95 202.415 178.004 199.515C178.086 195.503 179.765 191.384 180.28 187.372C180.605 184.824 180.252 182.087 179.927 179.349C180.063 178.455 180.225 177.533 180.361 176.557C184.315 176.964 188.297 177.289 192.279 177.506C191.899 180.677 192.251 183.957 191.791 187.968C191.493 190.787 191.195 193.796 190.978 196.859C190.193 201.548 189.489 206.264 189.353 211.143C189.272 211.332 189.191 211.495 189.137 211.712C188.676 213.392 189.705 215.1 191.331 215.588C192.739 216.021 194.229 216.13 195.691 216.13C197.723 216.157 198.969 215.181 199.808 213.717C200.215 213.04 200.079 212.173 199.538 211.603C199.429 211.468 199.294 211.359 199.158 211.224C199.348 211.658 199.213 211.495 198.752 210.79C198.075 210.113 197.073 209.842 196.125 209.814C196.098 209.814 196.071 209.814 196.043 209.814C196.043 209.733 196.043 209.652 196.043 209.571C196.043 209.543 196.016 209.516 196.016 209.516C196.775 206.182 196.45 201.656 196.179 198.051C197.262 191.275 198.562 184.499 198.59 177.75C208.991 178.13 219.419 177.994 229.765 177.452C227.301 183.686 227.084 191.438 227.003 197.78C226.948 202.144 225.973 207.375 226.488 211.983C226.217 212.01 225.946 212.037 225.675 212.037C224.213 212.091 221.965 212.742 221.017 213.907C220.665 214.341 220.556 214.991 221.017 215.398C222.208 216.455 224.132 216.916 225.675 217.106C227.03 217.295 228.79 217.404 230.09 216.78C230.713 216.862 231.363 216.645 231.661 215.994C232.528 215.29 232.88 214.341 232.664 213.202C232.664 213.175 232.664 213.148 232.664 213.121C234.235 207.131 233.232 200.382 233.639 194.229C233.774 192.305 236.862 186.478 236.103 183.767C235.481 181.545 235.074 179.322 234.803 177.072C235.995 176.991 237.214 176.937 238.406 176.829C240.573 176.666 242.74 176.368 244.852 175.934C243.471 182.087 244.933 189.188 243.958 195.747C243.688 197.645 241.981 208.053 243.2 213.555C243.2 213.853 243.2 214.151 243.2 214.449C243.227 215.479 243.85 216.184 244.663 216.536C244.879 216.726 245.123 216.916 245.421 217.051C247.371 217.973 249.376 218.054 251.38 217.268C253.168 216.563 254.955 216.862 256.553 215.588C256.96 215.262 256.905 214.585 256.553 214.26C255.497 213.257 254.116 213.067 252.734 212.85C251.759 212.715 251.109 212.227 250.188 212.01C249.809 211.929 249.403 211.847 249.023 211.766C249.023 211.766 249.023 211.766 248.996 211.766C248.942 204.014 249.674 196.642 250.594 188.836C250.73 187.806 250.676 186.83 250.54 185.827C251.326 182.005 252.355 177.587 252.247 173.793C260.589 170.676 267.686 165.147 272.019 156.717C272.128 156.5 272.209 156.256 272.317 156.04C278.412 154.495 283.368 149.128 285.725 143.192C286.537 141.132 286.944 138.91 287.079 136.633C287.133 136.443 287.187 136.226 287.214 136.037C288.758 129.152 287.512 121.509 287.648 114.299Z" fill="#231F20"/>
<path d="M143.578 92.5342C130.956 99.9066 121.774 116.901 123.21 131.483C123.264 132.079 124.076 132.079 124.158 131.483C125.891 115.193 132.717 104.433 143.822 92.8324C143.93 92.6697 143.741 92.4258 143.578 92.5342Z" fill="#231F20"/>
<path d="M273.915 163.466C269.663 169.239 264.408 173.007 258.178 176.341C258.016 176.422 258.097 176.693 258.26 176.693C264.787 175.907 271.776 169.565 274.267 163.683C274.376 163.439 274.078 163.249 273.915 163.466Z" fill="#231F20"/>
<path d="M156.715 117.172C155.713 114.76 153.762 113.079 151.054 112.51C147.885 111.86 144.905 114.001 142.928 116.196C142.739 116.386 142.739 116.765 142.847 117.009C145.42 121.942 152.219 124.057 156.281 120.018C157.365 118.934 157.392 118.717 156.715 117.172ZM150.323 120.696C148.887 120.614 143.199 118.066 145.122 116.196C146.693 114.678 148.725 113.865 150.891 114.109C153.383 114.353 155.117 116.657 156.607 118.473C154.656 119.91 152.869 120.858 150.323 120.696Z" fill="white"/>
<path d="M179.007 116.494C177.544 115.247 175.621 114.57 173.752 114.217C170.258 113.513 166.872 115.031 165.166 117.931C164.38 119.259 164.082 119.665 164.813 120.858C166.276 123.189 169.472 124.246 172.018 124.626C175.946 125.195 179.684 123.487 181.417 119.882C181.932 118.852 179.657 117.063 179.007 116.494ZM179.332 120.343C176.19 125.628 168.037 122.999 164.841 119.394C166.926 116.819 169.581 115.546 172.939 115.762C174.537 115.871 180.686 118.066 179.332 120.343Z" fill="white"/>
<path d="M166.303 152.434C164.922 153.519 163.974 154.684 162.078 154.494C160.805 154.386 159.667 153.898 158.882 152.868C157.907 151.594 158.367 149.209 158.448 147.745C158.475 147.42 158.557 146.444 158.638 145.279C158.828 143.165 159.098 140.319 159.234 138.991C159.45 137.012 159.64 135.033 159.721 133.326C159.857 133.163 159.965 133.001 160.101 132.811C160.588 132.16 161.076 131.51 161.482 130.805C163.053 128.23 162.972 127.173 161.401 126.685C160.371 126.36 158.421 126.306 157.446 126.36C155.442 126.469 155.496 128.176 156.065 130.073C156.336 130.968 156.715 131.916 157.094 132.73C157.338 133.299 157.554 133.705 157.744 134.004C157.473 135.548 157.229 137.283 157.013 139.045C156.85 140.373 156.471 143.192 156.119 145.658C155.821 147.772 155.523 149.643 155.388 150.076C154.331 153.735 149.375 155.199 147.56 151.269C147.479 151.106 147.262 151.188 147.289 151.35C147.587 154.684 152.083 155.66 154.44 153.735C155.09 153.22 155.604 152.57 156.038 151.865C156.281 153.085 156.823 154.196 157.798 155.064C160.534 157.503 165.572 156.283 166.52 152.57C166.574 152.462 166.439 152.326 166.303 152.434Z" fill="white"/>
<path d="M167.305 136.931C172.073 136.416 176.244 136.795 180.577 138.936C180.713 139.018 180.848 138.828 180.74 138.72C177.923 135.494 171.016 135.196 167.278 136.714C167.17 136.768 167.17 136.958 167.305 136.931Z" fill="white"/>
<path d="M167.414 139.641C169.418 140.075 171.395 140.292 173.345 140.888C175.214 141.484 176.785 142.596 178.6 143.328C178.736 143.382 178.79 143.192 178.736 143.111C176.379 140.373 170.908 138.774 167.414 139.506C167.36 139.533 167.36 139.641 167.414 139.641Z" fill="white"/>
<path d="M166.899 142.758C168.172 143.354 169.581 143.598 170.881 144.059C172.695 144.71 174.212 145.875 175.946 146.634C176.027 146.688 176.19 146.58 176.108 146.471C174.375 144.113 169.824 142.325 166.953 142.596C166.872 142.623 166.818 142.731 166.899 142.758Z" fill="white"/>
<path d="M152.218 135.305C148.833 133.082 141.98 132.134 138.594 134.79C138.486 134.871 138.594 135.061 138.73 135.007C143.388 133.706 147.56 134.112 152.137 135.495C152.273 135.549 152.327 135.359 152.218 135.305Z" fill="white"/>
<path d="M151.541 138.043C148.237 136.687 142.576 137.23 139.759 139.506C139.651 139.588 139.759 139.75 139.894 139.723C141.547 139.398 143.118 138.747 144.797 138.422C147.072 137.988 149.266 138.26 151.541 138.205C151.596 138.151 151.596 138.07 151.541 138.043Z" fill="white"/>
<path d="M151.46 141.16C148.616 140.401 143.93 141.241 141.736 143.247C141.655 143.328 141.736 143.463 141.844 143.436C143.307 143.084 144.716 142.461 146.178 142.081C147.912 141.647 149.726 141.729 151.46 141.295C151.541 141.295 151.541 141.187 151.46 141.16Z" fill="white"/>
<path d="M209.641 111.588C211.483 112.51 214.056 112.456 216.087 112.32C217.252 112.239 217.631 110.45 216.385 110.179C214.272 109.745 211.455 109.745 209.641 111.073C209.478 111.209 209.424 111.48 209.641 111.588Z" fill="white"/>
<path d="M213.947 115.383C214.624 115.79 215.491 115.79 216.25 115.898C217.062 116.007 217.794 116.278 218.552 115.871C218.958 115.654 219.094 114.977 218.714 114.652C218.064 114.082 217.333 114.137 216.493 114.082C215.681 114.028 214.624 113.947 213.947 114.435C213.622 114.679 213.568 115.167 213.947 115.383Z" fill="white"/>
<path d="M210.914 117.931C211.049 118.5 211.618 118.69 212.106 118.879C212.891 119.15 213.704 119.313 214.516 119.449C215.031 119.53 215.383 119.367 215.681 118.961C215.871 118.717 215.871 118.446 215.789 118.175C215.708 117.849 215.41 117.524 215.058 117.443C214.056 117.226 213.027 117.09 212.024 117.172C211.699 117.199 210.805 117.416 210.914 117.931Z" fill="white"/>
<path d="M223.509 136.118C224.213 136.795 224.998 136.985 225.892 137.256C227.003 137.581 228.14 137.852 229.305 137.69C230.334 137.554 230.145 136.064 229.305 135.793C228.303 135.494 227.192 135.44 226.163 135.359C225.215 135.278 224.402 135.196 223.563 135.711C223.427 135.82 223.4 136.009 223.509 136.118Z" fill="white"/>
<path d="M224.321 139.424C224.484 139.668 224.565 139.967 224.754 140.156C225.052 140.454 225.54 140.644 225.892 140.834C226.623 141.213 227.49 141.376 228.221 140.888C228.519 140.671 228.736 140.21 228.492 139.858C228.005 139.208 227.49 139.072 226.732 138.855C226.38 138.747 225.973 138.72 225.594 138.665C225.161 138.611 224.89 138.774 224.511 138.909C224.321 138.991 224.213 139.235 224.321 139.424Z" fill="white"/>
<path d="M238.243 128.041C239.029 128.637 239.841 128.528 240.789 128.664C241.818 128.799 242.821 129.125 243.796 128.637C244.202 128.447 244.31 127.77 243.958 127.471C243.064 126.74 241.818 126.74 240.681 126.712C239.679 126.685 238.704 126.74 238.189 127.661C238.081 127.824 238.135 127.959 238.243 128.041Z" fill="white"/>
<path d="M239.489 131.185C239.76 131.402 239.895 131.618 240.22 131.781C240.545 131.944 240.898 132.052 241.25 132.133C242.035 132.35 242.794 132.486 243.606 132.54C244.635 132.594 244.744 131.131 243.85 130.805C243.146 130.561 242.469 130.453 241.737 130.317C241.358 130.263 241.006 130.182 240.627 130.209C240.22 130.209 240.031 130.372 239.652 130.48C239.381 130.561 239.218 130.995 239.489 131.185Z" fill="white"/>
<path d="M239.76 107.875C240.789 108.58 241.9 108.525 243.119 108.661C244.202 108.769 245.611 108.932 246.342 107.956C246.423 107.848 246.396 107.658 246.342 107.55C245.773 106.411 244.202 106.547 243.119 106.52C241.9 106.493 240.573 106.709 239.733 107.631C239.625 107.685 239.652 107.821 239.76 107.875Z" fill="white"/>
<path d="M242.089 111.182C242.469 112.347 244.798 112.889 245.638 111.995C245.909 111.724 245.963 111.317 245.773 110.992C245.286 110.125 244.256 110.179 243.39 110.179C242.929 110.179 241.873 110.558 242.089 111.182Z" fill="white"/>
<path d="M212.999 150.239C213.297 150.917 213.975 151.107 214.625 151.324C215.573 151.649 216.575 152.082 217.577 152.11C218.606 152.164 218.985 150.673 218.092 150.185C217.035 149.616 215.708 149.535 214.516 149.48C214.3 149.48 212.756 149.67 212.999 150.239Z" fill="white"/>
<path d="M213.053 153.925C213.243 154.63 214.245 155.145 214.922 155.253C215.952 155.416 216.575 154.142 215.654 153.546C215.085 153.166 213.92 152.814 213.324 153.248C213.108 153.437 212.972 153.654 213.053 153.925Z" fill="white"/>
<path d="M241.981 156.853C242.74 157.395 243.715 157.612 244.581 157.91C245.529 158.235 246.586 158.587 247.48 158.045C247.805 157.856 247.994 157.341 247.75 156.988C247.127 156.148 246.152 155.958 245.177 155.741C244.175 155.525 243.2 155.199 242.171 155.416C241.412 155.552 241.466 156.473 241.981 156.853Z" fill="white"/>
<path d="M242.198 159.78C242.658 160.458 243.39 160.783 244.175 161C245.34 161.325 246.044 159.672 244.988 159.048C244.283 158.642 243.39 158.398 242.631 158.723C242.225 158.913 241.927 159.374 242.198 159.78Z" fill="white"/>
<path d="M260.697 138.123C261.077 138.855 261.971 139.018 262.729 139.099C263.731 139.235 264.815 139.533 265.573 138.693C265.898 138.34 265.952 137.717 265.573 137.364C264.733 136.606 263.216 136.768 262.133 136.958C261.781 137.039 260.372 137.527 260.697 138.123Z" fill="white"/>
<path d="M260.941 142.298C261.402 142.894 262.241 143.03 262.946 143.247C263.704 143.463 264.3 143.572 264.95 143.03C265.221 142.813 265.194 142.434 265.058 142.162C264.706 141.404 263.921 141.295 263.189 141.16C262.485 141.024 261.7 140.889 261.077 141.322C260.724 141.593 260.697 141.946 260.941 142.298Z" fill="white"/>
<path d="M209.776 132.459C210.534 132.839 211.482 132.757 212.322 132.757C213.189 132.784 213.974 132.567 214.489 131.863C214.57 131.727 214.543 131.538 214.435 131.429C213.839 130.887 213.108 130.779 212.322 130.833C211.482 130.914 210.534 130.833 209.776 131.212C209.316 131.483 209.288 132.242 209.776 132.459Z" fill="white"/>
<path d="M223.481 102.021C224.511 102.508 225.567 102.481 226.678 102.237C227.571 102.048 228.763 101.777 228.817 100.638C228.872 99.798 227.246 99.9607 226.84 100.069C225.648 100.421 224.484 100.692 223.481 101.424C223.319 101.587 223.238 101.912 223.481 102.021Z" fill="white"/>
<path d="M230.009 121.319C230.361 121.943 231.12 121.942 231.743 121.942C232.582 121.942 233.205 121.807 233.774 121.156C233.883 121.048 233.883 120.858 233.774 120.75C232.989 119.991 232.203 120.072 231.201 120.208C230.849 120.262 229.684 120.75 230.009 121.319Z" fill="white"/>
<path d="M247.019 144.954C247.669 145.577 248.373 145.713 249.213 145.929C250.026 146.119 251.055 146.499 251.84 146.146C252.463 145.902 252.599 145.143 252.03 144.764C251.326 144.276 250.215 144.303 249.376 144.168C248.536 144.032 247.832 143.978 247.073 144.439C246.911 144.547 246.884 144.791 247.019 144.954Z" fill="white"/>
<path d="M257.556 123.893C258.287 125.249 263.731 124.761 262.973 123.216C262.431 122.132 260.508 122.565 259.587 122.701C259.235 122.755 257.122 123.107 257.556 123.893Z" fill="white"/>
<path d="M228.303 161.677C228.248 162.328 229.251 162.789 229.711 163.006C230.551 163.412 231.851 164.144 232.718 163.493C233.043 163.249 233.178 162.951 233.097 162.545C232.907 161.379 231.282 161 230.28 160.891C229.738 160.864 228.357 160.837 228.303 161.677Z" fill="white"/>
<path d="M258.449 155.551C258.883 156.338 259.668 156.609 260.454 157.015C261.32 157.476 262.187 157.639 263.162 157.693C263.866 157.72 264.354 156.69 263.758 156.229C262.973 155.606 262.268 155.253 261.32 154.955C260.508 154.711 259.641 154.413 258.801 154.684C258.449 154.793 258.26 155.199 258.449 155.551Z" fill="white"/>
<path d="M207.636 164.496C207.88 165.038 208.53 165.417 209.072 165.607C209.749 165.824 210.426 166.122 211.103 166.23C211.672 166.339 212.214 166.176 212.512 165.661C212.81 165.146 212.701 164.225 212.078 163.954C210.995 163.493 208.964 162.87 207.88 163.574C207.555 163.791 207.474 164.143 207.636 164.496Z" fill="white"/>
<path d="M201.921 103.051C202.95 103.674 204.223 103.051 205.226 102.725C205.849 102.536 207.555 101.614 207.013 100.693C206.39 99.6084 204.819 100.205 203.98 100.584C203.032 101.018 201.84 101.614 201.786 102.807C201.786 102.888 201.84 102.996 201.921 103.051Z" fill="white"/>
<path d="M154.339 30.6135C148.632 23.2543 139.512 20.6079 130.152 19.6864C114.587 18.1424 63.4358 31.735 52.9403 35.2772C45.5044 36.3029 27.9571 41.4496 21.3999 44.4697C5.97377 51.5736 -0.176519 73.1674 14.5599 91.7906C25.8637 106.034 44.4346 101.346 59.4797 97.6404C60.2976 99.7325 61.5376 101.727 62.6635 103.108C66.2078 107.49 73.3542 109.897 77.8008 110.37C82.1358 110.842 81.518 110.094 77.6275 104.457C75.5441 101.462 74.0775 98.1286 73.4229 94.5799C90.1231 91.2986 136.763 79.8353 143.57 77.5362C158.078 72.5922 167.462 47.5513 154.339 30.6135Z" fill="#E40000"/>
<path d="M29.5885 85.2517L28.9427 80.0596L26.1856 65.1458C25.6622 63.1248 25.2318 60.6649 24.8729 58.6336C24.8545 58.5544 24.9437 58.339 25.0573 58.2292C26.2236 56.9021 27.8597 56.5234 29.4693 56.1508C29.5485 56.1324 29.6541 56.108 29.7596 56.0836C30.7888 55.8454 31.4182 55.9222 32.2268 56.6532C33.8891 58.5497 35.8197 60.8849 37.3259 63.068L37.4234 63.1289C37.4234 63.1289 37.4234 63.1289 37.4762 63.1167L37.529 63.1045L37.5898 63.0069C37.6384 62.8566 37.7842 62.4055 37.7781 62.3791L38.3153 56.4123C38.2894 54.4987 40.1627 53.7034 41.7723 53.3308L41.8251 53.3186C43.3212 53.0558 45.4972 52.6077 47.168 52.4992C48.0472 52.5739 49.2348 54.942 49.5298 55.7362L57.0752 79.4458L57.0408 79.5372C56.9739 79.6084 56.5841 79.7264 56.505 79.7447C55.7053 80.0133 51.9096 81.031 51.0915 81.2203C51.0387 81.2325 50.6815 81.3709 50.4968 81.4136C50.3649 81.4442 49.9304 81.4891 49.8249 81.5135C49.4777 81.4548 49.2576 80.5042 49.1518 80.167L44.2092 63.9786L43.6752 73.923C43.3053 75.9283 42.122 76.3413 40.922 76.2017C39.7484 76.0561 39.6104 76.0602 33.7817 66.2532C33.7695 66.2003 33.6842 66.1923 33.6314 66.2045L33.5706 66.302C33.6317 66.5661 35.2672 73.0315 35.3895 73.5596C35.6095 74.5102 36.3347 77.4027 36.3958 77.6667C36.518 78.1948 37.6865 82.0419 37.8229 82.5111C37.8351 82.5639 37.8963 82.8279 37.9207 82.9336C38.3119 84.6236 35.33 85.3138 34.1953 85.5764C34.0634 85.607 33.5356 85.7291 33.5356 85.7291C33.3915 85.7069 31.9968 85.8071 31.5887 85.8459C31.5887 85.8459 31.536 85.8581 31.5096 85.8642C31.4568 85.8765 31.4568 85.8765 31.4304 85.8826C30.9371 85.9133 29.8265 85.92 29.6676 85.2334L29.5885 85.2517Z" fill="white"/>
<path d="M56.9165 66.2676C56.0875 62.9263 55.159 59.6357 54.3827 56.2822C54.0588 54.8826 53.5451 52.3029 55.5361 51.536L65.775 49.5277C66.6114 49.4176 67.0895 50.6423 67.3215 51.2841C67.4537 51.6152 67.8362 52.6673 67.8485 52.7201C67.8607 52.7729 68.0907 53.5265 68.1518 53.7906C68.1946 53.9754 68.3069 54.7006 68.3497 54.8854C68.3242 55.9763 67.5084 56.4156 66.5056 56.6477C65.9901 56.8226 63.5015 57.4821 62.9738 57.6043C62.921 57.6165 62.781 57.7324 62.7282 57.7446C62.6754 57.7568 62.6146 57.8543 62.6146 57.8543L63.672 62.4226L63.9056 62.5911L68.2822 61.8006C68.7572 61.6907 69.6241 61.7126 69.7647 62.3199L70.6265 66.0432C70.7243 66.4657 70.5341 67.2053 70.0713 67.368C68.4494 67.6878 66.852 68.1132 65.287 68.5589C65.1734 68.6687 65.1634 68.8657 65.2001 69.0241C65.2123 69.077 65.249 69.2354 65.249 69.2354C65.3712 69.7635 66.0311 72.2538 66.2061 72.7697L66.2183 72.8225L66.2305 72.8753L66.2428 72.9281C66.3383 73.1008 66.3953 73.2267 66.6064 73.1778C68.2688 72.793 69.7279 72.0101 71.3112 71.6436C71.5223 71.5948 72.0906 71.4076 72.3323 71.4908C73.2481 71.7239 74.2188 74.4761 74.4327 75.4003C74.4938 75.6643 74.555 75.9284 74.5633 76.2047C75.5262 79.4038 66.2097 79.7519 61.568 81.4384C61.3568 81.4873 60.9974 81.3757 60.9038 81.0913C60.9038 81.0913 60.7938 80.616 60.7815 80.5632C60.6371 80.1793 59.7353 77.2443 59.6558 76.901C59.1205 75.1888 58.9871 73.4113 58.2467 71.7743C58.0634 70.9821 57.106 67.0862 56.9165 66.2676Z" fill="white"/>
<path d="M73.7437 62.0943C73.7131 61.9622 73.6215 61.5661 73.6153 61.5397C73.2033 59.159 72.8643 56.7336 72.6247 54.2574C72.6347 54.0603 72.62 53.396 72.6016 53.3168C72.638 53.1136 72.8699 51.1125 72.9404 50.4563C72.9282 50.4035 72.989 50.3059 72.9768 50.2531C74.346 46.3195 77.1919 43.2403 82.1033 43.4389C82.156 43.4267 82.1946 43.4734 82.2474 43.4612C82.8444 43.5177 83.5002 43.5885 84.1074 43.8096C85.6916 44.5279 86.8033 45.9677 87.8236 47.373C89.7587 50.2079 90.2186 53.9964 91.0496 57.226C91.1512 57.4251 91.5077 58.8449 91.5383 58.9769C91.581 59.1618 92.0517 61.195 92.2228 61.9344C92.394 62.6738 92.8279 64.5486 92.8585 64.6806C93.0113 65.3408 93.6128 68.5401 93.719 69.2389C93.8985 70.2545 93.1502 71.3458 92.1474 71.5779C91.8836 71.639 92.868 71.3277 89.6464 71.823C89.6464 71.823 89.22 71.7826 89.0697 71.7339C88.2514 71.5616 88.1417 71.4479 87.7594 70.7574C87.6861 70.4405 87.3074 69.165 87.1935 68.9131C87.1629 68.7811 86.9879 68.2652 86.9574 68.1331C86.874 68.0133 86.7421 68.0439 86.7157 68.05C86.6629 68.0622 86.5432 68.1455 86.5168 68.1517C86.3849 68.1822 82.928 68.9824 82.8083 69.0657C82.6764 69.0962 82.7719 69.2689 82.778 69.2953C82.7903 69.3481 82.8269 69.5065 82.8269 69.5065C83.0081 70.0488 83.4906 71.7733 83.574 71.8931C83.5923 71.9724 83.944 72.5308 83.9562 72.5836C83.9685 72.6365 84.0051 72.7949 84.0174 72.8477C84.0785 73.1118 84.044 73.2032 83.7985 73.3435C83.0596 73.5145 81.4441 74.2223 80.6525 74.4056C80.5733 74.4239 79.4914 74.6743 79.0956 74.7659C78.8845 74.8148 77.8026 75.0652 77.5651 75.1202C77.1387 75.0798 77.0328 74.7426 76.9006 74.4116C75.9815 70.2008 74.6972 66.2136 73.7437 62.0943ZM81.6255 62.6346C81.6255 62.6346 82.9105 62.4207 82.9369 62.4146C83.0161 62.3962 84.8368 61.9748 84.8896 61.9626C84.8752 61.6599 84.5815 60.0308 84.502 59.6875C84.502 59.6875 84.4592 59.5027 84.4531 59.4762C84.2697 58.6841 83.865 57.7762 83.6877 57.0104C83.3355 55.7287 83.1476 54.4368 82.5842 53.204C81.8105 50.4619 80.8516 49.6823 80.2022 49.9995C79.5589 50.3432 79.1337 51.7492 79.4093 53.6607C79.4096 54.0223 79.4388 54.9892 79.4572 55.0685C79.5392 56.0232 79.7064 56.9861 79.9265 57.9367C80.2871 59.4946 80.6783 61.1846 81.2966 62.6551C81.4144 62.6835 81.4936 62.6652 81.6255 62.6346Z" fill="white"/>
<path d="M109.877 65.4153C109.419 67.1626 108.12 70.0785 106.281 70.7823C106.228 70.7945 104.875 71.1914 104.426 71.2952C104.426 71.2952 104.083 71.3746 104.004 71.393C100.547 72.1931 98.5257 68.2653 97.3114 65.5417C94.6001 59.3531 92.3709 51.8845 91.1528 44.4601L91.1406 44.4072C91.11 44.2752 91.2114 44.1126 91.3311 44.0293C92.3419 43.7119 95.8554 42.676 96.9109 42.4317C96.9637 42.4195 97.3332 42.334 97.4651 42.3034C97.5443 42.2851 97.9401 42.1935 98.072 42.1629C99.0069 45.8415 101.096 60.9933 103.585 61.057L103.683 61.1179C105.301 61.3832 106.174 58.4269 104.827 53.0909C104.717 52.6156 104.37 50.2755 104.26 49.8002L104.374 49.6904L110.039 48.4625C110.171 48.432 110.346 48.5863 110.312 48.6777C111.189 52.2303 112.411 58.7081 115.14 59.6899C115.14 59.6899 115.193 59.6777 115.219 59.6716C117.296 58.9128 114.533 46.9772 113.379 40.4283C113.15 39.2014 113.607 38.6506 114.627 38.1361C115.388 37.8209 117.772 37.5474 118.511 37.3764C118.722 37.3275 118.919 37.3376 119.077 37.3009C119.714 37.2925 120.472 37.5623 120.643 38.3016C124.763 56.0994 122.738 63.3285 120.098 66.694C119.278 67.7182 118.132 68.2897 116.997 68.5523C115.73 68.8455 114.587 68.8319 113.387 68.3307C112.037 67.7809 111.144 66.5686 110.165 65.4599C110.094 65.3929 110.067 65.399 109.962 65.4234L109.883 65.4417L109.877 65.4153Z" fill="white"/>
<path d="M124.738 60.195C125.024 59.9896 125.537 59.9264 125.749 59.8775C125.881 59.847 126.355 59.737 126.487 59.7065C126.873 59.8119 127.389 59.637 127.714 59.84C127.811 59.9008 128.264 60.2968 128.394 60.3779C128.606 60.6907 128.685 61.034 128.765 61.3773C129.125 62.9352 128.101 64.0348 126.94 64.3035C126.069 64.5051 124.623 63.7826 124.354 62.6208C124.134 61.6701 124.271 60.9428 124.738 60.195Z" fill="white"/>
<path d="M132.213 60.3009C132.499 60.0956 133.013 60.0324 133.224 59.9835C133.356 59.953 133.831 59.843 133.963 59.8125C134.349 59.9179 134.864 59.7429 135.189 59.9459C135.287 60.0068 135.74 60.4027 135.87 60.4839C136.081 60.7966 136.161 61.1399 136.24 61.4832C136.601 63.0412 135.576 64.1407 134.415 64.4095C133.544 64.6111 132.098 63.8886 131.829 62.7267C131.609 61.7761 131.747 61.0488 132.213 60.3009Z" fill="white"/>
<path d="M138.882 56.921C139.168 56.7157 139.682 56.6525 139.893 56.6036C140.025 56.5731 140.5 56.4631 140.631 56.4326C141.017 56.538 141.533 56.363 141.858 56.566C141.955 56.6269 142.408 57.0228 142.538 57.104C142.75 57.4168 142.829 57.76 142.909 58.1033C143.269 59.6613 142.245 60.7609 141.084 61.0296C140.213 61.2312 138.767 60.5087 138.498 59.3468C138.278 58.3962 138.415 57.6689 138.882 56.921Z" fill="white"/>
<path d="M121.64 80.0805C134.969 78.3306 152.652 72.9299 154.97 57.4813C154.986 57.3106 154.73 57.2864 154.682 57.4367C151.705 64.6358 147.829 69.873 140.873 73.5698C134.831 76.7766 128.045 77.8466 121.621 80.0012C121.562 79.9871 121.581 80.0663 121.64 80.0805Z" fill="white"/>
<path d="M155.413 55.793C155.948 54.8623 156.416 53.6411 156.304 52.5543C156.279 52.4487 156.141 52.4528 156.101 52.5178C155.501 53.4079 155.209 54.6717 155.237 55.7504C155.255 55.8296 155.373 55.858 155.413 55.793Z" fill="white"/>
<path d="M10.5471 68.2086C12.5974 62.8932 14.061 57.6857 17.7788 53.2085C20.4297 50.0075 24.4379 48.106 28.1783 46.489C35.9372 43.1351 44.3917 41.3451 52.5006 39.023C52.7381 38.968 52.6587 38.6247 52.415 38.6533C35.4182 41.6138 11.0958 46.4369 10.4943 68.2208C10.4943 68.2208 10.5268 68.2411 10.5471 68.2086Z" fill="white"/>
<path d="M54.3069 38.299C55.1291 38.2478 56.0447 38.1193 56.761 37.7309C56.8869 37.674 56.8441 37.4892 56.6999 37.4669C55.8858 37.4328 54.9805 37.7258 54.2458 38.0349C54.1464 38.0858 54.1953 38.297 54.3069 38.299Z" fill="white"/>
</svg>
