<svg width="370" height="479" viewBox="0 0 370 479" fill="none" xmlns="http://www.w3.org/2000/svg">
<g clip-path="url(#clip0)">
<path d="M114.45 476.305C122.676 476.305 131.396 467.118 139.053 458.994C144.361 453.376 149.403 448.099 154.293 445.594C157.743 443.848 161.496 443.012 166.121 443.012C169.268 443.012 172.414 443.392 175.485 443.734C177.797 443.999 179.996 444.265 182.157 444.379C188.715 444.721 194.743 444.872 200.657 444.872C204.524 444.872 208.315 444.797 211.992 444.645C213.925 444.569 216.238 444.265 218.664 443.923C222.114 443.468 225.677 443.012 229.203 443.012C234.207 443.012 237.998 444.037 240.841 446.125C245.921 449.845 250.167 454.477 254.261 458.956L254.337 459.032C263.701 469.244 270.487 475.925 279.054 475.925C283.149 475.925 287.47 474.369 292.285 471.142C306.122 461.917 315.448 445.859 319.997 423.348C326.252 392.334 323.599 360.066 321.021 328.9C319.504 310.526 317.95 291.545 318.215 272.906L318.291 268.351L322.234 270.591C324.812 272.071 327.048 273.552 329.02 275.108C329.209 275.26 329.361 275.374 329.512 275.526C329.588 275.602 329.664 275.639 329.74 275.715L330.119 276.019L330.346 276.437C332.924 280.954 334.668 285.851 335.881 289.647C336.943 292.874 337.853 296.101 338.725 299.214C339.521 302.061 340.279 304.756 341.113 307.413L341.227 307.717L341.264 308.059C341.492 311.969 341.947 317.018 343.312 321.459L343.653 322.598L342.97 323.775C342.819 324.041 342.629 324.344 342.402 324.648C341.947 325.293 341.454 325.901 340.999 326.508C340.241 327.495 339.521 328.406 338.952 329.355C338.762 329.697 338.687 330.418 338.649 331.215C338.876 331.063 339.104 330.95 339.293 330.836C339.369 330.798 339.483 330.722 339.559 330.684C340.051 330.152 340.544 329.583 341.037 328.938L341.264 328.672C341.492 328.406 341.719 328.102 341.985 327.799C342.174 327.571 342.326 327.381 342.516 327.153L343.994 325.369L345.965 326.584C346.041 326.66 346.306 326.736 346.42 326.774L348.164 327.381L348.24 329.203C348.278 330.076 348.392 331.026 348.505 332.05L352.031 330.608C352.713 331.557 353.737 332.506 354.798 333.531C356.883 335.543 359.196 337.745 359.689 340.516C359.689 340.402 359.727 339.605 359.727 339.605L364.92 338.922C364.769 337.555 364.2 336.378 362.987 335.353C360.712 333.417 358.172 331.899 355.443 330.266C353.244 328.938 351.728 327.153 350.173 325.104L349.415 324.117L349.643 322.902C352.637 307.907 349.718 291.887 341.795 280.043L341.568 279.739L341.378 279.094C341.227 278.601 341.075 278.107 340.885 277.651C338.118 270.439 332.394 265.39 326.631 260.986L326.214 260.645C324.433 259.278 322.196 257.57 319.694 255.824L318.481 254.988L318.556 253.508C319.239 237.26 321.665 216.951 334.365 204.006C336.639 201.69 339.142 199.792 341.568 197.97C344.638 195.654 347.52 193.49 349.832 190.605C356.049 182.823 360.561 174.396 363.252 165.627C365.375 158.718 369.773 141.711 365.11 132.98C363.859 130.626 362.001 129.108 359.499 128.348C358.476 128.045 357.49 127.893 356.504 127.893C352.296 127.893 348.467 130.588 344.259 133.853C343.842 134.156 343.425 134.498 343.008 134.84C339.217 137.801 334.934 141.141 330.005 142.508C327.314 143.229 325.494 143.571 324.053 143.571C318.784 143.571 317.988 139.395 317.23 135.371C317.002 134.27 316.775 133.018 316.471 131.613C310.937 107.963 304.189 83.136 292.437 61.6497C279.32 37.7718 262.109 22.3974 239.931 14.9569C227.497 10.7811 213.812 8.57933 200.392 8.57933C183.143 8.57933 166.386 12.1477 151.981 18.9429C136.286 26.3074 123.814 37.0506 114.905 50.8686C106.375 64.1552 99.4755 81.0101 93.8649 102.421L92.7655 106.596L89.5052 103.749C84.7286 99.5734 81.5442 95.7013 79.8761 91.9431L79.7624 91.6394L79.6866 91.3357C78.8526 86.9701 79.3075 82.4527 79.7245 77.6695L79.8382 76.2649C80.1415 73.0002 82.0749 60.7766 84.9182 51.2103C85.9796 47.6419 87.1548 43.7698 88.4059 39.7079L88.747 38.645L90.4909 37.6959C93.1825 36.2534 95.912 34.7729 98.7932 33.4442C100.499 32.647 102.622 31.0906 103.759 29.2305C101.257 30.8628 98.6794 31.9257 95.9878 33.0266L90.453 35.3043L91.8557 30.0656C92.7276 26.725 92.993 22.9668 93.1825 20.1956L93.2204 19.778C93.2962 18.3355 93.1446 17.1207 92.9171 15.792C92.7655 14.7671 92.6139 13.7042 92.5759 12.5273C92.121 13.7421 91.8936 14.9189 92.0073 16.0198C92.2347 18.7151 92.0073 21.4104 91.2491 24.6751L86.0175 24.713C85.828 23.9538 85.6384 23.1186 85.3351 22.1316C85.1077 21.3724 84.8802 20.5752 84.6149 19.778C83.743 16.9309 82.7573 13.7421 82.5298 10.5533C82.1886 12.2236 81.9991 13.856 82.0749 15.3365C82.1886 18.2595 83.288 21.0307 84.4253 23.9918C84.8423 25.0167 85.2214 26.0796 85.6005 27.1426L86.0934 28.5851L85.1077 29.7619C85.0698 29.8379 84.994 29.8758 84.9561 29.9517L82.454 32.8748L80.5585 29.5342C78.9663 26.763 77.4499 24.5232 75.8198 22.5113C75.744 22.4353 75.3649 22.2076 75.1374 22.0937C75.0237 22.0178 74.872 21.9418 74.7204 21.8659C75.2132 23.764 76.0851 25.8139 77.3741 27.9777C78.663 30.1415 79.6108 32.4192 80.5206 34.5831L81.3167 36.4811L80.9755 37.4302C79.6866 41.3023 78.9663 45.478 78.3597 49.4261C78.0944 51.0584 77.412 54.5129 76.6159 58.5368C75.2132 65.6736 73.2798 75.4298 73.0524 78.7704L73.0144 79.0361L72.9387 79.3019C71.953 82.8703 70.8915 87.4636 71.5739 91.7912C72.5216 97.5994 76.7296 102.572 84.5012 107.014L84.7286 107.128L85.5626 107.811C86.7757 108.836 88.2921 110.127 89.9601 111.379L91.3249 112.442L90.9458 114.113C90.036 118.213 89.1261 122.464 88.1784 127.171L87.4202 130.968L84.122 128.918C80.5964 126.716 77.7911 123.527 75.0995 120.49C71.0052 115.859 67.4796 111.873 62.286 111.873C60.8075 111.873 59.1395 112.215 57.3956 112.822C50.7235 115.252 47.0083 123.793 45.8331 130.322C43.5964 142.85 45.5298 156.136 51.2542 167.79C57.0923 179.597 66.5698 188.973 77.9807 194.212L79.5729 194.933L79.5349 196.679C79.3833 209.738 80.3311 222.076 82.3403 233.35C85.6005 251.648 95.7983 260.379 115.398 261.783L115.777 261.821L116.156 261.973C116.345 262.049 116.497 262.087 116.649 262.087C117.407 262.125 118.127 262.163 118.885 262.201L121.918 262.353L122.411 264.251C124.079 270.477 128.06 277.196 131.509 277.196C131.547 277.196 131.585 277.196 131.623 277.196C136.741 276.968 138.978 272.109 141.518 265.314L142.238 263.378L144.209 263.492C153.308 263.985 160.662 264.517 167.372 265.124L169.343 265.314L169.76 267.25C171.087 273.779 173.476 282.473 178.555 282.473C178.631 282.473 178.669 282.473 178.745 282.473C181.854 282.359 184.242 280.84 186.327 277.651C187.616 275.677 189.36 272.982 190.118 270.477L190.838 268.199L193.189 268.617C198.117 269.49 202.552 270.439 206.836 271.502C211.234 272.565 215.101 273.628 218.664 274.728L220.446 275.26L220.56 277.12C220.673 278.866 221.09 280.916 221.431 282.549C221.583 283.232 221.697 283.839 221.811 284.409C222.303 287.256 223.1 290.369 225.298 292.153C226.019 292.722 226.815 293.026 227.725 293.026C228.938 293.026 230.264 292.494 231.402 291.583C233.297 290.027 235.723 287.521 236.899 285.054L238.15 282.473L240.652 283.915C254.489 291.887 261.54 302.213 261.654 314.588C261.73 322.75 259.493 329.203 254.982 333.759C249.561 339.225 241.031 341.921 228.976 341.921C227.118 341.921 225.109 341.845 223.062 341.731L220.597 341.579L220.56 339.073C220.484 335.315 219.119 330.57 218.209 328.292C217.337 326.09 215.518 323.509 213.357 323.509C212.94 323.509 212.523 323.585 212.068 323.775C210.172 324.496 201.415 331.443 198.648 336.454L197.7 338.2L195.767 337.783C184.621 335.391 172.793 331.975 159.601 327.343L157.629 326.66L157.705 324.572C157.781 323.661 157.705 322.636 157.629 321.535C157.591 321.118 157.591 320.738 157.553 320.32L157.515 319.599C157.364 316.6 157.212 313.449 156.34 310.83C154.862 306.502 153.383 304.604 151.374 304.566C151.336 304.566 151.26 304.566 151.222 304.566C148.417 304.566 145.726 306.768 143.716 308.666C143.223 309.16 142.655 309.653 142.086 310.147C140.267 311.779 138.181 313.639 137.044 315.461L135.755 317.473L133.594 316.448C126.998 313.297 120.402 309.919 114.033 306.654C109.825 304.49 105.503 302.289 101.181 300.125L99.0964 299.1L99.8167 296.898C100.916 293.557 100.461 288.584 99.7409 286.421C97.9212 280.878 95.4192 280.764 94.623 280.726C94.5093 280.726 94.3956 280.726 94.244 280.726C91.3628 280.726 88.5954 282.473 86.0555 284.371C85.7901 284.56 85.4868 284.788 85.1835 285.016C83.6671 286.117 81.8095 287.446 80.9755 288.85L79.8761 290.71L77.829 290.065C72.0667 288.243 66.9489 287.294 62.5892 287.294C55.1589 287.294 50.0411 289.951 46.9325 295.417C44.2409 300.163 46.0226 306.161 48.373 309.881C50.8751 313.791 54.1353 314.436 58.6845 315.347C60.0114 315.613 61.3761 315.879 62.8167 316.258C67.8208 317.587 73.1661 319.371 79.1559 321.763L79.952 322.067L80.4069 322.788C87.4202 333.379 90.2255 343.781 88.9366 354.638C88.3679 359.383 87.1927 363.976 86.0555 368.38C85.0698 372.214 84.122 375.82 83.5534 379.54C81.6579 391.878 82.8331 404.291 84.0083 413.706C85.9038 428.549 90.3393 463.36 108.005 474.331C110.166 475.659 112.251 476.305 114.45 476.305ZM357.3 352.094C357.452 351.942 357.566 351.753 357.679 351.601C358.513 350.348 359.006 348.222 359.31 346.02C358.93 348.07 358.438 350.158 357.3 352.094ZM341.606 350.955C341.833 350.234 342.099 349.475 342.402 348.716C342.023 349.513 341.719 350.272 341.606 350.955Z" fill="white"/>
<path d="M50.4579 333.151C50.6096 333.151 50.6096 333.379 50.4579 333.379C50.3063 333.379 50.3063 333.151 50.4579 333.151Z" fill="white"/>
<path d="M70.3988 78.6565C70.7779 73.266 75.0617 53.5639 75.744 49.0844C76.3506 45.2503 77.0709 40.7708 78.4356 36.633C77.3742 34.1655 76.3885 31.66 75.0238 29.3443C72.2943 24.751 70.323 19.1706 72.3701 13.894C72.4459 13.7042 72.7113 13.6282 72.7871 13.856C73.6969 15.6782 73.7348 16.1337 74.6826 18.2975C75.2133 19.5123 76.9951 19.8919 77.8291 20.8789C79.7246 23.1946 81.3547 25.6621 82.8332 28.2814C82.8711 28.2055 82.9469 28.1675 82.9848 28.0916C81.5442 23.9538 79.4592 19.9678 79.2696 15.4883C79.0801 10.5533 80.9756 4.74521 83.5155 0.531465C83.7051 0.227772 84.0842 0.303695 84.1979 0.607388C85.2594 3.41655 85.1836 5.77017 85.0319 8.76914C84.8803 12.9449 86.6241 17.5003 87.7614 21.4104C88.0268 22.3214 88.2543 23.1946 88.4817 24.1056C89.0504 21.6002 89.4295 19.0188 89.202 16.2476C88.7092 10.4774 94.1682 4.89705 96.5186 0.0379634C96.5944 -0.0759215 96.784 -0.0379599 96.8219 0.075925C97.6938 3.11286 97.1252 5.08686 95.9879 8.00991C94.0924 12.7931 96.1016 15.4504 95.7983 20.0058C95.6088 22.777 95.3813 27.0287 94.3578 30.7869C98.3383 29.1545 102.016 27.75 105.276 24.5612C105.807 24.0297 106.754 24.2575 106.944 25.0167C108.157 29.8379 103.873 34.0516 99.8547 35.9497C96.784 37.3922 93.8649 38.9866 90.9079 40.543C89.5432 44.8707 88.4059 48.7048 87.4202 52.0075C84.6907 61.308 82.7574 73.3419 82.4541 76.5307C81.9612 81.8073 81.3926 86.4766 82.2266 90.8422C84.6908 96.3846 90.491 101.396 95.4192 105.192C94.3577 108.912 93.1825 112.632 92.2727 116.428C88.6713 114.151 85.2594 111.19 83.1744 109.443C76.1231 105.419 70.1713 99.991 68.9203 92.3227C68.2758 87.8432 69.1098 83.2119 70.3988 78.6565Z" fill="#E40000"/>
<path d="M78.663 287.521C79.9519 285.32 82.6814 283.573 84.4632 282.245C87.4581 280.005 90.87 277.879 94.7747 278.069C98.9827 278.297 101.106 282.055 102.319 285.623C103.229 288.395 103.646 293.975 102.395 297.771C113.275 303.2 123.889 308.856 134.732 314.057C136.476 311.285 139.698 308.742 141.859 306.73C144.474 304.263 147.697 301.795 151.45 301.909C155.772 302.023 157.705 306.54 158.88 309.995C159.98 313.221 160.093 316.866 160.245 320.206C160.321 321.725 160.51 323.319 160.359 324.8C172.035 328.9 184.052 332.544 196.221 335.125C199.216 329.697 208.428 322.256 211.006 321.231C215.669 319.409 219.119 323.433 220.635 327.229C221.697 329.925 223.099 334.898 223.175 338.959C241.637 340.098 259.114 336.568 258.924 314.55C258.811 301.529 250.243 292.532 239.287 286.193C237.846 289.154 235.117 291.963 233.07 293.633C230.34 295.873 226.511 296.594 223.592 294.241C220.749 291.963 219.726 288.319 219.157 284.864C218.816 283.004 218.057 279.967 217.906 277.272C213.774 276.019 209.793 274.956 206.23 274.083C201.718 272.982 197.245 272.071 192.734 271.236C191.862 274.083 190.042 276.892 188.602 279.094C186.289 282.662 183.218 285.016 178.859 285.168C171.315 285.434 168.585 274.614 167.182 267.819C159.525 267.098 151.867 266.605 144.133 266.187C141.783 272.375 139.129 279.625 131.775 279.929C125.633 280.195 121.274 270.249 119.871 264.972C118.772 264.934 117.672 264.858 116.535 264.82C116.042 264.782 115.625 264.669 115.208 264.517C95.5708 263.15 83.3638 254.419 79.6866 233.882C77.5257 221.658 76.6917 209.207 76.8433 196.679C51.8607 185.253 38.3649 156.63 43.1794 129.905C44.5442 122.35 48.7521 113.202 56.4478 110.354C71.2327 104.926 75.5923 120.452 85.5247 126.678C90.87 100.067 98.1866 71.7095 112.592 49.3501C139.432 7.63029 196.032 -2.65731 240.728 12.3755C291.565 29.4582 308.207 84.3508 319.201 131.271C321.248 140.04 319.77 142.85 329.437 140.192C334.365 138.826 338.8 135.068 342.743 132.031C348.05 127.931 353.509 123.983 360.447 126.033C375.535 130.55 369.014 156.706 365.982 166.652C363.1 176.104 358.248 184.797 352.107 192.503C347.633 198.122 341.302 201.159 336.412 206.132C320.641 222.227 321.4 250.319 320.983 271.312C319.997 322.067 332.811 373.694 322.689 423.994C318.86 443.088 310.52 462.449 293.839 473.496C275.605 485.605 264.99 474.634 252.404 460.93C248.31 456.451 244.177 451.933 239.287 448.365C232.501 443.392 220.029 447.112 212.106 447.416C202.097 447.795 192.051 447.644 182.043 447.15C173.134 446.695 163.846 443.81 155.506 448.023C141.935 454.932 124.875 487.997 106.64 476.684C88.5954 465.486 83.7808 432.915 81.3925 414.124C79.914 402.507 79.1558 390.815 80.9376 379.199C82.2265 370.809 85.3351 362.875 86.3208 354.372C87.6097 343.211 84.2357 333.455 78.2081 324.344C72.9386 322.256 67.6312 320.396 62.1722 318.954C55.9171 317.283 50.1169 317.625 46.1743 311.399C43.0657 306.464 41.5872 299.555 44.6579 294.165C51.4437 282.169 65.8116 283.422 78.663 287.521ZM65.4325 119.048C56.4857 113.012 52.2019 130.057 51.5575 135.03C48.7521 156.744 60.4663 174.737 77.1845 186.771C77.3741 182.899 77.6773 179.065 78.0185 175.231C73.1282 172.65 69.3751 169.005 67.3659 163.767C65.9632 160.16 65.622 154.997 67.4417 151.353C67.0626 149.948 66.7593 148.696 66.494 147.633C65.7357 144.672 64.8638 141.711 64.1056 138.75C63.6507 137.004 62.9683 135.295 62.1722 133.663C60.5421 130.284 59.2532 135.713 58.6845 137.193C58.5329 137.611 57.9642 137.535 57.9263 137.079C57.7368 135.03 57.3577 129.032 60.8833 129.032C63.7644 129.032 65.4325 133.587 66.3802 135.599C68.2757 139.699 69.9438 143.761 71.4222 148.012C72.8249 151.998 74.038 155.946 76.1989 159.629C77.0708 161.109 78.246 162.21 79.3833 163.273C80.4069 155.301 81.6958 147.405 83.1364 139.661C83.4396 138.142 83.705 136.586 84.0083 135.03C76.2747 131.309 72.5216 123.831 65.4325 119.048ZM54.5144 306.996C56.6753 309.539 61.6036 309.16 64.6743 309.805C75.4786 312.045 85.9038 317.245 95.9499 321.611C111.038 328.14 126.695 334.974 139.584 345.337C140.532 346.096 139.47 347.349 138.523 347.159C122.108 344.312 107.057 336.985 91.8556 330.152C94.8884 337.669 96.1773 345.603 95.6087 354.334C94.8505 365.988 89.9222 376.807 89.2399 388.424C87.9509 410.821 92.7276 436.027 102.319 456.261C105.958 463.929 111.152 473.04 120.023 467.118C129.007 461.158 135.641 451.554 144.02 444.721C145.915 443.164 147.962 441.76 150.047 440.545C135.338 435.458 121.425 426.613 117.9 411.39C117.824 411.011 118.241 410.745 118.544 411.011C138.257 429.574 162.557 436.331 189.436 437.432C203.159 438.001 217.261 434.243 230.909 436.749C231.44 436.825 231.857 436.976 232.349 437.09C226.663 430.675 220.939 424.145 216.996 416.781C216.731 416.325 217.223 415.908 217.678 416.098C228.634 421.184 237.391 430.903 245.428 439.748C248.385 443.012 251.304 446.315 254.034 449.732C259.076 455.008 263.815 460.665 269.084 465.713C288.266 484.163 307.98 443.658 312.074 429.498C318.329 407.936 318.632 384.475 316.813 362.268C314.386 332.81 311.808 303.503 312.074 273.931C312.263 252.179 313.06 229.061 323.447 209.472C326.176 204.347 330.119 199.564 334.744 196.072C343.274 189.694 349.339 183.165 354.154 173.485C358.893 163.88 361.432 152.568 360.864 141.901C360.106 127.893 348.922 138.408 343.008 142.774C336.791 147.329 329.095 150.48 321.324 149.911C310.595 150.062 299.298 145.773 295.052 137.991C294.863 137.649 295.166 137.269 295.545 137.345C301.383 138.674 306.463 140.914 312.112 142.128C309.951 133.473 308.624 124.438 306.349 115.821C299.298 88.9821 290.162 62.0293 270.714 41.4921C252.063 21.79 225.639 14.9569 199.33 14.6532C171.77 14.3115 145.384 24.5991 126.808 45.1364C117.141 55.8416 111.341 69.1281 107.057 82.7184C101.295 100.788 96.3669 119.124 92.4622 137.687C87.4202 161.755 85.1835 186.316 86.4724 210.877C87.3823 227.732 87.0032 249.598 106.678 254.761C111.91 256.127 117.559 256.659 123.359 256.886C125.103 256.924 126.808 256.962 128.552 257C135.452 257.076 142.352 256.886 148.682 257.266C163.012 258.139 177.38 259.43 191.521 261.935C195.804 262.619 200.088 263.378 204.372 264.289C224.161 268.465 245.807 275.26 259.228 291.28C260.213 292.456 261.123 293.785 261.995 295.19C260.099 287.901 257.332 280.688 255.095 273.324C255.02 273.058 255.399 272.792 255.588 273.058C264.99 285.168 269.577 300.087 268.174 315.006C268.667 322.75 267.037 330.418 262.45 336.226C252.972 348.26 235.231 348.716 221.28 347.918C178.935 345.489 138.03 327.799 101.257 307.907C89.4673 301.529 69.83 289.495 55.9171 295.38C50.9509 297.505 51.5954 303.579 54.5144 306.996Z" fill="#231F20"/>
<path d="M325.153 165.665C327.844 164.108 330.839 163.045 333.682 161.83C337.928 160.008 340.317 156.706 343.804 153.972C343.994 153.821 344.221 153.896 344.221 154.162C344.638 160.54 339.104 165.551 334.061 168.626C333.341 169.043 332.659 169.461 331.939 169.878C332.886 173.143 330.422 177.736 329.285 180.394C328.034 183.317 324.622 188.024 320.983 187.834C320.566 187.796 320.186 187.72 319.807 187.644C320.604 189.694 322.802 190.643 327.086 189.125C327.617 188.935 328.148 189.618 327.844 190.074C320.262 200.513 310.557 189.467 312.87 179.748C314.386 173.561 319.921 168.702 325.153 165.665Z" fill="#231F20"/>
<path d="M93.2582 283.877C90.1117 284.484 87.5338 287.597 84.7664 289.723C88.9744 291.356 92.8033 293.14 95.9119 294.62C96.4806 294.886 97.0492 295.19 97.6558 295.455C97.1629 290.065 97.6558 283.042 93.2582 283.877Z" fill="#E40000"/>
<path d="M150.085 307.11C145.536 308.249 143.223 313.449 139.849 316.448C145.119 318.878 150.502 321.118 156.037 323.205C154.786 316.334 154.748 305.933 150.085 307.11Z" fill="#E40000"/>
<path d="M213.243 326.242C210.248 326.015 206.685 331.026 205.017 332.962C204.145 333.987 203.273 335.163 202.363 336.34C207.67 337.327 212.978 338.086 218.323 338.58C218.171 338.124 218.058 337.669 217.944 337.213C217.223 334.86 216.503 326.508 213.243 326.242Z" fill="#E40000"/>
<path d="M225.64 288.053C227.156 293.823 231.819 288.053 235.382 284.105C231.743 282.283 227.914 280.726 224.123 279.36C224.426 282.321 224.881 285.206 225.64 288.053Z" fill="#E40000"/>
<path d="M178.859 279.512C183.256 280.043 185.303 274.501 187.881 270.439C182.953 269.641 178.025 268.996 173.058 268.427C174.082 273.172 175.598 279.132 178.859 279.512Z" fill="#E40000"/>
<path d="M127.529 269.566C128.363 271.274 129.311 273.286 130.903 274.463C133.215 276.133 135.793 272.337 136.779 270.78C137.802 269.186 138.561 267.516 139.433 265.959C134.77 265.731 130.107 265.504 125.406 265.276C126.24 266.68 126.884 268.199 127.529 269.566Z" fill="#E40000"/>
<path d="M213.357 331.102C214.494 331.861 214.532 333.797 214.342 335.012C214.191 335.999 212.485 335.999 212.333 335.012C212.143 333.873 212.068 332.354 212.523 331.291C212.712 331.026 213.129 330.95 213.357 331.102Z" fill="white"/>
<path d="M151.336 313.108C151.943 314.209 151.943 315.993 151.071 316.942C150.616 317.435 149.896 317.132 149.668 316.562C149.289 315.575 149.479 313.981 150.009 313.07C150.275 312.614 151.033 312.614 151.336 313.108Z" fill="white"/>
<path d="M94.5093 287.673C95.2295 288.357 95.1537 289.382 95.0021 290.293C94.8883 291.204 93.2583 291.204 93.1445 290.293C93.0308 289.382 92.9171 288.357 93.6374 287.673C93.9027 287.445 94.2818 287.445 94.5093 287.673Z" fill="white"/>
<path d="M135.641 268.427C135.414 269.072 135.073 269.604 134.694 270.135C134.049 271.16 132.381 270.173 133.101 269.186C133.481 268.654 133.935 268.161 134.352 267.667C134.845 267.098 135.945 267.743 135.641 268.427Z" fill="white"/>
<path d="M183.825 272.754C183.711 273.552 183.332 274.197 182.763 274.728C182.043 275.374 180.792 274.539 181.361 273.665C181.816 272.982 182.384 272.337 183.218 272.147C183.597 272.033 183.863 272.375 183.825 272.754Z" fill="white"/>
<path d="M231.326 284.75C231.591 285.623 230.947 286.421 230.302 286.952C229.43 287.673 228.407 286.61 229.089 285.737C229.506 285.206 230.037 284.598 230.719 284.409C230.985 284.333 231.25 284.484 231.326 284.75Z" fill="white"/>
<path d="M50.4579 333.379C50.3063 333.379 50.3063 333.151 50.4579 333.151C50.6096 333.151 50.6096 333.379 50.4579 333.379Z" fill="#231F20"/>
<path d="M155.203 352.702C153.459 353.954 151.412 353.765 149.478 353.195C147.204 352.55 145.65 351.677 144.929 349.361C144.702 348.564 145.081 347.653 145.801 347.273C147.772 346.172 149.289 346.514 151.26 347.501C152.852 348.26 154.331 348.906 155.582 350.234C156.264 351.031 156.075 352.094 155.203 352.702Z" fill="#231F20"/>
<path d="M177.039 75.8853C230.037 71.8234 256.043 128.158 249.371 173.485C248.272 180.925 245.921 188.517 242.32 195.389C234.435 214.104 220.484 229.82 201.567 237.298C210.021 235.134 218.02 231.338 225.374 226.517C237.771 218.317 244.329 205.828 252.176 193.718C252.556 193.111 253.39 193.528 253.276 194.174C248.575 222.189 219.233 242.309 192.468 244.815C174.423 246.523 148.152 242.043 135.035 227.087C122.032 215.774 114.867 198.653 112.441 181.646C105.92 136.32 125.178 79.8333 177.039 75.8853Z" fill="#231F20"/>
<path d="M325.153 165.665C327.844 164.108 330.839 163.045 333.682 161.83C337.928 160.008 340.317 156.706 343.804 153.972C343.994 153.821 344.221 153.897 344.221 154.162C344.638 160.54 339.104 165.551 334.061 168.626C333.341 169.043 332.659 169.461 331.939 169.878C332.886 173.143 330.422 177.736 329.285 180.394C328.034 183.317 324.622 188.024 320.983 187.834C320.566 187.796 320.186 187.72 319.807 187.644C320.604 189.694 322.802 190.643 327.086 189.125C327.617 188.935 328.148 189.618 327.844 190.074C320.262 200.513 310.557 189.467 312.87 179.748C314.386 173.561 319.921 168.702 325.153 165.665Z" fill="#231F20"/>
<path d="M253.996 188.859C253.314 188.024 253.352 186.923 253.579 185.898C253.807 184.683 254.034 183.089 255.247 182.52C255.778 182.254 256.422 182.368 256.726 182.899C257.37 184.038 256.801 185.139 256.46 186.278C256.119 187.265 255.854 188.404 254.944 189.011C254.641 189.163 254.186 189.125 253.996 188.859Z" fill="#231F20"/>
<path d="M106.261 142.812C105.996 150.632 105.238 158.3 105.579 166.12C106.034 176.294 108.953 185.595 111.19 195.389C111.303 195.882 110.659 196.148 110.394 195.73C100.878 181.798 100.044 158.338 105.655 142.736C105.806 142.432 106.299 142.47 106.261 142.812Z" fill="#231F20"/>
<path d="M255.702 136.244C252.48 126.45 250.546 116.96 245.618 107.697C239.249 95.7772 229.089 87.5016 218.513 79.5676C218.058 79.226 218.323 78.3149 218.93 78.5806C239.628 86.7803 258.545 113.202 256.574 136.13C256.536 136.586 255.854 136.7 255.702 136.244Z" fill="#231F20"/>
<path d="M215.631 77.6695C214.456 77.4418 213.47 76.9862 212.409 76.4547C211.272 75.8853 209.717 75.5816 209.149 74.3289C209.073 74.1391 209.111 73.9113 209.3 73.7974C210.551 73.0382 211.954 73.9113 213.091 74.4807C214.342 75.1261 215.366 75.8474 216.162 76.9862C216.427 77.3658 216.01 77.7454 215.631 77.6695Z" fill="#231F20"/>
<path d="M98.7932 169.195C99.703 172.08 99.4755 175.269 100.31 178.23C101.068 180.925 102.432 183.317 102.584 186.164C102.622 186.619 102.053 186.771 101.75 186.506C97.9213 183.127 95.2676 173.674 98.2245 169.119C98.3762 168.891 98.7174 168.929 98.7932 169.195Z" fill="#231F20"/>
<path d="M259 349.551C247.286 362.572 225.374 359.952 210.892 353.992C210.4 353.803 210.4 352.967 211.044 353.005C228.217 354.106 242.433 355.966 258.81 349.209C259 349.095 259.152 349.437 259 349.551Z" fill="#231F20"/>
<path d="M283.035 250.281C284.703 251.8 286.295 253.318 288.001 254.685C287.546 254.115 287.129 253.47 286.75 252.787C285.461 250.433 285.272 247.548 286.068 245.004C286.712 242.954 288.949 240.411 291.261 240.525C291.337 240.525 291.413 240.601 291.375 240.715C290.768 242.309 289.404 243.448 288.835 245.118C288.532 245.991 288.456 246.827 288.532 247.7C299.336 236.615 319.466 252.255 328.375 259.05C334.782 263.947 340.582 269.262 343.501 276.892C343.729 277.5 343.918 278.145 344.108 278.752C352.713 291.659 355.367 308.666 352.334 323.661C353.661 325.369 354.988 327.039 356.883 328.178C359.613 329.811 362.342 331.443 364.768 333.531C369.848 337.859 367.005 343.819 365.565 349.057C365.451 349.513 364.844 349.437 364.731 349.057C363.745 346.324 363.214 343.629 362.646 340.782C362.608 340.516 362.494 340.25 362.418 340.022C362.191 343.856 361.925 349.93 359.84 353.081C357.604 356.422 352.903 357.257 350.893 360.294C350.704 360.598 350.287 360.674 350.022 360.408C349.188 359.497 348.922 357.902 349.529 356.801C350.439 355.245 351.121 354.41 352.599 353.271C356.163 350.538 356.428 346.438 357.035 342.414C357.604 338.846 352.372 335.847 349.832 332.43C350.135 334.708 350.476 336.985 350.742 339.301C351.045 342.148 349.453 344.426 347.368 346.172C344.108 348.943 344.411 352.436 342.44 355.852C342.25 356.194 341.757 356.346 341.416 356.118C335.502 351.904 340.885 344.919 344.828 341.693C347.557 339.453 345.624 333.949 345.472 329.507C345.131 329.393 344.828 329.279 344.487 329.089C344.07 329.621 343.615 330.114 343.236 330.57C342.629 331.329 341.985 332.088 341.302 332.81C340.772 333.341 339.938 333.493 339.483 334.1C339.255 334.404 338.952 336.985 337.928 336.72C335.388 335.998 335.502 329.963 336.526 328.216C337.549 326.432 338.952 324.914 340.127 323.243C340.317 322.978 340.468 322.674 340.658 322.408C339.293 318.043 338.8 313.259 338.497 308.362C336.639 302.554 335.199 296.594 333.265 290.596C331.825 286.193 330.195 281.827 327.92 277.879C327.693 277.689 327.465 277.5 327.238 277.31C318.101 270.059 306.312 267.06 296.645 260.91C290.844 261.252 284.855 255.444 282.315 250.699C282.277 250.357 282.732 250.015 283.035 250.281Z" fill="#E40000"/>
<path d="M301.004 430.599C301.459 438.685 298.199 446.201 293.422 452.579C288.304 459.412 282.087 463.208 273.861 460.361C273.368 460.209 273.254 459.374 273.861 459.26C288.532 456.527 294.56 442.291 300.701 430.523C300.777 430.371 301.004 430.447 301.004 430.599Z" fill="#231F20"/>
<path d="M133.746 444.607C132.988 451.364 120.705 466.738 113.161 460.247C112.895 460.019 112.895 459.526 113.161 459.298C116.421 456.755 120.439 455.692 123.662 452.958C126.77 450.301 129.652 446.163 133.291 444.341C133.48 444.303 133.746 444.379 133.746 444.607Z" fill="#231F20"/>
<path d="M275.605 64.0033C266.961 56.2592 259.228 47.9835 249.561 41.4161C238.68 34.0516 225.943 28.3194 213.812 23.4223C213.205 23.1566 213.432 22.3594 214.077 22.4353C239.173 25.9658 267.264 37.5441 276.022 63.7376C276.097 64.0033 275.756 64.1552 275.605 64.0033Z" fill="#231F20"/>
<path d="M264.535 390.815C262.943 390.398 261.767 389.942 260.478 388.879C259.834 388.348 258.81 387.74 258.393 387.019C257.976 386.336 257.901 385.804 257.825 385.045C257.825 384.817 258.052 384.589 258.28 384.589C258.772 384.627 259.227 384.551 259.644 384.741C260.516 385.121 261.123 385.728 261.843 386.336C262.563 386.943 263.284 387.512 263.928 388.234C264.421 388.803 264.724 389.449 265.179 390.018C265.445 390.436 264.952 390.929 264.535 390.815Z" fill="#231F20"/>
<path d="M258.166 392.827C257.825 392.637 257.522 392.713 257.18 392.561C256.46 392.182 255.853 391.802 255.209 391.309C253.996 390.398 253.238 389.449 253.086 387.93C253.048 387.664 253.351 387.399 253.579 387.437C255.095 387.588 256.043 388.348 256.953 389.562C257.294 390.056 257.787 390.549 258.014 391.119C258.166 391.612 258.242 392.068 258.469 392.523C258.583 392.713 258.356 392.941 258.166 392.827Z" fill="#231F20"/>
<path d="M160.093 380.262C160.283 380.907 160.586 381.211 160.548 381.932C160.51 382.691 160.321 383.413 160.093 384.134C159.638 385.463 158.577 387.095 157.364 387.816C156.34 388.424 155.203 387.209 155.772 386.222C156.378 385.159 157.25 384.286 157.819 383.185C158.084 382.691 158.35 382.198 158.539 381.666C158.729 381.173 159.108 380.755 159.259 380.262C159.449 379.882 159.98 379.844 160.093 380.262Z" fill="#231F20"/>
<path d="M156.075 379.616C154.938 380.793 154.217 383.147 152.398 383.337C151.905 383.375 151.45 382.881 151.488 382.426C151.526 381.363 152.398 380.603 153.118 379.92C153.8 379.275 154.559 378.781 155.506 378.592C156.075 378.44 156.492 379.161 156.075 379.616Z" fill="#231F20"/>
<path d="M282.77 199.109C281.632 199.071 280.571 199.071 279.433 198.767C278.296 198.501 277.045 198.35 276.514 197.211C276.401 196.945 276.477 196.717 276.704 196.527C277.765 195.73 278.865 196.338 280.002 196.679C281.177 197.021 282.011 197.704 282.959 198.388C283.262 198.615 283.187 199.109 282.77 199.109Z" fill="#231F20"/>
<path d="M279.737 202.601C279.471 202.563 279.282 202.715 279.016 202.715C278.637 202.715 278.182 202.563 277.841 202.374C276.969 201.918 276.097 201.387 275.453 200.627C275.112 200.248 274.998 199.678 275.263 199.223V199.185C275.301 199.033 275.453 198.843 275.605 198.843C275.643 198.843 275.643 198.843 275.68 198.843C276.022 198.615 276.514 198.653 276.856 198.843C277.576 199.299 278.258 199.868 278.903 200.437C279.168 200.665 279.433 200.893 279.661 201.197C279.888 201.462 279.85 201.804 280.078 202.032C280.381 202.26 280.078 202.639 279.737 202.601Z" fill="#231F20"/>
<path d="M142.01 52.9185C142.731 53.5639 143.223 54.5888 143.678 55.424C144.171 56.2971 145.043 57.0943 145.195 58.0813C145.309 58.7267 144.778 59.4479 144.095 59.1822C142.92 58.7646 142.389 57.5499 141.859 56.4869C141.366 55.4999 140.911 54.2472 141.101 53.1463C141.176 52.7667 141.745 52.6908 142.01 52.9185Z" fill="#231F20"/>
<path d="M139.774 58.0813C140.494 58.9165 141.48 59.334 142.352 59.9414C143.148 60.5109 142.693 61.9534 141.631 61.6117C140.191 61.1182 139.091 60.1692 138.636 58.7267C138.447 58.1193 139.319 57.5878 139.774 58.0813Z" fill="#231F20"/>
<path d="M174.461 200.703C206.723 203.057 214.115 169.347 211.234 143.951C208.125 144.102 204.979 144.216 201.87 144.216C205.358 160.464 201.074 188.935 181.209 191.554C151.26 195.465 149.896 161.489 157.288 140.838C155.051 140.382 152.815 139.889 150.578 139.357C140.532 162.893 142.617 198.388 174.461 200.703Z" fill="white"/>
<path d="M189.966 167.752C187.995 173.219 182.119 180.925 175.409 179.065C162.709 175.573 164.415 154.921 169.533 142.736C167.145 142.47 164.756 142.128 162.368 141.749C158.956 151.011 156.719 160.35 158.349 170.334C160.283 182.102 170.973 189.277 182.536 186.468C199.027 182.482 199.103 157.617 197.586 144.178C195.653 144.14 193.719 144.102 191.824 144.064C194.288 151.467 192.43 160.957 189.966 167.752Z" fill="#E40000"/>
<path d="M237.012 130.968C236.595 129.563 236.14 128.159 235.648 126.792C232.236 127.893 228.179 128.045 224.995 128.386C214.266 129.525 203.386 129.525 192.62 129.221C180.678 128.88 168.813 127.665 157.06 125.539C148.948 124.097 138.409 122.274 130.675 117.833C129.917 119.351 129.235 120.908 128.59 122.502C161.117 136.396 202.363 138.104 237.012 130.968Z" fill="white"/>
<path d="M221.469 103.408C210.02 106.596 197.396 104.395 185.796 102.648C177.911 101.471 170.063 99.7632 162.254 98.2447C157.894 97.4096 153.307 96.992 149.061 95.7013C147.469 96.8022 145.877 97.979 144.436 99.2697C144.247 99.4595 144.057 99.6493 143.868 99.8012C156.302 102.876 168.699 105.647 181.436 107.659C195.728 109.937 212.75 112.746 227.724 110.924C225.829 108.343 223.744 105.799 221.469 103.408Z" fill="white"/>
<path d="M189.511 111.076C173.665 108.912 157.364 106.369 141.972 101.623C139.925 103.673 138.106 105.875 136.4 108.191C153.194 113.316 171.315 115.593 188.602 117.529C202.097 119.048 218.323 121.515 232.008 118.251C230.985 116.277 229.885 114.378 228.672 112.518C216.276 115.138 201.529 112.708 189.511 111.076Z" fill="white"/>
<path d="M132.078 115.176C139.66 117.567 147.015 120.832 154.938 122.502C167.296 125.122 180.034 126.147 192.658 126.678C206.192 127.247 221.432 127.779 234.965 124.894C234.321 123.223 233.601 121.629 232.842 120.035C219.801 124.932 201.263 120.946 188.564 119.731C178.593 118.744 168.699 117.036 158.842 115.252C151.109 113.847 142.579 113.012 135.073 110.127C134.011 111.759 132.988 113.429 132.078 115.176Z" fill="white"/>
<path d="M168.092 87.2738C180.185 89.5136 192.355 91.6774 204.637 91.1079C193.302 85.4517 180.261 84.3887 168.092 87.2738Z" fill="white"/>
<path d="M207.86 92.8542C201.036 94.4486 193.681 93.1579 186.706 92.3227C179.314 91.4116 170.026 91.6394 162.633 88.8682C158.804 90.1969 155.089 91.9051 151.639 94.031C160.472 96.3467 169.798 97.3716 178.631 99.0419C192.734 101.737 205.926 102.876 219.915 101.813C216.389 98.4725 212.371 95.4735 207.86 92.8542Z" fill="white"/>
<path d="M140.646 220.253C154.369 233.047 174.765 235.628 192.355 231.262C218.058 224.847 232.046 205.107 237.771 181.798C240.804 167.79 241.486 153.061 238.984 139.319C231.705 141.597 224.085 142.888 216.39 143.571C221.432 174.396 209.035 209.548 172.035 206.967C137.082 204.537 133.177 163.615 143.754 137.421C137.689 135.561 131.699 133.207 125.823 130.36C122.639 140.686 121.084 151.619 120.478 161.527C119.189 183.203 124.382 205.107 140.646 220.253Z" fill="#E40000"/>
<path d="M234.7 152.606C241.107 173.978 227.08 210.953 205.358 218.773C204.751 219.001 204.562 218.166 204.979 217.824C215.783 209.548 223.024 199.261 227.724 186.544C231.819 175.459 231.705 163.956 234.055 152.606C234.131 152.264 234.624 152.302 234.7 152.606Z" fill="white"/>
<path d="M202.894 219.95C202.818 221.165 201.68 221.81 200.657 222.303C200.012 222.607 199.33 222.835 198.648 223.063C197.889 223.328 197.51 223.025 196.866 222.759C196.563 222.645 196.525 222.341 196.714 222.114C196.98 221.772 197.055 221.392 197.472 221.127C198.079 220.785 198.875 220.633 199.52 220.405C200.619 220.026 201.643 219.456 202.818 219.722C202.818 219.798 202.894 219.874 202.894 219.95Z" fill="white"/>
<path d="M155.165 222.645C151.564 222.797 147.697 219.95 144.967 217.9C141.859 215.584 139.053 213.041 138.409 209.093C138.333 208.675 138.788 208.371 139.129 208.675C141.707 210.953 144.019 213.496 146.673 215.698C149.365 217.938 153.118 219.456 155.392 222.152C155.506 222.341 155.43 222.607 155.165 222.645Z" fill="white"/>
<path d="M187.464 157.731C188.602 160.312 187.199 163.994 186.403 166.5C185.493 169.461 184.052 173.067 180.451 172.763C180.186 172.726 179.958 172.574 179.958 172.27C180.148 169.423 181.892 167.373 182.801 164.716C183.598 162.438 183.977 158.642 186.403 157.427C186.744 157.237 187.313 157.313 187.464 157.731Z" fill="white"/>
<path d="M299.677 25.7C298.616 17.2346 300.625 9.14875 308.965 6.07386C316.888 3.15081 325.57 5.27666 332.811 9.49041C335.768 7.59232 339.445 6.60532 343.88 7.06086C358.4 8.54137 367.195 30.5212 361.887 42.8587C361.357 44.1114 360.674 45.2503 359.84 46.2373C359.385 53.5639 356.125 60.6247 350.06 64.9524C342.819 70.1531 334.896 67.6097 329.171 62.0293C325.835 62.2191 322.461 61.6497 319.39 60.2451C315.979 62.1812 311.733 60.7386 308.435 57.9674C302.521 53.0324 298.54 44.2253 297.668 36.6709C297.137 32.4952 297.82 28.737 299.677 25.7ZM319.087 57.2461C319.656 56.6767 320.149 55.9934 320.566 55.2342C318.746 54.8925 316.964 54.0953 315.296 53.0704C316.206 54.7407 317.457 56.1453 319.087 57.2461ZM329.929 59.6377C333.417 59.2202 336.867 57.8535 339.407 55.5758C337.208 55.8795 335.009 55.8416 332.962 55.424C331.408 56.449 329.664 57.0563 327.769 57.0943C328.413 58.0054 329.133 58.8405 329.929 59.6377ZM358.665 35.5321C358.968 31.0906 357.035 26.687 354.685 23.0427C352.637 19.8919 350.06 17.5762 347.254 16.1717C349.453 19.0567 351.007 22.5112 351.879 26.0037C355.026 28.2055 357.604 32.9887 358.627 35.9876C358.627 35.8358 358.665 35.6839 358.665 35.5321ZM313.628 48.6668C314.462 49.3881 315.334 50.1094 316.244 50.7167C316.547 50.9066 316.813 51.0584 317.116 51.2482C314.803 48.4011 313.173 44.8707 312.377 41.1884C312.491 43.3142 312.908 45.478 313.325 47.4141C313.439 47.8317 313.552 48.2492 313.628 48.6668ZM350.969 42.2513C351.311 40.9226 351.424 39.5181 351.424 38.1135C350.325 41.0745 348.467 43.7698 346.003 45.6679C346.761 46.465 347.595 47.1483 348.467 47.6798C349.605 46.1614 350.439 44.3772 350.969 42.2513ZM330.081 14.9948C329.209 16.1717 328.489 17.4624 327.958 18.8669C327.996 18.8669 328.034 18.9049 328.072 18.9049C329.133 17.4624 330.384 16.2096 331.749 15.1467C331.218 15.0328 330.65 14.9948 330.081 14.9948ZM347.14 28.3953C348.278 33.1025 347.671 37.7718 344.449 40.7708C344.487 41.4541 344.487 42.0995 344.449 42.7828C344.563 43.0485 344.638 43.3142 344.714 43.6179C345.283 43.1624 345.889 42.6689 346.458 42.0235C347.823 40.543 348.733 38.9107 349.377 37.1644C349.756 34.1655 348.846 30.8628 347.14 28.3953ZM339.558 30.2934C339.634 29.3823 339.445 28.5471 339.141 27.75C339.066 28.3573 338.99 29.0027 338.838 29.6101C339.104 29.8378 339.331 30.1036 339.558 30.3313V30.2934ZM337.019 24.8269C335.654 23.6121 333.986 22.6631 332.469 22.0557C333.72 23.4603 334.706 25.0167 335.388 26.763C335.881 27.1426 336.374 27.5222 336.867 27.9018C337.019 26.8389 337.094 25.7759 337.019 24.8269ZM320.983 41.6819C320.983 41.568 321.021 41.4541 321.058 41.3402C320.111 40.8088 319.163 40.1254 318.291 39.3662C318.822 41.3402 319.694 43.1244 320.869 44.7568C320.831 43.7318 320.831 42.7068 320.983 41.6819ZM320.073 38.2274C319.807 37.62 319.542 37.0506 319.201 36.4811C318.708 35.608 318.139 35.0386 317.495 34.659C317.533 35.0386 317.533 35.4182 317.571 35.7599C318.367 36.7469 319.163 37.5441 320.073 38.2274ZM321.324 35.2664C321.779 35.9117 322.158 36.6709 322.537 37.4302C322.84 36.9746 323.144 36.5571 323.485 36.1774C321.21 32.7989 320.641 28.8129 321.248 24.8649C320.831 25.0926 320.452 25.3584 320.073 25.6621C318.291 27.1426 317.609 29.5721 317.457 32.1155C318.822 32.5711 320.187 33.596 321.324 35.2664ZM340.355 40.8467C340.355 40.6189 340.355 40.4291 340.355 40.2014C340.355 40.1634 340.317 40.0875 340.317 40.0495C340.203 39.8977 340.089 39.7838 339.975 39.6319C339.634 39.8597 339.255 40.0495 338.914 40.2393C338.952 40.543 339.028 40.8467 339.066 41.1884C339.521 41.1125 339.938 40.9986 340.355 40.8467ZM328.83 22.2455C328.716 22.4733 328.565 22.7011 328.451 22.9288C329.209 23.1946 329.967 23.5362 330.688 23.9158C330.157 23.2705 329.512 22.739 328.83 22.2455ZM323.523 30.1415C323.561 29.724 323.636 29.3064 323.712 28.8508C323.598 27.4083 323.712 25.9658 324.091 24.6371C323.94 24.5612 323.826 24.4853 323.674 24.4093C323.333 26.3833 323.257 28.3573 323.523 30.1415ZM328.906 37.1265C329.626 37.8857 330.422 38.3413 331.218 38.4931C332.204 37.7339 333.152 36.7469 334.024 35.4941C334.062 35.4182 334.099 35.3423 334.137 35.3043C333.455 35.0386 332.735 34.8488 332.052 34.7729C330.498 34.583 329.209 34.8108 328.11 35.3423C328.375 35.9117 328.603 36.5191 328.906 37.1265ZM326.631 27.6361C326.707 29.5721 327.01 31.5461 327.541 33.3683C329.209 32.7229 331.067 32.4572 332.924 32.647C331.294 30.3693 329.247 28.2814 326.935 26.5352C326.783 26.9148 326.707 27.2565 326.631 27.6361ZM328.792 25.0167C329.55 25.5861 330.233 26.1556 330.915 26.763C331.901 27.6361 332.811 28.5851 333.682 29.6101C333.455 28.8129 333.19 28.0157 332.848 27.2944C331.56 26.3833 330.195 25.5861 328.792 25.0167ZM336.45 41.2643C336.412 41.2643 336.336 41.3023 336.298 41.3023C336.336 41.3023 336.412 41.3023 336.45 41.3023V41.2643ZM337.284 34.0136C337.511 34.1275 337.739 34.2794 337.928 34.3932C338.232 33.9377 338.497 33.4822 338.724 32.9887C338.535 32.7229 338.307 32.4192 338.08 32.1155C337.853 32.7989 337.587 33.4062 337.284 34.0136ZM343.463 36.3672C343.653 36.8228 343.804 37.2783 343.918 37.7718C344.563 36.5191 344.866 35.0766 344.98 33.5201C344.6 34.5071 344.07 35.4941 343.463 36.3672ZM340.544 43.0865C340.506 43.1244 340.43 43.1244 340.393 43.1624C339.975 43.3142 339.558 43.3522 339.141 43.4281C339.141 43.8837 339.104 44.3012 339.066 44.7568C339.71 44.8327 340.317 44.8707 340.961 44.8327C340.772 44.3012 340.658 43.6938 340.544 43.0865ZM336.564 43.6938C336.222 43.6938 335.881 43.6559 335.54 43.6179C335.54 43.6559 335.502 43.7318 335.502 43.7698C335.843 43.9216 336.185 44.0735 336.526 44.1873C336.564 43.9975 336.564 43.8457 336.564 43.6938ZM325.342 38.4172C325.229 38.3413 325.153 38.2274 325.039 38.1514C324.66 38.7968 324.319 39.4801 324.053 40.2014C325.077 40.4291 326.1 40.4671 327.124 40.2773C326.48 39.7838 325.873 39.1764 325.342 38.4172ZM324.357 21.9039C324.546 21.9418 324.698 21.9418 324.887 21.9798C324.925 21.8279 324.963 21.6761 325.001 21.5242C324.812 21.5622 324.622 21.6381 324.432 21.6761C324.395 21.752 324.357 21.8279 324.357 21.9039ZM329.437 42.2893C327.655 42.9726 325.873 43.0485 324.129 42.593C324.508 44.567 324.66 46.6549 324.584 48.7048C325.57 49.502 326.631 50.2232 327.693 50.8686C329.512 49.464 330.991 47.452 332.09 45.1743C331.143 44.3012 330.233 43.3142 329.437 42.2893ZM335.275 16.0198C334.024 16.6652 332.848 17.5383 331.711 18.6392C334.782 18.2975 337.587 19.7021 338.687 23.0427C339.9 24.2954 340.923 25.8139 341.644 27.674C341.681 27.7879 341.681 27.9018 341.719 28.0157C342.061 27.3324 342.478 26.687 342.932 26.0796C342.97 26.0417 342.97 26.0417 343.008 26.0037C342.932 25.3963 342.857 24.7889 342.743 24.1816C342.478 22.8529 341.985 21.6381 341.34 20.4613C339.748 18.3355 337.625 16.8929 335.275 16.0198ZM347.785 27.5601C349.112 29.2684 349.946 31.3183 350.287 33.4062C350.401 32.4952 350.439 31.622 350.401 30.673C349.87 29.2684 349.074 28.0536 348.126 27.4463C348.012 27.4842 347.899 27.5222 347.785 27.5601ZM334.289 46.7687C333.303 48.7807 332.052 50.6408 330.422 52.1213C331.067 52.3871 331.749 52.5769 332.394 52.7667C334.099 51.3241 335.237 49.5399 335.919 47.5659C335.35 47.3761 334.782 47.0724 334.289 46.7687ZM321.817 51.4001C318.481 48.1733 315.713 43.1624 314.273 37.9616C314.993 43.3522 317.988 48.7048 321.703 52.0454C321.741 51.8176 321.779 51.5899 321.817 51.4001ZM325.949 18.2216C325.987 18.1457 326.025 18.0318 326.063 17.9559C326.025 18.0318 325.949 18.1077 325.911 18.2216C325.949 18.2216 325.949 18.2216 325.949 18.2216ZM332.811 12.6412C333.114 12.6792 333.417 12.7551 333.72 12.831C333.417 12.6412 333.076 12.4514 332.773 12.2616C332.621 12.3755 332.507 12.4894 332.394 12.6033C332.507 12.6412 332.659 12.6412 332.811 12.6412ZM352.599 30.1036C352.637 30.4452 352.637 30.7869 352.637 31.1285C353.13 32.647 353.471 34.0516 353.585 35.0766C354.116 39.1005 353.471 43.542 351.614 47.2243C354.419 46.0475 356.39 43.4281 357.528 40.5051C356.997 36.0636 355.481 31.5082 352.486 29.0027C352.486 29.3823 352.562 29.724 352.599 30.1036ZM338.307 48.2113C338.232 48.477 338.118 48.7427 338.042 49.0085C337.663 49.9196 337.208 50.7547 336.677 51.5899C338.118 50.7547 339.217 49.6159 340.013 48.2492C339.407 48.2872 338.838 48.2872 338.307 48.2113ZM315.865 21.6381C315.827 21.6381 315.751 21.6381 315.713 21.6381C315.562 21.9039 315.41 22.1696 315.258 22.4733C315.448 22.1696 315.675 21.9039 315.865 21.6381ZM318.177 19.4364C319.732 18.4494 321.589 17.9559 323.485 17.9559C323.94 17.0827 324.432 16.2476 325.001 15.4883C322.196 16.1717 319.58 17.4624 317.647 19.3225C317.798 19.3225 317.988 19.3604 318.177 19.4364ZM337.094 12.3375C337.398 12.2616 337.739 12.1857 338.042 12.1098C337.436 11.882 336.829 11.7681 336.222 11.6922C336.526 11.882 336.791 12.1098 337.094 12.3375ZM339.938 14.6912C342.061 16.7031 343.766 19.4364 344.79 22.3974C345.055 22.8909 345.321 23.3844 345.548 23.8779C346.913 23.3084 348.164 23.764 349.263 24.8269C347.899 20.8789 345.472 17.2346 342.364 14.6912C341.53 14.6152 340.734 14.6152 339.938 14.6912ZM357.566 45.4021C357.604 45.3262 357.679 45.2882 357.717 45.2503V45.2123C357.641 45.2882 357.604 45.3642 357.566 45.4021ZM345.359 49.7297C345.321 50.1094 345.245 50.5269 345.169 50.9066C345.548 50.6408 345.965 50.3751 346.306 50.0334C345.965 49.9575 345.662 49.8436 345.359 49.7297ZM342.857 50.3371C343.046 49.6918 343.122 49.0464 343.16 48.4011C343.046 48.3252 342.97 48.2113 342.895 48.1354C342.553 48.7048 342.174 49.2742 341.719 49.8057C340.468 51.2862 339.028 52.463 337.473 53.412C338.99 53.3361 340.468 53.1083 341.871 52.6148C342.25 51.8556 342.591 51.1343 342.857 50.3371ZM310.14 37.8857C310.406 36.0256 311.05 34.621 311.96 33.5581C312.074 32.609 312.225 31.698 312.453 30.7869C311.505 27.4083 312.036 24.1436 313.59 21.3724C311.695 21.2965 309.799 21.4483 307.942 22.0177C305.364 22.777 303.544 24.1056 302.293 25.738C302.938 32.5331 305.705 39.556 310.103 44.9466C309.837 42.4411 309.875 39.9736 310.14 37.8857ZM307.297 9.7941C303.127 12.5273 302.141 18.0318 302.141 22.7011C303.544 21.4483 305.212 20.3854 307.297 19.5882C309.951 18.5632 312.718 18.4114 315.448 18.829C318.367 15.5263 322.802 13.1727 327.617 12.6033C328.413 11.92 329.285 11.3505 330.195 10.895C328.413 10.0219 326.631 9.26264 324.925 8.69321C319.353 6.68125 312.377 6.45348 307.297 9.7941ZM338.156 9.75614C338.004 9.7941 337.89 9.83206 337.777 9.87002C338.649 10.0598 339.558 10.3256 340.43 10.7052C341.151 11.0089 341.833 11.3885 342.515 11.8061C351.538 12.7171 358.438 22.1696 360.598 30.2934C360.333 28.8129 359.954 27.3324 359.537 25.9278C356.77 16.6272 348.771 7.13679 338.156 9.75614ZM361.053 34.8488C360.978 37.0126 360.523 39.2523 359.727 41.3402C359.727 41.4921 359.764 41.6439 359.764 41.7958C359.992 41.2643 360.181 40.7328 360.333 40.2393C360.864 38.5311 361.091 36.6709 361.053 34.8488ZM345.131 64.9144C352.372 63.1682 356.011 55.4619 357.3 48.8566C357.3 48.7807 357.338 48.7048 357.338 48.5909C355.064 50.2232 352.296 50.9825 349.529 50.3751C348.126 52.0834 346.344 53.45 344.183 54.3231C343.956 54.437 343.729 54.4749 343.463 54.5509C343.425 54.6268 343.387 54.7027 343.349 54.7407C340.506 58.423 336.488 60.7007 332.128 61.6117C335.881 64.5348 340.43 66.0532 345.131 64.9144ZM327.086 59.7516C326.29 58.7646 325.532 57.7397 324.887 56.6767C324.622 56.6008 324.319 56.5249 324.053 56.411C323.712 56.2591 323.371 56.0693 323.03 55.9175C322.764 56.449 322.537 57.0184 322.234 57.4739C322.006 57.8535 321.741 58.1572 321.475 58.4989C322.082 58.7646 322.727 58.9924 323.447 59.1822C324.584 59.5238 325.797 59.7137 327.086 59.7516ZM304.189 48.439C306.16 52.1973 308.927 55.8416 312.643 58.0054C314.121 58.8785 315.448 58.9924 316.623 58.6887C313.931 56.6767 312.15 53.412 311.088 49.8057C310.254 49.0085 309.458 48.1733 308.738 47.3761C305.364 43.4661 302.028 36.7848 300.398 29.8378C299.033 35.7599 301.573 43.4661 304.189 48.439Z" fill="#231F20"/>
<path d="M7.65778 206.246C27.1055 185.594 68.0103 208.827 54.7797 235.97C49.5861 246.599 37.3791 255.596 24.9826 253.204C21.0779 252.445 17.7797 251.154 15.0502 249.37C12.1691 247.662 9.55326 245.46 7.3924 242.879C-2.35044 231.338 -2.69162 217.216 7.65778 206.246ZM14.7469 210.118C5.00409 217.71 5.98974 230.389 12.5102 238.589C20.5471 245.915 31.6547 248.383 41.208 241.322C41.4734 241.094 41.7387 240.905 42.0041 240.677C42.2316 240.487 42.497 240.259 42.7244 240.069C45.2265 237.754 47.2736 234.945 48.6763 231.946C54.666 215.546 30.3658 198.008 14.7469 210.118Z" fill="#231F20"/>
<path d="M20.2817 215.736C25.6649 211.712 32.0717 211.94 37.2274 216.078C43.2172 220.899 42.042 228.757 37.6823 233.616C37.6444 233.654 37.6444 233.73 37.6065 233.768C36.1659 235.818 34.2704 237.07 31.9959 237.981C26.3473 240.183 20.4712 236.729 17.1731 232.249C13.3063 226.973 15.3155 219.418 20.2817 215.736ZM31.9579 221.62C29.4559 219.684 26.4989 220.709 24.3759 222.683C21.9118 224.961 22.4804 227.542 24.6792 229.706C26.4231 231.414 28.963 231.072 31.0102 230.275C31.7305 230.01 32.2612 229.516 32.8678 229.061C34.46 226.897 34.6495 223.67 31.9579 221.62Z" fill="#E40000"/>
</g>
<defs>
<clipPath id="clip0">
<rect width="370" height="479" fill="white" transform="matrix(-1 0 0 1 370 0)"/>
</clipPath>
</defs>
</svg>
