<svg width="109" height="133" viewBox="0 0 109 133" fill="none" xmlns="http://www.w3.org/2000/svg">
<g clip-path="url(#clip0)">
<path d="M100.664 17.0927C97.9073 10.7395 93.8222 2.46871 86.6818 0.317633C79.9565 -1.71672 73.5633 6.82089 69.8934 11.1064C67.6848 13.6743 65.5925 16.4424 63.7825 19.3939C59.548 18.5268 55.1641 18.5935 50.8964 19.5773C49.2027 15.075 46.9443 10.7895 43.6065 7.40452C41.1821 4.93661 37.5122 2.70216 34.0084 2.40201C29.774 2.03516 26.4694 3.98614 23.1981 6.48739C16.6056 11.5066 11.7235 18.5434 7.75476 25.7304C3.61993 33.1841 0.680718 41.9218 -0.000116634 50.4594C-0.0167224 50.5762 0.182546 50.5928 0.199152 50.4928C2.77304 35.1017 9.6146 20.0775 21.1224 9.33882C24.2609 6.42069 28.0304 3.46921 32.4475 3.18574C36.5823 2.91894 40.7337 5.70367 43.5069 8.53842C46.5956 11.6733 48.4222 15.6753 50.0329 19.7774C43.2578 21.5283 36.7982 25.597 31.7334 31.9668C27.7148 37.0194 24.211 43.4726 21.5541 50.5928C20.2091 50.7429 18.8972 51.0431 17.9175 51.2432C15.3768 51.7768 11.9394 52.894 10.0796 55.0617C10.0463 55.0784 10.0297 55.0951 9.99653 55.0951C8.76771 55.5953 8.56844 53.9612 7.63852 53.7277C7.48907 53.6944 7.38943 53.7611 7.3064 53.8611C6.95768 54.328 7.20677 55.0451 7.38943 55.5453C7.67173 56.3124 8.35256 56.7959 9.11643 56.9794C9.18285 57.0794 9.3157 57.1461 9.43194 57.1128C9.51497 57.0961 9.59799 57.0627 9.68102 57.0294C10.2456 57.0127 10.7936 56.7959 11.3084 56.5625C11.5409 56.4458 11.7401 56.3124 11.9228 56.1623C12.2051 56.0289 12.504 55.8955 12.7863 55.7621C14.945 55.0617 17.0706 54.7116 19.6611 54.7949C19.8105 54.7949 19.96 54.8116 20.126 54.8283C18.1832 60.9647 16.8713 67.4346 16.3565 73.8211C15.0281 74.2547 13.7162 75.0217 12.6202 75.6054C11.1257 76.4058 9.00019 77.5897 8.00384 79.2238C7.871 79.0904 7.73815 78.957 7.62191 78.807C7.10713 78.0733 6.89126 76.9894 6.24364 76.3891C6.04437 76.2057 5.71225 76.2223 5.5628 76.4725C5.03142 77.3896 5.74546 78.8236 6.22703 79.624C6.49272 80.0743 6.99089 80.6079 7.53888 80.8913C7.62191 81.0247 7.75476 81.1081 7.95403 81.0748C7.98724 81.0748 8.00384 81.0581 8.03706 81.0581C8.33596 81.1081 8.65147 81.0581 8.95037 80.8247C9.00019 80.7913 9.0334 80.7579 9.06661 80.7246C9.74745 80.4245 10.4117 80.0243 11.0427 79.574C12.7033 78.8403 14.4137 78.2067 16.1573 77.6564C15.9746 84.4431 16.7883 91.0298 18.8142 96.8327C17.5687 97.7331 16.4396 98.8003 15.4598 99.9342C14.231 100.835 13.0686 102.035 12.4542 103.453C12.2051 103.303 11.9892 103.303 11.7069 103.269C11.4578 103.236 11.2586 103.119 11.0427 103.002C10.5943 102.752 10.0297 102.519 9.53157 102.419C9.18285 102.335 8.7345 102.669 8.90055 103.052C9.18285 103.736 9.6146 104.353 10.1958 104.803C10.8434 105.287 12.0889 105.737 12.7033 104.97C12.7033 104.953 12.7199 104.953 12.7199 104.937C13.3509 104.67 13.9653 104.253 14.5465 103.719C16.3897 102.486 18.1499 101.118 19.96 99.8675C19.9932 99.8509 20.0098 99.8342 20.043 99.8175C20.8069 101.502 21.6538 103.119 22.6667 104.62C25.7222 109.222 30.1559 112.824 35.3369 115.425C34.0748 117.143 33.3276 119.311 32.9955 121.495C32.9789 121.628 32.9623 121.779 32.9456 121.945C32.4641 124.38 32.4807 127.381 33.6929 129.449C33.8424 129.833 34.0084 130.183 34.1911 130.5C33.7427 130.583 33.2944 130.683 32.8294 130.75C32.1984 130.85 31.1356 131.25 30.7371 131.767C30.5876 131.967 30.5876 132.234 30.8201 132.367C32.0489 133.118 34.3737 132.634 35.6358 132.184C36.1173 132.017 36.3 131.65 36.3 131.267C36.8148 130.116 36.4495 130.016 36.2336 128.298C35.8517 125.297 35.6524 123.012 37.0473 120.244C37.5953 119.144 38.2927 118.093 39.0233 117.043C47.4591 120.311 57.3561 121.162 66.4892 119.477C67.4856 119.294 68.4487 119.077 69.3786 118.827C70.1923 122.145 70.7735 125.464 70.3251 128.849C70.1093 129.716 69.8768 130.6 69.6775 131.533C69.6277 131.784 69.7772 131.967 69.993 132.034C70.3584 132.734 71.2385 133.001 72.0854 133.017C72.9655 133.051 73.6795 132.651 74.4101 132.3C74.8917 132.067 74.7755 131.417 74.4101 131.15C73.6961 130.633 72.9488 130.5 72.2016 130.45C72.1684 130.45 72.1186 130.45 72.0854 130.433C72.0854 130.433 72.0687 130.433 72.0023 130.416C71.9857 130.416 71.9691 130.399 71.9525 130.399C71.9193 130.383 71.8861 130.349 71.8529 130.316C71.7532 130.233 71.7864 130.266 71.9359 130.383C71.8861 130.333 71.8363 130.299 71.7864 130.266C73.9286 127.081 74.2109 122.962 73.7791 119.177C73.7127 118.577 73.6131 117.977 73.4968 117.393C81.368 114.141 86.9475 108.288 90.5509 101.668C91.1155 101.785 91.6801 101.919 92.2447 102.102C94.885 102.919 96.5456 105.154 98.6213 106.754C98.7542 107.188 99.0863 107.521 99.601 107.471C100.382 107.388 101.046 107.088 101.727 106.688C102.308 106.337 102.673 105.787 103.072 105.254C103.238 105.02 103.072 104.637 102.806 104.587C102.241 104.47 101.66 104.503 101.112 104.687C100.697 104.837 100.332 105.02 99.9498 105.17C99.8335 104.703 99.6176 104.236 99.3187 103.803C98.0899 101.418 95.3002 99.4673 92.2281 98.2501C93.0584 96.3158 93.7724 94.3481 94.3038 92.3804C95.516 87.9616 96.3629 83.3259 96.5954 78.3234C99.2191 78.3734 101.328 79.8408 103.752 80.2077C103.752 80.2077 103.752 80.2243 103.769 80.2243C104.765 81.1081 105.845 80.0242 106.459 79.2238C106.841 78.7403 107.057 78.29 107.289 77.7064C107.439 77.3229 107.655 76.7893 107.539 76.3724C107.472 76.139 107.256 76.0389 107.04 76.0889C106.758 76.139 106.443 76.4224 106.243 76.6059C105.911 76.9394 105.546 77.2062 105.264 77.573C105.015 77.8898 104.749 78.1733 104.45 78.4401C104.383 78.4901 104.317 78.5402 104.251 78.5902C103.271 76.6392 100.448 75.6387 97.4589 75.4553C97.1932 75.4053 96.9275 75.3552 96.6784 75.3219C96.6452 68.7519 95.5326 61.515 92.8425 53.2775C93.8222 53.0607 94.8186 52.8773 95.7817 52.8773C99.4848 52.894 102.275 54.328 105.513 55.7454C105.562 55.7954 105.612 55.8288 105.662 55.8788C106.044 56.279 106.592 56.1123 106.891 55.7287C107.472 54.9283 108.004 54.0946 108.518 53.2608C108.767 52.8606 108.286 52.4938 107.921 52.6605C107.206 52.9774 106.725 53.561 106.243 54.1446C105.629 53.4609 104.898 52.8606 104.101 52.3437C101.959 50.6762 98.7542 49.8258 96.4626 49.509C95.1839 49.3255 93.2743 49.1254 91.431 49.2588C89.9863 45.4236 88.2261 41.3882 86.0674 37.1194C81.2019 27.4812 73.447 21.6783 64.9781 19.6106C66.373 17.3428 67.9007 15.1584 69.6277 13.024C73.9286 7.68799 81.069 -1.91682 88.8073 2.11854C94.885 5.28679 98.2726 13.2908 100.863 19.2605C104.267 27.1144 106.941 35.3352 109.033 43.6393C109.05 43.7227 109.183 43.6894 109.166 43.606C107.256 34.4347 104.367 25.647 100.664 17.0927Z" fill="#231F20"/>
<path d="M25.8717 36.7684C27.4492 34.1004 29.4087 31.6992 31.3682 29.3147C31.4346 29.2313 31.335 29.1313 31.252 29.198C27.1669 32.9832 23.1484 38.6527 22.1852 44.2388C22.1686 44.3055 22.2683 44.3556 22.3015 44.2889C23.4805 41.7709 24.4436 39.1863 25.8717 36.7684Z" fill="#231F20"/>
<path d="M33.1782 27.6139C33.2114 27.5472 33.1118 27.4971 33.062 27.5305C32.6967 27.7139 32.4808 28.1141 32.2649 28.4476C32.2317 28.5143 32.3147 28.5977 32.3812 28.5643C32.7133 28.3142 33.0122 27.9974 33.1782 27.6139Z" fill="#231F20"/>
<path d="M90.6673 105.169C89.1395 107.487 87.6948 109.622 85.6689 111.556C83.477 113.657 80.9197 115.325 78.5285 117.175C78.4621 117.225 78.5119 117.342 78.5949 117.292C83.1283 114.941 89.3056 110.372 90.7337 105.186C90.7669 105.153 90.7005 105.136 90.6673 105.169Z" fill="#231F20"/>
<path d="M77.7978 117.442C77.4325 117.492 77.1502 117.876 76.8679 118.093C76.8181 118.143 76.8679 118.226 76.9343 118.209C77.283 118.093 77.7812 117.909 77.8642 117.509C77.8809 117.476 77.831 117.442 77.7978 117.442Z" fill="#231F20"/>
<path d="M45.3834 55.8446C41.6803 56.7784 37.2134 56.0781 33.6598 55.1776C33.5934 55.161 33.5435 55.261 33.61 55.311C39.6544 58.3959 48.2396 58.2959 52.0423 51.926C52.6567 50.9088 53.0885 49.7749 53.3874 48.5743C54.7158 45.2227 55.3469 41.0873 54.8819 37.5355C55.0147 35.5178 54.8321 33.5668 54.2177 31.8326C51.3781 23.8786 40.1526 29.5982 36.9975 34.2005C36.9643 34.2505 37.0307 34.3005 37.0806 34.2672C39.2393 32.4996 41.4811 30.7154 44.0218 29.7149C42.9922 30.3652 41.8962 31.2156 40.7172 32.2995C36.7983 35.918 33.9421 41.6542 33.145 45.156C31.6505 51.8426 38.9902 56.8618 45.3834 55.8446Z" fill="white"/>
<path d="M58.4688 42.638C58.4688 42.6547 58.4688 42.6714 58.4688 42.6714C58.3857 45.823 59.6145 49.3581 61.1921 52.0261C64.2641 57.2287 72.2515 59.78 77.6151 56.6451C77.6649 56.6117 77.6483 56.5283 77.5819 56.545C74.0283 56.8618 70.5577 56.8452 67.5853 55.5945C71.7201 56.7618 76.4029 55.9447 78.7277 52.2095C82.6467 45.9064 78.4288 35.0342 73.0486 30.4986C70.8068 28.6143 68.5982 27.864 66.6055 27.9474C68.4322 27.297 70.3916 27.197 72.2681 27.964C72.3843 28.014 72.4175 27.8473 72.3345 27.7806C70.0429 26.0464 66.6222 26.8801 64.2143 27.9807C61.6737 29.148 60.0297 31.199 59.05 33.7836C58.3027 35.7346 58.0868 37.7356 58.3027 39.6532C58.3027 40.6704 58.3691 41.6542 58.4688 42.638Z" fill="white"/>
<path d="M53.5534 63.832C55.7122 65.1327 59.1662 64.5657 61.0758 63.065C63.8988 60.8639 62.3379 56.6117 59.3821 58.2959C58.0868 59.0296 56.2436 59.5966 54.2011 58.5627C51.4943 57.1787 49.5183 61.6142 53.5534 63.832Z" fill="white"/>
<path d="M52.9557 75.121C53.1881 75.071 53.1383 74.7041 52.9058 74.7041C47.8909 74.8042 43.042 74.8542 38.0603 74.0371C33.7428 73.3368 29.774 71.6526 25.5728 70.5187C25.5396 70.502 25.523 70.552 25.5562 70.5854C33.1616 75.3544 44.2376 76.9386 52.9557 75.121Z" fill="white"/>
<path d="M56.227 74.354C56.1606 74.354 56.144 74.454 56.2104 74.4707C64.4468 76.8052 76.7849 72.5697 83.8921 68.3843C84.0416 68.3009 83.9419 68.0841 83.7759 68.1175C79.7075 69.168 75.8217 70.8855 71.7866 72.0861C66.6056 73.6369 61.5242 73.8037 56.227 74.354Z" fill="white"/>
<path d="M87.0306 80.8905C78.5119 86.46 68.6149 88.5944 58.6016 89.2948C53.3542 89.6616 48.0071 89.695 42.8428 88.7278C38.1433 87.844 33.6764 85.9764 28.8939 85.6263C28.7943 85.6263 28.7777 85.7763 28.8773 85.793C46.7285 91.746 71.7201 94.6475 87.2963 81.2407C87.4624 81.074 87.2299 80.7571 87.0306 80.8905Z" fill="white"/>
<path d="M79.1595 97.0653C64.2475 100.417 50.9463 102.268 35.8185 99.1497C35.6691 99.1163 35.5694 99.3331 35.7189 99.3998C42.1287 102.318 49.9002 102.385 56.7916 102.118C64.3306 101.818 72.4342 100.617 79.3089 97.3821C79.4916 97.2988 79.3421 97.032 79.1595 97.0653Z" fill="white"/>
<path d="M65.6756 107.821C60.5943 108.288 56.0277 110.122 50.8965 108.671C50.7637 108.638 50.6807 108.821 50.7969 108.888C54.9815 111.406 61.491 109.888 65.7254 108.204C65.9081 108.121 65.9081 107.804 65.6756 107.821Z" fill="white"/>
<path d="M70.2754 106.837C70.0928 106.854 69.8935 106.787 69.7108 106.837C69.4784 106.904 69.2625 107.02 69.0466 107.087C68.7809 107.17 68.5152 107.187 68.2329 107.204C67.9506 107.204 67.7348 107.287 67.4691 107.304C67.303 107.32 67.2034 107.554 67.3694 107.654C67.6185 107.804 67.7181 107.954 68.0337 107.971C68.3824 107.987 68.7145 107.971 69.0632 107.904C69.3289 107.854 69.5946 107.771 69.8603 107.654C70.1592 107.521 70.2422 107.32 70.3917 107.037C70.4415 106.97 70.3751 106.837 70.2754 106.837Z" fill="white"/>
<path d="M26.3201 84.7258C26.1042 84.6258 25.8385 84.4424 25.6226 84.409C25.3569 84.359 25.0912 84.3757 24.8422 84.3257C24.7425 84.309 24.6761 84.4424 24.7757 84.4924C24.892 84.5591 25.0082 84.7092 25.1244 84.7759C25.3735 84.9259 25.606 85.0593 25.8551 85.1927C26.3699 85.4595 26.7684 85.743 27.333 85.8431C27.4493 85.8597 27.5655 85.743 27.4991 85.6263C27.167 85.1427 26.8182 84.976 26.3201 84.7258Z" fill="white"/>
</g>
<defs>
<clipPath id="clip0">
<rect width="109" height="133" fill="white"/>
</clipPath>
</defs>
</svg>
