<svg width="264" height="245" viewBox="0 0 264 245" fill="none" xmlns="http://www.w3.org/2000/svg">
<path d="M116.914 166.495C120.719 170.173 125.392 173.08 129.728 176.084C136.394 180.685 142.414 186.996 150.758 187.912C155.289 188.416 159.232 188.342 163.74 189.637C166.389 190.423 169.435 190.912 172.098 189.85C180.351 186.636 184.4 178.842 190.565 173.233C192.313 171.658 199.538 167.46 200.743 165.339C200.775 165.294 200.707 165.219 200.664 165.242C197.544 167.273 193.834 167.835 190.386 169.149C190.365 169.16 190.365 169.16 190.343 169.172C189.797 169.297 189.229 169.433 188.563 169.594C177.727 172.351 168.364 169.164 157.726 164.793C153.625 163.112 149.893 162.488 145.483 162.366C139.918 162.22 138.165 161.597 133.912 156.821C132.257 154.975 131.081 154.183 128.873 153.023C128.861 153.001 128.861 153.001 128.828 152.991C127.924 152.499 126.933 151.998 126.348 151.113C125.821 150.336 126.097 149.185 126.981 148.963C128.869 148.483 131.371 149.569 132.968 150.471C140.25 155.132 147.877 157.519 155.788 161.064C162.776 164.183 172.182 164.169 179.671 165.153C183.753 165.701 188.244 163.997 192.471 164.244C195.63 164.422 198.43 163.148 200.977 161.452C203.847 159.527 206.882 156.4 208.683 153.57C209.8 151.803 209.645 149.378 211.176 147.918C215.47 143.811 218.7 137.403 218.869 135.947C218.887 135.825 218.733 135.797 218.669 135.886C217.699 137.353 216.017 138.531 214.109 139.495C205.718 142.449 196.505 141.523 187.685 142.114C179.074 142.678 170.438 142.726 161.865 141.903C154.824 141.237 146.806 139.784 141.386 134.908C137.081 131.023 140.676 127.485 146.231 127.301C150.887 127.153 156.346 128.664 161.176 130.039C171.1 132.869 180.922 135.56 191.245 136.477C199.342 137.192 209.418 136.764 216.554 132.503C219.387 130.821 220.383 127.474 221.136 124.508C222.266 120.058 223.892 116.43 225.651 112.48C226.666 110.21 226.057 106.467 225.417 105.166C225.255 104.862 224.697 104.965 224.718 105.316C224.929 108.213 219.918 111.812 217.42 112.869C206.698 117.403 194.207 116.753 182.672 116.121C177.246 115.818 169.562 115.719 165.27 111.911C160.46 107.656 171.505 106.069 172.788 105.969C176.078 105.714 179.449 106.03 182.743 106.303C192.623 107.123 203.764 109.832 213.328 105.945C218.371 103.917 221.595 100.883 222.954 95.559C224.811 88.3523 220.014 80.579 221.344 73.7934C221.556 72.7323 222.909 70.7828 223.347 69.9355C223.399 69.8242 223.318 69.6725 223.198 69.7087C218.382 71.5874 212.179 66.2375 210.444 65.4932C206.951 63.9612 203.635 65.2604 200.451 66.9629C196.261 69.2312 192.808 73.1395 189.504 76.494C187.484 78.5496 185.472 80.5169 183.032 82.1002C182.104 82.708 181.159 83.1294 180.223 83.4626C176.305 83.635 178.459 78.8607 180.458 76.8167C181.943 75.2704 183.776 74.0114 185.477 72.712C188.296 70.5359 190.63 68.2849 192.907 65.5629C195.928 61.9412 199.302 60.7503 203.222 59.4346C206.184 58.4637 208.042 58.0835 204.183 56.0228C200.546 54.0659 196.049 51.1761 191.986 52.4847C186.148 54.3801 180.517 58.2266 175.548 61.7473C166.105 68.4125 160.632 78.8063 155.167 88.6393C154.108 90.5148 153.027 92.3469 151.834 94.1272C149.247 97.9349 143.13 100.508 141.761 95.8628C141.748 95.7862 141.734 95.7096 141.743 95.6215C141.527 91.7799 144.781 87.8111 147.056 85.0341C152.191 78.7498 157.278 72.3238 161.951 65.6453C167.066 60.6256 172.592 56.1664 179.149 52.8554C180.754 52.0533 185.169 50.7791 186.603 50.1795C186.788 50.1086 186.693 49.8253 186.528 49.8298C183.275 49.8412 180.662 49.5385 177.516 48.6016C174.922 47.8146 172.366 46.7848 169.674 46.3853C169.155 46.3004 168.649 46.2922 168.154 46.2507C161.424 44.9165 154.907 44.9176 147.898 49.3622C141.158 53.6345 136.777 60.547 134.578 68.1037C131.208 74.6149 128.621 81.2368 126.754 85.6626C125.878 87.775 125.158 89.9711 124.382 92.1137C123.679 94.1335 122.765 96.071 121.629 97.9047C117.102 100.325 115.084 99.6764 115.564 95.9369C115.308 89.0514 121.409 83.5323 123.828 77.5855C126.154 71.8831 126.419 65.918 127.516 59.8971C128.42 54.816 129.849 50.0394 131.686 45.2956C132.353 43.5736 134.28 40.927 135.236 40.5273C135.378 40.4795 135.307 40.2946 135.185 40.2759C131.681 39.9204 127.762 41.291 124.265 42.4083C119.982 43.3051 116.103 43.7073 112.144 46.4091C107.819 49.3627 103.964 57.0523 102.05 61.7542C97.5997 72.5489 97.0852 82.9948 98.4099 94.3802C99.0115 99.4644 99.861 105.169 98.9902 110.26C97.2034 110.825 96.1149 110.404 95.7028 109.008C94.9829 107.609 94.6831 105.903 94.3662 104.372C93.612 100.93 93.4371 97.3734 93.2637 93.8714C92.5994 81.3249 93.2649 67.9838 99.531 56.8869C101.669 53.1243 102.329 52.3259 96.9764 52.3174C84.9543 52.3362 72.8851 59.8202 71.1174 72.2459C70.0286 79.7945 70.6968 87.2953 72.6248 94.6519C73.5583 98.2211 75.5044 101.444 77.1441 104.719C78.3537 107.138 80.2902 112.01 79.0037 115.178C74.0374 112.817 69.1352 104.013 67.2093 99.5258C63.9011 91.9319 62.6384 82.7983 61.4378 74.7184C60.5228 68.6313 59.6418 68.9631 55.3063 71.9499C52.0059 74.2161 48.4341 78.996 47.4206 80.9033C45.4672 84.5949 41.7765 89.0482 41.7994 93.4666C41.8328 99.4677 45.8406 103.734 49.3286 108.278C51.061 110.528 52.6418 112.86 54.3959 115.099C55.089 115.926 55.7721 116.787 56.4336 117.66C55.9212 117.014 62.5688 125.748 56.0005 122.684C50.2448 119.993 45.2174 115.018 43.1524 109.072C41.3846 103.943 40.3787 103.728 38.2878 108.413C34.9881 115.89 31.8939 123.647 30.7769 131.768C29.7359 139.458 28.2068 146.183 34.8371 151.499C40.5909 156.113 49.4199 157.468 56.3839 155.75C59.4073 154.998 62.1783 153.46 64.8742 151.991C66.8669 150.926 68.8395 149.927 70.9612 149.155C74.0067 147.61 75.0697 150.692 72.742 151.964C66.9562 155.364 60.0617 157.211 55.8653 162.855C51.1596 169.16 49.5091 177.065 49.1286 184.792C48.2511 202.008 64.3724 211.167 79.5569 213.052C80.4501 213.16 80.7855 212.172 80.5361 211.497C78.5518 206.484 75.0139 202.524 72.2397 197.96C69.3164 193.17 70.583 183.297 75.7265 179.321C76.1154 179.475 76.4841 179.696 76.8327 179.983C78.3515 181.261 78.3057 183.989 78.3657 185.768C78.3673 185.823 78.3789 185.844 78.402 185.888C78.6688 194.773 78.045 206.838 84.8779 213.523C90.7848 219.31 101.801 217.098 111.134 215.591C116.498 215.621 122.344 214 127.233 213.56C127.419 213.544 127.51 213.244 127.279 213.229C122.947 212.786 119.864 211.342 118.607 210.397C114.78 207.511 111.535 204.62 108.358 200.606C102.859 193.655 95.3779 188.57 94.8084 179.066C94.8285 179 94.8154 178.923 94.824 178.835C94.7731 177.385 94.8758 175.129 95.9885 174.033C96.941 173.105 99.7081 176.614 100.461 177.605C104.57 183.572 108.255 189.683 111.76 196.029C113.924 199.972 116.77 204.775 121.161 206.579C126.274 208.694 131.974 208.154 137.245 206.813C139.45 206.248 140.923 205.097 142.565 203.635C144.387 201.991 145.774 200.469 147.275 199.11C147.599 198.881 147.922 198.652 148.212 198.414C150.97 196.382 153.571 194.684 156.97 194.01C158.905 193.616 160.417 193.476 161.919 192.116C162.069 191.98 161.886 191.743 161.713 191.836C159.584 192.751 157.582 192.289 155.381 192.547C154.099 192.702 149.409 193.204 147.477 192.871C143.591 192.218 139.834 191.078 135.949 190.063C128.035 188.024 120.382 187.88 117.887 178.681C117.47 177.121 115.335 172.606 114.165 168.438C113.194 164.694 114.531 164.174 116.914 166.495Z" fill="#E40000"/>
<path d="M158.669 175.88C150.514 174.277 143.508 172.477 136.331 168.066C128.439 163.202 120.768 158.024 114.223 151.409C111.363 148.507 108.696 145.447 105.911 142.478C103.895 140.323 101.924 137.782 98.9781 136.961C98.6789 136.87 98.3812 136.834 98.0719 136.776C101.57 134.516 105.034 132.19 108.515 130.106C109.767 129.687 111.079 129.432 112.507 129.393C117.229 129.265 121.731 133.935 125.201 136.622C128.996 139.553 133.123 141.749 137.359 143.943C145.397 148.088 153.288 151.699 162.178 153.689C170.793 155.632 179.608 154.876 188.356 154.517C188.598 154.5 188.6 154.192 188.379 154.143C183.902 153.583 179.329 153.938 174.845 153.939C169.813 153.955 164.955 153.152 160.085 151.911C150.213 149.387 141.256 144.562 132.448 139.602C128.251 137.221 124.677 133.976 120.797 131.146C118.363 129.355 115.616 127.759 112.559 127.721C112.603 127.698 112.668 127.663 112.711 127.64C114.107 126.865 115.492 126.069 116.888 125.295C118.133 124.601 119.4 123.896 120.586 123.095C124.805 120.672 128.991 118.238 133.234 115.859C136.867 114.892 140.628 115.779 144.143 116.936C150.775 119.131 156.833 122.022 163.722 123.55C170.931 125.157 178.309 126.089 185.691 125.987C193.271 125.891 200.974 124.253 208.41 122.896C208.508 122.872 208.503 122.707 208.382 122.688C200.348 122.665 192.465 124.956 184.377 124.934C175.782 124.904 167.195 123.17 158.927 121.042C152.53 119.391 146.837 115.775 140.367 114.302C139.128 114.017 137.927 113.906 136.763 113.916C138.527 112.945 140.27 111.985 142.046 111.035C150.419 106.587 159.107 102.833 167.852 99.1329C173.697 99.0731 179.567 99.5292 185.344 100.23C190.836 100.916 196.511 101.476 201.86 99.759C201.936 99.746 201.9 99.626 201.824 99.6391C195.935 100.503 190.021 99.6519 184.162 98.7998C179.936 98.189 175.617 97.7677 171.316 97.6427C183.462 92.542 195.563 87.4095 206.862 80.6719C207.262 80.4302 206.939 79.8783 206.526 80.0434C189.364 87.38 171.919 94.3945 154.938 102.276C156.323 100.699 157.482 98.9089 158.497 97.0566C160.79 92.905 162.685 88.6874 165.356 84.7234C168.702 79.7298 172.986 75.6561 177.04 71.2588C177.126 71.1576 177.023 71.0175 176.915 71.0754C169.266 76.2518 163.398 84.6557 159.359 92.834C157.224 97.1241 155.061 101.151 151.151 104.05C147.744 105.648 144.339 107.302 140.991 109.008C135.994 111.541 131.035 114.248 126.133 117.008C128.766 112.451 129.7 107.27 130.942 102.092C132.778 94.5344 135.049 87.2176 138.906 80.4183C142.616 73.8648 145.885 67.6861 152.147 63.1959C152.265 63.1048 152.214 62.8533 152.051 62.9127C147.098 64.6412 143.864 70.1044 141.289 74.3516C137.684 80.3196 134.522 86.4404 132.298 93.0634C129.829 100.375 129.185 108.494 125.727 115.414C125.185 116.484 124.551 117.436 123.86 118.279C119.088 120.97 114.317 123.716 109.578 126.417C108.875 126.82 108.16 127.203 107.457 127.606C107.531 127.484 107.627 127.404 107.679 127.293C110.526 122.51 109.541 116.293 108.925 111.078C107.97 103.145 106.592 95.4106 106.975 87.3756C107.329 80.2757 108.795 73.6403 111.284 67.0431C111.356 66.8653 111.09 66.7846 110.994 66.919C107.92 71.0149 107.081 76.8418 106.382 81.7855C105.481 88.1747 105.558 94.5703 106.306 100.97C107.176 108.223 109.381 116.045 107.9 123.329C107.378 125.949 106.154 127.774 104.611 129.212C100.724 131.318 96.685 133.505 92.895 135.95C93.2017 135.117 93.4072 134.199 93.4883 133.152C93.9727 127.599 90.7627 121.179 88.67 116.223C85.9527 109.734 84.1517 103.396 82.47 96.6045C81.1717 91.3633 80.0573 86.4139 81.6922 81.137C81.7224 81.0373 81.5763 80.9203 81.4912 81.0216C79.1464 83.6685 79.8266 88.0141 80.2886 91.2224C81.0394 96.5334 82.3931 102.191 83.9296 107.305C86.0798 114.347 89.459 120.928 91.4692 128.074C92.3951 131.368 92.5176 134.619 90.8564 137.346C89.0445 138.594 87.279 139.928 85.658 141.324C85.313 141.564 84.9578 141.838 84.6143 142.133C84.5277 142.179 84.4294 142.204 84.3428 142.25C84.2611 140.482 83.3211 138.672 82.6299 137.119C80.9302 133.263 78.3727 129.782 75.808 126.444C70.909 120.146 63.6249 115.43 59.8492 108.42C59.8145 108.355 59.7162 108.38 59.6961 108.447C59.5779 113.331 66.1855 117.823 69.1314 121.041C74.3215 126.737 81.9997 134.586 82.819 142.786C82.5027 142.872 82.1647 142.969 81.8483 143.054C81.7501 143.079 81.6519 143.104 81.5753 143.117C80.1669 142.253 78.4103 141.521 77.2577 140.772C74.6272 139.029 71.4501 138.192 68.4262 137.329C60.5296 135.114 53.4908 131.326 45.9977 128.199C45.9196 128.157 45.8244 128.291 45.9141 128.355C51.7822 133.131 59.7488 135.894 66.8264 138.296C70.8089 139.65 74.5542 140.768 78.0698 143.124C78.2376 143.229 78.4285 143.378 78.6527 143.537C76.273 143.722 73.8425 143.656 71.5334 143.609C65.882 143.51 59.939 144.793 54.3073 145.407C54.2308 145.42 54.2237 145.563 54.3118 145.572C60.6106 146.83 67.493 144.543 73.9091 144.875C75.857 144.976 78.2774 145.075 80.6888 144.845C81.0676 145.032 81.4449 145.165 81.8091 145.221C79.423 148.364 77.6057 152.205 76.5973 154.695C74.9074 158.775 73.8507 163.102 72.7925 167.374C71.8723 171.071 70.5521 175.009 70.1175 178.78C70.1206 178.89 70.242 178.909 70.317 178.841C73.9659 173.267 74.5787 165.193 76.5707 158.917C78.0777 154.182 80.3273 149.273 83.6951 145.466C83.7832 145.475 83.8382 145.474 83.9248 145.427C84.023 145.403 84.1213 145.378 84.2411 145.342C82.3684 149.965 83.5736 157.012 83.8936 161.049C84.4116 167.487 84.2823 173.965 84.9767 180.421C85.6141 186.406 86.1367 194.207 89.8146 199.263C89.9174 199.403 90.1224 199.266 90.0962 199.112C89.2311 193.64 87.339 188.382 86.6572 182.783C85.907 176.691 85.8458 170.482 85.6663 164.364C85.4777 157.917 83.5991 150.756 86.589 145.201C89.1082 145.693 90.6966 148.299 92.1157 150.745C94.1473 154.284 96.114 157.859 98.1673 161.386C103.764 171.073 110.029 181.488 119.119 188.332C119.266 188.449 119.424 188.224 119.321 188.084C114.881 182.071 109.501 177.062 105.402 170.698C101.821 165.145 98.669 159.251 95.5739 153.41C94.1256 150.701 91.3684 144.763 87.8135 143.376C87.9838 143.173 88.1324 142.982 88.3359 142.79C90.6969 141.528 93.0432 140.134 95.3548 138.675C98.2815 138.002 100.571 138.951 103.193 141.562C108.706 147.029 113.533 153.087 119.602 157.979C130.372 166.766 143.992 176.092 158.633 176.178C158.776 176.185 158.857 175.919 158.669 175.88Z" fill="white"/>
<path d="M196.166 172.718C191.281 176.5 187.656 181.754 183.191 186.008C180.407 188.667 177.559 190.635 173.782 191.54C170.987 192.199 168.088 192.3 165.283 192.991C165.087 193.041 165.106 193.337 165.304 193.343C171.069 193.186 176.207 193.002 180.987 189.388C186.854 184.941 191.475 178.374 196.257 172.836C196.354 172.756 196.252 172.671 196.166 172.718Z" fill="#E40000"/>
<path d="M180.404 43.7408C175.66 43.1001 171.662 41.5599 167.271 39.7554C163.559 38.2294 159.576 36.8755 155.515 37.4585C147.644 38.5737 139.104 43.6975 136.116 51.3415C136.076 51.4745 136.255 51.6016 136.362 51.4888C142.195 44.6358 149.264 38.3209 158.866 38.6207C166.345 38.8572 172.761 45.1796 180.453 43.9373C180.563 43.9343 180.525 43.7595 180.404 43.7408Z" fill="#E40000"/>
<path d="M33.3715 105.886C30.248 110.983 27.8348 116.732 25.7581 122.329C23.8859 127.37 22.1794 133.243 22.7251 138.691C23.8282 149.61 31.669 155.784 41.6555 158.469C41.855 158.53 42.0006 158.229 41.8112 158.135C37.4966 155.9 33.307 154.211 29.7712 150.724C25.8853 146.894 24.1563 141.576 24.0529 136.226C23.8314 125.393 30.1615 115.822 33.5045 105.926C33.5246 105.86 33.3916 105.819 33.3715 105.886Z" fill="#E40000"/>
<path d="M84.7393 218.473C92.2799 226.117 108.143 221.926 116.963 219.356C117.105 219.308 117.099 219.089 116.934 219.093C111.874 219.319 106.939 220.508 101.922 221.073C95.6109 221.772 90.6501 220.412 84.8229 218.317C84.7463 218.33 84.6829 218.419 84.7393 218.473Z" fill="#E40000"/>
<path d="M82.0302 216.271C82.3738 217.174 83.139 217.824 84.0281 218.184C84.2391 218.267 84.4512 217.986 84.3368 217.824C83.82 217.014 83.016 216.552 82.1586 216.147C82.0806 216.105 81.9839 216.184 82.0302 216.271Z" fill="#E40000"/>
</svg>
