<svg width="162" height="102" viewBox="0 0 162 102" fill="none" xmlns="http://www.w3.org/2000/svg">
<g clip-path="url(#clip0)">
<path d="M161.368 48.2583C156.062 44.7951 150.25 42.3684 144.387 40.068C144.918 39.158 145.474 38.2479 146.005 37.3632C148.885 32.8382 151.589 28.2122 153.737 23.3081C154.065 22.5498 153.712 21.3111 152.65 21.4122C148.557 21.8167 144.488 22.3981 140.445 23.1565C141.481 17.7215 142.189 12.3119 142.644 7.15498C142.77 5.8152 141.001 5.63825 140.37 6.54829C135.67 13.0449 128.493 17.3929 122.732 22.9037C120.331 15.6739 118.31 8.34308 116.465 0.96167C116.212 -0.10004 114.671 -0.302271 114.14 0.658324C110.198 7.9639 104.74 14.5364 100.268 21.5639C96.1234 14.9409 91.5497 8.52003 87.9363 2.22561C87.3551 1.21446 85.9905 1.54308 85.6115 2.52896C82.8825 9.85981 78.6625 16.4323 75.2259 23.3587C70.0205 16.584 63.122 10.4412 59.079 3.7929C58.4725 2.78174 57.0069 3.03453 56.6532 4.09624C54.8085 9.78397 51.094 16.2806 49.8558 22.6256C41.4159 17.3171 32.0664 12.9185 24.2835 7.18026C23.5002 6.59884 22.2367 7.58472 22.5905 8.54531C24.2835 12.9944 25.9765 17.5446 27.7959 22.0189C19.2297 20.9825 10.6887 20.0219 2.17306 18.6568C0.757995 18.4546 -0.0758837 19.8449 0.808533 20.9572C5.71073 27.0747 11.5226 32.6866 17.663 38.0457C14.2769 40.0933 10.9414 42.2672 7.58064 44.062C6.67096 44.5423 6.87311 45.7052 7.58064 46.236C10.5119 48.41 13.5947 50.3059 16.7533 52.126C11.0425 54.6033 5.71073 58.3446 0.606381 61.6814C-0.227498 62.2375 -0.278036 63.8554 0.90961 64.0323C8.36398 65.1698 15.97 67.2933 23.576 68.5572C19.5329 78.0368 17.6883 88.578 14.4538 98.2851C14.0748 99.4479 15.4141 100.257 16.3743 99.7513C25.6986 94.9483 35.1492 87.8955 42.9826 79.7557C43.6901 85.7721 44.6756 91.8137 46.4445 97.4003C46.8235 98.639 48.3396 98.7401 49.0472 97.729C53.0397 91.9907 56.8806 86.126 60.4941 80.1096C62.2629 85.0137 64.2086 89.8925 66.5839 94.3669C66.9629 95.0747 68.2517 95.1758 68.6054 94.3669C70.8544 89.1342 72.699 83.775 74.6953 78.4412C78.0813 86.5304 82.2002 94.5185 87.4056 101.344C87.9615 102.052 88.9723 102.178 89.503 101.344C93.8492 94.468 97.9681 86.4293 101.051 78.1632C106.105 84.6598 111.285 91.3334 117.779 95.9594C118.436 96.4397 119.497 95.9594 119.674 95.2011C120.811 89.7661 120.837 84.407 120.483 78.8962C127.129 81.5 134.482 83.1431 140.167 87.0107C141.102 87.6427 142.341 86.8085 142.341 85.7468C142.366 80.4888 141.582 75.4583 140.546 70.352C145.221 70.7312 149.972 70.7817 154.444 72.1215C155.683 72.5007 156.517 71.1357 156.011 70.0739C153.358 64.6896 149.972 59.6338 146.586 54.6286C151.463 53.4405 156.137 51.5698 161.065 50.6851C162.278 50.5081 162.278 48.8397 161.368 48.2583Z" fill="#E40000"/>
<path d="M32.7487 54.1725C32.6729 54.0713 32.4708 53.3635 32.4708 53.2371C32.0917 50.684 31.738 48.1308 31.3589 45.5777C31.2326 44.5665 29.8175 36.4267 29.6912 35.4914C29.6912 35.4409 29.6154 34.8342 29.5648 34.6067C29.5396 34.5055 29.4637 33.823 29.4385 33.7219C29.3879 33.3427 30.2471 32.9888 30.525 32.8371C33.3552 32.7613 36.0084 31.4974 38.7375 31.1435C43.8166 30.4862 47.6069 31.3963 50.3107 36.0223C51.1193 37.5137 51.9027 39.1568 52.1301 40.8758V40.9264C52.1806 41.71 52.2059 43.7576 52.2312 43.8081C52.2312 45.6282 51.2204 47.3472 50.7656 49.0409C49.1989 51.2907 47.7586 52.8832 45.5854 54.4252C44.9031 54.9055 43.665 54.9561 43.2607 55.7397C43.2101 56.7003 43.2859 57.2565 43.4123 58.2171C43.6902 60.3405 44.2967 62.4133 44.5746 64.5873C44.6252 64.9665 44.8273 66.9382 44.8779 67.368C44.8779 67.7724 44.423 68.6067 44.0945 68.7836L42.6037 69.4409C42.5531 69.5167 38.8133 70.3256 37.2719 70.6542C37.2719 70.6542 36.9434 70.7048 36.7665 70.7301C36.2611 70.8059 35.402 70.6795 35.2756 70.0728C34.3407 64.739 33.6584 59.5063 32.7487 54.1725ZM41.3149 47.3472C41.3655 47.3472 41.5171 47.1955 41.5171 47.1955C42.7553 47.1449 44.979 46.0074 44.1451 42.2156C43.1343 37.5896 41.0117 37.6907 39.6219 37.8676C39.3945 37.8929 39.4198 38.1204 39.445 38.2974C39.445 38.3479 39.4703 38.5249 39.4703 38.5249C39.4956 38.7018 40.5316 43.1003 40.5316 43.252C40.5569 43.4795 40.7843 45.1479 40.8096 45.3754C40.8348 45.6535 41.0875 46.9933 41.1633 47.2461L41.3149 47.3472Z" fill="white"/>
<path d="M63.0969 31.5985C72.7497 30.3598 75.1755 34.0758 76.7927 42.8223C76.8938 43.2773 77.1212 44.9457 77.1212 45.1227C77.1212 45.2238 77.1718 46.6394 77.1718 47.1955C77.1718 53.1613 77.1718 58.0907 74.6448 63.6015C74.3164 64.3345 74.0889 65.1182 73.5836 65.8513C73.533 65.9018 73.0276 66.458 72.8507 66.5338C70.6523 68.455 68.3023 69.1122 65.3711 69.1122C60.2667 69.1122 57.9673 66.1293 56.5522 61.478C56.5017 61.2 55.8699 59.0007 55.7183 58.394C55.6678 58.2171 55.6172 57.8379 55.6172 57.7115L54.8844 50.1279C54.8844 50.1279 54.8844 49.6728 54.8844 49.4453C54.9097 43.8334 56.0215 32.4833 63.0969 31.5985ZM66.584 59.5569C69.3383 59.4557 69.0604 51.6951 69.0098 49.0409C69.0098 48.8134 69.0098 48.5858 69.0098 48.4847C69.0098 46.9174 68.9593 40.345 66.3819 40.345C64.5372 40.345 63.956 47.7517 63.956 48.9398C63.6528 58.3182 64.5119 59.6327 66.584 59.5569Z" fill="white"/>
<path d="M97.9177 63.6773C96.8564 65.6996 94.4305 68.91 91.9542 69.2386C91.9036 69.2386 90.1095 69.3398 89.5283 69.3398C89.5283 69.3398 89.0735 69.3398 88.9724 69.3398C84.4745 69.3398 83.1353 63.9554 82.4025 60.2394C80.8358 51.8721 80.204 42.0386 80.8358 32.6096V32.5591C80.8358 32.3821 81.0127 32.2305 81.1643 32.1546C82.5035 32.0535 87.1278 31.7502 88.467 31.7502C88.5176 31.7502 89.023 31.7502 89.1998 31.7502C89.3009 31.7502 89.8063 31.7502 89.9832 31.7502C90.0843 36.5279 88.366 55.7398 91.3982 56.5234L91.4993 56.6245C93.4198 57.4082 95.3149 54.0461 95.2139 47.0691C95.2139 46.4624 95.4413 43.4795 95.4413 42.8476L95.6182 42.7465L102.921 42.8476C103.098 42.8476 103.249 43.0751 103.199 43.1762C103.249 47.7769 102.921 56.0937 106.004 58.0654C106.004 58.0654 106.054 58.0654 106.105 58.0654C108.859 57.7368 108.859 42.2914 109.314 33.9241C109.365 32.3569 110.097 31.8007 111.512 31.4468C112.523 31.2699 115.555 31.6238 116.516 31.6238C116.794 31.6238 117.021 31.6743 117.249 31.6743C118.032 31.8513 118.866 32.4074 118.866 33.368C118.866 56.397 114.317 64.7137 110.097 68.0758C108.809 69.087 107.242 69.4914 105.776 69.4914C104.159 69.4914 102.744 69.1628 101.405 68.2022C99.8886 67.1405 99.1558 65.3963 98.2714 63.7531C98.2209 63.652 98.1704 63.652 98.044 63.652H97.9177V63.6773Z" fill="white"/>
<path d="M123.616 63.8795C123.692 63.829 124.576 64.0059 124.829 64.0565C125.057 64.107 125.865 64.2587 126.042 64.3345C126.876 64.7643 127.154 65.3962 127.002 66.281C126.977 66.458 126.901 66.7866 126.901 66.7866C126.901 66.8371 126.497 67.3933 126.295 67.5955C126.143 67.7472 125.486 68.5308 125.36 68.6319C124.728 69.1881 122.328 69.2639 121.721 69.1375C121.115 69.0111 119.447 68.1264 119.346 67.4944C118.79 64.107 120.559 63.7531 123.616 63.8795ZM126.194 32.1293C126.522 30.9412 132.107 32.0535 132.814 32.2305C133.244 32.3063 133.446 32.8624 133.37 33.1911C133.37 33.2416 133.345 33.368 133.345 33.368C131.121 42.7212 129.63 52.226 127.432 61.6297C127.306 61.7055 126.699 62.1858 126.573 62.2111C126.118 62.5145 124.905 62.2364 121.519 62.11C121.519 62.11 121.241 62.0089 121.216 61.933C121.216 61.933 121.115 61.8067 121.14 61.7561L121.241 60.9219C121.241 60.8713 122.1 55.8156 122.429 53.7174C123.591 46.968 124.703 40.1933 125.941 33.5197C125.966 33.2416 126.143 32.281 126.194 32.1293Z" fill="white"/>
</g>
<defs>
<clipPath id="clip0">
<rect width="162" height="102" fill="white"/>
</clipPath>
</defs>
</svg>
