<svg width="307" height="433" viewBox="0 0 307 433" fill="none" xmlns="http://www.w3.org/2000/svg">
<path d="M142.077 273.55C141.263 272.698 140.117 272.365 138.971 272.402C138.897 272.402 138.786 272.402 138.712 272.439C136.494 272.661 134.239 274.328 134.091 276.958C133.61 285.515 133.166 294.109 132.723 302.666C132.686 302.925 132.649 303.185 132.612 303.481C130.874 317.78 131.466 332.189 130.8 346.562C130.578 351.081 130.467 355.563 130.467 360.009C130.356 364.12 130.208 368.269 130.134 372.381C130.061 375.418 129.358 400.978 130.8 416.499C130.763 417.351 130.726 418.24 130.689 419.092C130.652 419.907 130.578 420.648 130.43 421.463C130.393 421.685 130.356 421.833 130.319 421.981C127.916 422.759 122.592 422.5 119.967 422.945C117.231 423.426 112.203 423.278 110.206 425.575C109.503 426.39 109.54 427.39 110.206 428.205C112.498 430.909 118.858 431.205 122.074 431.761C126.4 432.502 132.686 432.613 136.642 430.501C141.005 428.168 141.005 421.204 141.153 416.981V416.944C141.411 414.239 141.374 411.609 141.374 409.757C141.374 395.829 140.783 381.975 141.116 368.047C141.448 352.859 141.781 337.635 142.114 322.447C142.853 315.446 143.704 308.445 144.702 301.481C145.811 293.553 149.619 278.958 142.077 273.55ZM130.134 422.5C130.098 422.611 130.098 422.611 130.134 422.5V422.5Z" fill="#231F20"/>
<path d="M208.444 424.13C205.523 418.055 194.172 418.536 188.478 418.277C188.035 416.425 187.924 414.425 187.702 412.61C187.48 410.535 187.11 408.498 186.667 406.46C186.593 399.2 186.112 391.866 186.408 384.901C186.777 375.752 187.295 366.565 187.739 357.416C188.293 353.267 188.774 349.118 189.07 344.932C189.957 331.523 187.665 317.743 186.888 304.37C186.63 299.666 185.668 294.702 185.225 289.812C185.372 285.108 185.927 280.514 187.147 276.143C188.7 270.476 180.64 267.031 177.682 272.143C173.43 279.514 174.724 289.886 175.205 297.999C175.87 308.815 177.46 319.446 177.534 330.337C177.645 347.155 176.425 363.972 175.944 380.79C175.648 390.791 174.983 402.719 177.09 413.387C177.09 414.499 177.127 415.573 177.238 416.684C177.608 420.907 177.941 425.13 181.564 427.834C184.448 429.983 188.811 429.464 192.176 429.612C197.241 429.835 203.6 429.501 207.815 426.427C208.629 425.76 208.851 424.982 208.444 424.13Z" fill="#231F20"/>
<path d="M297.55 64.7389C281.022 50.5884 259.985 40.5127 238.281 39.4015C241.054 36.7344 243.938 34.1784 247.007 31.8076C260.687 21.3245 263.793 19.9168 247.044 17.2127C235.545 15.3606 223.603 15.2124 212.252 16.9164C202.861 18.324 191.732 20.4725 183.117 25.7696C183.191 25.251 183.228 24.6954 183.302 24.1768C183.561 21.9913 183.82 19.8798 184.152 17.7684C186.962 -1.41992 189.551 -5.90212 173.06 8.43352C167.404 13.3602 162.523 19.6205 159.38 26.3253C150.211 18.6203 136.827 13.6566 125.069 10.2116C104.734 4.2847 110.612 10.8043 114.754 17.435C108.505 15.2865 101.258 14.842 95.1576 14.5456C84.1396 14.0641 72.4191 15.768 61.475 18.7685C37.3684 25.4362 61.1052 29.511 62.6581 29.9185C66.947 31.0668 71.162 32.3262 75.34 33.845C77.0038 34.4377 78.5197 35.1786 79.9616 35.9565C67.7604 37.4011 55.2635 43.5873 45.2067 49.0326C35.0021 54.552 25.2042 61.5161 16.9221 69.8138C2.72438 84.0012 2.68742 87.1128 21.6547 82.3343C27.8293 80.7785 34.1887 80.1858 40.8069 80.2599C41.2506 80.2599 41.6942 80.334 42.1379 80.334C24.3168 91.2246 11.1913 111.191 2.13281 129.972C-5.70554 146.122 10.156 135.824 15.9608 133.083C8.82498 143.974 3.50083 156.309 2.28071 169.237C0.432042 188.462 6.4587 179.609 12.4114 174.497C9.71235 187.203 9.37958 200.131 10.7846 213.022C12.6702 230.432 14.2601 225.617 20.0279 218.949C21.285 232.581 22.9488 246.25 28.0511 258.918C34.2626 274.402 37.3314 264.808 39.6238 260.696C42.9144 272.735 52.0468 284.256 61.8447 292.813C75.303 304.518 75.8206 299.295 77.0407 291.701C86.4319 302.481 100.408 309.037 114.088 313.705C127.731 318.372 128.397 317.15 125.476 307.148C134.941 312.001 146.403 313.779 155.313 319.039C168.069 326.559 164.446 327.077 175.242 317.372C181.712 311.556 191.14 310.149 198.35 304.815C198.165 316.816 189.07 327.188 208.888 313.742C216.652 308.482 224.675 303.073 229.075 295.072C229.851 297.147 230.443 299.221 230.813 301.369C231.256 303.925 229.777 322.039 239.945 304C246.415 292.442 252.294 280.737 253.588 267.697C258.654 276.958 258.173 285.293 266.307 269.179C273.554 254.844 282.095 237.767 279.359 222.283C285.792 227.728 287.974 234.433 290.747 219.616C293.076 207.243 293.852 192.722 289.009 181.239C297.734 187.647 299.99 192.908 300.36 174.238C300.655 160.458 299.065 144.418 292.262 132.824C302.911 137.602 309.714 147.308 304.094 126.675C299.509 109.82 289.305 93.4472 275.587 82.4084C278.878 81.2971 285.422 80.8155 291.005 80.5562C307.791 79.7783 311.599 76.7408 297.55 64.7389Z" fill="#E40000"/>
<path d="M254.624 130.638C243.31 113.302 222.79 114.599 202.565 119.674C196.982 121.081 191.436 122.785 186.112 124.452C156.829 133.639 152.356 133.639 124.626 126.675C118.155 125.045 111.389 123.415 104.401 122.341C70.3119 117.155 39.8459 135.565 38.0711 180.091C36.888 209.466 48.4237 244.323 67.1692 262.956C80.7014 276.403 97.0436 273.217 113.164 267.253C124.33 263.104 135.422 257.659 145.368 255.51C163.374 251.621 178.607 258.437 195.651 264.067C228.04 274.736 256.029 257.214 265.975 210.688C270.966 187.462 267.306 150.123 254.624 130.638Z" fill="#231F20"/>
<path d="M89.6487 121.6C90.7209 128.712 93.8637 134.824 97.6349 132.565C100.112 131.046 101.48 126.786 101.813 122.007C97.6719 121.526 93.6048 121.378 89.6487 121.6Z" fill="white"/>
<path d="M116.343 266.031C115.012 261.845 112.683 256.177 109.762 257.511C105.843 259.326 104.918 265.03 104.918 269.957C107.654 269.179 110.427 268.253 113.164 267.216C114.236 266.845 115.271 266.438 116.343 266.031Z" fill="white"/>
<path d="M95.1947 272.031C95.1947 270.402 94.6401 257.622 91.4234 260.067C89.5748 261.474 89.4269 263.141 88.8353 265.401C88.2438 267.66 87.6891 269.957 87.2085 272.254C89.7966 272.476 92.4956 272.365 95.1947 272.031Z" fill="white"/>
<path d="M142.816 137.714C144.48 135.824 145.626 133.602 146.476 131.231C143.186 130.861 139.673 130.194 135.606 129.305C135.458 131.639 135.68 133.935 136.42 136.047C137.344 138.528 140.746 140.047 142.816 137.714Z" fill="white"/>
<path d="M78.0022 258.918C77.5585 256.622 74.3788 255.955 72.8629 257.548C71.0513 259.474 69.5353 261.585 68.1304 263.808C70.9773 266.438 73.8982 268.401 76.9669 269.735C78.1501 266.29 78.7047 262.734 78.0022 258.918Z" fill="white"/>
<path d="M120.891 134.194C123.775 132.676 125.217 129.972 126.363 127.082C125.808 126.934 125.254 126.823 124.662 126.675C121.778 125.971 118.857 125.23 115.9 124.563C115.456 127.564 115.604 130.601 117.083 133.194C117.859 134.565 119.523 134.898 120.891 134.194Z" fill="white"/>
<path d="M131.836 249.546C130.689 248.694 129.173 249.621 128.767 250.806C127.731 253.88 127.879 257.585 128.323 261.178C131.318 259.955 134.276 258.807 137.197 257.844C136.05 254.584 134.424 251.51 131.836 249.546Z" fill="white"/>
<path d="M72.7519 138.714C74.8964 139.64 77.1148 139.306 78.4458 137.232C81.0709 133.157 79.2222 128.49 77.4845 124.452C77.3736 124.193 77.2627 123.897 77.1517 123.637C72.8628 124.823 68.7958 126.527 64.9875 128.712C66.7623 132.453 68.8697 137.047 72.7519 138.714Z" fill="white"/>
<path d="M65.4313 238.508C68.1673 235.581 65.3943 231.581 61.7709 232.21C57.3711 232.951 53.267 234.396 49.4587 236.359C51.1595 240.1 53.0082 243.657 55.0417 247.027C58.813 244.62 62.3255 241.841 65.4313 238.508Z" fill="white"/>
<path d="M56.0401 215.022C57.6299 212.948 55.3745 210.725 53.4149 210.466C49.4958 209.947 45.2439 210.873 41.3247 211.948C42.1751 215.615 43.1734 219.282 44.3195 222.875C48.7933 221.171 53.1192 218.838 56.0401 215.022Z" fill="white"/>
<path d="M65.0982 147.937C67.2797 143.492 62.1774 139.084 58.6279 137.343C57.6666 136.862 56.5944 136.306 55.5222 135.75C52.1946 138.973 49.2367 142.714 46.7595 147.048C48.2754 147.641 49.8283 148.16 51.3072 148.604C54.5239 149.567 62.9908 152.234 65.0982 147.937Z" fill="white"/>
<path d="M148.547 254.695C148.547 254.769 148.547 254.844 148.51 254.918C151.875 254.399 155.128 254.251 158.382 254.399C157.864 250.435 156.829 245.879 154.426 243.842C154.093 243.545 153.613 243.323 153.169 243.508C148.843 245.212 148.991 250.695 148.547 254.695Z" fill="white"/>
<path d="M41.4354 202.094C45.0218 201.131 48.6821 200.501 51.9358 198.612C53.7105 197.575 53.1929 195.056 51.3812 194.426C48.0166 193.278 43.0992 193.167 38.4775 194.093C38.7364 196.945 39.0321 199.835 39.4758 202.724C40.1413 202.465 40.7699 202.242 41.4354 202.094Z" fill="white"/>
<path d="M51.1962 178.016C47.2771 175.942 43.247 175.942 38.9212 176.423C38.7363 176.461 38.5145 176.461 38.2927 176.498C38.2187 177.683 38.1077 178.868 38.0708 180.091C37.9968 182.202 37.9968 184.314 38.0338 186.462C42.1378 185.906 46.3528 185.61 50.3459 184.499C53.1928 183.684 53.9323 179.498 51.1962 178.016Z" fill="white"/>
<path d="M54.8935 163.792C52.8969 160.828 49.2735 159.717 45.9089 158.828C44.5779 158.458 43.2838 158.087 41.9527 157.754C40.9914 160.643 40.215 163.681 39.5864 166.941C40.8805 167.163 42.2115 167.348 43.5056 167.607C46.9442 168.274 50.6785 169.126 53.9322 167.496C55.1523 166.829 55.6699 164.977 54.8935 163.792Z" fill="white"/>
<path d="M268.007 193.019C267.194 193.13 266.418 193.241 265.604 193.389C264.347 193.611 253.255 195.686 255.917 199.612C258.209 203.057 262.942 203.168 267.268 202.835C267.638 199.686 267.896 196.39 268.007 193.019Z" fill="white"/>
<path d="M254.624 130.638C254.291 130.12 253.921 129.675 253.551 129.194C249.891 131.824 246.305 135.158 246.342 139.418C246.342 139.973 246.748 140.64 247.34 140.751C251.037 141.27 254.808 139.343 258.247 137.269C257.101 134.898 255.918 132.639 254.624 130.638Z" fill="white"/>
<path d="M262.721 223.061C263.645 220.171 264.496 217.134 265.235 213.985C260.761 213.504 255.141 213.17 252.331 216.467C252.146 216.689 251.999 216.986 252.109 217.282C253.773 221.283 258.617 222.357 262.721 223.061Z" fill="white"/>
<path d="M193.655 122.118C191.103 122.859 188.589 123.637 186.112 124.415C184.929 124.786 183.783 125.119 182.71 125.489C184.226 128.786 186.149 131.453 188.035 132.49C189.181 133.12 190.327 132.861 191.288 132.083C194.061 129.749 194.209 125.897 193.655 122.118Z" fill="white"/>
<path d="M247.599 233.21C245.898 233.803 245.196 235.507 246.009 237.174C246.785 238.767 249.558 241.508 252.96 244.101C254.92 241.138 256.694 237.878 258.358 234.322C254.809 232.877 250.816 232.025 247.599 233.21Z" fill="white"/>
<path d="M254.919 178.757C254.254 179.535 254.106 181.128 255.289 181.61C259.467 183.388 263.719 183.054 268.008 182.276C267.86 178.868 267.601 175.46 267.231 172.015C262.536 173.275 257.914 175.127 254.919 178.757Z" fill="white"/>
<path d="M233.918 250.287C234.547 253.399 236.174 256.696 237.985 259.659C240.685 257.844 243.273 255.695 245.713 253.214C242.94 250.769 239.575 248.546 236.285 247.954C234.806 247.657 233.623 248.768 233.918 250.287Z" fill="white"/>
<path d="M252.331 160.125C256.028 162.014 261.389 160.902 265.383 159.902C264.717 156.531 263.941 153.272 263.016 150.086C258.912 151.975 254.549 154.605 251.85 158.161C251.37 158.754 251.702 159.828 252.331 160.125Z" fill="white"/>
<path d="M173.8 256.918C176.721 257.696 179.641 258.622 182.599 259.585C182.673 258.326 182.747 257.103 182.784 255.992C182.821 254.955 181.786 245.731 179.013 247.398C176.166 249.065 174.835 253.251 173.8 256.918Z" fill="white"/>
<path d="M203.304 266.03C203.341 265.623 203.415 265.179 203.452 264.808C203.6 262.66 204.266 251.917 199.459 252.88C195.54 253.695 194.468 259.326 193.543 263.289C194.283 263.549 194.985 263.771 195.725 264.03C198.239 264.882 200.79 265.549 203.304 266.03Z" fill="white"/>
<path d="M169.955 129.157C166.183 130.12 162.893 130.787 159.75 131.194C161.451 134.787 163.817 138.38 167.034 136.973C169.955 135.713 170.435 132.528 169.955 129.157Z" fill="white"/>
<path d="M211.438 126.897C212.326 127.564 213.62 127.342 214.507 126.897C218.315 125.008 218.981 120.674 218.944 116.673C214.951 117.081 210.847 117.747 206.743 118.673C207.593 121.896 208.887 124.971 211.438 126.897Z" fill="white"/>
<path d="M220.164 256.325C218.205 254.732 215.801 255.807 215.469 258.252C215.136 260.733 214.914 263.808 214.988 266.994C218.944 266.883 222.752 266.253 226.45 265.142C225.045 261.771 222.974 258.622 220.164 256.325Z" fill="white"/>
<path d="M232.255 125.489C232.587 126.712 233.844 127.379 235.064 127.082C239.021 126.156 241.313 123.378 243.088 120.118C239.76 118.414 236.137 117.34 232.292 116.784C231.626 119.674 231.441 122.6 232.255 125.489Z" fill="white"/>
<path d="M147.142 68.2579C144.739 53.9964 130.874 42.6612 116.343 44.7727C107.84 45.9951 100.741 51.2552 95.9342 58.1823C97.8568 53.3296 100.519 48.514 103.588 43.5132C103.809 43.1428 103.366 42.6983 102.996 42.9205C92.7915 49.8476 84.4724 69.5174 89.5748 82.3713C89.5748 82.4084 89.5748 82.4084 89.5748 82.4454C84.8791 73.7403 85.4337 63.8869 88.2807 54.552C88.4286 54.0334 87.7631 53.8482 87.5043 54.2186C80.0726 63.8869 81.4406 77.1483 87.3564 87.1499C89.6857 91.0394 93.5309 94.9659 97.9677 97.7442C99.9273 99.337 102.257 100.708 104.993 101.782C105.843 102.337 106.767 102.819 107.692 103.264C95.6014 100.967 88.5026 92.9656 81.7364 83.1492C81.6255 83.0011 81.3297 83.0381 81.3667 83.2604C83.77 104.523 114.864 112.969 131.798 102.671C131.798 102.671 131.798 102.671 131.835 102.671C132.316 102.375 132.797 102.078 133.277 101.745C143.408 94.8178 149.065 79.7783 147.142 68.2579Z" fill="white"/>
<path d="M175.575 104.931C192.915 112.043 215.062 105.745 221.126 86.4461C221.274 85.9645 220.608 85.7052 220.349 86.1127C214.729 94.7808 207.298 100.671 198.498 102.819C202.417 101.115 205.708 98.7073 208.37 95.855C210.441 94.0028 212.289 92.0025 213.879 90.0392C220.645 81.5194 223.529 68.9247 219.573 58.6268C219.425 58.2193 218.76 58.2564 218.76 58.7379C219.129 65.5909 218.575 71.74 216.504 77.7039C216.652 76.5926 216.689 75.4443 216.726 74.296C218.501 61.8125 214.36 46.3655 204.673 41.8833C204.34 41.7352 204.044 42.1056 204.266 42.4019C207.483 46.5137 209.738 50.8107 211.217 55.1818C206.78 48.6993 199.718 43.8837 190.031 42.6983C163.595 39.4385 147.956 70.851 160.637 89.7429C163.374 96.3366 168.439 102.004 175.575 104.931Z" fill="white"/>
<path d="M98.2636 293.961C94.0856 291.627 90.9799 288.293 87.2825 285.367C87.1347 285.256 86.8758 285.367 86.9498 285.552C89.8337 293.405 100.741 298.517 108.283 300.221C108.616 300.295 108.764 299.888 108.505 299.703C105.288 297.48 101.739 295.887 98.2636 293.961Z" fill="white"/>
<path d="M148.325 272.291C150.211 278.477 153.39 284.256 155.72 290.294C158.123 296.48 158.641 302.999 160.785 309.186C160.896 309.519 161.34 309.519 161.488 309.186C165.185 297.925 155.35 280.848 148.88 272.069C148.658 271.772 148.214 271.92 148.325 272.291Z" fill="white"/>
<path d="M188.811 280.848C187.887 284.552 187.443 288.256 186.186 291.887C184.966 295.443 182.378 298.777 182.267 302.629C182.267 303.074 182.784 303.222 183.08 302.962C186.075 300.555 187.332 296.109 188.589 292.553C189.846 288.886 190.66 284.663 189.55 280.885C189.44 280.477 188.922 280.477 188.811 280.848Z" fill="white"/>
<path d="M224.749 272.698C221.459 277.773 218.464 282.922 214.841 287.812C212.068 291.59 207.927 295.48 207.372 300.332C207.335 300.629 207.742 300.814 207.964 300.666C211.92 298.073 214.434 292.961 217.17 289.219C220.719 284.33 224.417 279.144 225.711 273.143C225.859 272.476 225.082 272.143 224.749 272.698Z" fill="white"/>
<path d="M244.641 268.216C242.903 270.809 241.72 273.772 240.315 276.588C238.91 279.403 236.322 282.255 235.841 285.367C235.767 285.7 236.1 286.034 236.433 285.849C238.984 284.404 240.204 281.218 241.461 278.662C243.051 275.476 244.641 272.031 245.269 268.475C245.306 268.105 244.862 267.92 244.641 268.216Z" fill="white"/>
<path d="M270.042 231.84C268.637 237.619 267.01 242.842 264.237 248.139C262.018 252.362 259.393 256.325 258.654 261.104C258.58 261.474 259.023 261.696 259.282 261.363C264.828 253.658 271.705 241.767 270.67 231.951C270.633 231.581 270.116 231.469 270.042 231.84Z" fill="white"/>
<path d="M66.2445 279.329C66.5033 279.403 66.7252 279.107 66.5773 278.884C64.5437 275.514 60.9943 273.069 58.4061 270.105C54.9676 266.216 52.6383 261.697 50.6787 256.918C50.5308 256.622 50.0871 256.733 50.1611 257.066C51.714 265.216 57.9625 276.403 66.2445 279.329Z" fill="white"/>
<path d="M35.4826 225.394C35.4086 225.135 35.0389 225.135 34.965 225.394C33.3012 231.655 32.9314 244.694 38.7733 249.065C39.143 249.361 39.5867 248.88 39.5127 248.509C38.6254 244.472 36.9246 240.952 36.4069 236.767C35.9263 232.988 36.4069 229.099 35.4826 225.394Z" fill="white"/>
<path d="M26.6463 178.609C22.5793 187.499 20.213 201.909 24.9825 210.91C25.2043 211.355 25.8698 211.133 25.8698 210.651C26.1286 205.28 24.9825 199.946 25.1674 194.537C25.3522 189.203 26.5723 184.017 27.2009 178.72C27.2009 178.461 26.7572 178.35 26.6463 178.609Z" fill="white"/>
<path d="M19.769 171.052C21.7655 166.755 22.9487 162.125 24.5755 157.68C26.3502 152.864 28.6796 148.123 29.7148 143.085C29.7518 142.863 29.456 142.714 29.3081 142.937C24.2428 150.419 18.9556 161.68 18.6968 170.793C18.6968 171.312 19.5471 171.571 19.769 171.052Z" fill="white"/>
<path d="M278.878 189.944C278.693 189.722 278.361 189.981 278.435 190.203C279.433 193.982 280.801 197.575 281.614 201.427C282.465 205.354 281.762 209.836 283.315 213.504C283.426 213.726 283.796 213.726 283.907 213.504C285.57 210.17 284.498 205.947 283.833 202.428C283.056 198.094 281.614 193.426 278.878 189.944Z" fill="white"/>
<path d="M274.7 126.786C277.177 132.083 280.172 137.121 282.871 142.344C285.903 148.271 287.086 154.161 288.158 160.606C288.232 160.977 288.824 160.939 288.861 160.606C291.338 148.493 281.355 135.973 275.032 126.601C274.922 126.378 274.626 126.564 274.7 126.786Z" fill="white"/>
<path d="M281.725 108.561C275.883 102.597 268.747 97.8182 260.539 96.0031C260.207 95.929 259.985 96.4106 260.317 96.5588C267.86 99.8186 274.33 104.301 280.061 110.228C285.681 116.043 289.046 124.378 295.072 129.638C295.368 129.897 295.812 129.638 295.738 129.268C294.37 121.6 287.012 113.969 281.725 108.561Z" fill="white"/>
<path d="M21.8397 129.231C28.2731 123.637 33.3015 116.969 40.1785 111.672C47.1295 106.338 54.9678 102.745 62.2885 98.0405C62.5474 97.8553 62.3995 97.4478 62.0667 97.5219C52.8234 99.7445 44.3195 105.634 36.8509 111.302C30.8612 115.858 23.9102 121.6 21.2111 128.86C21.0633 129.268 21.5809 129.453 21.8397 129.231Z" fill="white"/>
<path d="M34.7061 67.8135C38.995 65.7761 42.7663 62.7756 46.9073 60.516C52.3054 57.5525 57.8884 56.3672 63.7671 54.8113C64.1369 54.7002 63.989 54.2557 63.6932 54.2187C53.7474 53.0333 40.5848 59.7381 34.1884 67.1096C33.8187 67.4801 34.2254 68.0357 34.7061 67.8135Z" fill="white"/>
<path d="M68.1303 78.1484C60.144 79.6301 44.6152 84.7791 42.4708 93.9287C42.3968 94.2992 42.8035 94.5214 43.0623 94.2621C47.0924 90.706 50.531 87.3351 55.3745 84.7791C59.5894 82.5195 64.248 81.1489 68.3891 78.7041C68.6848 78.5189 68.463 78.0743 68.1303 78.1484Z" fill="white"/>
<path d="M236.137 56.5894C235.915 56.6635 235.952 57.0339 236.211 56.9969C243.088 56.5894 249.78 56.5153 256.657 57.1451C263.46 57.7748 270.004 60.2937 276.807 60.5901C277.214 60.5901 277.325 60.0715 276.992 59.8492C266.307 53.4778 247.783 52.8481 236.137 56.5894Z" fill="white"/>
<path d="M270.633 86.8535C263.313 78.2596 249.226 77.8891 238.836 78.2225C238.54 78.2225 238.577 78.63 238.836 78.667C250.224 80.0006 259.726 82.7418 270.079 87.5574C270.559 87.7796 271.003 87.261 270.633 86.8535Z" fill="white"/>
<path d="M205.116 29.9926C210.404 29.5851 215.432 27.9552 220.571 26.7328C227.411 25.1029 234.177 25.177 241.128 24.8065C241.498 24.7695 241.572 24.2879 241.202 24.1768C230.147 20.2502 215.136 24.8065 205.005 29.6592C204.858 29.7333 204.931 29.9926 205.116 29.9926Z" fill="white"/>
<path d="M91.3494 25.5103C98.1155 26.3994 104.919 26.7698 111.648 28.0293C117.6 29.1035 123.035 31.6224 128.803 33.2523C129.173 33.3635 129.543 32.8449 129.21 32.5856C119.486 24.4731 103.403 23.6212 91.3863 25.0288C91.0166 25.0288 91.0166 25.4733 91.3494 25.5103Z" fill="white"/>
<path d="M73.8979 56.4783C67.5016 56.6264 60.6615 59.4788 55.1895 62.6274C54.8937 62.7756 55.1155 63.2571 55.4113 63.146C61.4749 61.3679 68.6477 60.3678 74.0828 57.071C74.3047 56.8857 74.1937 56.4783 73.8979 56.4783Z" fill="white"/>
<path d="M61.5489 88.1871C62.8429 87.6314 64.1 87.0017 65.3571 86.372C66.873 85.5941 68.5738 85.3348 70.2006 84.7791C70.3855 84.705 70.4964 84.4087 70.2746 84.2976C67.0209 82.5936 63.7303 85.8163 61.2531 87.6685C60.9203 87.9278 61.1791 88.3723 61.5489 88.1871Z" fill="white"/>
<path d="M54.7089 113.302C60.4768 110.005 67.3538 107.598 72.604 103.56C73.0477 103.227 72.7889 102.597 72.2343 102.671C65.69 103.819 58.9609 108.116 54.3022 112.784C54.0804 113.043 54.4132 113.487 54.7089 113.302Z" fill="white"/>
<path d="M22.5049 143.937C25.6107 140.195 28.9753 136.787 32.7466 133.75C36.4809 130.749 40.6219 128.268 44.2083 125.045C44.4671 124.786 44.2083 124.304 43.8386 124.415C35.2238 127.675 25.6846 135.046 22.0982 143.715C22.0243 143.937 22.357 144.122 22.5049 143.937Z" fill="white"/>
<path d="M17.9203 149.827C14.223 152.049 12.1895 157.346 10.7106 161.199C10.5996 161.458 10.9694 161.643 11.1543 161.458C12.6332 159.754 14.0381 158.013 15.2952 156.124C16.5154 154.272 18.0312 152.568 18.6598 150.382C18.7707 149.975 18.2901 149.604 17.9203 149.827Z" fill="white"/>
<path d="M22.0245 178.831C18.3272 181.832 15.6651 188.611 17.4768 193.241C17.5507 193.463 17.9205 193.574 18.0314 193.315C18.9187 191.315 19.2884 189.055 19.917 186.944C20.6934 184.314 21.9505 181.869 22.7269 179.202C22.8378 178.794 22.3572 178.572 22.0245 178.831Z" fill="white"/>
<path d="M29.4194 230.025C29.6782 227.432 29.7891 224.839 30.1589 222.283C30.5286 219.875 31.0832 217.689 31.1572 215.207C31.1572 214.726 30.5286 214.615 30.3067 214.985C27.4598 219.134 26.4985 225.617 28.9757 230.173C29.0866 230.395 29.3824 230.247 29.4194 230.025Z" fill="white"/>
<path d="M45.1327 244.101C45.0957 243.731 44.5042 243.434 44.3193 243.879C41.7682 249.213 42.8034 257.177 45.983 262.104C46.1309 262.326 46.4637 262.252 46.4637 261.956C46.6485 258.992 45.983 256.103 45.7242 253.177C45.4654 250.139 45.5394 247.102 45.1327 244.101Z" fill="white"/>
<path d="M77.8913 276.551C77.7064 276.403 77.3367 276.477 77.3737 276.773C77.5955 278.996 78.7417 281.107 79.5921 283.144C80.6274 285.589 81.6996 288.071 83.955 289.59C84.2138 289.775 84.5096 289.479 84.4356 289.219C83.918 286.923 82.6609 285.034 81.6256 282.922C80.5904 280.811 79.6661 278.181 77.8913 276.551Z" fill="white"/>
<path d="M116.602 297.258C116.824 297.147 116.861 296.887 116.75 296.665C116.01 295.22 113.644 294.85 112.313 294.183C110.39 293.22 108.468 291.887 106.841 290.516C106.508 290.22 105.88 290.627 106.175 291.035C107.469 292.924 108.874 294.331 110.834 295.554C112.239 296.443 114.901 298.184 116.602 297.258Z" fill="white"/>
<path d="M102.626 288.849C102.885 288.886 103.107 288.701 103.033 288.442C102.552 286.589 100.963 285.441 99.6685 284.108C98.0417 282.404 96.4888 280.588 94.9729 278.81C94.7511 278.551 94.2705 278.81 94.3814 279.144C95.1208 281.292 96.267 283.07 97.635 284.848C98.9291 286.478 100.445 288.553 102.626 288.849Z" fill="white"/>
<path d="M104.697 280.737C105.843 283.181 107.47 284.774 109.577 286.441C111.574 287.997 113.422 289.627 115.863 290.479C116.232 290.59 116.454 290.183 116.343 289.886C115.271 287.664 113.385 286.552 111.463 285.182C109.355 283.7 107.137 282.107 105.251 280.366C104.955 280.07 104.549 280.403 104.697 280.737Z" fill="white"/>
<path d="M126.511 290.183C122.629 286.219 120.373 281.218 116.972 276.958C116.787 276.699 116.454 276.995 116.491 277.218C118.488 287.738 129.469 299.814 140.154 301.481C140.635 301.555 140.857 300.999 140.487 300.74C135.754 297.184 130.689 294.442 126.511 290.183Z" fill="white"/>
<path d="M136.716 285.219C135.126 283.144 133.573 281.107 131.687 279.292C131.502 279.107 131.244 279.329 131.355 279.551C132.501 282.144 133.795 284.552 135.422 286.886C136.642 288.627 137.936 290.886 140.154 291.331C140.524 291.405 140.894 291.109 140.783 290.701C140.117 288.553 138.047 286.96 136.716 285.219Z" fill="white"/>
<path d="M151.209 301.073C151.394 297.147 149.471 293.442 147.955 289.923C146.107 285.589 144.036 280.885 140.413 277.736C140.265 277.625 139.969 277.736 140.043 277.958C141.67 282.366 143.925 286.515 145.7 290.886C147.142 294.48 147.882 298.48 150.655 301.333C150.839 301.555 151.209 301.37 151.209 301.073Z" fill="white"/>
<path d="M162.856 272.846C162.745 272.587 162.338 272.772 162.412 273.032C162.967 276.254 163.817 279.403 164.667 282.552C165.518 285.7 165.703 289.219 167.329 292.109C167.477 292.331 167.847 292.294 167.921 292.035C168.66 289.108 167.662 286.293 166.849 283.441C165.813 279.773 164.445 276.254 162.856 272.846Z" fill="white"/>
<path d="M176.055 278.996C175.279 282.811 174.835 286.7 173.985 290.516C173.023 294.85 170.916 298.888 170.102 303.222C170.028 303.666 170.583 304.111 170.916 303.703C176.314 297.85 177.756 286.589 176.462 278.958C176.462 278.736 176.129 278.773 176.055 278.996Z" fill="white"/>
<path d="M197.685 271.772C197.167 274.884 197.019 278.032 196.428 281.181C195.873 284.182 194.283 287.441 194.468 290.479C194.505 290.812 194.838 290.96 195.097 290.738C197.426 288.627 197.87 284.663 198.276 281.7C198.72 278.44 198.942 274.995 198.054 271.809C198.054 271.587 197.722 271.55 197.685 271.772Z" fill="white"/>
<path d="M208.296 278.514C206.447 281.329 205.079 284.404 203.489 287.367C202.121 289.923 199.866 292.368 199.311 295.257C199.238 295.702 199.644 296.035 200.051 295.85C202.787 294.442 204.118 291.183 205.449 288.553C207.002 285.478 208.259 282.181 208.777 278.773C208.851 278.44 208.481 278.218 208.296 278.514Z" fill="white"/>
<path d="M223.233 292.183C221.015 293.442 219.462 296.072 217.983 298.11C216.356 300.295 213.324 302.814 213.103 305.667C213.103 305.889 213.324 306.074 213.546 306C215.839 305.333 217.17 302.555 218.501 300.74C220.275 298.295 222.9 295.443 223.492 292.442C223.529 292.22 223.381 292.072 223.233 292.183Z" fill="white"/>
<path d="M232.439 269.438C231.811 270.994 232.033 272.809 231.663 274.439C231.256 276.328 230.554 278.292 229.814 280.07C229.703 280.366 230.11 280.551 230.332 280.366C231.922 278.847 232.772 276.995 233.364 274.921C233.844 273.18 234.436 270.698 233.031 269.29C232.846 269.068 232.55 269.216 232.439 269.438Z" fill="white"/>
<path d="M238.429 290.96C237.69 292.257 237.209 293.702 236.691 295.109C236.137 296.628 235.102 298.036 235.323 299.703C235.36 300.036 235.767 300.11 236.026 299.999C237.542 299.369 238.023 297.665 238.577 296.221C239.206 294.628 239.612 292.813 239.28 291.072C239.243 290.664 238.651 290.627 238.429 290.96Z" fill="white"/>
<path d="M255.807 249.546C253.884 250.917 252.479 252.917 251.111 254.844C250.039 256.325 247.932 258.955 248.745 260.919C248.856 261.141 249.078 261.289 249.337 261.141C251 260.178 251.74 257.399 252.738 255.77C253.921 253.806 255.474 252.028 256.214 249.843C256.251 249.658 255.992 249.435 255.807 249.546Z" fill="white"/>
<path d="M266.344 257.177C265.013 258.548 264.089 260.03 263.201 261.733C262.351 263.4 261.094 265.327 261.131 267.216C261.131 267.549 261.537 267.846 261.833 267.623C263.275 266.549 263.682 264.771 264.384 263.141C265.198 261.252 265.9 259.326 266.751 257.474C266.899 257.251 266.566 256.955 266.344 257.177Z" fill="white"/>
<path d="M273.184 204.539C272.408 207.54 272.149 210.429 272.001 213.504C271.816 217.393 271.04 221.246 271.114 225.098C271.114 225.431 271.557 225.58 271.742 225.283C275.107 219.579 273.887 210.91 273.517 204.613C273.554 204.391 273.258 204.317 273.184 204.539Z" fill="white"/>
<path d="M276.475 173.275C276.327 173.201 276.142 173.386 276.29 173.534C278.287 175.534 279.876 177.905 281.281 180.35C282.502 182.499 282.982 184.98 284.535 186.907C284.683 187.092 285.016 186.981 285.053 186.758C285.533 184.128 284.017 181.684 282.723 179.461C281.207 176.905 279.174 174.682 276.475 173.275Z" fill="white"/>
<path d="M277.214 161.829C277.066 161.791 276.844 161.977 276.955 162.125C278.36 163.977 280.246 165.459 281.725 167.274C283.574 169.496 284.498 172.238 286.384 174.386C286.568 174.608 286.864 174.423 286.901 174.164C287.123 171.46 285.644 169.274 284.017 167.2C282.316 165.088 279.95 162.532 277.214 161.829Z" fill="white"/>
<path d="M292.558 168.793C292.447 168.496 292.041 168.607 292.078 168.941C292.336 170.497 292.632 172.089 293.076 173.608C293.409 174.757 293.409 176.275 294.333 177.09C294.518 177.238 294.777 177.238 294.888 177.016C295.479 175.979 294.962 174.868 294.629 173.793C294.148 172.052 293.261 170.46 292.558 168.793Z" fill="white"/>
<path d="M273.517 139.343C274.885 141.862 276.253 144.418 277.362 147.085C278.398 149.53 278.619 152.308 279.803 154.642C279.988 155.013 280.468 154.864 280.616 154.531C281.577 152.197 280.431 149.382 279.47 147.197C278.139 144.085 276.364 141.344 273.887 139.047C273.702 138.862 273.406 139.084 273.517 139.343Z" fill="white"/>
<path d="M285.163 126.823C281.503 118.859 268.858 112.45 260.465 111.672C260.243 111.635 260.169 111.969 260.354 112.08C264.458 114.451 268.784 116.34 272.851 118.822C277.029 121.378 280.246 125.193 284.498 127.527C284.942 127.749 285.348 127.267 285.163 126.823Z" fill="white"/>
<path d="M243.79 99.4852C243.532 99.4481 243.495 99.8556 243.716 99.9297C247.081 101.078 250.446 102.004 253.884 102.967C257.286 103.893 260.354 105.857 263.793 106.56C264.2 106.634 264.459 106.19 264.2 105.894C259.763 100.745 250.076 100.152 243.79 99.4852Z" fill="white"/>
<path d="M267.084 91.8173C261.316 88.7427 253.625 86.7054 247.118 88.15C246.933 88.1871 246.933 88.4834 247.118 88.5205C250.409 89.002 253.699 89.2984 256.953 90.0022C260.281 90.743 263.423 91.8543 266.788 92.4841C267.195 92.5211 267.49 92.0025 267.084 91.8173Z" fill="white"/>
<path d="M280.69 101.152C282.501 103.115 283.869 105.523 286.014 107.19C286.31 107.412 286.716 107.227 286.642 106.82C286.014 104.264 284.165 102.375 282.39 100.522C280.468 98.485 278.213 97.0404 275.735 95.7438C275.55 95.6698 275.366 95.892 275.513 96.0402C277.399 97.559 279.026 99.3741 280.69 101.152Z" fill="white"/>
<path d="M278.472 73.9626C271.077 70.1842 261.353 69.9619 253.256 70.5917C252.923 70.6287 252.923 71.1103 253.256 71.1103C261.723 71.8882 269.894 73.6292 278.287 74.6294C278.656 74.6664 278.767 74.1107 278.472 73.9626Z" fill="white"/>
<path d="M272.186 66.8133C279.396 68.0727 285.829 72.4438 293.002 73.4069C293.335 73.444 293.593 73.0365 293.261 72.8143C287.123 69.147 279.433 66.3317 272.26 66.4429C272.038 66.4799 271.964 66.8133 272.186 66.8133Z" fill="white"/>
<path d="M252.146 64.6648C254.697 64.4796 257.211 64.85 259.726 64.6648C259.984 64.6277 260.132 64.2573 259.874 64.1462C255.326 61.8866 249.151 63.8869 244.493 64.9611C244.271 64.9982 244.308 65.3686 244.53 65.3315C247.081 65.1093 249.595 64.85 252.146 64.6648Z" fill="white"/>
<path d="M236.581 48.6622C243.494 48.5881 250.556 49.0327 257.433 48.7363C257.803 48.7363 257.84 48.2177 257.507 48.1066C251.111 45.7729 242.94 46.1803 236.507 48.1807C236.248 48.2548 236.285 48.6622 236.581 48.6622Z" fill="white"/>
<path d="M23.7252 111.746C25.7587 109.931 26.8309 107.227 28.7905 105.264C30.75 103.301 33.0793 101.782 34.7061 99.5222C34.891 99.2629 34.5213 99.0036 34.2995 99.1148C31.5265 100.337 29.1232 102.3 26.9048 104.375C24.9453 106.227 22.6899 108.746 23.0966 111.598C23.1705 111.858 23.5403 111.895 23.7252 111.746Z" fill="white"/>
<path d="M40.9918 73.3328C44.7631 72.4068 48.4605 71.1473 52.2318 70.1842C56.6686 69.0359 61.2533 69.1099 65.6901 68.1468C66.0228 68.0727 66.0228 67.5541 65.6901 67.443C57.8887 65.3316 47.6101 69.0729 40.8439 72.8883C40.5482 73.0365 40.733 73.4069 40.9918 73.3328Z" fill="white"/>
<path d="M19.7322 75.6295C22.9489 74.8146 26.2025 73.7774 28.9385 71.8882C29.1973 71.703 29.1234 71.2214 28.7536 71.2584C25.3521 71.6289 22.1724 73.1106 19.4734 75.222C19.2885 75.3702 19.5104 75.7036 19.7322 75.6295Z" fill="white"/>
<path d="M64.1369 49.0326C67.9082 48.8104 71.6425 49.6994 75.4138 49.5142C75.7096 49.5142 75.8945 49.0697 75.5617 48.9215C68.9805 45.8099 59.4783 46.9582 53.3038 50.5514C53.1189 50.6625 53.2298 50.9218 53.4517 50.8848C56.9642 49.8476 60.5136 49.2549 64.1369 49.0326Z" fill="white"/>
<path d="M82.9935 109.302C77.7063 109.45 71.5687 111.524 67.3168 114.673C67.021 114.895 67.2798 115.34 67.6125 115.154C72.53 112.561 78.4088 112.524 83.1784 109.857C83.4002 109.709 83.2893 109.264 82.9935 109.302Z" fill="white"/>
<path d="M94.3443 33.3635C98.7071 34.1784 102.848 35.9935 107.285 36.2158C107.618 36.2158 107.692 35.8083 107.433 35.6231C100.26 30.1778 88.2067 29.8444 79.5919 30.6593C79.1852 30.6964 79.1852 31.252 79.5919 31.2891C84.5094 31.8077 89.4638 32.4374 94.3443 33.3635Z" fill="white"/>
<path d="M73.8979 21.769C78.8153 22.2135 84.2874 22.658 89.131 21.732C89.3898 21.6949 89.3898 21.2504 89.131 21.1763C84.3244 20.1391 78.5196 19.3982 73.787 21.1393C73.4542 21.2504 73.5281 21.732 73.8979 21.769Z" fill="white"/>
<path d="M120.484 22.1024C123.886 23.1396 127.14 24.399 130.282 26.066C133.203 27.6218 135.754 29.7703 139.045 30.6223C139.526 30.7334 139.784 30.1778 139.489 29.8444C135.274 25.1029 127.029 20.8059 120.595 21.5097C120.226 21.5467 120.115 22.0283 120.484 22.1024Z" fill="white"/>
<path d="M145.035 26.2883C147.881 28.3627 150.211 30.9927 152.984 33.1412C153.28 33.3635 153.575 32.956 153.464 32.6596C150.544 25.8808 143.038 22.3987 136.531 20.065C136.272 19.9909 136.124 20.3614 136.346 20.4725C139.304 22.2876 142.262 24.2509 145.035 26.2883Z" fill="white"/>
<path d="M166.22 30.1037C168.624 28.4738 170.028 25.2881 171.507 22.8803C173.171 20.1391 176.055 17.7313 177.164 14.7308C177.312 14.3234 176.869 13.99 176.499 14.0641C173.726 14.6938 171.988 17.9165 170.509 20.1391C168.697 22.9173 166.294 26.3623 165.703 29.6962C165.666 29.9925 165.961 30.2889 166.22 30.1037Z" fill="white"/>
<path d="M174.133 27.8441C174.059 28.1774 174.502 28.3256 174.65 28.0663C175.723 26.2512 177.534 25.0288 178.459 23.1396C178.57 22.8803 178.348 22.621 178.052 22.7321C176.018 23.6952 174.687 25.6956 174.133 27.8441Z" fill="white"/>
<path d="M190.438 30.363C197.684 26.5475 205.301 24.7324 212.806 21.769C213.139 21.6208 213.139 21.1022 212.732 21.1022C204.783 21.3615 196.242 24.9177 190.216 30.0296C189.994 30.2148 190.216 30.4741 190.438 30.363Z" fill="white"/>
<path d="M232.476 31.252C232.809 31.1409 232.735 30.6964 232.402 30.6593C226.413 30.0666 218.796 31.6965 213.657 34.8452C213.324 35.0304 213.546 35.5119 213.916 35.4379C216.837 34.9193 219.684 34.0673 222.568 33.4375C225.895 32.7337 229.297 32.4374 232.476 31.252Z" fill="white"/>
<path d="M226.191 40.698C227.892 40.2905 229.519 40.1053 231.072 39.2163C231.367 39.031 231.22 38.6606 230.924 38.6236C227.596 38.2531 223.233 39.3274 220.941 41.8463C220.83 41.9945 220.941 42.2538 221.126 42.1797C222.753 41.55 224.49 41.1054 226.191 40.698Z" fill="white"/>
<path d="M118.451 306.222C117.637 305.963 116.861 305.592 116.084 305.222C115.382 304.889 114.495 304.666 113.866 304.296C113.644 304.185 113.385 304.407 113.533 304.629C113.866 305.148 114.014 305.778 114.568 306.111C115.308 306.593 116.121 307 116.935 307.408C118.044 307.926 120.004 309.074 121.15 308.297C121.298 308.185 121.408 308 121.335 307.815C120.854 306.704 119.486 306.556 118.451 306.222Z" fill="white"/>
<path d="M61.9558 283.848C60.0701 282.292 58.5542 280.292 56.5576 278.847C56.4097 278.736 56.2249 278.921 56.2619 279.107C56.8165 281.626 58.7021 283.552 60.5508 285.256C62.5843 287.182 64.6178 288.738 67.3908 289.219C67.6866 289.256 67.8715 288.96 67.6866 288.701C66.0598 286.663 63.9893 285.515 61.9558 283.848Z" fill="white"/>
<path d="M175.426 306.074C173.911 306.63 172.838 307.778 171.84 309.037C170.731 310.482 168.808 312.408 169.03 314.372C169.067 314.594 169.252 314.853 169.511 314.742C170.99 314.223 171.692 312.631 172.506 311.371C173.541 309.741 174.872 308.26 175.796 306.556C175.944 306.333 175.722 305.963 175.426 306.074Z" fill="white"/>
<path d="M154.943 311.112C153.243 309.964 151.616 308.815 149.878 307.741C149.693 307.63 149.434 307.852 149.545 308.074C150.617 309.741 151.838 310.89 153.427 312.112C155.128 313.409 156.644 314.668 158.789 315.075C159.01 315.112 159.306 314.853 159.121 314.631C157.975 313.038 156.496 312.186 154.943 311.112Z" fill="white"/>
<path d="M29.3452 240.545C29.2713 240.36 29.0125 240.434 28.9385 240.582C27.8663 244.805 29.3822 252.769 33.5232 254.992C33.782 255.14 34.1147 254.918 34.0038 254.621C33.2274 252.176 31.9703 249.917 31.2308 247.472C30.5284 245.175 30.3435 242.768 29.3452 240.545Z" fill="white"/>
<path d="M17.6246 201.465C17.5877 201.279 17.3289 201.242 17.218 201.427C16.4416 202.761 16.3676 204.243 16.2937 205.761C16.2197 207.243 15.9239 209.429 17.144 210.54C17.3289 210.725 17.5876 210.651 17.7355 210.466C18.5489 209.318 18.0313 207.725 17.9574 206.391C17.8835 204.724 18.0313 203.094 17.6246 201.465Z" fill="white"/>
<path d="M261.464 241.249C262.795 239.915 263.497 238.359 264.311 236.655C265.087 235.026 266.011 233.359 266.048 231.543C266.048 231.358 265.79 231.21 265.642 231.395C264.495 232.729 263.83 234.396 263.017 235.915C262.129 237.581 261.242 239.063 260.946 240.952C260.909 241.249 261.205 241.508 261.464 241.249Z" fill="white"/>
<path d="M272.667 180.054C272.482 180.017 272.297 180.202 272.408 180.387C272.888 181.202 273.369 181.943 273.702 182.832C273.998 183.573 273.998 184.536 274.663 185.092C274.811 185.203 274.996 185.24 275.144 185.092C275.92 184.388 275.514 183.091 275.07 182.276C274.515 181.276 273.813 180.313 272.667 180.054Z" fill="white"/>
<path d="M292.928 150.308C293.593 152.308 293.852 154.457 293.963 156.568C294.037 158.569 293.667 160.569 294.333 162.495C294.444 162.792 294.814 162.792 294.924 162.495C296.218 158.902 295.442 153.272 293.261 150.16C293.15 150.012 292.854 150.086 292.928 150.308Z" fill="white"/>
<path d="M36.1854 122.081C36.1114 122.267 36.3703 122.378 36.5181 122.267C38.5887 120.489 40.7701 118.785 43.1364 117.451C45.3179 116.229 47.6841 115.34 49.8286 114.043C50.0874 113.895 49.9765 113.45 49.6807 113.45C44.5414 113.339 37.8492 117.118 36.1854 122.081Z" fill="white"/>
<path d="M83.9549 113.45C83.6221 113.673 83.807 114.191 84.2137 114.117C86.9867 113.524 89.6488 112.71 92.4957 112.413C95.0099 112.154 97.5241 112.413 100.075 112.191C100.371 112.154 100.556 111.709 100.26 111.561C95.4166 109.19 88.2808 110.413 83.9549 113.45Z" fill="white"/>
<path d="M233.697 110.857C230.517 108.598 225.378 109.413 222.05 110.932C221.828 111.043 221.976 111.376 222.198 111.339C224.157 111.006 226.117 110.932 228.077 110.969C229.925 111.006 231.663 111.561 233.512 111.45C233.844 111.376 233.955 111.043 233.697 110.857Z" fill="white"/>
<path d="M243.938 105.56C240.167 102.708 233.549 103.004 229.334 104.412C229.075 104.486 229.112 104.931 229.408 104.893C232.181 104.597 235.102 104.968 237.875 105.375C239.945 105.671 241.794 106.412 243.901 106.042C244.123 106.005 244.086 105.671 243.938 105.56Z" fill="white"/>
<path d="M249.484 94.6696C249.743 94.7067 249.78 94.3733 249.669 94.2251C247.044 90.8171 239.908 91.3357 236.507 93.1138C236.359 93.1879 236.433 93.4472 236.581 93.4472C238.614 93.3361 240.611 93.1508 242.644 93.2249C245.048 93.299 247.118 94.4474 249.484 94.6696Z" fill="white"/>
<path d="M227.374 47.9584C228.742 46.8471 230.406 45.921 231.959 45.1431C233.216 44.5134 235.028 44.2541 235.767 42.9576C235.915 42.7353 235.767 42.439 235.508 42.3649C233.918 41.8093 231.959 43.2169 230.628 43.9578C229.001 44.8468 227.744 45.921 226.745 47.5139C226.524 47.8843 227.041 48.2177 227.374 47.9584Z" fill="white"/>
<path d="M78.1129 42.9205C78.002 43.1428 78.0759 43.4391 78.3347 43.5132C79.4439 43.8096 80.4422 43.328 81.5884 43.328C82.9564 43.291 84.2875 43.8096 85.6555 43.7355C85.8034 43.7355 85.9513 43.5503 85.8403 43.4021C84.916 42.1797 83.511 41.7722 82.069 41.624C80.664 41.4388 78.7784 41.5129 78.1129 42.9205Z" fill="white"/>
<path d="M190.623 153.827C177.09 144.863 159.713 153.198 159.713 167.755C159.713 176.016 164.963 178.387 164.963 184.425C164.963 198.39 146.513 197.538 145.182 185.277C144.554 179.35 150.285 176.461 149.656 168.533C149.323 164.644 147.142 160.977 144.628 158.235C135.939 148.715 121.815 152.457 113.644 159.791C100.593 171.46 101.443 194.797 108.579 208.28C127.62 244.249 192.028 237.47 204.488 202.798C210.847 185.092 205.449 163.681 190.623 153.827Z" fill="#E40000"/>
<path d="M133.055 70.4065C132.02 69.184 130.43 68.5913 128.877 68.9618C126.326 69.5174 125.402 72.7772 125.439 75.0368C125.476 78.0744 127.694 80.7044 130.837 79.2227C131.391 78.9634 131.872 78.5189 132.316 78.0744C132.39 78.0003 132.427 77.9262 132.501 77.8521C132.907 77.6298 133.314 77.3705 133.684 77.0001C134.127 76.5556 134.423 75.9629 134.682 75.4073C135.126 74.4441 135.163 73.8144 134.719 72.8143C134.312 71.9623 133.684 71.1103 133.055 70.4065Z" fill="#231F20"/>
<path d="M177.498 71.1843C176.093 68.1839 172.432 68.258 170.51 70.6287C169.918 71.3696 169.363 72.1475 168.957 73.0365C168.291 74.5182 169.326 76.2592 170.436 77.2964C170.731 77.5557 171.027 77.7409 171.323 77.8891C171.36 77.9262 171.397 78.0002 171.471 78.0373C172.062 78.667 172.765 79.1486 173.578 79.4449C175.131 80.0747 176.61 79.2597 177.535 78.0373C178.939 76.2222 178.385 73.1106 177.498 71.1843Z" fill="#231F20"/>
<path d="M123.442 272.476C132.945 267.216 142.447 262.882 153.465 262.548C164.705 262.178 174.798 266.623 185.188 270.291C185.484 270.402 185.779 269.957 185.521 269.735C167.552 255.14 140.413 257.474 123.368 272.328C123.258 272.402 123.368 272.513 123.442 272.476Z" fill="#231F20"/>
<path d="M64.8766 121.266C42.6186 128.453 33.2644 152.271 32.0443 173.83C32.0073 174.238 32.6359 174.312 32.7468 173.942C35.4828 163.903 37.8491 153.568 42.7296 144.307C47.9429 134.38 56.2988 128.268 65.0985 121.748C65.2834 121.563 65.1724 121.155 64.8766 121.266Z" fill="#231F20"/>
<path d="M239.76 111.821C262.055 120.933 267.86 146.826 269.93 168.682C269.967 168.941 270.374 169.052 270.411 168.756C272.038 156.902 268.895 144.715 264.273 133.824C260.132 124.045 251.665 111.783 239.797 111.561C239.649 111.561 239.649 111.746 239.76 111.821Z" fill="#231F20"/>
</svg>
