<svg width="201" height="412" viewBox="0 0 201 412" fill="none" xmlns="http://www.w3.org/2000/svg">
<g clip-path="url(#clip0)">
<path d="M90.3408 202.473C89.1094 212.449 87.766 234.566 87.5421 244.654C87.3462 253.197 88.7735 261.824 89.7811 270.283C90.9285 280.175 90.6487 289.814 90.4248 299.734C90.005 318.253 89.7811 337.278 91.3203 355.74C92.076 364.789 93.4193 373.782 93.8951 382.859C94.203 388.563 91.5722 396.628 94.3429 401.827C95.8542 406.099 103.83 407.672 104.642 391.767C104.922 386.427 104.754 381.06 104.25 375.693C105.314 344.921 105.538 314.234 104.026 283.35C103.215 266.854 101.899 250.443 102.011 233.947C102.067 225.629 102.879 217.395 103.467 209.105C103.55 207.785 103.802 206.408 103.998 205.031C105.118 197.584 91.3763 194.183 90.3408 202.473Z" fill="#E40000"/>
<path d="M191.26 271.042C182.053 272.784 175.084 279.388 166.688 283.463C161.007 286.217 153.534 290.769 147.741 293.27C136.603 298.047 136.994 296.53 136.155 284.643C134.951 267.894 136.379 250.921 136.435 234.172C136.463 222.903 135.371 214.107 134.839 203.035C134.532 196.993 120.874 197.303 121.07 205.059C121.21 210.791 121.966 216.58 122.329 222.229C123.029 233.919 123.505 245.638 123.925 257.356C124.288 267.473 124.12 277.617 124.093 287.762C124.093 293.073 123.085 300.83 127.339 305.017C136.435 313.953 151.463 305.86 160.671 301.307C168.032 297.654 174.832 292.933 182.165 289.252C188.882 285.879 192.828 282.76 194.927 280.09C199.684 274.077 195.011 270.339 191.26 271.042Z" fill="#E40000"/>
<path d="M198.901 273.599C196.662 269.609 193.22 268.316 189.777 269.243C188.21 269.665 184.04 270.929 184.684 273.431C187.65 276.859 190.953 282.479 184.6 287.987C183.984 288.521 184.936 291.05 185.215 291.865C189.749 305.438 195.962 304.258 198.705 297.598C201.588 290.685 201.867 278.798 198.901 273.599Z" fill="#231F20"/>
<path d="M103.607 398.708C98.7368 402.586 94.5388 398.54 93.1395 397.191C92.9156 396.994 74.7803 402.052 74.7803 407.111C74.7803 413.967 97.7013 412 102.291 410.623C105.929 409.527 107.133 402.811 103.607 398.708Z" fill="#231F20"/>
<path d="M187.482 290.488C188.602 290.32 189.721 289.898 190.841 289.645C191.848 289.42 192.996 289.42 193.64 288.549C193.752 288.381 193.612 288.184 193.472 288.128C192.436 287.706 191.149 288.324 190.113 288.577C189.078 288.83 187.902 289.139 187.091 289.87C186.755 290.123 187.119 290.544 187.482 290.488Z" fill="white"/>
<path d="M189.805 294.113C190.589 293.889 191.4 293.72 192.184 293.551C193.052 293.355 193.863 293.355 194.535 292.708C194.703 292.54 194.703 292.174 194.451 292.062C192.94 291.359 190.757 292.371 189.357 293.074C188.798 293.383 189.19 294.282 189.805 294.113Z" fill="white"/>
<path d="M89.809 400.141C89.6971 400.9 90.1449 401.321 90.4807 401.996C90.9005 402.783 91.0125 403.738 91.5722 404.441C91.8521 404.778 92.4957 404.609 92.5797 404.16C92.7476 403.232 92.2159 402.333 91.7961 401.546C91.4043 400.816 90.9565 399.916 90.0329 399.972C89.949 399.944 89.837 400.029 89.809 400.141Z" fill="white"/>
<path d="M85.583 401.94C85.583 402.53 85.9189 403.036 86.0868 403.598C86.2827 404.272 86.1427 404.834 86.7025 405.34C86.8144 405.453 87.0103 405.453 87.1223 405.34C87.682 404.806 87.5421 404.244 87.3742 403.542C87.2342 402.867 86.9544 401.884 86.2827 401.575C85.9468 401.378 85.583 401.575 85.583 401.94Z" fill="white"/>
<path d="M88.3539 303.162C89.2774 304.483 90.6488 305.129 92.16 305.579C93.5874 306 96.0502 306.59 97.1976 305.298C97.3376 305.129 97.3096 304.904 97.1417 304.764C96.0222 304.005 94.399 304.342 93.1116 304.117C91.6563 303.865 90.3129 303.218 89.0255 302.488C88.6057 302.291 88.074 302.769 88.3539 303.162Z" fill="#231F20"/>
<path d="M86.8704 308.305C88.6615 310.525 93.2513 312.407 95.8261 310.581C96.05 310.44 96.05 310.019 95.7421 309.963C94.2868 309.653 92.7756 309.766 91.3203 309.401C89.865 309.035 88.6056 308.192 87.1223 307.911C86.8704 307.827 86.7305 308.108 86.8704 308.305Z" fill="#231F20"/>
<path d="M127.087 308.811C128.794 309.035 130.502 307.883 131.733 306.843C132.992 305.776 134.504 304.118 133.972 302.403C133.888 302.179 133.58 301.954 133.328 302.15C132.125 303.078 131.593 304.539 130.474 305.607C129.382 306.647 127.927 307.293 126.891 308.389C126.751 308.558 126.863 308.782 127.087 308.811Z" fill="#231F20"/>
<path d="M131.929 311.986C133.3 311.649 134.532 310.637 135.539 309.654C136.519 308.726 137.666 307.293 137.302 305.86C137.246 305.663 136.995 305.523 136.799 305.663C135.791 306.422 135.259 307.658 134.448 308.586C133.552 309.597 132.377 310.272 131.481 311.255C131.229 311.593 131.509 312.098 131.929 311.986Z" fill="#231F20"/>
<path d="M191.54 85.3452C192.744 84.3055 192.576 82.3664 191.54 81.2986C182.949 72.3341 170.243 74.7509 160.279 79.6125C157.621 80.9051 154.822 82.7318 152.275 84.8956C135.819 74.6103 115.641 71.6035 100.416 72.6713C100.024 72.6994 99.6604 72.7556 99.2686 72.7837C101.815 68.5966 104.558 64.5499 107.329 60.5033C108.504 58.7891 106.909 56.7657 105.118 56.6533C88.6896 55.6136 72.9891 68.6247 67.0279 83.2938C66.972 83.4343 66.944 83.5467 66.888 83.6872C44.7786 98.0472 32.4645 124.547 36.5225 153.632C39.1813 172.657 47.2974 188.141 63.3897 198.82C111.974 230.997 178.667 204.384 181.689 147.197C182.781 126.402 177.435 110.918 168.703 99.5928C169.487 99.0027 170.243 98.4687 170.998 98.0191C177.911 93.7476 185.327 90.7689 191.54 85.3452Z" fill="#231F20"/>
<path d="M142.284 135.619C133.468 122.411 116.2 114.009 100.808 112.913C81.3851 111.536 63.5856 123.507 53.5944 139.582C49.0046 146.972 49.2005 148.855 52.5869 155.431C60.1153 170.044 81.609 175.299 96.274 176.114C109.875 176.873 127.451 174.793 139.541 166.615C155.802 155.6 149.001 145.68 142.284 135.619Z" fill="white"/>
<path d="M98.9607 169.032C90.4248 169.06 82.0008 167.374 74.0526 164.283C69.3788 162.484 65.6006 159.618 61.9344 156.583C56.0012 151.693 53.9022 147.169 59.1077 140.593C63.8654 134.551 68.8471 128.79 75.9557 125.165C81.6369 122.271 89.6411 120.051 95.9101 119.489C106.013 118.59 116.2 122.215 124.652 127.526C129.942 130.87 133.972 135.226 137.19 140.144C146.314 154.11 139.849 161.67 129.662 164.648C119.503 167.683 108.448 169.004 98.9607 169.032Z" fill="#E40000"/>
<path d="M65.7684 174.4C80.8532 188.394 111.107 188.226 128.235 178.756C128.71 178.503 128.514 177.632 127.955 177.688C118.299 178.699 108.812 180.891 99.0725 181.088C87.1502 181.313 77.215 176.873 66.0203 173.978C65.7964 173.95 65.6005 174.231 65.7684 174.4Z" fill="white"/>
<path d="M114.745 137.024C112.394 131.516 107.329 127.723 101.759 126.346C85.1634 122.271 73.1291 138.486 79.2022 152.059C83.4842 161.642 94.259 165.098 103.635 162.541C114.325 159.59 119.027 147.113 114.745 137.024Z" fill="#231F20"/>
<path d="M108.728 140.425C110.659 140.621 112.394 139.722 114.129 138.963C115.501 138.373 118.187 137.137 117.012 135.141C115.865 133.202 113.486 134.86 112.17 135.591C110.519 136.462 108.84 137.165 107.832 138.851C107.357 139.582 107.972 140.34 108.728 140.425Z" fill="white"/>
<path d="M111.331 145.792C113.766 146.635 118.551 147.338 120.175 144.809C120.482 144.303 120.426 143.46 119.951 143.094C118.775 142.111 117.768 142.251 116.284 142.42C114.605 142.617 112.926 142.729 111.303 143.319C110.127 143.741 110.099 145.371 111.331 145.792Z" fill="white"/>
<path d="M96.9736 142.279C95.4064 141.043 93.5873 140.987 91.8241 141.802C91.5722 141.914 91.2923 142.083 91.0405 142.251C88.8015 143.066 87.4302 145.427 87.4582 147.815C87.5142 150.878 89.921 153.211 92.9436 153.211C95.7142 153.239 98.401 151.047 98.9047 148.321C99.2406 146.354 98.6248 143.6 96.9736 142.279Z" fill="white"/>
<path d="M145.81 133.765C147.378 135.029 149.477 134.495 151.156 133.765C152.695 133.09 155.466 131.629 154.906 129.493C153.983 125.952 147.014 130.168 145.783 131.741C145.391 132.303 145.167 133.231 145.81 133.765Z" fill="white"/>
<path d="M139.429 124.407C139.709 124.463 140.017 124.519 140.297 124.547C139.905 124.463 140.045 124.463 140.773 124.603C141.081 124.575 141.388 124.519 141.696 124.463C142.704 124.294 143.459 123.507 144.243 122.889C144.943 122.327 145.838 120.978 145.698 119.995C145.614 119.433 145.726 118.786 145.39 118.281C144.971 117.662 144.355 117.578 143.655 117.55C143.711 117.55 143.795 117.578 143.851 117.578C143.403 117.466 142.956 117.466 142.508 117.578C141.976 117.718 141.5 117.943 141.025 118.196C140.297 118.59 139.261 119.629 138.842 120.332C138.282 121.315 138.282 122.046 138.254 122.917C138.282 123.536 138.758 124.266 139.429 124.407Z" fill="white"/>
<path d="M130.446 116.819C132.321 117.465 134.112 115.807 135.148 114.459C136.379 112.829 136.855 110.918 135.483 109.204C135.651 109.597 135.819 110.018 135.987 110.412C135.987 110.328 135.959 110.271 135.959 110.187C135.847 109.204 135.064 108.389 134.028 108.698C133.972 108.726 133.888 108.726 133.832 108.754C134.14 108.754 134.448 108.754 134.728 108.754C130.95 107.461 126.164 115.33 130.446 116.819Z" fill="white"/>
<path d="M118.999 111.761C123.057 112.997 126.22 106.534 125.044 103.33C124.708 102.431 123.925 101.925 122.945 102.122C120.622 102.628 119.559 104.483 118.439 106.422C117.656 107.742 116.956 111.143 118.999 111.761Z" fill="white"/>
<path d="M107.861 108.417C109.988 107.995 110.743 105.606 111.331 103.808C111.891 102.094 112.143 99.2274 110.435 98.0752C108.336 96.6701 106.573 99.958 106.125 101.504C105.65 103.134 105.09 105.466 105.566 107.124C105.874 108.136 106.853 108.613 107.861 108.417Z" fill="white"/>
<path d="M95.9102 107.546C98.1491 105.494 98.1491 101.363 96.8897 98.806C96.274 97.5414 94.6228 97.0075 93.3634 97.3728C91.9361 97.7662 91.1805 99.0027 91.0685 100.408C90.9846 101.419 91.2644 102.431 91.3484 103.443C91.4603 104.764 91.6003 105.916 92.2999 107.096C93.0556 108.417 94.7907 108.529 95.9102 107.546Z" fill="white"/>
<path d="M81.7769 108.979C82.3646 107.208 82.2807 104.707 81.1612 103.105C80.4056 102.038 79.2581 101.419 77.9147 101.785C76.6553 102.122 75.8437 103.274 75.8157 104.567C75.7878 106.506 76.8233 108.529 77.9707 109.99C79.1462 111.424 81.3011 110.44 81.7769 108.979Z" fill="white"/>
<path d="M68.8471 116.229C70.8341 114.009 68.931 109.934 66.888 108.445C64.761 106.871 61.9903 109.457 62.634 111.733C62.8299 112.407 63.1938 112.913 63.5576 113.475C63.9494 114.093 64.2853 114.74 64.817 115.302C65.6846 116.257 67.6716 117.522 68.8471 116.229Z" fill="white"/>
<path d="M59.8914 123.226C60.1992 120.866 58.7439 118.196 56.7569 116.932C55.6374 116.201 54.0702 116.482 53.1466 117.409C51.9152 118.646 52.1111 120.388 53.1466 121.653C53.3425 121.877 53.5664 122.074 53.7623 122.299C53.9862 122.552 53.9862 122.552 53.7623 122.271C53.9302 122.468 54.0702 122.692 54.2101 122.917C54.8258 123.873 55.5814 124.491 56.477 125.165C57.0927 125.643 58.1282 125.531 58.7439 125.165C59.5276 124.744 59.7794 124.041 59.8914 123.226Z" fill="white"/>
<path d="M51.0475 132.781C51.1874 131.039 50.3758 129.521 49.3123 128.2C48.6127 127.329 47.1574 127.273 46.2618 127.807C45.0584 128.509 44.6946 130.055 45.3662 131.263C46.0659 132.528 47.0174 133.652 48.2768 134.383C49.5362 135.141 50.9356 134.158 51.0475 132.781Z" fill="white"/>
<path d="M151.66 143.066C153.451 144.078 156.501 142.926 157.145 141.015C157.453 140.116 156.809 139.188 155.97 138.935C154.906 138.626 154.011 139.076 153.087 139.554C152.135 140.031 151.408 140.565 151.044 141.605C150.876 142.111 151.156 142.785 151.66 143.066Z" fill="white"/>
<path d="M130.838 177.856C130.977 177.969 131.145 178.053 131.313 178.109C130.754 177.94 131.649 178.306 131.677 178.306C132.237 178.446 132.825 178.278 133.356 178.137C134.336 177.884 135.455 177.294 135.735 176.254C135.875 175.692 135.567 175.074 134.98 174.934C134 174.709 133.16 175.215 132.293 175.608C131.873 175.805 131.509 176.03 131.145 176.311C131.005 176.451 130.894 176.648 130.838 176.845C130.921 176.423 130.698 177.069 130.642 177.154C130.502 177.407 130.586 177.716 130.838 177.856Z" fill="white"/>
<path d="M161.035 90.3755C164.17 89.3076 166.912 87.0314 170.075 85.823C173.713 84.446 177.631 83.7154 181.409 82.9285C181.745 82.8723 181.745 82.3103 181.409 82.2541C177.239 81.5796 173.461 82.4227 169.515 83.7997C166.408 84.8956 161.987 86.7503 160.643 90.0101C160.559 90.2069 160.839 90.4598 161.035 90.3755Z" fill="#E40000"/>
<path d="M164.142 92.5112C166.045 92.2021 167.892 91.4152 169.795 90.9937C171.642 90.6002 173.461 90.6284 175.14 89.701C175.336 89.5886 175.252 89.3357 175.084 89.2795C172.985 88.5488 170.802 89.1109 168.703 89.6167C166.968 90.0382 165.009 90.7689 164.002 92.3426C163.946 92.4269 164.058 92.5112 164.142 92.5112Z" fill="#E40000"/>
<path d="M80.7692 76.9991C83.5119 74.5262 85.527 71.2945 88.2417 68.7372C90.8724 66.2361 93.9509 64.4095 96.1059 61.4307C96.2738 61.1778 95.994 60.8687 95.7141 60.9249C91.768 61.9928 88.6615 64.8029 85.8068 67.6131C83.316 70.058 80.6573 73.1773 80.3494 76.8024C80.3215 77.0553 80.6293 77.1396 80.7692 76.9991Z" fill="#E40000"/>
<path d="M86.7307 74.1327C87.2344 73.8797 87.6542 73.7954 88.13 73.4863C88.6618 73.121 89.1375 72.6995 89.6413 72.306C90.6488 71.4911 91.8243 70.7604 92.1321 69.4396C92.1881 69.2148 92.0202 69.0181 91.7963 68.99C90.3969 68.8776 89.5573 69.8612 88.6058 70.7323C88.158 71.1539 87.6542 71.6316 87.2904 72.1655C86.8986 72.7276 86.7307 73.2334 86.4508 73.8235C86.3109 74.0203 86.5068 74.2451 86.7307 74.1327Z" fill="#E40000"/>
<path d="M141.388 211.691C141.836 228.692 140.997 245.694 141.332 262.695C141.332 262.92 141.696 262.976 141.724 262.752C143.32 253.787 142.256 244.514 142.564 235.465C142.816 227.709 143.739 219.194 141.668 211.635C141.64 211.466 141.388 211.522 141.388 211.691Z" fill="#231F20"/>
<path d="M40.2727 180.582C44.1349 195.926 63.3617 211.325 79.1182 211.466C79.37 211.466 79.398 211.101 79.1741 211.044C71.7017 208.599 64.817 206.098 58.3521 201.518C50.4319 195.926 45.87 188.282 40.4406 180.526C40.3847 180.442 40.2447 180.47 40.2727 180.582Z" fill="#231F20"/>
<path d="M182.249 114.459C191.792 141.015 188.014 166.475 170.998 189.097C170.858 189.294 171.166 189.49 171.306 189.35C189.218 170.887 196.214 137.221 182.613 114.318C182.501 114.121 182.165 114.234 182.249 114.459Z" fill="#231F20"/>
<path d="M165.429 194.296C166.604 193.734 169.207 192.525 168.899 190.867C168.871 190.727 168.731 190.671 168.592 190.699C167.864 190.839 167.388 191.514 166.884 191.991C166.241 192.553 165.569 193.115 164.953 193.706C164.589 193.987 165.037 194.464 165.429 194.296Z" fill="#231F20"/>
<path d="M37.4741 109.738C40.3567 104.454 43.6031 99.621 47.6612 95.1809C51.3554 91.1623 55.8053 87.9306 59.4436 83.8559C59.6115 83.6592 59.3876 83.35 59.1637 83.4905C49.8442 88.8018 39.769 98.8622 37.1662 109.597C37.1382 109.766 37.3901 109.906 37.4741 109.738Z" fill="#231F20"/>
<path d="M41.0564 95.9677C42.2598 94.394 43.5472 92.9327 44.9465 91.5557C46.3459 90.1506 47.9131 88.9142 49.1725 87.3686C49.3404 87.1719 49.2005 86.8065 48.8927 86.8908C44.8626 87.9868 42.3158 92.1459 40.5247 95.6586C40.3287 96.0239 40.8045 96.2768 41.0564 95.9677Z" fill="#231F20"/>
<path d="M182.697 298.581C182.921 301.082 184.208 303.415 185.747 305.354C186.895 306.815 189.749 309.063 191.681 307.967C191.932 307.827 191.904 307.461 191.681 307.321C190.841 306.759 189.749 306.787 188.826 306.337C187.818 305.832 187.035 304.989 186.307 304.145C184.88 302.459 184.18 300.324 183.005 298.497C182.949 298.356 182.669 298.385 182.697 298.581Z" fill="#231F20"/>
<path d="M109.987 342.252C109.679 359.871 108.84 377.828 110.239 395.42C110.267 395.645 110.575 395.645 110.603 395.42C111.974 377.828 110.575 359.871 110.239 342.252C110.211 342.111 110.015 342.111 109.987 342.252Z" fill="#231F20"/>
<path d="M140.465 344.275C147.321 347.001 155.55 345.005 162.714 344.275C170.215 343.516 178.667 344.247 185.551 340.79C186.195 340.453 186.167 339.441 185.551 339.104C178.667 335.366 170.215 337.024 162.714 337.783C155.466 338.514 146.51 338.57 140.241 342.617C139.569 343.066 139.765 343.966 140.465 344.275Z" fill="#E40000"/>
<path d="M147.965 373.079C150.512 376.929 156.837 375.327 160.783 375.074C165.793 374.737 171.67 374.99 175.728 371.618C176.148 371.253 175.952 370.606 175.56 370.353C171.25 367.459 165.653 368.78 160.783 369.257C156.837 369.651 150.344 368.695 147.965 372.489C147.853 372.686 147.853 372.911 147.965 373.079Z" fill="#E40000"/>
<path d="M160.755 326.599C155.801 334.776 157.593 346.523 158.432 355.6C158.964 361.473 159.58 367.346 159.86 373.248C160.111 378.306 159.552 382.83 161.063 387.72C161.259 388.367 162.126 388.479 162.49 387.917C167.612 379.627 164.757 367.768 163.834 358.579C162.77 348.125 163.722 337.081 162.098 326.796C161.959 326.121 161.035 326.121 160.755 326.599Z" fill="#231F20"/>
<path d="M144.803 360.153C151.632 361.923 158.964 360.574 165.933 360.209C173.321 359.815 181.325 360.658 187.678 356.359C188.406 355.853 188.238 354.897 187.454 354.588C180.626 351.975 173.069 353.577 165.933 354.083C158.74 354.588 150.736 354.532 144.607 358.747C144.103 359.085 144.131 359.956 144.803 360.153Z" fill="#E40000"/>
<path d="M195.179 36.3917C189.19 26.1627 173.685 47.5762 170.243 50.0211C165.289 53.5619 162.435 48.1945 158.852 46.0868C156.753 44.8503 154.542 45.3 152.303 45.6653C147.098 46.5365 143.823 51.3138 141.668 56.1192C138.226 63.7909 139.849 61.9924 145.083 60.1939C147.77 59.2666 150.428 58.3392 153.367 57.9739C158.656 57.3275 161.455 61.5147 165.009 64.4373C169.851 68.4277 176.26 65.73 180.822 62.8074C186.951 58.9012 200.245 45.0471 195.179 36.3917ZM182.921 57.2994C180.57 59.2104 176.764 62.0767 173.517 61.0932C173.349 61.037 173.237 60.8403 173.349 60.6716C175.224 57.9739 178.807 56.5407 181.074 54.0677C183.369 51.5386 185.272 48.1383 188.182 46.2835C188.826 45.8901 189.638 46.3959 189.638 47.1266C189.666 51.2857 185.887 54.8546 182.921 57.2994ZM192.884 42.4617C192.548 43.6139 191.737 44.4288 190.645 44.8222C189.945 45.0752 189.386 44.4288 189.33 43.8106C189.218 42.9113 189.498 41.984 189.973 41.2252C190.925 39.7077 193.388 40.6632 192.884 42.4617Z" fill="#231F20"/>
<path d="M86.2267 48.3913C84.1557 42.6866 79.0621 37.3192 72.5692 38.6681C69.9105 39.2301 68.0634 40.0732 65.6845 41.4783C60.8428 44.3727 57.9322 38.6681 58.296 34.1718C58.5759 30.8277 58.1841 26.3033 55.5254 23.8022C52.5588 21.0202 48.9485 20.0647 45.2823 18.4629C39.9088 16.1305 37.9777 10.9035 35.5149 6.07003C33.8357 2.69782 29.2459 -3.28786 25.7756 2.19198C21.4097 9.16122 19.8144 18.9687 24.0684 26.2752C26.0554 29.7036 30.0295 31.193 33.6118 32.0642C40.9443 33.8346 42.3437 36.2794 42.6515 43.4173C42.9034 49.2906 44.7505 59.2386 52.3629 58.6484C55.4414 58.4236 58.436 55.6697 60.7029 53.8711C62.9418 52.0726 65.1808 50.3022 67.6716 48.869C72.2334 46.1994 78.3065 48.5599 83.0642 50.8081C87.626 52.9719 88.3537 54.2084 86.2267 48.3913ZM36.6344 29.7879C32.8562 30.7153 29.078 27.8489 26.923 24.8701C25.0199 22.2285 22.4452 17.0578 24.6561 13.9666C24.796 13.798 25.0199 13.7699 25.1319 13.9666C25.9715 15.2031 25.9995 16.6363 26.5312 17.9852C27.2309 19.7556 28.1544 21.4979 29.4698 22.903C31.7087 25.2916 34.7033 26.5843 36.8303 29.0854C37.0262 29.3102 36.9702 29.7036 36.6344 29.7879ZM59.0797 51.1172C58.324 53.1124 56.309 54.3489 54.266 54.7142C52.6427 54.9952 50.2359 55.2481 49.0045 53.8711C48.7806 53.6182 48.8925 53.3091 49.1724 53.1967C50.9635 52.5223 52.8387 52.1569 54.6018 51.2858C55.8892 50.6675 57.2885 50.3303 58.7158 50.5551C58.9957 50.6113 59.1636 50.9205 59.0797 51.1172Z" fill="#231F20"/>
<path d="M31.9328 186.455C30.8693 177.856 20.7661 175.777 26.1115 167.178C28.7143 162.99 28.6024 162.653 23.9286 164.508C21.2419 165.548 19.2548 167.543 17.4357 170.213C13.1817 176.451 20.5702 181.425 14.609 188.451C11.0267 192.666 -5.98913 203.878 2.127 211.044C9.01171 217.114 23.2569 205.003 27.4269 200.534C31.1771 196.544 32.6045 191.71 31.9328 186.455ZM8.53594 208.74C8.22809 208.768 8.06017 208.347 8.28406 208.15C11.3626 205.368 15.1128 203.485 18.2753 200.787C20.934 198.511 23.3409 196.066 26.1395 193.987C26.3914 193.818 26.6993 194.099 26.6433 194.38C24.6842 201.293 15.7005 208.15 8.53594 208.74ZM27.6228 192.834C27.1471 193.059 26.7273 192.694 26.8112 192.216C26.8952 191.654 27.203 190.895 27.5389 190.446C27.8467 190.024 28.4904 190.052 28.6303 190.586C28.8542 191.373 28.3785 192.497 27.6228 192.834Z" fill="#231F20"/>
<path d="M195.571 204.637C196.298 199.466 192.912 194.436 188.994 190.755C184.74 186.736 185.551 187.523 184.432 193.93C182.781 203.485 173.321 208.936 167.836 217.142C165.037 221.301 166.94 227.118 171.474 228.861C182.361 232.992 172.258 244.317 171.698 251.707C171.334 256.541 175.868 260.335 180.346 259.773C185.495 259.126 189.386 253.506 192.016 249.572C195.794 243.895 195.906 238.612 192.8 232.626C189.609 226.444 187.426 222.51 191.205 215.456C193.192 211.803 195.011 208.796 195.571 204.637ZM175.196 217.479C173.797 219.278 172.454 221.47 170.439 222.622C170.271 222.706 170.047 222.622 169.991 222.453C168.731 217.058 174.189 212.084 178.471 210.145C179.142 209.836 180.094 210.51 179.562 211.241C178.135 213.377 176.792 215.428 175.196 217.479ZM192.352 240.382C192.828 240.467 192.912 241.169 192.856 241.534C192.772 242.125 192.408 242.799 191.848 243.052C191.568 243.192 191.261 243.136 191.093 242.855C190.533 242.012 191.121 240.129 192.352 240.382ZM190.141 244.457C190.421 244.232 190.785 244.457 190.729 244.794C190.029 248.476 187.958 251.033 185.076 253.393C183.424 254.742 179.31 257.187 177.463 254.967C177.379 254.883 177.379 254.77 177.463 254.658C178.107 253.843 179.254 253.365 180.178 252.916C181.577 252.213 182.893 251.314 184.04 250.246C186.111 248.279 187.958 246.256 190.141 244.457Z" fill="#231F20"/>
<path d="M70.9459 257.637C72.5132 249.853 74.0245 241.759 71.9535 234.2C71.0859 231.053 68.0633 228.804 65.1247 231.306C63.3056 232.879 63.1377 236.111 62.9977 238.275C62.9697 238.696 62.9697 239.118 62.9697 239.539C61.5704 237.179 59.8072 235.099 57.8482 233.694C55.2454 231.839 52.3348 232.514 51.8031 235.858C51.1314 240.073 52.5307 244.204 54.8256 247.689C57.6523 251.932 61.2346 255.557 64.593 259.379C70.0783 265.646 69.3787 265.421 70.9459 257.637Z" fill="#E40000"/>
</g>
<defs>
<clipPath id="clip0">
<rect width="201" height="412" fill="white"/>
</clipPath>
</defs>
</svg>
